<?xml version="1.0" standalone="no"?>
<!DOCTYPE svg PUBLIC "-//W3C//DTD SVG 1.1//EN" "http://www.w3.org/Graphics/SVG/1.1/DTD/svg11.dtd" >
<svg xmlns="http://www.w3.org/2000/svg" xmlns:xlink="http://www.w3.org/1999/xlink" version="1.1">
<metadata>
Created by FontForge 20170731 at Wed Feb 10 14:56:48 2021
 By Aleksey,,,
Copyright (c) 2012 TypeSETit, LLC (typesetit@att.net),with Reserved Font Name "Great Vibes"
</metadata>
<defs>
<font id="GreatVibes-Regular" horiz-adv-x="686" >
  <font-face 
    font-family="Great Vibes"
    font-weight="400"
    font-stretch="normal"
    units-per-em="2048"
    panose-1="2 0 5 7 8 0 0 2 0 2"
    ascent="1638"
    descent="-410"
    x-height="705"
    cap-height="1700.5"
    bbox="-821.207 -819.186 3333.24 1741.57"
    underline-thickness="28"
    underline-position="-216"
    unicode-range="U+0020-FB04"
  />
<missing-glyph horiz-adv-x="2048" 
 />
    <glyph glyph-name=".notdef" horiz-adv-x="2048" 
 />
    <glyph glyph-name=".null" horiz-adv-x="0" 
 />
    <glyph glyph-name="nonmarkingreturn" horiz-adv-x="682" 
 />
    <glyph glyph-name="space" unicode=" " horiz-adv-x="530" 
 />
    <glyph glyph-name="exclam" unicode="!" horiz-adv-x="716" 
d="M1106 1251q-10 -27 -160 -252t-331 -492t-195 -288l-21 2l2 15l521 991q10 19 33 29t41 11.5t52.5 1t43.5 -0.5l10 -4zM414 55q-6 -35 -35 -59.5t-64 -24.5t-55 24.5t-14 59.5q4 35 33 59.5t65 24.5q34 0 55 -24.5t15 -59.5z" />
    <glyph glyph-name="quotedbl" unicode="&#x22;" horiz-adv-x="651" 
d="M678 1305q4 -20 -4.5 -75.5t-20 -104.5t-27.5 -113l-18 -72h-20l-17 340q-3 29 14.5 47.5t45.5 18.5q41 0 47 -41zM455 1307q11 -56 -68 -367h-20l-19 338q-2 26 17 47t45 21q39 0 45 -39z" />
    <glyph glyph-name="numbersign" unicode="#" horiz-adv-x="1527" 
d="M1473 952l-58 -98h-305l-170 -289h330l-60 -96h-329l-285 -469h-109l281 469h-283l-284 -469h-109l283 469h-324l62 96h319l172 289h-348l59 98h349l282 473h113l-287 -473h287l284 473h111l-285 -473h304zM999 854h-284l-174 -289h286z" />
    <glyph glyph-name="dollar" unicode="$" horiz-adv-x="919" 
d="M973 997q0 -55 -32 -95t-81 -40q-38 0 -65 28t-25 66q2 37 27.5 61.5t64.5 24.5q17 0 38.5 -11t25.5 -23q-14 98 -129 122l-240 -434q63 -82 100 -154.5t37 -148.5q0 -94 -50 -172t-128.5 -125.5t-168.5 -73.5t-177 -26l-57 -109l-70 -12l72 125q-197 35 -252 109
q2 14 37 49h18q86 -89 221 -115l305 557q-56 71 -89 132.5t-33 127.5q0 79 43 142.5t110.5 100t143 56t147.5 19.5l57 106l66 12l-68 -125q78 -13 115 -61.5t37 -112.5zM745 1139q-5 0 -14 1t-14 1q-98 0 -182 -66t-84 -162q0 -20 3.5 -38t13 -37.5t15 -30.5t21 -34.5
t20.5 -31.5zM565 356q0 90 -84 201l-288 -520q90 0 174 38.5t141 113.5t57 167z" />
    <glyph glyph-name="percent" unicode="%" horiz-adv-x="1271" 
d="M1270 1354l-1260 -1526h-76l-2 10q159 168 346 384.5t292 345t325 401.5q-307 -263 -446 -119q-93 -73 -179 -70q-75 2 -112 58t-32.5 140.5t44.5 176.5q61 142 174.5 243.5t214.5 100.5q146 -4 149 -144q3 -123 -95 -298q-63 -113 -126 -172q21 -37 58.5 -46t86.5 8
t102 49t112 79q51 40 205.5 210.5t165.5 176.5q3 2 11 3.5t17.5 2.5t17 -2.5t7.5 -11.5zM1004 657q130 -3 148 -122q17 -114 -67 -278q-80 -155 -196 -246q-93 -72 -174 -70q-75 2 -112 57t-32.5 139t43.5 176q61 143 175 245t215 99zM602 1430q-64 18 -147 -61.5
t-144 -207.5q-39 -85 -57.5 -156t-10.5 -118.5t44 -57.5q59 -17 139 50q-34 56 -31 100q0 38 17.5 63t52.5 25q26 0 43.5 -17.5t17.5 -43.5q0 -15 -4 -23q25 36 55.5 101t55.5 139t20 134t-51 73zM1069 354q73 208 -20 234q-65 20 -148.5 -59.5t-144.5 -206.5
q-40 -86 -58 -157.5t-10.5 -119t43.5 -57.5q87 -25 208 120q7 8 28 35q48 61 102 211z" />
    <glyph glyph-name="ampersand" unicode="&#x26;" horiz-adv-x="1241" 
d="M1497 860q35 -56 29 -107.5t-50 -95.5t-108 -76.5t-145 -50t-162 -16.5q47 -38 65.5 -91t7 -109.5t-43 -115t-88 -110t-125.5 -92.5t-158.5 -64.5t-183.5 -23.5q-275 0 -413 142q-109 111 -98 269q11 159 137 288q159 163 429 199q13 2 26 3q-57 79 -57 184q2 84 43 158
t106 126.5t146.5 90.5t166 55.5t161.5 16.5q46 -1 86.5 -10t77.5 -29t59 -56t22 -85q0 -60 -36.5 -106t-87.5 -46q-41 0 -70 29t-27 69q1 41 29.5 67.5t69.5 24.5q19 0 41 -11.5t26 -24.5q11 63 -30 91.5t-107 30.5q-88 2 -195 -40t-204 -127q-52 -46 -95 -112t-65 -145.5
t10 -144.5q9 0 71.5 3t98.5 1q43 -4 68.5 -24.5t27.5 -43.5t-24.5 -42t-77.5 -19q-117 0 -207 90q-188 -28 -307 -186q-102 -134 -111 -300q-10 -165 78 -265q84 -95 232 -95q103 0 197 39.5t156.5 100t100.5 129.5t41 131q3 65 -53 108.5t-139 53t-168.5 -2t-151 -57.5
t-76.5 -112q-8 -49 26.5 -99t109.5 -90q18 -9 18 -31q0 -18 -14 -13l-4 1q-87 47 -140.5 103t-69 109.5t1.5 104t63.5 88t126.5 60.5t181 23h363q41 0 114 18.5t148.5 53t110 83t-1.5 109.5q-11 17 0 25t22 -9zM854 784q-71 5 -152 2q48 -61 148 -61q47 0 62 13.5t-3.5 28
t-54.5 17.5z" />
    <glyph glyph-name="quotesingle" unicode="'" horiz-adv-x="323" 
d="M385 1032q0 -47 -19.5 -88.5t-51.5 -70t-65 -47.5t-69 -31q-13 -4 -19 0t-2.5 11t15.5 11q62 22 106 67.5t52 110.5q-30 -20 -60 -20q-34 0 -54.5 25.5t-14.5 60.5q6 34 34.5 59t63.5 25q41 0 62.5 -34t21.5 -79z" />
    <glyph glyph-name="parenleft" unicode="(" horiz-adv-x="716" 
d="M1016 1546q46 11 48 -7q1 -15 -28 -29l-20 -7q-113 -30 -216 -86.5t-182 -128.5t-145.5 -151.5t-115 -164t-81 -155t-53.5 -135.5q-46 -142 -53 -283.5t23 -251.5t106 -173t186 -50q35 4 38 -14q3 -15 -25 -25q-11 -4 -27 -6q-108 -13 -200.5 42t-147.5 161.5t-70.5 256
t31.5 325.5q24 91 81.5 195.5t146 210.5t195 199.5t240 167.5t269.5 109z" />
    <glyph glyph-name="parenright" unicode=")" horiz-adv-x="1060" 
d="M1008 778q-24 -91 -81 -195.5t-145.5 -210.5t-195.5 -199.5t-240.5 -167.5t-269.5 -109q-46 -11 -47 7q-2 15 28 29l21 7q133 35 253.5 110t205 163t154.5 192t111 190.5t66 165.5q46 142 53 283t-22.5 251t-105.5 173.5t-185 50.5q-37 -4 -40 14q-2 14 24 24l29 7
q108 13 200.5 -42t147.5 -161.5t70.5 -256t-31.5 -325.5z" />
    <glyph glyph-name="asterisk" unicode="*" horiz-adv-x="882" 
d="M803 797q31 0 32 -21q0 -22 -31 -36q-18 -8 -40 -9l-270 -10q63 -130 108 -215q8 -17 -5.5 -42.5t-33.5 -31t-39 24.5l-102 229l-223 -244q-14 -14 -40 -7.5t-35 26t15 47.5l205 207l-270 -10q-18 -1 -32.5 22t-7 46.5t41.5 23.5h297q-58 132 -117 256q-17 32 4 43
t48 -15q10 -11 18 -26l120 -236l238 240q26 27 39 8q15 -22 -8 -60q-7 -11 -17 -22l-174 -188h279z" />
    <glyph glyph-name="plus" unicode="+" horiz-adv-x="937" 
d="M944 487q22 -1 31 -14.5t-1 -27t-36 -13.5q-96 0 -272 -12q-6 -36 -25.5 -141t-22.5 -140q-2 -18 -40 -29q-45 -14 -57 8q-4 8 -1 21q5 24 31 124t39 153q-48 -4 -153.5 -10t-135.5 -9q-16 -2 -21 25q-7 39 16 62q12 12 30 12q23 0 127 -3t157 -4q61 259 72 297
q8 32 34 42q22 8 24 -15q1 -7 -1 -18q-14 -59 -61 -306q40 -1 131 -1t135 -1z" />
    <glyph glyph-name="comma" unicode="," horiz-adv-x="313" 
d="M233 41q0 -91 -66.5 -157t-146.5 -93q-18 -7 -21 4q-4 12 15 18q1 1 2 1q61 20 105 66.5t51 111.5q-28 -21 -57 -21q-35 0 -55.5 24.5t-14.5 59.5q4 35 33 59.5t65 24.5q42 0 66 -28t24 -70z" />
    <glyph glyph-name="hyphen" unicode="-" horiz-adv-x="831" 
d="M795 432q-54 0 -103.5 -2t-108 -7t-82.5 -7t-93 -10.5t-72 -8.5q-14 -2 -26 23t-6.5 50.5t32.5 25.5q93 0 450 -9q32 -1 42 -25q8 -21 -17 -28q-7 -2 -16 -2z" />
    <glyph glyph-name="period" unicode="." horiz-adv-x="425" 
d="M379 55q-6 -35 -34.5 -59.5t-63.5 -24.5t-55.5 24.5t-14.5 59.5q4 35 33 59.5t65 24.5q34 0 55 -24.5t15 -59.5z" />
    <glyph glyph-name="slash" unicode="/" horiz-adv-x="1122" 
d="M1430 1638q27 34 74 31q37 -3 40 -25q2 -14 -12 -30q-100 -115 -330.5 -400.5t-428 -530.5t-397.5 -469.5t-286 -281.5q-39 -25 -53 -10q-13 13 13 38l5 5q42 37 106.5 106.5t160 183t179 215t219.5 272.5t223 280t248 313.5t239 302.5z" />
    <glyph glyph-name="zero" unicode="0" horiz-adv-x="1028" 
d="M1034 958q0 -97 -37 -226t-105 -260t-153.5 -242.5t-194 -182t-214.5 -70.5q-109 0 -166.5 77t-57.5 190q0 92 43 216.5t118.5 250t167.5 233t201 175t208 67.5q100 0 145 -62t45 -166zM956 997q0 150 -110 150q-76 0 -166 -78.5t-167.5 -199t-143 -254t-103 -254
t-37.5 -189.5q0 -154 125 -154q67 0 141.5 55.5t139 143.5t124.5 198t103 218.5t68.5 205.5t25.5 158z" />
    <glyph glyph-name="one" unicode="1" horiz-adv-x="774" 
d="M872 1153l-10 -20l-612 -1123q-7 -4 -22.5 -7t-28.5 -4t-32 -2t-24 -1q-2 0 -9 2t-9 2l-2 12q107 190 302 539t251 448q-160 -145 -334 -251h-8l-8 16l4 12q10 8 29 22q82 62 125.5 96t106.5 89.5t114 108.5q58 63 92 67l63 6q4 2 12 -2v-10z" />
    <glyph glyph-name="two" unicode="2" horiz-adv-x="999" 
d="M1030 1010q0 -40 -27 -94t-65.5 -105.5t-102 -118.5t-116 -117t-129 -116.5t-118.5 -101.5t-108 -88.5t-75 -61.5q230 -117 280 -117q51 0 102 35.5t86.5 74t43.5 40.5l14 -13v-8q-31 -38 -64.5 -73t-79.5 -77.5t-93.5 -68t-85.5 -25.5q-20 0 -69 16.5t-93.5 35.5
t-96.5 42t-61 27l-143 -112l-27 16q3 10 97.5 114t103.5 107q31 5 45 -2q639 571 639 807q0 90 -99 90q-56 0 -111 -30.5t-97.5 -79t-75.5 -101.5t-53 -106l-9 -8h-24l-4 12q25 69 65.5 134.5t94.5 120.5t125 88.5t145 33.5q81 0 133.5 -45t52.5 -125z" />
    <glyph glyph-name="three" unicode="3" horiz-adv-x="937" 
d="M995 1057q0 -225 -454 -387q49 0 94.5 -9.5t88 -29.5t68 -59t25.5 -91q0 -90 -62 -184t-153.5 -163t-197.5 -113t-193 -44q-123 0 -191 50v10l15 12l10 4q65 -30 143 -30q77 0 165 44t159.5 111.5t118.5 154t47 165.5q0 60 -40.5 93.5t-102.5 33.5q-35 0 -144 -29l-14 6
l-2 19l8 10q54 21 107.5 46.5t122 67t119.5 85t86.5 100.5t35.5 114q0 74 -80 74q-120 0 -282 -182h-11l-14 12v10q184 226 373 226q67 0 111 -31t44 -96z" />
    <glyph glyph-name="four" unicode="4" horiz-adv-x="950" 
d="M993 1151q1 -11 -22 -40t-64.5 -72.5t-92 -93t-113 -107.5t-118.5 -110t-118 -107.5t-102.5 -91.5t-79.5 -71t-43 -38l444 8l133 258q4 8 10 14.5t15 10t16.5 6.5t20.5 4.5t18.5 2t20 1t16.5 0.5l12 -6l2 -12q0 -7 -60.5 -126t-76.5 -147h49l12 -8l-10 -23l-14 -10
l-60 -2q-3 -7 -52 -107t-89.5 -179t-50.5 -89q-7 -7 -61.5 -18.5t-69.5 -11.5l-10 2v8q0 15 204 389l-497 -12v16q6 12 8 14q50 63 165.5 179.5t153.5 160.5q177 201 277 334q20 26 36 41.5t37.5 24t34 11.5t47.5 8t56 9l14 -6z" />
    <glyph glyph-name="five" unicode="5" horiz-adv-x="911" 
d="M1038 1180q-33 -88 -119.5 -130t-179.5 -39.5t-186 4.5h-8t-7.5 0.5t-7.5 0.5l-225 -391q60 40 134.5 66t140.5 26q90 0 147 -45t57 -133q0 -82 -43.5 -167t-115.5 -155t-158 -126t-177.5 -87t-168.5 -31q-110 0 -146 25v14l13 15l8 4q53 -19 127 -19q83 0 178 49.5
t170.5 124t125.5 169t50 177.5q0 63 -35 97.5t-98 34.5q-45 0 -88.5 -17t-102.5 -52.5t-79 -45.5l-13 4v12q14 41 161 297t167 273q42 16 109 16t127.5 -7.5t126.5 0.5t108 40z" />
    <glyph glyph-name="six" unicode="6" horiz-adv-x="862" 
d="M887 1182q-2 -2 -5 -8.5t-5 -8.5q-21 -23 -73 -63.5t-67 -54.5q-141 -130 -264 -289q-47 -63 -91.5 -132.5t-88 -152.5t-70 -167.5t-26.5 -153.5q0 -55 29.5 -91t82.5 -36q69 0 141 57t124.5 138.5t86 170.5t33.5 154q0 82 -69 82q-48 0 -97 -34t-87.5 -87.5t-66.5 -105
t-46 -99.5l-9 -10l-20 -2l-4 12q21 84 74 171.5t136 152.5t169 65q69 0 107 -45.5t38 -116.5q0 -113 -80 -243t-203.5 -219t-238.5 -89q-102 0 -161.5 59t-59.5 161q0 107 55 229t138 229t192.5 215.5t207 187.5t191.5 144l12 2z" />
    <glyph glyph-name="seven" unicode="7" horiz-adv-x="999" 
d="M1184 1151l-4 -14q-57 -66 -117.5 -130.5t-161 -168t-123.5 -127.5q-216 -227 -459 -535q-4 -4 -37.5 -47t-64 -80t-35.5 -39q-16 -7 -40.5 -11t-62.5 -6t-44 -3l-12 6l-3 8q7 28 145 172.5t332 333t323 312.5t202 192q-37 1 -150.5 4.5t-175.5 3.5q-50 0 -88 -15
t-58.5 -36.5t-36 -43t-30 -37t-30.5 -16.5l-7 5v12q31 61 51 96t47 69t51.5 50t61.5 29.5t80.5 17.5t106.5 4q179 0 291 -14q27 20 41 20z" />
    <glyph glyph-name="eight" unicode="8" horiz-adv-x="860" 
d="M944 1024q0 -49 -22 -102.5t-50.5 -95.5t-77.5 -93.5t-79.5 -79.5t-79.5 -71q25 -56 32 -104t7 -126q0 -99 -62 -187t-157 -138t-193 -50q-96 0 -164.5 53t-68.5 146q0 46 20 96t57.5 99t76 90.5t93 87.5t89 73t81.5 62q-34 75 -34 164q0 133 105 233.5t239 100.5
q82 0 135 -39.5t53 -118.5zM870 1026q0 54 -29 84.5t-83 30.5q-86 0 -149.5 -69.5t-63.5 -156.5q0 -89 76 -290q99 80 174 188.5t75 212.5zM543 322q0 116 -86 323q-334 -248 -334 -475q0 -69 37 -109.5t106 -40.5q112 0 194.5 94t82.5 208z" />
    <glyph glyph-name="nine" unicode="9" horiz-adv-x="890" 
d="M897 934q0 -109 -51 -229.5t-130 -224.5t-183 -206.5t-200 -179t-192 -139.5h-12l-10 18l8 13q496 350 627 864q20 78 20 147q0 142 -112 142q-70 0 -143.5 -50t-127.5 -122.5t-88.5 -156.5t-34.5 -151q0 -52 25.5 -83t77.5 -31q162 0 280 284l8 7l23 -2l2 -11
q-24 -61 -60.5 -125t-86 -127.5t-113 -104t-127.5 -40.5q-68 0 -106.5 45t-38.5 115q0 84 52.5 190t130.5 195t177 150t184 61q99 0 150 -72.5t51 -175.5z" />
    <glyph glyph-name="colon" unicode=":" horiz-adv-x="524" 
d="M520 514q-6 -35 -34.5 -59.5t-63.5 -24.5t-55.5 24.5t-14.5 59.5q4 35 33.5 59.5t65.5 24.5q34 0 54.5 -24.5t14.5 -59.5zM295 55q-4 -35 -33 -59.5t-65 -24.5q-34 0 -55 24.5t-15 59.5t34.5 59.5t63.5 24.5t55.5 -24.5t14.5 -59.5z" />
    <glyph glyph-name="semicolon" unicode=";" horiz-adv-x="522" 
d="M520 514q-6 -35 -34.5 -59.5t-63.5 -24.5t-55.5 24.5t-14.5 59.5q4 35 33.5 59.5t65.5 24.5q34 0 54.5 -24.5t14.5 -59.5zM309 29q0 -48 -19.5 -89.5t-51.5 -70t-65 -47.5t-69 -31q-19 -7 -22 4q-2 12 16 19q61 20 105 66.5t53 111.5q-32 -21 -59 -21q-34 0 -55 24.5
t-15 59.5t34.5 59.5t63.5 24.5q41 0 62.5 -33t21.5 -77z" />
    <glyph glyph-name="less" unicode="&#x3c;" horiz-adv-x="673" 
d="M682 608q-17 -27 -82 -79t-154.5 -114t-95.5 -67l-2 -278l-10 -21l-14 -6q-11 0 -17 6q-17 43 -30.5 96.5t-26.5 120.5t-21 101q4 2 120.5 75.5t211.5 130.5t105 56l14 -6z" />
    <glyph glyph-name="equal" unicode="=" horiz-adv-x="937" 
d="M838 659q0 -22 -35 -22q-146 0 -309 -16q-7 -1 -67 -10t-91 -9q-17 0 -26 21t-9 39q0 16 9.5 27t25.5 11h301q201 0 201 -41zM838 455q0 -23 -35 -23q-146 0 -309 -16q-7 -1 -67 -10t-91 -9q-17 0 -26 21t-9 39q0 16 9.5 27.5t25.5 11.5h301q201 0 201 -41z" />
    <glyph glyph-name="greater" unicode="&#x3e;" horiz-adv-x="673" 
d="M508 307l-420 -262l-14 -2q-9 0 -17 4l-2 8q0 9 18 28t47 43t63 50.5t70 52.5t64.5 46.5t48.5 34.5l21 14l2 278q2 3 5 10t5 9l17 8l18 -8q17 -43 30 -96t25 -120t19 -98z" />
    <glyph glyph-name="question" unicode="?" horiz-adv-x="782" 
d="M868 909q-49 -56 -129 -134.5t-129.5 -129.5t-106.5 -136t-93 -181q-8 -19 -25.5 -12.5t-13.5 26.5q14 59 44 121.5t81 134t87 118.5t105.5 131t93.5 114q52 65 67 121t-4.5 90t-58.5 52t-96 12t-115 -34q-49 -25 -84.5 -65.5t-29.5 -75.5q10 41 71 74q35 18 64 17
t44.5 -20t20 -43.5t-7.5 -53.5t-39 -50q-39 -30 -81.5 -32.5t-69.5 20t-38 62t13 93.5q29 63 150 136q70 40 141.5 54.5t129 5.5t95 -43t46.5 -84.5t-23.5 -126t-108.5 -161.5zM414 55q-6 -35 -35 -59.5t-64 -24.5t-55 24.5t-14 59.5q4 35 33 59.5t65 24.5q34 0 55 -24.5
t15 -59.5z" />
    <glyph glyph-name="at" unicode="@" horiz-adv-x="1957" 
d="M1929 905q16 -196 -86 -383.5t-268 -320.5q-55 -44 -155.5 -76.5t-176.5 -32.5q-29 -2 -57.5 5t-59 26.5t-47 56t-20 93t21.5 137.5q-89 -147 -186 -242q-117 -112 -211 -83q-74 23 -99 125q-34 138 42 323q57 137 166 268q78 93 189 149t225 51.5t184 -81.5
q25 -29 15 -54.5t-42 -19.5q-21 71 -86 87.5t-135 -24.5q-85 -46 -177.5 -146.5t-164.5 -219.5q-29 -46 -63.5 -122t-43.5 -140q-17 -111 44 -127q56 -14 140 56q28 24 54 54q103 121 229 361q49 96 84 134t92 34q9 -1 48 -8.5t61 -4.5q-47 -45 -133 -209t-107 -272
q-30 -149 79 -162q85 -9 207 57q42 23 73 48q137 111 216 294t66 365q-8 95 -44 171.5t-91.5 127t-129 84.5t-153.5 49t-169 15q-136 0 -270 -41.5t-247.5 -113.5t-209.5 -174.5t-160.5 -220.5t-96 -255.5t-20.5 -274.5q8 -106 50.5 -194.5t108 -149t151 -102t179 -61
t193.5 -19.5q167 0 329.5 54t303.5 149q17 17 31 1q13 -15 0 -28q-4 -4 -9 -6q-323 -215 -669 -215q-116 0 -221.5 21t-201.5 67t-168.5 114.5t-119.5 169t-57 224.5q-11 144 26 286.5t111.5 262t181.5 222.5t231.5 174.5t266.5 112t282 40.5q96 0 186.5 -16.5t176.5 -54.5
t151.5 -93t108.5 -138t51 -184z" />
    <glyph glyph-name="A" unicode="A" horiz-adv-x="1458" 
d="M1761 1323q0 -47 -20 -96t-67.5 -100t-118.5 -93t-182.5 -74.5t-248.5 -44.5q-366 -32 -618 48q-73 -102 -160.5 -248.5t-136.5 -268.5q-44 -109 -58.5 -197.5t-1 -145.5t47 -93t87.5 -42.5t119 9t142.5 59t156.5 109.5q155 131 304.5 311.5t232.5 334.5q58 109 113 119
q37 7 51 -32q17 -50 -22 -112q-11 -17 -25 -33q-90 -101 -166 -252.5t-103 -296.5q-23 -129 -2 -189t69 -63t111 39.5t124 118.5q117 152 178 291q12 27 30 29q14 1 12 -16l-7 -21q-32 -72 -85.5 -165.5t-105.5 -162.5q-56 -75 -137.5 -125.5t-163.5 -50.5q-80 0 -121 64.5
t-41 152t21.5 174.5t56.5 133q-35 -42 -72.5 -82.5t-88.5 -91.5t-103 -94t-110.5 -85.5t-118 -72t-118.5 -47.5t-118.5 -16.5t-112.5 24.5q-97 41 -131 164.5t2.5 297t137.5 355.5q84 151 180 261q-137 65 -205 141q-42 49 -47 128t29 103q18 23 34 13q19 -12 3 -49
q0 -1 -1 -3q-15 -28 -11.5 -57t16.5 -52t38 -52q66 -74 181 -129q102 114 210.5 205.5t234.5 168t268 118.5t286 42q162 0 257 -72t95 -188zM1677 1348q0 88 -72.5 135t-189.5 47q-111 0 -216.5 -29.5t-190.5 -75.5t-172.5 -118.5t-153.5 -141.5t-143 -161q120 -38 255 -47
t330 8q254 22 403.5 126t149.5 257z" />
    <glyph glyph-name="B" unicode="B" horiz-adv-x="2131" 
d="M2183 999q-41 -70 -124.5 -119.5t-167.5 -70t-169 -23.5q58 -18 112.5 -42.5t113.5 -60t102 -84t59 -103.5q28 -94 7 -175.5t-75.5 -148.5t-137.5 -117.5t-177.5 -82.5t-195.5 -43.5t-193 -0.5q-317 40 -544 142q-245 -181 -523 -144q-161 20 -222 117q-48 76 -11 159
t137 115q121 38 281 -18q42 -16 143 -71t154 -81q75 72 149 186t140.5 240.5t135 257t159 270.5t186.5 247l116 133q-375 64 -784 -23q-275 -59 -446 -225q-127 -124 -146 -256q-18 -123 69 -189q31 -23 72 -36q90 -26 161.5 -5.5t118.5 66.5t71 91.5t20 70.5q0 8 15 12
q24 -2 28 -29v-2q-11 -74 -55.5 -134.5t-105.5 -92.5t-133.5 -42.5t-139.5 15.5q-155 54 -201 181q-47 129 33 275q87 161 286 267q166 89 380 119q433 62 807 -18q56 50 112 69q52 21 54 5q2 -13 -33 -35q-20 -13 -38.5 -30.5t-21.5 -25.5q181 -46 297 -119t155.5 -173
t-30.5 -218zM1929 1395q-76 37 -192 63q-89 -122 -205 -316t-207.5 -355.5t-204 -334t-205.5 -272.5l-77 -74q232 -97 497 -122q236 -22 420 96q139 88 192 219q56 137 -13 249q-45 73 -140 118q-65 32 -160.5 61t-153.5 49t-67 39q0 20 14.5 30t45 10.5t62.5 -2t83.5 -6
t91.5 -3.5q62 1 130 30t124 75t91.5 106t41 119.5t-36 119t-131.5 101.5zM707 109q-21 10 -68 33.5t-75.5 37t-73.5 32.5t-87 34q-139 48 -214 -12q-53 -43 -45 -111q8 -72 77 -111q43 -25 101 -28q208 -8 385 125z" />
    <glyph glyph-name="C" unicode="C" horiz-adv-x="1454" 
d="M1597 375q-77 -158 -143.5 -250t-185.5 -176q-110 -75 -233 -116.5t-272.5 -39t-291.5 63.5q-107 45 -182 120.5t-112.5 167t-50 197.5t2.5 214.5t47.5 214.5t83 201.5t111.5 172.5q-28 106 -32.5 225t23.5 244q4 17 16 26t21 -0.5t4 -35.5q-26 -149 17 -390
q164 212 385 307.5t467 67.5q274 -31 396 -194q98 -131 67 -302q-30 -166 -167 -291q-172 -157 -432 -174q-97 -6 -200 9q-367 53 -508 348q-15 -20 -37.5 -68t-49.5 -119.5t-46.5 -156.5t-32 -175t-3.5 -179t37.5 -165t93.5 -136t161 -90q163 -50 349 -27t337 113
q64 38 114 81.5t90 100.5t66.5 104.5t65.5 126.5q11 24 24 19q14 -5 2 -34q-1 -2 -2 -5zM1290 1511q-224 33 -444.5 -94.5t-376.5 -365.5q126 -323 498 -365q288 -32 482 105q139 100 183 252q43 151 -27 277q-80 142 -273 183q-20 5 -42 8z" />
    <glyph glyph-name="D" unicode="D" horiz-adv-x="2076" 
d="M2095 489q-11 -118 -58 -214t-118 -158.5t-162.5 -106t-193.5 -61t-210 -18t-212 17.5t-199.5 49.5t-173.5 75.5q-228 -184 -512 -148q-161 19 -222 116q-48 76 -12 158t136 115q121 40 282 -16q85 -32 312 -152q84 80 164.5 201t149 250.5t137 260.5t154 266t173.5 233
q-153 92 -332.5 122.5t-372.5 -7.5q-273 -58 -440 -228q-125 -126 -142 -262q-15 -125 71 -193q32 -25 75 -38q91 -25 159.5 -7.5t115 63.5t70.5 91t26 76q1 13 18 13q21 0 23 -21v-11q-11 -74 -54.5 -134.5t-104.5 -92.5t-133.5 -42.5t-139.5 15.5q-131 46 -190 162
q-63 127 -9 269q64 168 270 280q174 94 426 131q187 27 373.5 -5t347.5 -118q78 93 152 144.5t116 42.5q12 -3 15 -9.5t-2.5 -12t-12.5 -5.5q-25 0 -66 -46.5t-68 -88t-46 -76.5q218 -144 333 -371.5t87 -509.5zM1966 485q25 244 -67.5 455t-272.5 352q-60 -95 -228 -373
t-285 -452t-218 -283q-29 -32 -78 -73q98 -58 218.5 -90t242.5 -35.5t240 27t212.5 89t158 157.5t77.5 226zM698 106q-24 12 -70.5 35t-76 37.5t-74.5 33.5t-88 34q-134 46 -206 -17q-50 -44 -41 -113q9 -71 75 -108q38 -22 90 -24q211 -9 391 122z" />
    <glyph glyph-name="E" unicode="E" horiz-adv-x="1669" 
d="M1624 526q110 -59 88 -160.5t-160 -209.5q-154 -121 -395.5 -195t-492.5 -74q-150 0 -269 32t-192.5 86t-114.5 126t-44 150t28.5 159t93.5 153.5t160.5 133.5t220.5 98q112 32 207 35q-46 16 -89 40.5t-80.5 57t-59 74t-17.5 84.5q9 101 79.5 192.5t177 156t231 109.5
t247.5 62t221 6q115 -13 190.5 -50.5t103 -85.5t18.5 -104.5t-53 -108t-123 -95t-179 -65.5q-73 -17 -81 1q-5 10 23 22q21 10 52 13q46 5 94 35.5t84 74.5t53 95t8.5 96t-59 79.5t-139.5 43.5q-118 11 -251.5 -17.5t-246.5 -85t-195 -142.5t-99 -181q-10 -58 4 -102
t44.5 -70t71.5 -46t86 -30.5t87 -21.5t75 -21t50 -28.5t12 -44.5q-8 -28 -60 -34.5t-120 -0.5t-170.5 0.5t-188.5 -29.5q-78 -22 -146 -69t-115.5 -107.5t-75 -131t-30.5 -140.5t25 -135t83 -114.5t151.5 -79.5t224.5 -30q220 0 434 82t362 197q121 95 157 182
q35 83 -37 105q-3 1 -7 2q-49 12 -46 27q3 14 40 12q25 -1 49 -13z" />
    <glyph glyph-name="F" unicode="F" horiz-adv-x="2146" 
d="M2839 1171q-9 -64 -84 -101.5t-177 -22.5q-82 13 -170 42t-143.5 54t-108.5 51.5l-57 28.5q-46 -52 -92 -132.5t-69.5 -132.5t-64.5 -152t-46 -112q173 -22 385 -12q33 2 46 -5t1 -17.5t-43 -18.5q-53 -13 -195 -16t-219 6q-28 -76 -50.5 -132.5t-59 -134.5t-71.5 -136.5
t-86 -127.5t-104 -119t-124.5 -99t-149 -79.5t-174.5 -49.5t-205 -19q-118 0 -223 29t-187 81t-142.5 126.5t-91.5 163t-31 193.5t36 214q25 79 91.5 137.5t121.5 75.5q33 10 33 4q-2 -8 -72 -58q-26 -19 -43.5 -34.5t-43.5 -44.5t-43.5 -69t-26.5 -89q-21 -116 6 -218.5
t87.5 -175t144.5 -126.5t176 -81.5t184 -31.5q133 -6 257.5 34t226.5 112.5t194.5 178t164 224.5t132.5 258q-7 0 -52.5 1.5t-78 1.5t-85 -5.5t-91 -16.5t-78 -34t-62.5 -56q-18 -23 -29.5 -11.5t-3.5 30.5q27 60 70.5 100.5t91.5 59t110 23t115.5 0t120.5 -16.5
q64 157 160.5 323.5t136.5 212.5q-156 77 -288 126t-269 69q-274 41 -478 -93q-132 -88 -188 -216q-49 -114 -10 -191q15 -29 43 -47q108 -61 203.5 -38t160.5 75.5t64 85.5q1 29 22 45q17 13 19 -4q1 -11 -6 -33q-21 -72 -77 -124.5t-124.5 -75t-143.5 -18t-136 39.5
q-119 68 -130 203q-11 133 83 263q105 146 288 206q204 68 445 0q157 -42 299.5 -106.5t249.5 -131.5q9 10 12 13.5t15.5 14.5t21 16.5t24 13t29.5 10t32.5 2.5t37.5 -6q31 -9 36 -41q4 -24 -10 -25q-11 -1 -26 16q-58 22 -123 -38q60 -32 153.5 -66t203 -62t199 -18
t116.5 68q10 23 19.5 33t14.5 5.5t6.5 -17t-3.5 -32.5z" />
    <glyph glyph-name="G" unicode="G" horiz-adv-x="1431" 
d="M1577 -229q38 -9 43 -26q3 -11 -13.5 -14.5t-45.5 3.5q-68 18 -201 28.5t-260 8.5q-55 -79 -129 -152.5t-153.5 -131t-168 -106.5t-172 -79.5t-164.5 -50t-146 -17.5t-116 18q-165 60 -147 166q16 95 168 192q184 118 447 169q36 7 73 12q194 29 434 33q78 133 127 249.5
t80 254.5l8 34q-29 -28 -68 -59t-95 -69t-116 -70.5t-132 -60t-142.5 -42.5t-147.5 -12.5t-147 25.5q-131 45 -213.5 181.5t-87 333.5t104.5 433q-81 84 -115 183t-9.5 208.5t115.5 202.5q24 26 38 19q12 -6 -11 -36q-66 -83 -84 -175.5t8 -178.5t90 -162q7 16 45 80
q106 173 270 298t345.5 178t345.5 28q228 -35 331 -175q87 -119 51 -266q-38 -153 -194 -263q-215 -153 -561 -158q-148 -3 -293.5 35.5t-244.5 105.5q-66 -142 -87.5 -278t-1 -241.5t79.5 -181t148 -104.5q142 -40 289 -0.5t264 118t147 149.5q69 161 150 186q51 16 80 -27
q19 -29 14 -67q-20 -160 -88 -317t-191 -359q250 -3 449 -53zM1245 1606q-137 20 -294.5 -39t-299 -179t-237.5 -276q-42 -67 -64 -113q97 -73 244 -109.5t301 -21.5q301 31 484 184q134 112 155 246q20 129 -74 216q-78 71 -215 92zM993 -231q-207 -6 -377 -33
q-195 -30 -389 -137q-162 -90 -208 -172q-48 -84 65 -116q9 -3 20 -5q70 -16 183 7.5t238.5 78.5t254 155t213.5 222z" />
    <glyph glyph-name="H" unicode="H" horiz-adv-x="2828" 
d="M3119 1536q-16 -8 -60.5 -69.5t-103.5 -160.5t-131 -254.5t-129 -322.5q125 0 164 14q30 11 36 3t-20 -27q-66 -46 -198 -55q-1 -4 -32.5 -100t-48 -157t-37 -151t-17.5 -151t28 -89q21 -22 51 -23t64 23q115 86 256 371q11 21 23.5 27t15 -5.5t-7.5 -35.5
q-76 -162 -126.5 -238t-123.5 -147q-54 -53 -116 -68t-116 12q-30 15 -48.5 45t-23.5 71t-4 84.5t12 98.5t22 100.5t29.5 102t30.5 91.5t28.5 80.5t21.5 58.5q-90 0 -694 26q-49 -146 -120.5 -283.5t-171 -265.5t-215 -227.5t-259 -167.5t-297.5 -88q-140 -18 -274.5 3
t-244.5 78t-186.5 148t-101 214.5t13.5 277.5q25 93 110 175.5t140 84.5q20 0 24.5 -5.5t-2.5 -12.5t-18 -11q-61 -26 -127 -116.5t-82 -206.5q-14 -107 14 -195t85.5 -145t135 -96.5t164 -55.5t171 -16t157.5 16q695 157 977 899q-54 0 -123 -32q-55 -24 -63 -5q-3 8 8 27
q15 25 52 49.5t75 28.5h80q66 167 156.5 363t142.5 300q-48 -5 -121.5 -11.5t-126.5 -11t-123.5 -13t-123 -19t-116 -28.5t-111 -41t-98 -57.5t-88 -77.5t-70 -101t-54.5 -127q-21 -66 -19 -128t23.5 -108t59.5 -77.5t90 -36t114 15.5q43 16 79.5 55.5t57 85.5t35.5 94.5
t14.5 82t-6.5 47.5q-16 23 -1 31q14 7 25 -12q2 -2 3 -5q37 -88 14.5 -172.5t-83.5 -151.5t-136 -94q-60 -22 -120.5 -20t-110 25.5t-92 63t-66 93t-32 115t10.5 129.5q19 76 55 139t81 108.5t105.5 82t121.5 60.5t137 42t142.5 27t148 16.5t144.5 11t139.5 8t126.5 9.5
q21 38 68 94t89 69q47 13 82 -1.5t35 -55.5q0 -45 -44.5 -81t-98.5 -53t-99 -17q-35 -67 -91 -209t-111 -292t-62 -167q153 0 396 -17.5t298 -17.5q15 43 43 113t81 191t105 221.5t112 183.5t106 98q81 29 117 27q24 -2 -21 -25zM2292 1579q-23 12 -109 -98q122 19 131 65
q4 22 -15 31q-3 2 -7 2z" />
    <glyph glyph-name="I" unicode="I" horiz-adv-x="1867" 
d="M2449 1649q1 -30 -11.5 -53.5t-38 -40.5t-48.5 -27.5t-59 -22.5q-13 0 -45.5 -9t-40.5 -9q-67 -123 -121.5 -266.5t-91.5 -266t-80 -248t-110 -256t-158 -247.5q-165 -212 -372.5 -338t-436.5 -164q-173 -29 -327 -16.5t-270 64t-189.5 139t-85 209.5t43.5 276
q36 95 131 180t150 88q15 1 21 -2t3.5 -8t-8.5 -10t-14 -9q-64 -28 -141.5 -120.5t-106.5 -208.5q-27 -111 -5 -198.5t79 -151.5t139 -106t175.5 -62t188 -19.5t177.5 21.5q123 31 239 90t208 131t176.5 161t147 175.5t117 179t89.5 167.5t61 144q79 209 166.5 389.5
t140.5 272.5q-99 -21 -168 -38t-172.5 -48.5t-177.5 -64.5t-160 -84t-144.5 -108.5t-106.5 -137t-68 -171.5q-34 -150 37.5 -232t201.5 -32q75 30 121.5 87.5t58 113.5t9 100.5t-16.5 57.5q-4 5 4 17t19 15t20 -14q58 -112 -12.5 -243.5t-200.5 -180.5q-64 -25 -128 -23.5
t-114 27t-88 69.5t-49.5 104.5t1.5 133.5q115 526 1167 705q18 37 66.5 95t91.5 73q46 15 80.5 2.5t35.5 -51.5zM2351 1640q-22 9 -110 -102q127 26 134 72q3 19 -16 28q-4 2 -8 2z" />
    <glyph glyph-name="J" unicode="J" horiz-adv-x="1978" 
d="M2601 1585q-1 -30 -14.5 -53t-40.5 -39.5t-50 -25.5t-61 -21q-13 0 -46.5 -8t-41.5 -8q-72 -124 -136 -278.5t-115 -304t-107.5 -306t-139 -331.5t-184.5 -333q-86 -134 -210 -248.5t-253.5 -189.5t-253 -122.5t-227.5 -61.5q-218 -30 -400.5 4t-297 125t-147.5 236
t48 337q39 93 137.5 175.5t153.5 84.5q30 1 23 -11q-6 -9 -25 -18q-65 -26 -145.5 -116.5t-112.5 -204.5q-27 -96 -17 -175.5t50 -142t100.5 -109t136.5 -77t157 -45t162 -14t152 15.5q523 116 923 789q126 211 289 579q38 84 50 111q158 349 328 622q-106 -17 -221.5 -51.5
t-242 -94t-230 -133t-179 -176t-94.5 -216.5q-22 -145 43.5 -222.5t191.5 -31.5q62 22 106.5 63.5t64 86t28 88t4.5 74.5t-14 42q-21 13 -8 27q14 15 36 2q8 -4 15 -13q31 -83 8 -166t-89.5 -153.5t-152.5 -100.5q-66 -20 -126 -19.5t-110 28t-84 70t-47.5 104.5t-2.5 133
q16 98 68 186t125 154.5t169 124t194.5 97.5t205.5 71.5t198.5 50t177.5 29.5q23 39 72.5 94.5t93.5 68.5q46 14 80.5 0t34.5 -53zM2503 1579q-5 2 -12 0t-16 -9t-17 -13.5t-20 -18.5t-19 -19.5t-19 -20t-16 -17.5q130 22 139 68q4 20 -14 29z" />
    <glyph glyph-name="K" unicode="K" horiz-adv-x="2342" 
d="M3320 1671q-118 -196 -301 -394t-373 -348.5t-374.5 -257.5t-317.5 -141q-8 -10 -2 -73t42 -191t83 -235q138 -320 366 -320q130 0 250 55.5t174 159.5q10 25 25 29q12 2 12 -11q1 -13 -10 -34q-56 -114 -194 -200.5t-267 -86.5q-161 0 -290.5 106t-207.5 277
q-33 73 -58 154.5t-37.5 150.5t-18 128t-1.5 94t15 40q46 -4 164.5 48.5t284 156.5t339.5 238t350 315.5t296 366.5q22 34 42 38t22 -16.5t-13 -48.5zM2271 1638q67 20 103 -18q32 -34 7 -81q-37 -72 -174 -100l-61 -9q-52 -94 -106.5 -229.5t-96 -263t-98.5 -275
t-114.5 -275t-143.5 -252.5t-185.5 -219t-240.5 -162.5t-309 -93.5q-139 -21 -279 -1.5t-257.5 76.5t-202 149.5t-113.5 216.5t8 278q18 68 66.5 126.5t94 87.5t75.5 32q15 2 21.5 -3.5t3.5 -13.5t-11 -12q-17 -7 -44.5 -30t-61.5 -60.5t-62 -96t-37 -122.5
q-12 -92 6.5 -171.5t60.5 -136.5t101.5 -101t129 -69.5t143.5 -38.5t145 -12t133 15q121 28 231 78.5t195.5 111t164 141t135 155t112 167.5t90.5 164t74 158q220 495 311 677q-43 -5 -139.5 -13.5t-158 -15t-146 -20.5t-150.5 -33q-245 -68 -369 -249q-94 -136 -86 -281
q6 -124 84 -182q80 -61 201 -17q65 24 109.5 92t59 146t1.5 145q-2 12 8 12q18 -2 29 -26q25 -76 7.5 -156.5t-73.5 -151.5t-127 -97q-156 -57 -278 23q-101 66 -133 193q-37 149 43 294q105 189 372 281q61 21 127 36q100 22 210.5 35t257 22.5t180.5 12.5q21 38 68 94
t89 69zM2273 1505q51 24 55 57q3 22 -18 24q-20 3 -47 -19q-27 -20 -80 -86q59 9 90 24z" />
    <glyph glyph-name="L" unicode="L" horiz-adv-x="1458" 
d="M1960 1604q13 -150 -57.5 -310t-192 -288t-282.5 -221.5t-322 -120.5q-122 -251 -180 -353l-43 -69q168 -41 353 -121.5t318 -183.5q69 -54 118 -126.5t68.5 -139t20 -124t-19.5 -90.5q-21 -40 -51 -55q-22 -12 -35 -14.5t-16 2.5t-1 14.5t7 21.5t11 23q2 3 3 5t2 4.5
t2 4.5q19 41 21 108t-27.5 151.5t-93.5 140.5q-71 63 -158.5 110.5t-195 81t-186 52.5t-202.5 43q-173 -244 -362 -334q-171 -83 -314 -37q-101 32 -140 113q-43 90 19 180q73 108 267 166q106 32 255 37.5t259 -15.5q93 144 215 395q-107 -3 -200.5 22t-159 69.5
t-107.5 105t-54.5 126.5t8 134.5t72 129.5t146 112t221.5 80q57 13 67 -3q7 -11 -21 -22q-18 -7 -42 -10q-87 -11 -162 -58.5t-118 -114.5t-65.5 -145t-3 -150.5t66.5 -129t146.5 -83.5t234.5 -11l174 438q159 409 378 542q131 80 247 41q75 -26 102 -87q8 -18 10 -37z
M1876 1559q-1 58 -48 71q-70 19 -181 -78q-162 -144 -332 -477q-96 -182 -180 -356q137 30 271.5 113t238.5 195t168 253t63 279zM741 162q-101 22 -214 20t-212 -28q-206 -53 -265 -150q-41 -68 6 -123q51 -60 161 -60q99 -1 209 52q168 80 315 289z" />
    <glyph glyph-name="M" unicode="M" horiz-adv-x="2721" 
d="M2814 -201q44 2 46 -12q1 -12 -31 -18q-21 -5 -48 -2q-25 2 -46.5 5.5t-59 14.5t-67 27t-62 46t-52.5 68.5t-30.5 97.5t-3.5 130q7 70 28.5 150.5t59.5 177.5t69 168.5t86 191.5t80 178q86 198 38 250q-43 45 -169 -47q-132 -96 -301 -307q-104 -128 -301 -439t-250 -438
q-43 -100 -114 -110q-45 -6 -69 23q-18 23 -3 46q2 5 35 64.5t67 124.5t82.5 178t88.5 229.5t77.5 275t56.5 318.5q10 77 -3 126t-43 63.5t-70.5 5t-89.5 -48t-97 -97.5q-232 -288 -355.5 -511.5t-336.5 -697.5q-31 -68 -47 -104q-19 -44 -82 -57q-55 -10 -79 13
q-13 13 -7 32q135 210 300.5 633.5t199.5 666.5q43 308 -118 384q-129 62 -350 -38q-205 -93 -389 -277q-185 -185 -253 -372q-81 -241 -38.5 -390.5t161 -206.5t256.5 -7q114 43 206 174q86 124 95 238q9 118 -77 147q-38 13 -93 6q-29 -3 -43 12q-15 16 25 26l28 5
q138 20 196 -71q54 -83 16 -212q-44 -149 -182 -261q-77 -63 -173 -103q-56 -23 -116 -27t-116.5 9.5t-108.5 44.5t-93 75t-68 105t-37 130t3 153.5t50 173.5q108 252 350 453q218 182 453 248q240 68 386 -17q172 -102 150 -390q0 -8 -1 -16q-19 -174 -107 -407
q-23 -66 -8 -66q12 -1 35 43q91 164 158.5 265t174.5 231q39 47 91.5 84t106.5 58.5t105 21t89.5 -22.5t58.5 -77.5t12 -139.5q-6 -63 -19 -134.5t-23.5 -119t-37 -136t-35.5 -117.5t-44.5 -136t-40.5 -123q169 263 405 557q225 281 406 366q130 60 188 -2q61 -66 10 -231
q-20 -68 -59 -145q-39 -78 -74.5 -154t-80.5 -181.5t-75 -199.5t-56 -194.5t-26.5 -180t17.5 -143.5t72.5 -97.5t140.5 -29.5z" />
    <glyph glyph-name="N" unicode="N" horiz-adv-x="2127" 
d="M2433 1368q-1 -85 -48.5 -207t-108 -233.5t-154.5 -287t-156 -310.5q-123 -270 -104 -437q14 -122 100 -137q52 -10 123 23q68 32 85 6q13 -19 -15 -47q-42 -39 -115 -37q-208 9 -271 145t21 385q27 81 143.5 322.5t220 471t117.5 321.5q12 68 -22 97.5t-94 21.5
t-134 -44q-238 -113 -454 -372q-69 -84 -139.5 -189t-122 -192t-115 -210.5t-96 -190.5t-89 -188.5t-71.5 -152.5q-21 -44 -84 -56q-56 -11 -79 14q-11 12 -7 30q99 145 275.5 538t242.5 683q36 162 12.5 257t-86 137t-157 36t-199 -45t-213.5 -107q-261 -162 -405 -416
q-121 -213 -118 -409q2 -173 103 -251q62 -48 152 -48q181 0 330 136q111 103 151 229q38 121 -17 181q-44 50 -143 37q-19 -2 -23.5 5.5t2.5 16.5t17 11q171 41 230 -52q49 -78 2 -211q-50 -141 -177 -249q-167 -143 -378 -143q-134 0 -234 83.5t-130 234.5t54 362
q70 169 222 319t339 252q86 47 181 77t190 42t178.5 -6t144.5 -62t90.5 -131.5t14.5 -208.5q-4 -33 -10.5 -66t-19.5 -73t-21 -64.5t-29 -73t-27.5 -64t-32.5 -72t-30 -64.5q-57 -125 -53 -125q1 0 27 44q25 43 36 59q118 184 271 368q273 329 485 426q74 35 148 47.5
t136.5 1t100.5 -59.5t37 -128z" />
    <glyph glyph-name="O" unicode="O" horiz-adv-x="1486" 
d="M1851 1120q-122 -190 -305 -307q-8 -99 -47 -219q-48 -147 -152.5 -291t-245 -253t-303 -154t-325.5 6q-87 28 -150.5 103.5t-94.5 178.5t-24 233.5t58 260.5q-144 96 -158 258q-25 246 151 423q149 149 388 203q246 56 470 -15q241 -76 355 -274q95 -163 86 -388
q205 137 267 258q9 20 27.5 18.5t11.5 -23.5q-3 -8 -9 -18zM1430 819q33 371 -158 568q-142 146 -366 161q-207 14 -392 -85q-179 -96 -256 -258q-64 -133 -41 -287q12 -95 82 -156q30 63 76 135t109 151t133.5 141t150 106.5t158 48t157.5 -36.5q15 -8 16 -16.5t-9 -12.5
t-23 0q-73 23 -159 -12t-161 -104t-146.5 -158t-120.5 -169t-77 -143q186 -87 479 -48.5t548 175.5zM1417 748q-255 -136 -547.5 -172t-496.5 45q-51 -133 -61.5 -261.5t31 -237t136.5 -155.5q182 -84 361.5 -2.5t323 255.5t216.5 382q29 86 37 146z" />
    <glyph glyph-name="P" unicode="P" horiz-adv-x="1822" 
d="M1974 1444q94 -56 147 -122t64 -132t-7 -135t-62.5 -132t-106.5 -121.5t-136 -106t-153 -83t-155 -53.5q-122 -30 -248 -42.5t-211 -6.5q-149 -221 -307 -373q-268 -252 -602 -211q-161 19 -223 115q-48 76 -12 157q37 83 138 116q120 39 281 -15q27 -10 26.5 -22.5
t-22.5 -7.5q-5 1 -10 3q-144 54 -233 -11q-63 -44 -66 -119q-4 -77 59 -122q45 -33 113 -36q241 -11 471 213q74 73 148 186.5t141 239.5t136.5 256.5t160 270.5t186.5 247q14 14 35.5 38t39 42t33.5 34q-186 24 -359 18.5t-314 -32.5q-84 -15 -171 -41.5t-184 -71
t-174 -99.5t-133.5 -133t-70.5 -165q-17 -105 44 -181t156 -79t183 70t124 178q4 23 16.5 21.5t12.5 -23.5q-1 -89 -53 -157t-128.5 -100t-158.5 -30q-62 2 -117 23t-98.5 59.5t-67.5 99t-20 136.5t37 144t84.5 120t121.5 97t143.5 76.5t156 57.5t152 41t137.5 25
q423 62 737 -2q71 55 153 86q50 20 54 6t-33 -37q-53 -37 -92 -76q132 -35 237 -98zM1927 1401q-90 60 -229 92q-114 -160 -296 -485t-267 -455q162 -6 364 55q109 33 208 90.5t172.5 127t120.5 149t58.5 155t-21 147.5t-110.5 124z" />
    <glyph glyph-name="Q" unicode="Q" horiz-adv-x="1540" 
d="M1083 1307q15 -8 16 -16.5t-9 -12.5t-23 0q-67 20 -149 -7t-160.5 -90.5t-156 -155t-136 -199t-101 -223t-50.5 -227t16 -210.5q35 -121 111.5 -185.5t173.5 -68t204.5 36t210.5 117.5q132 100 227 225t145 253t61.5 260.5t-15 250t-93 217.5t-164.5 168t-238.5 97
t-305.5 7q-118 -16 -205 -70t-133.5 -135.5t-59 -186.5t18.5 -224q8 -35 -10.5 -43t-38.5 30q-58 116 -46.5 228t71 203.5t164 156.5t231.5 86q198 31 356.5 16t267.5 -77t182.5 -150.5t103 -205t28 -240.5t-42.5 -257t-107.5 -254.5t-168 -232.5t-224.5 -192
q-103 -67 -218.5 -99t-226.5 -23.5t-204.5 76.5t-142.5 191q-37 92 -44.5 196.5t12.5 205.5t59.5 202.5t97.5 190t125 165.5t143.5 131t152.5 84.5t153 29t142 -38.5zM1362 -756q-147 0 -272.5 31.5t-213 81.5t-162.5 111t-134.5 122t-113.5 111t-114.5 81.5t-124.5 31.5
q-43 0 -87 -28t-48 -69q-2 -25 -15 -25q-14 0 -17 24l-1 14q3 46 53.5 95.5t114.5 49.5q74 0 144.5 -25t133.5 -67t128 -94t140.5 -109t158 -109t194.5 -96.5t236 -68.5q188 -36 263 45q55 60 22 155q-34 98 -140 166q-80 52 -182 68q-28 4 -33 22q-4 15 15 17q5 1 12 0
q204 -33 318 -148q89 -92 79 -190q-11 -101 -123 -154q-91 -43 -231 -43z" />
    <glyph glyph-name="R" unicode="R" horiz-adv-x="2097" 
d="M2245 383q-125 -274 -209 -365q-95 -103 -214.5 -102.5t-219.5 104.5q-65 68 -120.5 173.5t-90.5 217t-55 191.5t-31 146q-49 -97 -76.5 -149.5t-75 -134t-98.5 -150t-111 -134.5q-135 -146 -301 -211.5t-344 -42.5q-167 20 -232 117q-50 76 -14 158t137 115
q124 41 293 -17q26 -10 21 -22q-6 -11 -33 -3q-143 54 -231 -9q-62 -45 -64 -121q-3 -78 60 -124q45 -33 114 -36q59 -3 116 8.5t106.5 32.5t100 58.5t91.5 75t87 94t81 104.5t79 118t74.5 122t73.5 128q29 51 117.5 209.5t129.5 229t110.5 173t128.5 168.5
q-370 37 -762 -47q-247 -51 -400.5 -177.5t-183.5 -268.5q-14 -67 1 -122.5t49 -90.5t83.5 -53.5t102.5 -16t108 27t98 70.5q74 80 78 134q2 27 12 26q11 -1 14 -22q1 -5 1 -9q-15 -96 -80 -165q-50 -53 -116 -82.5t-131 -34t-127.5 16t-108.5 61.5t-70.5 109t-17.5 151
q8 83 57 165.5t135.5 156.5t222 130t299.5 80q419 60 781 10q81 88 84 40q1 -17 -9 -50q142 -23 203 -39q237 -69 292 -202q48 -115 -54 -238q-113 -136 -356 -218q-107 -36 -228 -56q-101 -15 -188 -19q7 -38 19.5 -90.5t39 -144.5t71 -193t97.5 -182q41 -63 78 -100
t80.5 -54.5t91.5 0t102 70.5q20 20 40 44.5t38.5 52t32.5 49.5t30 51.5t23.5 43.5t20.5 39l12 25q14 26 31 30q10 2 10 -9q0 -8 -6 -21zM1942 1454q-59 16 -201 39q-34 -60 -179 -295t-214 -373q45 8 132.5 15t125.5 12q198 25 354 144q128 99 160 211q34 123 -72 198
q-44 30 -106 49z" />
    <glyph glyph-name="S" unicode="S" horiz-adv-x="1845" 
d="M1843 1274q-53 -43 -137 -66q-33 -9 -40 7q-7 14 19 26q14 6 31 8q84 10 114 79q31 70 -13 147q-56 96 -192 127q-176 40 -429 -50q-74 -27 -132 -68t-91.5 -92.5t-38 -106.5t33 -113t117.5 -107q58 -35 231 -113.5t253 -128.5q121 -74 172 -167t37.5 -184t-72 -184
t-146 -172t-194.5 -143q-115 -68 -260 -108.5t-293.5 -50t-292 18.5t-256.5 87.5t-186.5 166t-81.5 245.5q-5 97 40.5 211t129 212t180.5 144q9 4 20 6.5t19.5 2.5t12 -3.5t-4 -13t-26.5 -23.5q-90 -71 -142 -153q-111 -172 -114 -383q-1 -105 40 -190t112.5 -138.5
t165 -88.5t200.5 -44t216 0t214 38.5t192 74.5q127 67 217 162.5t127 196t12.5 201t-114.5 173.5q-67 54 -275.5 142.5t-279.5 135.5q-88 59 -127 131.5t-28 142t54.5 136t117.5 119t163 84.5q158 55 351 59.5t307 -49.5q72 -36 110 -97t28 -129t-71 -118z" />
    <glyph glyph-name="T" unicode="T" horiz-adv-x="1880" 
d="M2867 1249q0 -58 -66.5 -88t-164.5 -18q-293 38 -516 131q-66 -106 -122.5 -238t-97 -251t-85.5 -239.5t-110 -240t-149 -215.5q-79 -90 -198.5 -155t-251 -94.5t-274.5 -32.5t-270 31t-237 95t-175 160t-84.5 226.5t34.5 293.5q36 113 130 182q64 48 103 40
q23 -6 19 -33q-8 -10 -41.5 -34t-64.5 -49.5t-62.5 -79t-42.5 -120.5q-21 -121 6 -227.5t89.5 -181t149.5 -128.5t183.5 -79t192.5 -23q424 11 696 307q85 92 186.5 270t175.5 340.5t144 311.5t96 184q-313 99 -620 113q-263 13 -450 -130q-133 -102 -178 -241
q-42 -131 16 -221q38 -59 112 -82q94 -27 168.5 -5.5t124.5 70t75.5 96t22.5 71.5v4q15 14 28 8.5t13 -25.5q-10 -80 -55 -144t-109 -98t-140 -44.5t-148 16.5q-141 49 -198 181q-57 133 -5 284q55 163 210 263q200 128 498 101q110 -9 239.5 -43t266 -81t162.5 -54
q27 35 75 80t77 45h-2q36 11 52 -17q14 -23 -1 -38q-12 -11 -37 -4q-5 4 -14.5 0.5t-24 -16.5t-23.5 -20.5t-26.5 -26t-18.5 -19.5q84 -27 182.5 -52.5t217.5 -48t196.5 -13t77.5 58.5q0 30 23 30q9 0 14.5 -16t5.5 -27z" />
    <glyph glyph-name="U" unicode="U" horiz-adv-x="1929" 
d="M2019 987q29 -14 37 -38.5t-4 -59.5t-27.5 -66.5t-40.5 -77.5t-38 -75q-78 -165 -123 -332q-23 -87 -36 -167.5t-14.5 -149.5t18 -109.5t60.5 -38.5q55 4 56 -16q0 -16 -26 -26q-21 -9 -44 -5q-55 10 -89.5 53.5t-47 100.5t-12 131.5t8 134t19.5 121.5
q-66 -109 -125 -185q-79 -102 -162.5 -169t-155.5 -90t-132.5 -13.5t-100.5 57.5t-53 125t12 189t74 233.5t101.5 238t103 238t70.5 199.5q26 104 33 190t-11 156t-65 98q-81 49 -199 51t-241 -36t-242 -107q-309 -181 -452 -448q-116 -218 -91 -425q21 -174 133 -266
q127 -103 315 -51q22 6 45 15q116 43 212 180q91 130 104 255q14 129 -71 166q-53 23 -140 3q-39 -9 -48.5 -6t-2 12t20.5 17.5t20 11.5q161 68 237 -16q63 -69 40 -208q-25 -154 -138 -288q-99 -117 -236 -175q-202 -86 -362 -1q-131 69 -187 227q-66 190 6 414
q91 281 370 501q104 82 229 150q178 98 352.5 123t314.5 -33q266 -114 174 -518q-20 -86 -69 -206.5t-100.5 -233t-100.5 -228.5t-76 -227t-18 -195q13 -116 91 -132q89 -18 217 102q75 70 149 178q82 119 212.5 378.5t131.5 260.5q31 55 61.5 81.5t52.5 26.5z" />
    <glyph glyph-name="V" unicode="V" horiz-adv-x="1996" 
d="M2114 797q-57 -151 -156.5 -305.5t-215.5 -281t-236.5 -224t-232 -145.5t-188.5 -34q-257 47 156 1033q36 86 66.5 170t57.5 186t36 183t-6.5 149t-61.5 96q-81 50 -191 54t-225 -31t-235 -103.5t-221.5 -157t-183.5 -198.5t-123 -221q-56 -161 -53.5 -280.5t52.5 -198.5
t124.5 -118.5t164.5 -39.5q111 0 222 70.5t181 181.5t70 221q0 44 -10 78.5t-32 60.5t-57.5 32t-86.5 -7q-43 -12 -42.5 0.5t32.5 27.5q88 39 152 22t99.5 -74t35.5 -136q0 -125 -95.5 -250.5t-234.5 -203t-266 -77.5q-145 0 -262.5 99t-155.5 267t53 390q54 123 146.5 235
t203 196t237.5 146.5t249.5 92.5t238.5 27.5t205 -41.5q72 -32 118.5 -87.5t63 -125.5t15.5 -150.5t-22.5 -168.5t-52 -172.5t-71.5 -168.5q-92 -188 -163.5 -405t-98.5 -369q-32 -182 66 -171q115 13 372 267q83 81 127 133q115 135 200.5 275t133 292t27.5 271
q-4 22 -8.5 38.5t-11 27t-11.5 17t-15 10.5t-14.5 5.5t-18.5 3t-19 2.5q-43 8 -52 33q-8 20 17 26q17 3 43 -3q27 -7 55 -23.5t58 -43t50.5 -66t32 -87.5t4 -113t-35.5 -138z" />
    <glyph glyph-name="W" unicode="W" horiz-adv-x="2752" 
d="M2757 461q-85 -215 -290 -388q-184 -155 -378 -204q-199 -51 -308 40q-83 70 -93 214q-8 132 41 293q-41 -67 -91.5 -141.5t-126.5 -171.5t-148.5 -172t-153 -128.5t-144.5 -56.5q-69 -3 -110 46.5t-33 166.5q8 121 73.5 312.5t192.5 494.5q47 114 82 218.5t64 227.5
t17.5 213t-67.5 125q-81 50 -188 53t-217.5 -34t-224.5 -107t-211 -160.5t-175.5 -201.5t-120.5 -223q-46 -124 -56.5 -229t10.5 -176t64 -121.5t102.5 -72.5t127 -21t135.5 26q119 44 211 181q87 129 95 255q8 128 -77 167q-48 23 -124 11q-43 -7 -43 7q3 14 39 26
q177 54 259 -34q68 -72 43 -207q-28 -151 -154 -283q-106 -111 -253 -173q-59 -25 -122.5 -29t-122.5 11t-112.5 49t-95.5 82t-69 113.5t-36 140t7 166t58 186.5q53 123 143 235.5t196.5 197.5t228.5 148.5t240.5 94.5t232 29t202.5 -41q361 -159 59 -842
q-94 -211 -180.5 -452t-114.5 -383q-14 -68 -3.5 -103.5t39.5 -35t71 23.5q70 41 150.5 133t157 209t144.5 230.5t139.5 233t116.5 181.5q31 43 60.5 66.5t50 22.5t33 -17.5t11 -54.5t-18.5 -87q-18 -52 -68.5 -167t-88.5 -218.5t-48 -179.5q-30 -235 105 -269
q112 -28 299 88q174 107 310 275q88 108 130 209q64 151 84.5 289.5t-1.5 241t-97 156.5t-193 38q-92 -25 -97 -2q-3 15 34 35q47 24 91 16q135 12 239 -84.5t132.5 -276t-65.5 -431.5z" />
    <glyph glyph-name="X" unicode="X" horiz-adv-x="1652" 
d="M2210 1573q-69 -67 -216.5 -173.5t-412.5 -288t-434 -302.5q-11 -540 31 -700q45 -167 155 -172q106 -4 233 136q113 126 195 314q11 25 30 27q12 2 13 -11q-1 -11 -8 -26q-160 -336 -354 -479q-149 -110 -266 -68q-109 39 -146 195l-2 10q-4 16 -6.5 38.5t-4.5 54.5
t-3 61t-1 76v80t1 91.5t2 92.5t2 101.5t2 100.5q-176 -127 -322 -244t-295.5 -253.5t-276.5 -283t-222 -296.5q-34 -55 -67 -80t-58 -25q-36 0 -25 40q7 27 35 65q417 578 1229 1155q1 103 1 189.5t-5 178.5t-17 171q-23 156 -178 161q-135 3 -314 -101q-148 -86 -222 -184
q-19 -26 -29 -48q-6 -5 -22.5 0t-23.5 19.5t13 45.5q8 13 51.5 52.5t116 94t153 105t174.5 86t169 35.5q47 0 84.5 -15t64 -43.5t46 -66t31 -87t19 -102t10.5 -116t4 -123.5t1 -129v-45q120 84 353 241t355.5 248t210.5 178q9 9 23 22.5t21.5 21t19 18.5t18 17t15.5 13.5
t15.5 11.5t13.5 8t13 5.5t11 1.5q12 0 21.5 -1.5t17.5 -8t8 -16.5t-12.5 -29t-38.5 -45z" />
    <glyph glyph-name="Y" unicode="Y" horiz-adv-x="1964" 
d="M2294 -59q14 -46 -24 -109t-124 -100q-50 -20 -140.5 -30.5t-162 -13t-207.5 -3.5q-98 -148 -249 -260.5t-318 -176.5q-234 -90 -426 -51q-135 27 -185 104q-51 80 18 167q62 77 208 137q190 78 403.5 104.5t481.5 26.5q199 491 280 792q-33 -71 -72 -141.5t-92 -150
t-118.5 -149.5t-132.5 -116q-52 -35 -110 -55t-113 -24t-104 11.5t-83.5 48t-50.5 90t-6 132.5q32 228 299 662q70 114 121.5 234t78 230t13.5 196t-70 122q-80 51 -189 55.5t-222.5 -31t-232.5 -104.5t-222 -158t-187 -198.5t-131 -220.5q-101 -255 -58.5 -404.5
t163.5 -203t260 -3.5q121 43 225 185q97 133 116 260q19 130 -63 167q-44 19 -114 7q-45 -9 -43 4q2 12 30 22q4 1 9 2q169 46 232 -47q53 -80 8 -221q-49 -154 -184 -281q-100 -94 -224 -145q-69 -28 -141.5 -30t-136.5 22.5t-119.5 69t-90.5 112.5t-49.5 148t4 181.5
t70.5 207.5q59 121 154 233t206 198t237.5 150.5t247 97t235 31.5t202.5 -41q108 -49 157 -140.5t39.5 -205.5t-52 -233t-115.5 -242q-265 -451 -320 -700q-19 -88 1.5 -142.5t66 -67.5t106.5 3t121 59q89 63 179 185t157.5 258.5t115 254t74.5 208.5q5 25 39 50q46 35 67 2
q27 -43 -5 -184q-62 -271 -161 -568t-204 -482q31 2 93.5 3t107.5 3t106 8t105 19t86.5 34t69 56t34.5 82q-4 28 6 31q8 2 18 -31zM1540 -315q-246 0 -451 -35t-372 -131q-182 -104 -169 -184q10 -58 117 -81q132 -29 299 14q38 10 74 23q149 56 282 155.5t220 238.5z" />
    <glyph glyph-name="Z" unicode="Z" horiz-adv-x="1386" 
d="M2142 1354q-30 -25 -82.5 -31t-110.5 2.5t-139 28.5q-65 -60 -156.5 -173.5t-202 -261.5t-161.5 -210q-34 -42 -71.5 -84.5t-69.5 -77.5t-73 -75.5t-68.5 -67.5t-70 -65.5t-64 -57.5t-65 -55.5t-57 -47.5t-55.5 -45.5t-47 -38.5q63 -27 162.5 -69t310.5 -120.5t308 -97.5
q52 -10 116 -14t141 3.5t141.5 28t112 67t56.5 112.5q7 44 26 52q14 6 20 -19q5 -22 1 -64q-3 -29 -14 -60.5t-44.5 -75t-83 -76.5t-138 -58t-201.5 -27q-84 -2 -214.5 37.5t-256.5 97.5t-240 115.5t-184 98.5l-70 41q-247 -176 -410 -142q-105 24 -147 110q-38 77 -3 152
q38 81 139 97q62 9 138 -11q106 -28 293 -147q532 622 692 817q208 244 437 430q-130 37 -275 59.5t-304 26.5t-277 -28q-53 -14 -104.5 -41.5t-89.5 -65.5t-54.5 -80t3.5 -89t81 -87q33 -22 30 -33t-24 -9.5t-31 3.5q-35 9 -82 62q-35 39 -49 94t2.5 117.5t62.5 117.5
t144 96t234 52q72 6 150 -1t170.5 -29.5t148.5 -38t165 -51t138 -44.5q129 101 227 137q41 14 78.5 14.5t63.5 -10.5t41.5 -31.5t17.5 -45.5t-13.5 -55t-48.5 -58zM2105 1370q29 18 37.5 54t-8 65t-51.5 29q-85 0 -242 -134q197 -56 264 -14zM569 86q-41 33 -61 47
q-126 71 -209 80q-113 12 -162 -47q-37 -46 -12 -100q28 -62 119 -78q29 -5 63 -4q68 3 142.5 33t119.5 69z" />
    <glyph glyph-name="bracketleft" unicode="[" horiz-adv-x="1198" 
d="M1194 1397q0 -14 -3 -22t-12 -11t-14 -3.5t-22 -0.5q-25 0 -76 4t-76 4q-77 0 -96 -10q-74 -37 -195.5 -201.5t-231 -358.5t-189.5 -384t-80 -275q0 -90 137 -90q24 0 73 4t74 4q30 0 58 -10.5t28 -34.5q0 -9 -7 -16t-20.5 -11.5t-27.5 -8t-35.5 -5.5t-37.5 -3.5
t-39.5 -2t-35 -0.5h-30.5h-21q-237 0 -237 92q0 122 64 303t160 358.5t200 336t192 260.5q37 43 60 65.5t56.5 46t71 33.5t85.5 10h41q186 0 186 -73z" />
    <glyph glyph-name="backslash" unicode="\" horiz-adv-x="1775" 
d="M1759 -70l-14 -12q-67 20 -161.5 102.5t-195.5 201t-218 264.5t-229 294t-229 289t-217.5 249.5t-194 174.5t-159.5 66q-17 0 -47.5 -13.5t-38.5 -15.5l-14 14q25 74 147 74q275 0 699 -567q65 -87 200.5 -274.5t213 -291.5t200.5 -253t240 -271q16 -20 18 -31z" />
    <glyph glyph-name="bracketright" unicode="]" horiz-adv-x="1138" 
d="M1122 1372q0 -192 -81 -449t-210.5 -491t-267.5 -373q-33 -33 -77.5 -53.5t-101 -28.5t-96 -10t-100.5 -2q-6 0 -27.5 -0.5t-36 0t-33.5 1t-33 3t-23 6.5q7 35 34.5 53t66 20.5t89 6t99.5 8.5t100.5 29t89.5 66q99 111 213 323.5t194 444t80 374.5q0 32 -6 62
q-23 8 -67 8q-38 0 -114 -4t-114 -4l-6 4q6 24 24.5 42.5t48.5 29t55 17t64.5 8.5t56.5 2.5t50 0.5q32 0 51.5 -2.5t39.5 -11.5t29 -28.5t9 -51.5z" />
    <glyph glyph-name="asciicircum" unicode="^" horiz-adv-x="757" 
d="M825 801q0 -19 -24 -19q-45 0 -139.5 71t-129.5 118q-241 -174 -278 -180l-12 14q4 27 152.5 137t183.5 115l12 -6q83 -115 225 -234z" />
    <glyph glyph-name="underscore" unicode="_" horiz-adv-x="1650" 
d="M1624 -109l-14 -14q-484 0 -1161 -14q-58 -1 -192 -7t-206 -6q-17 0 -26 21t-9 39q0 16 9.5 27.5t25.5 11.5h1516q23 0 39 -17.5t18 -40.5z" />
    <glyph glyph-name="grave" unicode="`" horiz-adv-x="432" 
d="M395 836q0 -9 -6 -14t-14 -5t-68.5 31t-130 67.5t-82.5 42.5q-76 37 -76 93q0 19 11 31t28 12q18 0 102 -61.5t160 -125.5t76 -71z" />
    <glyph glyph-name="a" unicode="a" horiz-adv-x="716" 
d="M862 377q-181 -371 -309 -381q-28 -2 -53 9t-46.5 40.5t-22 82t19.5 132.5q-77 -123 -148 -192q-98 -94 -175 -63q-63 25 -77 121q-19 133 70 298q40 75 100 147q62 73 150 117.5t178.5 41.5t146.5 -64q21 -23 13 -44t-35 -16q-17 56 -67 69.5t-107 -18.5
q-67 -37 -141.5 -117.5t-131.5 -174.5q-72 -131 -84 -207q-13 -92 39 -102q49 -10 119 55q16 16 31 34q81 97 182 287q39 75 66.5 104.5t72.5 26.5q3 0 36 -6t50 -2q-37 -37 -104 -166.5t-86 -216.5q-23 -123 20 -123q30 -1 70 38t80 101.5t66.5 111t48.5 93.5q12 26 27 22
q14 -4 4 -31q-1 -4 -3 -7z" />
    <glyph glyph-name="b" unicode="b" horiz-adv-x="706" 
d="M537 1165q71 104 137 101h10q4 0 36.5 -6.5t49.5 -2.5q-67 -71 -212.5 -285t-238.5 -399q-41 -83 -71.5 -166t-46 -161.5t-0.5 -132.5t65 -64q66 -14 176 117q93 111 154 254q28 71 33 129t-22.5 94.5t-88.5 30.5q-35 -3 -42 15q-7 16 18 24q21 7 53 2q72 -11 115.5 -56
t51.5 -105t-3 -128q-30 -139 -121 -259.5t-213 -152.5q-117 -31 -185.5 -7.5t-92.5 80t-5 132.5q22 85 90 225q-167 -317 -217 -364q-13 -11 -19 2q-5 12 3 24q58 77 167 285t227.5 437t191.5 337z" />
    <glyph glyph-name="c" unicode="c" horiz-adv-x="532" 
d="M692 375q-27 -58 -42.5 -89t-42 -79t-47 -73.5t-52 -57t-62.5 -47t-72.5 -26.5t-88.5 -11q-93 0 -145.5 40t-62 102.5t6 139t50.5 150t81 135.5q57 77 129 119.5t145 42.5q75 0 112.5 -38.5t29.5 -102.5q-6 -54 -55.5 -97.5t-81.5 -11.5q51 60 63 104q25 101 -41 101
q-51 0 -110 -52t-109 -124q-38 -55 -75.5 -145t-37.5 -169q0 -68 29.5 -112.5t91.5 -44.5q37 0 72 12.5t62 29.5t56.5 50t48 57.5t45 69.5t39 69t36.5 72q9 18 19.5 22t13.5 -6t-5 -30z" />
    <glyph glyph-name="d" unicode="d" horiz-adv-x="751" 
d="M1130 1274q-47 -44 -249.5 -419t-290.5 -583q-11 -26 -20 -55.5t-17 -70.5t4 -67t45 -26q23 0 48 15.5t50.5 47.5t45.5 59.5t45.5 74t36 66.5t29.5 59q6 13 9 18q8 18 19.5 22.5t15 -5t-3.5 -29.5q-162 -381 -332 -381q-54 0 -92 55q-45 68 -18 181q-72 -118 -119 -165
q-88 -87 -180 -63q-69 19 -91.5 84.5t-3 149.5t63 172t100.5 157q59 68 133 109t154 47t154 -37q139 263 237 486q29 67 58.5 89t80.5 17q3 0 36.5 -5t51.5 -3zM649 657q-53 47 -134 4t-163 -135t-139 -196q-72 -136 -54 -217q12 -56 60 -50q69 9 156 132q108 150 274 462z
" />
    <glyph glyph-name="e" unicode="e" horiz-adv-x="503" 
d="M651 383q-68 -146 -94 -191q-102 -171 -243 -195q-26 -5 -54 -5q-81 0 -138.5 52t-58.5 144q-1 90 43.5 195.5t114.5 187.5q53 63 117 104.5t125.5 52t107.5 -22.5q57 -45 22.5 -134t-134.5 -165q-45 -34 -127 -62.5t-125 -28.5q-13 -31 -21 -75.5t-7 -92t25.5 -80
t71.5 -32.5q187 0 338 350q11 25 30 29q13 2 12 -13q0 -7 -5 -18zM438 440q77 65 105 151q21 69 -8 88q-39 25 -136 -75q-27 -27 -55 -61q-74 -92 -123 -193q35 0 101 24.5t116 65.5z" />
    <glyph glyph-name="f" unicode="f" horiz-adv-x="405" 
d="M743 1272q-96 -90 -270 -397.5t-330 -657.5q47 -58 66 -154l6 -26q35 -2 73 22t68.5 59.5t64 90.5t54.5 95.5t47 94.5q11 21 26 15t5 -29q-34 -76 -65.5 -135t-74.5 -121t-92.5 -96.5t-101.5 -34.5q9 -107 -14 -233.5t-69 -233.5t-118 -177.5t-151 -66.5q-104 4 -107 107
q-3 92 52 256t159 409q-30 51 -23 105.5t38 77.5q35 28 73 22q232 524 420 875q38 73 76 108t98 35q9 0 41 -6t49 -4zM176 -10q-31 -3 -65 6.5t-54 26.5q-119 -298 -170 -506q-16 -68 -16.5 -110.5t11.5 -55.5t32 -7.5t43.5 27t48.5 54.5q74 98 123.5 263t46.5 302zM172 29
q-3 51 -18 92q-11 25 -31 49l-45 -102q9 -17 31.5 -28t50.5 -11h12z" />
    <glyph glyph-name="g" unicode="g" horiz-adv-x="802" 
d="M948 377q-38 -78 -59 -119t-52 -93t-58 -81t-64 -58.5t-82 -50.5q-28 -79 -74 -163.5t-111 -167t-138.5 -147t-161 -104.5t-173.5 -40q-192 0 -192 158q0 131 178 235q90 53 185 92t203.5 74.5t156.5 54.5q34 99 47 228q13 126 2 167q-25 -47 -51 -91t-68.5 -101.5
t-83.5 -95.5t-92 -59t-98 -7q-73 31 -97 99t-2.5 149t65 162.5t103.5 152.5q62 74 142 116.5t170 39.5t164 -61q41 -34 29 -66q-8 -21 -27 -19q-16 4 -25 25q-25 69 -81 74.5t-119.5 -36t-129.5 -114.5q-76 -85 -131 -184t-66 -175t40 -103q43 -18 101 21.5t109 107t92 140
t56 122.5q13 42 36.5 56t51.5 16t39 10q40 -245 -27 -498q96 69 144 133q30 40 53.5 82.5t43.5 86.5t22 48q9 18 20.5 21.5t14.5 -7t-5 -30.5zM485 -92l-71 -25q-101 -34 -160 -56t-145 -61t-146 -79q-78 -52 -117 -136q-40 -86 0 -129q25 -28 80 -28q59 0 134.5 35
t123.5 71q87 71 185 201q74 106 116 207z" />
    <glyph glyph-name="h" unicode="h" horiz-adv-x="679" 
d="M823 375q-83 -171 -133 -243q-99 -139 -198 -140q-30 0 -56 10.5t-48.5 37.5t-23.5 73.5t19 117.5q19 64 113 215q33 54 14 74q-24 26 -114 -46q-21 -17 -46 -40q-146 -131 -287 -405q-10 -20 -25 -25.5t-50 -5.5q-5 0 -20 -1t-20 -1.5t-14 -3t-16 -6.5q15 30 71.5 147.5
t80 166t75.5 155.5t85 173.5t79.5 158t88.5 171.5t83 156q40 72 70 102t76 27q4 0 36.5 -5t49.5 -3q-62 -63 -220.5 -351.5t-304.5 -584.5q91 116 166 180q84 75 207.5 142.5t171.5 50.5q-25 -43 -62 -111t-104.5 -211t-79.5 -207q-20 -104 31 -108q33 -2 75 38.5t84.5 109
t67.5 115t50 97.5q13 26 27 21q15 -6 3 -36q-1 -2 -2 -5z" />
    <glyph glyph-name="i" unicode="i" horiz-adv-x="356" 
d="M432 856q-6 -35 -34.5 -59.5t-63.5 -24.5t-56 24.5t-16 59.5q6 35 35 59.5t63 24.5q35 0 56.5 -24.5t15.5 -59.5zM143 174q-33 -124 43 -129q42 -5 93 39q77 77 192 309q10 24 24 21t7 -29l-4 -10q-18 -39 -27 -58t-33 -65.5t-41.5 -73.5t-46 -65.5t-54 -59.5t-57.5 -37
t-63 -16q-55 0 -88 26.5t-41 67.5t-3 85.5t22 86.5l131 334q16 39 -21 86l113 2q47 0 55 -17.5t-12 -54.5l-164 -383q-21 -45 -25 -59z" />
    <glyph glyph-name="j" unicode="j" horiz-adv-x="362" 
d="M121 332q-12 0 -19.5 7.5t0.5 25.5l109 235q18 37 -21 86l113 2q47 0 55 -17.5t-12 -54.5l-164 -383q-52 -120 -127 -270q50 19 71 27.5t60 28t61.5 38t52 49.5t56.5 70q23 33 45 70.5t33.5 59t27 53.5t17.5 36q12 25 26 21q15 -3 7 -29l-4 -10q-40 -82 -64 -128
t-58 -98.5t-64 -81.5t-75 -62t-98.5 -57.5t-128.5 -51.5q-46 -83 -86.5 -147t-104.5 -143t-126.5 -131t-146 -88t-170.5 -36q-59 0 -101 15t-63 40t-27.5 57.5t1 67.5t26.5 70q53 104 192 168q61 30 142.5 54t194 51.5t161.5 41.5q46 79 65 119q21 43 144 295zM-127 -147
q-14 -4 -99.5 -26t-123 -32.5t-99 -30.5t-102.5 -38q-114 -49 -175 -145q-51 -82 -28 -139q20 -48 90 -48q63 0 138 40.5t142.5 104t119.5 122.5t92 116q22 32 45 76zM432 856q-6 -35 -34.5 -59.5t-63.5 -24.5t-56 24.5t-16 59.5q6 35 35 59.5t63 24.5q35 0 56.5 -24.5
t15.5 -59.5z" />
    <glyph glyph-name="k" unicode="k" horiz-adv-x="743" 
d="M537 1165q71 104 137 101h10q4 0 36.5 -6.5t49.5 -2.5q-75 -58 -209 -264t-242 -420q-45 -88 -73 -174q188 232 334 287q77 27 125 23t63.5 -34t9 -69.5t-37 -84.5t-76.5 -77q-50 -35 -97 -54t-110 -25q-39 -94 -14 -192.5t91.5 -121t163.5 67.5q66 71 166 280
q11 23 24 16q14 -8 3 -34q-47 -108 -93.5 -185t-85.5 -118.5t-81.5 -63.5t-74.5 -26t-73 0q-57 6 -99.5 51.5t-57.5 122.5q-17 91 19.5 161t76.5 74q34 -3 80.5 15t81.5 47q61 49 59 99q-2 40 -44 48q-75 13 -201 -91l-11 -9q-96 -86 -168 -187q-32 -60 -56.5 -179.5
t-0.5 -139.5h-129q-20 0 -22.5 12.5t5.5 32.5q17 63 43 126.5t66 146t59 126.5q-167 -317 -217 -364q-13 -11 -19 2q-5 12 3 24q58 77 167 285t227.5 437t191.5 337z" />
    <glyph glyph-name="l" unicode="l" horiz-adv-x="434" 
d="M649 1010q-175 -393 -420 -615q-3 -10 -19.5 -58t-23.5 -77q-16 -73 -12 -122.5t28.5 -73t56 -25t69 23t69.5 68.5q70 98 152 260q13 26 28 24q15 -4 3 -34q-4 -8 -17 -37t-21 -45.5t-24.5 -48.5t-29 -52t-32.5 -49.5t-38 -48.5t-42.5 -40.5t-48.5 -34t-53 -21t-59 -8.5
q-189 0 -134 262q6 30 38 141q47 169 133.5 370t177.5 353q30 51 65.5 88t67 53.5t60.5 20t47 -15t25 -50t-4.5 -86t-41.5 -122.5zM618 1040q34 78 33 133q-1 51 -42 10q-17 -17 -40 -50q-67 -95 -165 -305.5t-158 -366.5q105 106 207 267.5t165 311.5z" />
    <glyph glyph-name="m" unicode="m" horiz-adv-x="1038" 
d="M1184 377q-83 -171 -138 -246q-101 -139 -200 -139q-31 0 -57 10.5t-49 37.5t-24 73.5t19 117.5q19 64 113 215q33 54 14 74q-24 26 -114 -46q-21 -17 -46 -40q-76 -71 -172.5 -210t-115.5 -224q-35 0 -54.5 34t-11.5 79q4 26 10 49.5t17 51t17 41.5t22 48t20 43
q12 24 20.5 42t18 39.5t14.5 36.5t9.5 30.5t3 23t-6 12t-16 0.5t-28 -14.5t-41 -31t-56.5 -50.5q-140 -126 -282 -399q-10 -22 -25.5 -27.5t-52.5 -5.5q-5 0 -19 -1t-19 -1.5t-14 -3t-16 -6.5q33 66 127.5 265t151.5 304q43 79 70.5 105.5t74.5 23.5q3 0 36 -6t50 -2
q-74 -40 -248 -385q96 119 170 184q11 9 33 30q47 43 74 66t68 53.5t71.5 41t52.5 2.5q28 -10 36.5 -34.5t-5.5 -55.5q-21 -48 -75 -147.5t-74 -139.5q90 112 170 184q83 75 207 142.5t171 50.5q-24 -43 -61 -111t-104 -211t-80 -207q-17 -102 34 -102q37 0 81 40t84 103.5
t67.5 113.5t48.5 97q11 25 25.5 21.5t7.5 -28.5q-1 -5 -4 -11z" />
    <glyph glyph-name="n" unicode="n" 
d="M831 377q-78 -161 -125 -229q-107 -155 -212 -156q-30 0 -56 10.5t-48.5 37.5t-23.5 73.5t19 117.5q19 64 113 215q33 54 14 74q-24 26 -114 -46q-21 -17 -46 -40q-145 -130 -284 -405q-11 -20 -26.5 -25.5t-51.5 -5.5q-5 0 -20 -1t-20 -1.5t-14 -3t-16 -6.5
q29 58 127 262.5t156 310.5q43 79 70.5 105.5t74.5 23.5q3 0 36 -6t50 -2q-74 -40 -248 -385q96 119 170 184q84 75 207.5 142.5t171.5 50.5q-25 -43 -62 -111t-104.5 -211t-79.5 -207q-19 -102 33 -102q104 0 281 354q11 26 26 21t5 -32q-1 -4 -3 -7z" />
    <glyph glyph-name="o" unicode="o" 
d="M836 385q-1 -1 -13 -28.5t-17.5 -40.5t-21.5 -44.5t-27 -50.5t-30.5 -49t-35.5 -49t-38 -41.5t-43 -35t-46 -21.5t-50 -9q-84 0 -131 54q-96 -73 -178 -70q-75 2 -112 57.5t-32.5 139.5t43.5 176q61 144 174 245.5t216 98.5q75 -1 112 -56.5t32.5 -140t-44.5 -176.5
q-25 -58 -70.5 -123.5t-101.5 -118.5q26 -51 96 -51q27 0 54 13t52.5 41t45.5 52.5t43.5 67t35.5 64.5t32.5 64.5t23.5 49.5q5 10 15.5 11t16 -6.5t-0.5 -22.5zM537 649q-64 18 -148 -62t-143 -206q-62 -130 -70.5 -221.5t45.5 -112.5q60 -15 139 51q-32 46 -32 101
q4 88 71 88q26 0 44 -18.5t18 -43.5q0 -6 -4 -22q36 52 63 110q61 128 66.5 222.5t-49.5 113.5z" />
    <glyph glyph-name="p" unicode="p" horiz-adv-x="688" 
d="M629 717q69 -19 92 -84.5t3 -149t-64 -171t-101 -156.5t-131.5 -110t-154 -46.5t-152.5 37.5l-195 -486q-31 -66 -58.5 -87.5t-78.5 -18.5q-7 0 -38 6t-48 4q45 44 228 409t208 492q-19 -29 -41 -34q-9 -2 -9 6q0 4 3 10q21 42 41 92q20 46 31.5 103.5t7.5 102.5t-27 50
q85 14 101 16q29 4 46 3t23 -19.5t4 -67.5q-3 -105 -57 -245q107 175 179 252q108 114 188 92zM573 397q73 136 54 217q-12 55 -60 48q-68 -9 -155 -130q-100 -136 -275 -464q52 -47 132.5 -4t163 135.5t140.5 197.5z" />
    <glyph glyph-name="q" unicode="q" horiz-adv-x="700" 
d="M750 518q-112 -171 -289.5 -587t-192.5 -519q-8 15 -32 37t-27 25q-22 24 -25.5 53.5t5.5 60t32 80.5q95 220 188.5 407.5t120.5 248.5q-20 -38 -143 -209q-118 -141 -227 -107q-72 31 -95.5 99t-2.5 149t65 162.5t104 152.5q62 74 142 116.5t169.5 39.5t162.5 -61
q42 -33 31 -66q-8 -21 -26 -19q-17 2 -26 25q-44 118 -167 55q-103 -52 -214 -199q-112 -148 -140 -268q-24 -101 34 -126q35 -15 80.5 13t99.5 100.5t78.5 109t68.5 109.5q11 17 15 24q40 68 62.5 86.5t62.5 15.5q9 0 39.5 -5t46.5 -3z" />
    <glyph glyph-name="r" unicode="r" horiz-adv-x="532" 
d="M676 375q-25 -52 -41.5 -84.5t-49.5 -88.5t-61.5 -91.5t-67.5 -67.5t-77 -41q-29 -7 -59 3.5t-54.5 40t-26 82.5t26.5 132q18 49 69.5 138.5t57.5 103.5q21 49 -22 71.5t-135 24.5l-25 -66q-49 -129 -115 -258.5t-133 -193.5q-13 -11 -19 2q-5 12 3 24
q115 151 198.5 358.5t116.5 393.5q10 55 48 62q37 7 62 -31q28 -42 15 -105q-14 -66 -113 -137q133 -7 283 8q17 -35 -43 -157q-3 -6 -16 -31t-25.5 -50t-30 -61t-31 -68t-26.5 -67.5t-19 -64t-7 -52t8.5 -37t29.5 -14.5q86 -2 254 342q13 25 26 19q14 -7 -1 -39z" />
    <glyph glyph-name="s" unicode="s" horiz-adv-x="524" 
d="M674 387q-16 -35 -24.5 -54t-26.5 -56.5t-32 -59.5t-34.5 -55t-39.5 -53t-43.5 -44t-49.5 -35.5t-53.5 -21t-60.5 -8t-66 11.5q-48 -20 -84 -20q-127 0 -168 91q-29 66 -2 135q21 56 61 62q3 1 6 1q109 206 176 354q32 69 76 119t94 57q45 6 76 -10q27 -13 24 -30
q-3 -16 -27 -7q-2 1 -5 2q-38 15 -65 2q-44 -21 -59.5 -71t-9 -98.5t24.5 -90.5q5 -12 24.5 -55.5t27.5 -63.5t15.5 -55.5t6.5 -67.5q-3 -60 -44 -123.5t-101 -103.5l14 -2q94 -13 184 94q44 54 154 268q5 9 14.5 10t15.5 -6t1 -16zM311 266q3 61 -15.5 201t-10.5 188
q-135 -273 -193 -379h5t10.5 -3.5t13.5 -9.5t10.5 -19.5t3.5 -32.5q-3 -55 22.5 -97t63.5 -61q82 64 90 213zM186 35q-77 48 -82 153q-32 -32 -36.5 -70.5t17 -64.5t60.5 -26q25 0 41 8z" />
    <glyph glyph-name="t" unicode="t" horiz-adv-x="409" 
d="M621 778q9 0 12 -11t-2.5 -22.5t-14.5 -11.5h-118q-112 -190 -273 -338q-8 -24 -20 -76t-19 -93l-8 -40q-11 -51 -2 -81t30.5 -41.5t49 -7t53.5 23.5q63 47 113.5 124t103.5 185q8 18 19 22.5t13.5 -5t-5.5 -29.5q-68 -141 -106 -202t-95 -118q-41 -39 -95 -51.5
t-99.5 3.5t-72 69t-15.5 133q13 98 58.5 243.5t100.5 278.5h-106q-11 0 -14.5 11.5t2 22.5t16.5 11h123q76 165 149 291q29 51 64 89t66 54t60 19t46.5 -16t24 -51t-6 -87t-43.5 -123q-54 -113 -88 -176h99zM580 987q31 68 33 129q1 40 -19 36q-23 -4 -74 -75
q-14 -20 -27.5 -43.5t-31.5 -61.5t-26 -55t-31.5 -72.5t-28.5 -66.5h102q59 106 103 209zM451 733h-97q-7 -16 -110 -272q113 116 207 272z" />
    <glyph glyph-name="u" unicode="u" horiz-adv-x="731" 
d="M877 377q-17 -35 -24 -50.5t-26 -52.5t-31 -57t-32.5 -53t-37 -52t-39 -43t-43 -36.5t-45 -21.5t-48.5 -9q-73 0 -101.5 69t7.5 193q-62 -109 -135.5 -185.5t-141.5 -76.5q-42 0 -80 20t-49 72q-3 16 -3.5 32.5t1.5 31t6.5 31t9.5 29.5t13 29.5t14 28t15 29t14 27.5
q-12 0 -19.5 7.5t0.5 25.5l37 71q59 113 115 226q21 43 80 43h125q-41 -30 -67 -62.5t-64 -110.5q-92 -186 -129 -264q-62 -134 -35 -194q19 -45 76 -15q37 19 79 68q53 61 117.5 171.5t95.5 172.5t93 191q21 43 80 43h110q-45 -36 -70.5 -72.5t-70.5 -130.5
q-124 -250 -137 -326q-12 -61 0.5 -91t37.5 -32q35 0 73.5 31t75.5 87t64.5 106.5t59.5 117.5q11 25 25.5 21.5t7.5 -28.5q-1 -5 -4 -11z" />
    <glyph glyph-name="v" unicode="v" horiz-adv-x="536" 
d="M655 688q-4 -4 -4 -10q-66 -206 -107 -303q-182 -426 -394 -385q-30 6 -48 24t-23 47t-4 61.5t11.5 74.5t21.5 78t27 81q-18 -28 -33 -20q-12 6 -4 26l37 70q21 41 32.5 97.5t5.5 103t-32 53.5q85 14 101 16q29 4 46 3t23 -19.5t4 -67.5q-1 -48 -19 -120t-40 -127
q-23 -60 -37 -104t-26 -92t-8.5 -77.5t22.5 -38.5q47 -20 101 23t100 122t90 187q-21 47 -26 105.5t9 99.5q32 102 101 139q44 24 68 4q20 -16 5 -51z" />
    <glyph glyph-name="w" unicode="w" horiz-adv-x="974" 
d="M1024 690q-4 -4 -4 -10q-2 -8 -8 -27q-13 -44 -21.5 -72.5t-29 -88.5t-37.5 -102t-45 -101.5t-54.5 -100.5t-62 -84t-71.5 -67t-80 -35.5t-89 -1.5q-39 9 -61.5 40.5t-26 74.5t1 83.5t15.5 77.5q-151 -276 -273 -276q-45 0 -81.5 25.5t-45.5 68.5q-3 16 -3.5 32.5t1.5 31
t6.5 31t9.5 29.5t13 29.5t14 28t15 29t14 27.5q-12 0 -19.5 7.5t0.5 25.5l37 71q95 186 115 226q21 43 80 43h125q-41 -30 -67 -62.5t-64 -110.5q-92 -186 -129 -264q-59 -128 -35 -192q18 -45 67 -24q23 10 48 34q30 29 65.5 80t64.5 99t66 119.5t55.5 109.5t48.5 102
t31 66q18 43 78 43h125q-5 -5 -21.5 -16t-33 -26t-27.5 -34q-57 -95 -113 -215q-18 -36 -36.5 -82t-42.5 -119.5t-16.5 -123t52.5 -52.5q82 -6 159.5 93.5t142.5 262.5q-21 46 -25.5 105.5t8.5 99.5q30 104 96 139q43 23 65 2q17 -16 3 -49z" />
    <glyph glyph-name="x" unicode="x" horiz-adv-x="681" 
d="M829 383q-8 -16 -26.5 -54.5t-30.5 -63t-33.5 -62.5t-39.5 -63t-44.5 -54t-52.5 -46t-59.5 -28.5t-69.5 -11.5q-71 0 -111.5 63t-37.5 138q0 29 2 41q-55 -105 -118.5 -185.5t-117.5 -105.5q-41 -21 -82.5 -21t-70.5 29q-9 9 -3.5 21.5t16.5 16t21 -4.5q36 -31 105 0
q63 30 147.5 160t126.5 268q21 113 19 155q0 46 -29 55q-42 13 -99 -77q-2 -4 -5 -8q-13 -22 -64.5 -119.5t-62.5 -116.5q-13 -24 -23 -16q-11 10 4 43q119 250 176 303q63 52 115 47q131 -14 82 -258q55 105 128 194t116 101q38 8 63.5 -7.5t17.5 -53.5q-6 -28 -29.5 -47
t-51.5 -19q-41 0 -52 35q-63 -60 -126.5 -160.5t-94.5 -196.5q-15 -89 1 -152t54 -71q43 -9 83 11.5t82.5 81t62.5 95t63 118.5q13 24 19 36q14 28 27.5 20.5t2.5 -30.5z" />
    <glyph glyph-name="y" unicode="y" horiz-adv-x="817" 
d="M961 373q-40 -82 -64.5 -127.5t-58 -97t-63.5 -80.5t-75 -61.5t-98.5 -57t-128.5 -51.5q-46 -83 -87 -147t-104.5 -143t-126.5 -131t-146.5 -88t-170.5 -36q-59 0 -101 15t-63 40t-27.5 57.5t1 67.5t26.5 70q53 103 193 168q61 30 142.5 54t194 51.5t161.5 41.5
q13 22 25.5 47t25 54.5t22.5 53.5t22 59t19 54.5t19 56.5t16 49.5t15 48.5t12 38q-86 -151 -129 -210q-122 -167 -232 -167q-42 0 -80 20t-49 72q-3 16 -3.5 32.5t1.5 31t6.5 31t9.5 29.5t13 29.5t14 28t15 29t14 27.5q-12 0 -19.5 7.5t0.5 25.5l37 71q59 113 115 226
q21 43 80 43h125q-4 -3 -20.5 -15t-30.5 -26t-25 -33q-74 -126 -184 -363q-62 -134 -35 -194q19 -45 76 -15q37 19 79 68q145 168 322 535q21 43 80 43h110q-23 -16 -42 -37.5t-32 -40.5t-30 -57t-26 -60.5t-29 -77.5q-26 -71 -81 -231t-83 -238q81 24 160.5 74.5
t134.5 128.5q54 79 129 225q12 25 26 21q15 -3 7 -29zM328 -147q-20 -5 -81.5 -21t-95 -25t-84.5 -23.5t-91.5 -28.5t-73.5 -29q-113 -48 -173 -144q-52 -82 -29 -139q21 -48 91 -49q63 0 137.5 40t142.5 104.5t119 122.5t93 116z" />
    <glyph glyph-name="z" unicode="z" horiz-adv-x="698" 
d="M844 377q-30 -61 -47.5 -94.5t-47 -85t-54.5 -81t-58 -62.5t-70.5 -51.5t-79.5 -27.5q-80 -220 -236.5 -376.5t-373.5 -219.5q-62 -16 -114.5 -12t-89 31t-55 64t-12.5 86t38 98q23 34 59.5 65.5t87.5 59t98.5 49t117.5 45.5t116.5 39t124 38t114.5 35q15 46 24 90t13 95
t-14.5 79t-60.5 21q-38 -20 -91 -39q-16 -6 -26 2t-8 20t18 17q138 42 229 180q45 68 12 125q-27 48 -85 49q-79 2 -143 -88l-17 -26q-55 -91 -109 -205q-11 -25 -25 -21q-15 5 -1 38q1 2 2 5q109 213 121 234q65 119 175 155q90 30 153 -10q56 -35 53 -106t-55.5 -149
t-145.5 -134q137 3 141 -133q0 -23 -7.5 -74t-14.5 -75q48 10 93.5 43.5t85.5 88t71 109t65 125.5q9 18 20 21.5t14 -7t-5 -30.5zM344 -74q-43 -14 -135.5 -41t-145.5 -43.5t-119 -42.5t-108 -51q-91 -53 -137 -150q-42 -89 -13 -145q31 -59 128 -39q62 14 135.5 55
t147.5 104t140.5 156t106.5 197z" />
    <glyph glyph-name="braceleft" unicode="{" horiz-adv-x="755" 
d="M862 1487q31 0 19 -23q-9 -18 -25 -23l-4 -1q-149 0 -211 -56q-37 -32 -62 -93.5t-39.5 -133t-28.5 -144.5t-39.5 -144t-61.5 -115q-77 -95 -273 -131q163 -29 211 -111q16 -28 18.5 -76t-6 -107.5t-18 -108t-24 -107.5t-17.5 -76q-31 -157 14 -207q44 -53 185 -53
q17 1 14.5 -19.5t-16.5 -24.5l-4 -1h-11q-200 0 -268 71q-25 28 -32.5 80.5t1 117.5t20 120.5t27.5 117t19 78.5q31 154 -14 207q-28 36 -72 54q-46 18 -133 18q-32 0 9 51l3 4q173 18 236 72q65 51 96 207q4 19 17 90t23.5 114.5t29.5 104.5t47 105t63 71q97 72 299 72h8z
" />
    <glyph glyph-name="bar" unicode="|" horiz-adv-x="993" 
d="M541 -473h-88v2007h88v-2007z" />
    <glyph glyph-name="braceright" unicode="}" horiz-adv-x="993" 
d="M977 623q32 -2 -15 -52l-4 -4q-152 0 -243 -71q-48 -36 -81.5 -107t-55.5 -151.5t-45.5 -162.5t-65.5 -157t-102 -117q-100 -69 -302 -69h-10q-17 1 -12 21q10 21 29 24q150 0 217 55q41 33 72.5 97t53 138t44.5 149.5t59 148t84 116.5q87 78 266 113q-151 26 -196 111
q-12 25 -13 65t4.5 79.5t18.5 92t23.5 87.5t25.5 82t19 60q47 151 10 205q-38 56 -185 56q-36 0 8 42l5 5h10q210 0 264 -72q27 -35 27.5 -96t-18 -127.5t-42 -142.5t-44 -141t-23.5 -122.5t20 -87.5q40 -52 197 -67z" />
    <glyph glyph-name="asciitilde" unicode="~" horiz-adv-x="993" 
d="M928 1012q-34 -71 -86 -120t-117 -44q-43 4 -124.5 40.5t-123.5 39.5q-35 3 -62.5 -16.5t-43.5 -51.5q-4 -11 -32 -6q-16 4 -15 10q91 163 200 154q45 -3 126.5 -37t121.5 -37q74 -8 113 72q4 10 31 4q13 -4 12 -8z" />
    <glyph glyph-name="nbspace" unicode="&#xa0;" horiz-adv-x="530" 
 />
    <glyph glyph-name="exclamdown" unicode="&#xa1;" horiz-adv-x="821" 
d="M-90 -592q10 27 160 252t331 492t195 288l20 -2l-2 -14l-520 -991q-10 -19 -33 -29t-41 -11.5t-52.5 -1t-43.5 0.5l-10 4zM602 604q6 35 34.5 59.5t63.5 24.5t55.5 -24.5t14.5 -59.5q-4 -35 -33 -59.5t-65 -24.5q-34 0 -55 24.5t-15 59.5z" />
    <glyph glyph-name="cent" unicode="&#xa2;" horiz-adv-x="647" 
d="M688 1681q-7 -19 -26.5 -66.5t-53.5 -130t-61 -149.5q49 -15 78.5 -57.5t27.5 -95.5t-32 -90t-78 -37q-41 0 -70 29t-27 69q2 41 29 67t68 25q20 0 42 -12.5t27 -24.5q6 32 -9.5 56.5t-35.5 29.5q-52 11 -126 -40t-136 -132q-125 -169 -119 -336q3 -71 34 -103t79 -32
q104 0 227 152q17 21 26 2q8 -16 -1 -29q-111 -155 -262 -160q-3 -9 -34 -80t-58 -142.5t-51 -151t-20 -134t42 -63.5q26 -5 19 -23q-6 -17 -29 -16l-8 2q-55 18 -70.5 75t5 136.5t47 151.5t60.5 148t41 97q-66 6 -105.5 40.5t-50.5 86t-5.5 114t27 125t50.5 118t62 94.5
q53 62 128.5 107.5t143.5 44.5h13q84 210 141 346q21 48 41 34q16 -10 12 -37z" />
    <glyph glyph-name="sterling" unicode="&#xa3;" horiz-adv-x="1173" 
d="M1675 1087q0 -85 -79 -186t-166 -164q-10 -10 -25 -10q-10 0 -10 8q0 9 12 17q54 45 101.5 93t93 119t45.5 126q0 67 -78 67q-98 0 -200 -82.5t-173 -183.5q-57 -83 -109 -201q-51 -119 -71 -160q46 -6 96 -6q29 0 59 6q33 11 37 11q11 0 11 -27q0 -14 -7 -16
q-46 -17 -100 -17q-37 0 -119 8q-83 -159 -181.5 -271.5t-240.5 -194.5q63 -44 196.5 -101.5t211.5 -75.5q49 -12 100 -12q42 0 83.5 9t80 28t62.5 54t24 81q0 10 8 10q9 0 9 -14v-4q-5 -51 -32 -88.5t-68.5 -57t-85.5 -28t-93 -8.5q-87 0 -195 24q-65 14 -212 66t-197 80
q-87 -41 -170 -41q-33 0 -73 8.5t-79.5 25.5t-65.5 46.5t-26 66.5q0 57 49 89t109 32q55 0 112.5 -23.5t93 -47.5t93.5 -69q12 -9 18 -14q27 23 53.5 51t52 62t45.5 62.5t45.5 71t40 67.5t40.5 71.5t37 65.5q-46 4 -70 4q-65 0 -111 -10l-36 -12q-2 -1 -7 -4t-8 -3
q-10 0 -10 27q0 12 6 16q57 29 166 29q46 0 92 -6q372 651 668 651q60 0 103.5 -29.5t43.5 -85.5zM432 4q-13 8 -64 41.5t-86.5 55.5t-80.5 42.5t-72 20.5t-45 -15.5t-18 -42.5q0 -38 30 -71t69.5 -50t76.5 -20q12 -2 37 -2q82 0 153 41z" />
    <glyph glyph-name="currency" unicode="&#xa4;" horiz-adv-x="1374" 
d="M965 748q29 -51 26 -119q-3 -96 -92 -197l217 -336l-319 260q-88 -49 -185 -49q-95 0 -168 47l-442 -268l369 348q-28 54 -25 113q3 118 92 207l-213 331l316 -254q92 50 188 50q97 0 164 -50l446 267zM674 803q-81 0 -144.5 -60.5t-66.5 -150.5q-4 -89 55.5 -150
t140.5 -61q83 0 148.5 60t69.5 151q3 90 -59 150.5t-144 60.5z" />
    <glyph glyph-name="yen" unicode="&#xa5;" horiz-adv-x="1478" 
d="M1491 1122q0 -39 -16 -39q-6 0 -10.5 4.5t-4.5 10.5q0 4 2 12t2 12q0 43 -33 77t-75 34q-36 0 -78.5 -27.5t-86 -77t-83 -101.5t-81 -119t-67 -110t-54.5 -94q-12 -21 -17 -30h213q4 0 4 -6q0 -9 -13.5 -24t-23.5 -15h-205l-108 -193h207q6 0 6 -6q0 -9 -14 -24t-23 -15
h-205q-41 -61 -71 -103t-79.5 -105t-95.5 -105.5t-101.5 -84t-116 -62.5t-122.5 -21q-1 0 -8.5 -0.5t-11 0t-9 1.5t-8 4.5t-2.5 8.5q0 4 1.5 6.5t3.5 4t6 2t6 0.5h6.5h5.5q40 0 84 19t80.5 44.5t81.5 72t73 79t69 89t56.5 79.5t47.5 71h-465q-6 0 -6 6q0 9 13.5 24t22.5 15
h465l11 17q0 65 -15 176h-289q-6 0 -6 4q0 10 14 25.5t23 15.5h252q-9 48 -23 100.5t-40.5 118t-58.5 116t-78.5 85t-98.5 34.5q-49 0 -90 -38t-61.5 -89.5t-20.5 -99.5q0 -22 5.5 -46.5t13 -43t15.5 -34t13.5 -24.5t5.5 -10q0 -14 -14 -14q-4 0 -10 6q-54 73 -54 166
q0 91 55.5 172.5t141.5 81.5q63 0 121.5 -33t101.5 -87t74 -111t51 -117q39 -111 45 -240l41 64q-1 7 2 13t10.5 13t8.5 9q18 23 50.5 79t35.5 60q28 43 44.5 67.5t55.5 79t67.5 89t71.5 80.5t78.5 73t76.5 46.5t77 19.5q55 0 95 -41t40 -97z" />
    <glyph glyph-name="brokenbar" unicode="&#xa6;" horiz-adv-x="993" 
d="M877 1534l-193 -875l-98 11l184 864h107zM637 442l-186 -915h-107l197 924z" />
    <glyph glyph-name="section" unicode="&#xa7;" horiz-adv-x="1933" 
d="M1366 -27q-71 -41 -111 -57q68 -99 45.5 -199t-112 -185.5t-217.5 -131.5q-158 -55 -351 -59.5t-307 49.5q-72 36 -110 97t-28 129t71 118q51 42 137 65q33 9 40 -7q7 -14 -19 -26q-13 -6 -31 -8q-84 -10 -114 -79q-31 -70 13 -147q56 -96 192 -127q176 -40 429 50
q73 27 131.5 68t92 93t38 107t-33 113t-117.5 107q-58 35 -231 113t-253 128q-121 74 -172 167t-37.5 184t72 184t146 172t194.5 143q65 37 111 56q-68 99 -46.5 199.5t111.5 186.5t219 132q158 55 351 59.5t307 -49.5q72 -36 110 -97t28 -129t-71 -118q-53 -43 -137 -66
q-33 -9 -40 7q-7 14 19 26q14 6 31 8q84 10 114 79q31 70 -13 147q-56 96 -192 127q-176 40 -429 -50q-74 -27 -132 -68t-91.5 -92.5t-38 -106.5t33 -113t117.5 -107q58 -35 231 -113.5t253 -128.5q121 -74 172 -167t37.5 -184t-72 -184t-146 -172t-194.5 -143zM938 995
q-32 18 -61 47l-39 -18q-127 -67 -217 -162.5t-127 -196t-12.5 -201t114.5 -173.5q67 -54 275.5 -143t279.5 -136q26 -16 61 -47l39 19q127 67 217 162.5t127 196t12.5 201t-114.5 173.5q-67 54 -275.5 142.5t-279.5 135.5z" />
    <glyph glyph-name="dieresis" unicode="&#xa8;" horiz-adv-x="569" 
d="M477 950q0 -29 -18 -48t-47 -19q-30 0 -50 18.5t-20 48.5q0 29 18.5 48.5t47.5 19.5q30 0 49.5 -19t19.5 -49zM213 950q0 -29 -18.5 -48t-47.5 -19q-30 0 -49.5 18.5t-19.5 48.5t18 49t47 19q30 0 50 -19t20 -49z" />
    <glyph glyph-name="copyright" unicode="&#xa9;" horiz-adv-x="1468" 
d="M143 541q-13 -114 22 -216.5t105.5 -176t175.5 -115t226 -37.5q161 4 306 83t239 210.5t112 283.5q13 115 -22 218t-105.5 176.5t-175 115.5t-225.5 39q-162 -5 -307.5 -84.5t-239.5 -211.5t-111 -285zM53 541q18 161 125.5 300.5t274.5 223t352 88.5q186 4 335 -71.5
t224.5 -209.5t56.5 -294q-18 -161 -125 -300.5t-274 -223t-352 -87.5q-139 -4 -260 39.5t-204 120.5t-125 185t-28 229zM872 432q12 17 23.5 19t13 -9t-5.5 -26q-48 -78 -111.5 -120t-154.5 -42q-80 0 -125 34.5t-53.5 88.5t5 119.5t44 129.5t70.5 117q50 67 111.5 104.5
t123.5 37.5q66 0 97.5 -33.5t25.5 -89.5q-6 -47 -48.5 -84.5t-70.5 -9.5q45 52 55 90q11 46 1.5 67t-35.5 21q-45 0 -96.5 -45.5t-94.5 -108.5q-32 -47 -64 -124.5t-32 -145.5q0 -60 25.5 -98.5t78.5 -38.5q120 0 217 147z" />
    <glyph glyph-name="ordfeminine" unicode="&#xaa;" horiz-adv-x="765" 
d="M512 1055q-18 -36 -30 -57t-35 -57t-46 -55.5t-45 -21.5q-32 -2 -52 29t1 102q-36 -60 -74 -96q-57 -55 -97 -26q-37 28 -28 102q11 88 84 176q48 58 120.5 75t117.5 -28q10 -10 6 -21t-16 -8q-9 27 -34 33.5t-54 -8.5q-68 -38 -135 -145q-37 -64 -43 -105q-7 -52 26 -51
q31 1 68 45q37 43 92 143q15 27 22 38.5t19.5 20.5t28.5 7q4 0 19.5 -2.5t23.5 -1.5q-19 -16 -53 -82t-42 -109q-14 -61 9 -61q44 -2 133 172q6 14 13.5 10.5t0.5 -18.5z" />
    <glyph glyph-name="guillemotleft" unicode="&#xab;" horiz-adv-x="923" 
d="M977 608q-18 -30 -79.5 -79t-154.5 -114t-96 -67l-2 -278l-10 -21l-14 -6l-17 6q-12 22 -27 83.5t-31 139.5t-20 95q4 2 121 75.5t212 130.5t104 56l12 -6zM682 608q-17 -27 -82 -79t-154.5 -114t-95.5 -67l-2 -278l-10 -21l-14 -6q-11 0 -17 6q-17 43 -30.5 96.5
t-26.5 120.5t-21 101q4 2 120.5 75.5t211.5 130.5t105 56l14 -6z" />
    <glyph glyph-name="logicalnot" unicode="&#xac;" horiz-adv-x="1654" 
d="M1370 567l-104 -493q-3 -20 -18.5 -32.5t-37.5 -12.5q-16 0 -29 14t-10 31l84 395q-158 1 -336.5 1t-396 -0.5t-336.5 -0.5q-15 0 -28 6.5t-13 20.5q0 18 22.5 44.5t39.5 26.5h1163z" />
    <glyph glyph-name="uni00AD" unicode="&#xad;" horiz-adv-x="831" 
d="M795 432q-54 0 -103.5 -2t-108 -7t-82.5 -7t-93 -10.5t-72 -8.5q-14 -2 -26 23t-6.5 50.5t32.5 25.5q93 0 450 -9q32 -1 42 -25q8 -21 -17 -28q-7 -2 -16 -2z" />
    <glyph glyph-name="registered" unicode="&#xae;" horiz-adv-x="1468" 
d="M53 541q18 161 125.5 300.5t274.5 223t352 88.5q186 4 335 -71.5t224.5 -209.5t56.5 -294q-18 -161 -125 -300.5t-274 -223t-352 -87.5q-139 -4 -260 39.5t-204 120.5t-125 185t-28 229zM143 541q-13 -114 22 -216.5t105.5 -176t175.5 -115t226 -37.5q161 4 306 83
t239 210.5t112 283.5q13 115 -22 218t-105.5 176.5t-175 115.5t-225.5 39q-162 -5 -307.5 -84.5t-239.5 -211.5t-111 -285zM1169 451q-58 -120 -88 -152q-40 -42 -100 -40.5t-102 44.5q-16 17 -29.5 38t-22.5 45.5t-16 45t-12 47.5t-7.5 42t-5.5 39t-4 28q-28 -57 -42.5 -84
t-44.5 -72t-64 -80q-102 -113 -273 -92q-82 10 -103 62q-17 43 19 78q47 46 140 23q11 -3 22 -7q10 -4 7 -9t-13 -1q-70 26 -106 -14q-27 -30 -11 -66q17 -38 68 -41q36 -2 70 8t64.5 33t55.5 48.5t52.5 65.5t47 72t46.5 80q16 28 50 88.5t53 93t47 75t53 69.5
q-160 13 -318 -21q-103 -21 -167 -73t-77 -111q-11 -55 20 -88t80 -30.5t85 40.5q32 32 32 55q1 10 4.5 11t5.5 -6l1 -7q-6 -43 -33 -67q-42 -44 -101 -49t-101 33.5t-36 107.5q7 73 85.5 137.5t211.5 83.5q182 25 326 4q38 40 35 12l-4 -16q7 -1 38 -6.5t46 -9.5
q120 -35 137 -105q15 -63 -59 -119q-70 -52 -189 -71q-61 -11 -111 -11q3 -21 12 -56t32 -95t51 -103q23 -36 44 -52.5t47.5 -13.5t55.5 32q42 42 80 127q8 13 15 12q6 -1 1 -12zM1049 893q-20 6 -74 14q-9 -16 -65 -113.5t-83 -154.5l99 10q91 12 152 77q56 59 38 111
q-13 39 -67 56z" />
    <glyph glyph-name="macron" unicode="&#xaf;" horiz-adv-x="993" 
d="M838 903l-25 -61h-438l26 61h437z" />
    <glyph glyph-name="degree" unicode="&#xb0;" horiz-adv-x="661" 
d="M465 1409q0 -55 -38.5 -93t-92.5 -38q-59 0 -95 38t-36 93q0 54 38.5 92.5t92.5 38.5t92.5 -38.5t38.5 -92.5zM426 1407q0 40 -27 67t-67 27q-39 0 -66.5 -27.5t-27.5 -66.5q0 -29 11 -50t28 -30.5t30.5 -13.5t24.5 -4q36 0 65 30.5t29 67.5z" />
    <glyph glyph-name="plusminus" unicode="&#xb1;" horiz-adv-x="937" 
d="M956 588q22 -1 31.5 -15t-1 -27.5t-36.5 -13.5q-2 0 -272 -12q-5 -33 -24.5 -139.5t-22.5 -140.5q-2 -18 -40 -29q-44 -14 -57 7q-5 8 -2 22q0 2 72 276q-49 -4 -155 -9.5t-136 -8.5q-15 -2 -20 24q-8 39 15 62q12 12 30 12q20 0 66.5 -1t112 -2.5t106.5 -2.5
q9 32 33.5 142t37.5 155q8 31 33 41q22 8 26 -13q2 -8 -1 -20q-23 -96 -62 -307h266zM846 72q-304 0 -541 -27q-14 -2 -26 22.5t-6.5 50t32.5 25.5q37 0 116 -2.5t199.5 -7t217.5 -6.5q30 0 40 -22q10 -20 -11 -29q-9 -4 -21 -4z" />
    <glyph glyph-name="twosuperior" unicode="&#xb2;" horiz-adv-x="649" 
d="M670 1157q0 -35 -30 -84.5t-76 -99.5t-103.5 -104t-109 -98t-97.5 -82l-7.5 -6t-6.5 -5t-7 -6l-18 -17q22 -22 66.5 -41.5t80.5 -19.5q28 0 76.5 28.5t71.5 57.5q12 14 25 19.5t15 -3t-15 -37.5q-120 -153 -203 -155q-60 -1 -118.5 18t-96.5 45l-90 -69q-30 -10 -35 -4
t6 28q5 4 98.5 80t120.5 103q52 46 99.5 93.5t103.5 111t89.5 126.5t33.5 111q0 41 -21.5 55.5t-51 6t-58 -26t-45.5 -37.5q-38 -44 -78 -125q-10 -22 -30 -19q-18 2 -14 22q0 2 1 5q34 98 112.5 172t176.5 74q59 0 97 -31t38 -86z" />
    <glyph glyph-name="threesuperior" unicode="&#xb3;" horiz-adv-x="610" 
d="M647 1186q0 -135 -244 -236q58 -9 96 -39t38 -86q0 -80 -60 -156.5t-153 -123.5t-185 -47q-97 0 -125 75q-5 14 -5.5 21t4.5 11.5t22 -5.5q11 -29 38 -49.5t58 -20.5q75 0 145 51t110 122.5t40 136.5q0 33 -17.5 54t-46.5 21q-10 0 -49 -12t-45 -14q-39 -9 -41 7
q0 11 13 17q56 11 118.5 46t112 95t49.5 124q0 16 -17 24t-36 8q-39 0 -83 -29t-79 -69q-11 -13 -20.5 -11.5t-5.5 25.5q122 152 251 152q50 0 83.5 -23t33.5 -69z" />
    <glyph glyph-name="acute" unicode="&#xb4;" horiz-adv-x="546" 
d="M506 1028q-11 -24 -190.5 -105.5t-192.5 -76.5q-7 4 -9 12t3 14q3 7 58.5 47.5t118.5 85t75 54.5q65 50 118 24q15 -8 20.5 -24t-1.5 -31z" />
    <glyph glyph-name="mu" unicode="&#xb5;" horiz-adv-x="663" 
d="M846 330q-156 -346 -297 -346q-51 0 -79 32.5t-28 85.5q0 48 21 109q-22 -35 -48 -69.5t-60.5 -71.5t-74.5 -59.5t-77 -22.5q-30 0 -57 15.5t-40 41.5l-264 -577q-5 -7 -26 -7q-43 0 -72 13l-3 2q-3 2 -4.5 4t-0.5 4l395 776q15 31 48.5 99t53 107t51 94t60.5 99h4
q13 -10 33 -10q44 0 98 43l4 -4q-34 -37 -100 -158q-60 -106 -94 -161q-121 -218 -121 -303q0 -56 51 -56q118 0 318 359q103 184 157 303h4q26 -15 52 -15q21 0 38.5 11t24.5 30l6 -2l-160 -309q-141 -261 -141 -342q0 -41 35 -41q39 0 84.5 38.5t83.5 97t64.5 107
t43.5 87.5h13z" />
    <glyph glyph-name="paragraph" unicode="&#xb6;" horiz-adv-x="825" 
d="M1237 1339l-37 -102h-41l-452 -1237h-138l453 1237h-100l-453 -1237h-137l272 743q-142 0 -197 75t-4 216q33 91 105 165t168 112q73 28 209 28h352z" />
    <glyph glyph-name="periodcentered" unicode="&#xb7;" horiz-adv-x="534" 
d="M424 475q-6 -35 -34.5 -59.5t-63.5 -24.5t-55.5 24.5t-14.5 59.5q4 35 33 59.5t65 24.5q34 0 55 -24.5t15 -59.5z" />
    <glyph glyph-name="cedilla" unicode="&#xb8;" horiz-adv-x="776" 
d="M668 -236q0 -82 -107 -155q-52 -35 -155 -35q-24 0 -63 5t-85 15t-78.5 29.5t-32.5 44.5q0 15 13 15q4 0 8.5 -2.5t7.5 -5.5t7.5 -8t6.5 -7q25 -26 77 -38.5t100 -12.5q58 0 114.5 17.5t81.5 56.5q29 45 29 84q0 56 -47.5 86t-106.5 30q-34 0 -66 -12.5t-53 -24.5
t-28 -12q-14 0 -26.5 9t-12.5 22q0 10 8 18q12 12 82 65.5t76 53.5q11 0 16 -16q-3 -2 -28 -19t-44 -32.5t-18 -20.5q40 6 80 6q38 0 77.5 -8.5t78.5 -25.5t63.5 -49t24.5 -73z" />
    <glyph glyph-name="onesuperior" unicode="&#xb9;" horiz-adv-x="503" 
d="M502 1262q16 2 22 2t14 -0.5t9 -4.5t0.5 -10.5t-4.5 -17.5q-66 -120 -184.5 -356.5t-180.5 -350.5q-8 -13 -36.5 -19.5t-52.5 -4.5t-23 12l305 567q-21 -17 -77.5 -49.5t-80.5 -50.5q-34 -19 -41 -12q-3 8 18 30l33 25q54 40 209 195q37 43 70 45z" />
    <glyph glyph-name="ordmasculine" unicode="&#xba;" horiz-adv-x="559" 
d="M504 1065q0 -1 -8 -18.5t-10 -22.5t-11 -23t-13.5 -25t-14.5 -23t-17.5 -23t-19 -18t-22 -16t-23.5 -9t-27 -4q-34 0 -57 26q-48 -38 -91 -35q-56 1 -68.5 59.5t19.5 127.5q30 72 86.5 122.5t108.5 49.5q56 -1 68.5 -60t-19.5 -126q-25 -66 -86 -121q13 -25 49 -25
q12 0 24 4.5t22.5 14t20.5 19.5t19 24.5t16 26t15 27t11.5 23.5t9 21t6.5 14q3 8 9.5 4.5t2.5 -14.5zM356 1198q-31 9 -73 -31t-72 -104q-30 -65 -34.5 -110.5t22.5 -55.5q30 -6 69 25q-16 26 -16 51q3 43 37 43q12 0 21 -8.5t9 -20.5q0 -2 -1 -6t-1 -6q25 40 31 55
q31 63 33.5 111.5t-25.5 56.5z" />
    <glyph glyph-name="guillemotright" unicode="&#xbb;" horiz-adv-x="923" 
d="M805 307l-420 -262l-16 -2l-15 4v19q19 30 83.5 80.5t147.5 108t99 69.5q1 13 -0.5 87.5t0.5 134t10 75.5l17 8l16 -8q7 -7 19.5 -52.5t23 -94.5t22 -104t13.5 -63zM508 307l-420 -262l-14 -2q-9 0 -17 4l-2 8q0 9 18 28t47 43t63 50.5t70 52.5t64.5 46.5t48.5 34.5
l21 14l2 278q2 3 5 10t5 9l17 8l18 -8q17 -43 30 -96t25 -120t19 -98z" />
    <glyph glyph-name="onequarter" unicode="&#xbc;" horiz-adv-x="1273" 
d="M1081 696q16 26 53 37.5t70 9.5t49 -12q0 -7 -13.5 -23t-40 -41.5t-53 -50t-68.5 -61t-70.5 -61t-74 -63.5t-65.5 -56q-53 -43 -88 -88l248 6q12 25 35 69.5t43 83.5q23 26 77 36q49 9 47 -14q0 -5 -5 -13q0 -4 -29.5 -64t-48.5 -94h10q15 -2 24.5 -6t12.5 -8.5t-0.5 -10
t-14.5 -12.5t-30 -14h-31l-119 -232q-9 -9 -53.5 -18.5t-75.5 2.5q0 3 127 242l-301 -7l9 39q50 62 116 125l84 88q143 164 176 211zM1116 1241q22 25 65 23q33 -2 31 -20q0 -6 -6 -13q-19 -24 -103.5 -130.5t-155 -195t-174.5 -218t-191 -232.5t-174 -203t-152.5 -166
t-99.5 -88q-26 -17 -33.5 -9t10.5 29q165 185 528.5 640.5t454.5 582.5zM502 1262q16 2 22 2t14 -0.5t9 -4.5t0.5 -10.5t-4.5 -17.5q-66 -120 -184.5 -356.5t-180.5 -350.5q-8 -13 -36.5 -19.5t-52.5 -4.5t-23 12l305 567q-21 -17 -77.5 -49.5t-80.5 -50.5q-34 -19 -41 -12
q-3 8 18 30l33 25q54 40 209 195q37 43 70 45z" />
    <glyph glyph-name="onehalf" unicode="&#xbd;" horiz-adv-x="1273" 
d="M1055 1241q22 25 65 23q33 -2 31 -20q0 -6 -6 -13q-18 -22 -103.5 -130.5t-155 -195.5t-175 -217.5t-191.5 -232.5t-173.5 -203t-153 -166.5t-99.5 -87.5q-26 -17 -33 -9t11 29q165 185 528.5 640.5t454.5 582.5zM502 1262q16 2 22 2t14 -0.5t9 -4.5t0.5 -10.5
t-4.5 -17.5q-66 -120 -184.5 -356.5t-180.5 -350.5q-8 -13 -36.5 -19.5t-52.5 -4.5t-23 12l305 567q-21 -17 -77.5 -49.5t-80.5 -50.5q-34 -19 -41 -12q-3 8 18 30l33 25q54 40 209 195q37 43 70 45zM1266 645q0 -35 -30 -84.5t-76 -99.5t-103.5 -104t-109 -98t-97.5 -82
q-14 -12 -21 -17l-18 -17q22 -22 66.5 -41.5t80.5 -19.5q28 0 76.5 28.5t71.5 57.5q7 8 15 14t14 7.5t9 -1.5t0 -13.5t-14 -27.5q-120 -153 -202 -155q-60 -1 -118.5 18t-96.5 45l-90 -69q-30 -10 -35 -4t6 28q5 4 98.5 80t120.5 103q52 46 99.5 93.5t103.5 111t89.5 126.5
t33.5 111q0 41 -21.5 55.5t-51 6t-58 -26t-45.5 -37.5q-38 -44 -78 -125q-10 -22 -30 -19q-18 2 -14 22q0 2 1 5q34 98 112 172t176 74q59 0 97.5 -31t38.5 -86z" />
    <glyph glyph-name="threequarters" unicode="&#xbe;" horiz-adv-x="1273" 
d="M1081 696q16 26 53 37.5t70 9.5t49 -12q0 -7 -13.5 -23t-40 -41.5t-53 -50t-68.5 -61t-70.5 -61t-74 -63.5t-65.5 -56q-53 -43 -88 -88l248 6q12 25 35 69.5t43 83.5q23 26 77 36q49 9 47 -14q0 -5 -5 -13q0 -4 -29.5 -64t-48.5 -94h10q15 -2 24.5 -6t12.5 -8.5t-0.5 -10
t-14.5 -12.5t-30 -14h-31l-119 -232q-9 -9 -53.5 -18.5t-75.5 2.5q0 3 127 242l-301 -7l9 39q50 62 116 125l84 88q143 164 176 211zM647 1186q0 -135 -244 -236q58 -9 96 -39t38 -86q0 -80 -60 -156.5t-153 -123.5t-185 -47q-97 0 -125 75q-5 14 -5.5 21t4.5 11.5t22 -5.5
q11 -29 38 -49.5t58 -20.5q75 0 145 51t110 122.5t40 136.5q0 33 -17.5 54t-46.5 21q-10 0 -49 -12t-45 -14q-39 -9 -41 7q0 11 13 17q56 11 118.5 46t112 95t49.5 124q0 16 -17 24t-36 8q-39 0 -83 -29t-79 -69q-11 -13 -20.5 -11.5t-5.5 25.5q122 152 251 152
q50 0 83.5 -23t33.5 -69zM1116 1241q22 25 65 23q33 -2 31 -20q0 -6 -6 -13q-19 -24 -103.5 -130.5t-155 -195t-174.5 -218t-191 -232.5t-174 -203t-152.5 -166t-99.5 -88q-26 -17 -33.5 -9t10.5 29q165 185 528.5 640.5t454.5 582.5z" />
    <glyph glyph-name="questiondown" unicode="&#xbf;" horiz-adv-x="811" 
d="M147 -250q49 56 129 135t130 130t107 136t93 181q8 19 25.5 12t13.5 -27q-14 -58 -44.5 -121t-80.5 -134t-87.5 -119t-105.5 -130t-94 -114q-43 -55 -60.5 -103.5t-10.5 -82t32.5 -56.5t63 -30.5t85.5 0t97 30.5q49 25 85 66t30 76q-10 -40 -72 -74q-35 -18 -64 -17
t-44.5 19.5t-20 43t7.5 53.5t39 50q32 24 66 30.5t60.5 -4t45.5 -34t20 -58.5t-15 -77q-28 -62 -150 -135q-70 -40 -141.5 -54.5t-129 -5.5t-95.5 42.5t-47 84t23.5 126t108.5 161.5zM602 604q6 35 34.5 59.5t63.5 24.5t55.5 -24.5t14.5 -59.5q-4 -35 -33 -59.5t-65 -24.5
q-34 0 -55 24.5t-15 59.5z" />
    <glyph glyph-name="Agrave" unicode="&#xc0;" horiz-adv-x="1458" 
d="M1673 1208q0 -43 -18.5 -87.5t-63.5 -92t-111 -86t-171 -68t-234 -40.5q-334 -27 -594 55q-49 -44 -134.5 -179.5t-137.5 -263.5q-44 -109 -58.5 -197.5t-1 -145.5t47 -93t87.5 -42.5t119 9t142.5 59t156.5 109.5q153 129 276.5 279t203.5 295q59 106 112 110
q34 2 44 -35q13 -52 -32 -111q-6 -9 -14 -17q-146 -159 -205 -482q-23 -129 -2 -189t69 -63t111 39.5t124 118.5q117 152 178 291q12 27 30 29q14 1 12 -16l-7 -21q-32 -72 -85.5 -165.5t-105.5 -162.5q-56 -75 -137.5 -125.5t-163.5 -50.5q-80 0 -121 64.5t-41 152
t21.5 174.5t56.5 133q-35 -42 -72.5 -82.5t-88.5 -91.5t-103 -94t-110.5 -85.5t-118 -72t-118.5 -47.5t-118.5 -16.5t-112.5 24.5q-103 44 -130.5 169.5t10.5 276t117.5 306t178.5 264.5q-131 62 -192 131q-40 43 -45 117t27 96q17 22 32 10q17 -13 2 -47q-32 -71 41 -147
q67 -73 170 -119q195 211 437 337t509 126q153 0 242.5 -67t89.5 -173zM1593 1231q0 81 -67.5 124.5t-177.5 43.5q-105 0 -205 -25.5t-183 -67.5t-165 -104.5t-148 -128t-135 -147.5q235 -74 563 -47q238 20 378 116t140 236zM1536 1503q0 -18 -18 -18q-8 0 -65.5 29
t-122 62.5t-77.5 39.5q-71 32 -71 84q0 17 11 29t26 12q25 0 171 -113.5t146 -124.5z" />
    <glyph glyph-name="Aacute" unicode="&#xc1;" horiz-adv-x="1458" 
d="M1753 1683q-10 -21 -170.5 -93.5t-171.5 -67.5q-14 8 -6 24q3 6 52.5 42t105.5 75t67 49q62 43 107 21q13 -6 17.5 -21.5t-1.5 -28.5zM1673 1208q0 -43 -18.5 -87.5t-63.5 -92t-111 -86t-171 -68t-234 -40.5q-334 -27 -594 55q-49 -44 -134.5 -179.5t-137.5 -263.5
q-44 -109 -58.5 -197.5t-1 -145.5t47 -93t87.5 -42.5t119 9t142.5 59t156.5 109.5q153 129 276.5 279t203.5 295q59 106 112 110q34 2 44 -35q13 -52 -32 -111q-6 -9 -14 -17q-146 -159 -205 -482q-23 -129 -2 -189t69 -63t111 39.5t124 118.5q117 152 178 291q12 27 30 29
q14 1 12 -16l-7 -21q-32 -72 -85.5 -165.5t-105.5 -162.5q-56 -75 -137.5 -125.5t-163.5 -50.5q-80 0 -121 64.5t-41 152t21.5 174.5t56.5 133q-35 -42 -72.5 -82.5t-88.5 -91.5t-103 -94t-110.5 -85.5t-118 -72t-118.5 -47.5t-118.5 -16.5t-112.5 24.5
q-103 44 -130.5 169.5t10.5 276t117.5 306t178.5 264.5q-131 62 -192 131q-40 43 -45 117t27 96q17 22 32 10q17 -13 2 -47q-32 -71 41 -147q67 -73 170 -119q195 211 437 337t509 126q153 0 242.5 -67t89.5 -173zM1593 1231q0 81 -67.5 124.5t-177.5 43.5
q-105 0 -205 -25.5t-183 -67.5t-165 -104.5t-148 -128t-135 -147.5q235 -74 563 -47q238 20 378 116t140 236z" />
    <glyph glyph-name="Acircumflex" unicode="&#xc2;" horiz-adv-x="1458" 
d="M1608 1518q5 -11 -11 -12q-22 0 -30 12l-94 145q-244 -131 -271 -145q-18 -16 -45 -11q-16 4 -6 11l305 217q76 10 78 0zM1673 1208q0 -43 -18.5 -87.5t-63.5 -92t-111 -86t-171 -68t-234 -40.5q-334 -27 -594 55q-49 -44 -134.5 -179.5t-137.5 -263.5
q-44 -109 -58.5 -197.5t-1 -145.5t47 -93t87.5 -42.5t119 9t142.5 59t156.5 109.5q153 129 276.5 279t203.5 295q59 106 112 110q34 2 44 -35q13 -52 -32 -111q-6 -9 -14 -17q-146 -159 -205 -482q-23 -129 -2 -189t69 -63t111 39.5t124 118.5q117 152 178 291q12 27 30 29
q14 1 12 -16l-7 -21q-32 -72 -85.5 -165.5t-105.5 -162.5q-56 -75 -137.5 -125.5t-163.5 -50.5q-80 0 -121 64.5t-41 152t21.5 174.5t56.5 133q-35 -42 -72.5 -82.5t-88.5 -91.5t-103 -94t-110.5 -85.5t-118 -72t-118.5 -47.5t-118.5 -16.5t-112.5 24.5
q-103 44 -130.5 169.5t10.5 276t117.5 306t178.5 264.5q-131 62 -192 131q-40 43 -45 117t27 96q17 22 32 10q17 -13 2 -47q-32 -71 41 -147q67 -73 170 -119q195 211 437 337t509 126q153 0 242.5 -67t89.5 -173zM1593 1231q0 81 -67.5 124.5t-177.5 43.5
q-105 0 -205 -25.5t-183 -67.5t-165 -104.5t-148 -128t-135 -147.5q235 -74 563 -47q238 20 378 116t140 236z" />
    <glyph glyph-name="Atilde" unicode="&#xc3;" horiz-adv-x="1458" 
d="M1778 1731q-34 -71 -86 -120t-117 -44q-43 4 -124.5 40.5t-123.5 39.5q-35 3 -62.5 -16.5t-43.5 -51.5q-4 -11 -32 -6q-16 4 -15 10q91 163 200 154q45 -3 126.5 -37t121.5 -37q74 -8 113 72q4 10 31 4q13 -4 12 -8zM1673 1208q0 -43 -18.5 -87.5t-63.5 -92t-111 -86
t-171 -68t-234 -40.5q-334 -27 -594 55q-49 -44 -134.5 -179.5t-137.5 -263.5q-44 -109 -58.5 -197.5t-1 -145.5t47 -93t87.5 -42.5t119 9t142.5 59t156.5 109.5q153 129 276.5 279t203.5 295q59 106 112 110q34 2 44 -35q13 -52 -32 -111q-6 -9 -14 -17
q-146 -159 -205 -482q-23 -129 -2 -189t69 -63t111 39.5t124 118.5q117 152 178 291q12 27 30 29q14 1 12 -16l-7 -21q-32 -72 -85.5 -165.5t-105.5 -162.5q-56 -75 -137.5 -125.5t-163.5 -50.5q-80 0 -121 64.5t-41 152t21.5 174.5t56.5 133q-35 -42 -72.5 -82.5
t-88.5 -91.5t-103 -94t-110.5 -85.5t-118 -72t-118.5 -47.5t-118.5 -16.5t-112.5 24.5q-103 44 -130.5 169.5t10.5 276t117.5 306t178.5 264.5q-131 62 -192 131q-40 43 -45 117t27 96q17 22 32 10q17 -13 2 -47q-32 -71 41 -147q67 -73 170 -119q195 211 437 337t509 126
q153 0 242.5 -67t89.5 -173zM1593 1231q0 81 -67.5 124.5t-177.5 43.5q-105 0 -205 -25.5t-183 -67.5t-165 -104.5t-148 -128t-135 -147.5q235 -74 563 -47q238 20 378 116t140 236z" />
    <glyph glyph-name="Adieresis" unicode="&#xc4;" horiz-adv-x="1458" 
d="M1714 1673q0 -29 -18 -48t-47 -19q-30 0 -50 18.5t-20 48.5q0 29 18.5 48.5t47.5 19.5q30 0 49.5 -19t19.5 -49zM1450 1673q0 -29 -18.5 -48t-47.5 -19q-30 0 -49.5 18.5t-19.5 48.5t18 49t47 19q30 0 50 -19t20 -49zM1673 1208q0 -43 -18.5 -87.5t-63.5 -92t-111 -86
t-171 -68t-234 -40.5q-334 -27 -594 55q-49 -44 -134.5 -179.5t-137.5 -263.5q-44 -109 -58.5 -197.5t-1 -145.5t47 -93t87.5 -42.5t119 9t142.5 59t156.5 109.5q153 129 276.5 279t203.5 295q59 106 112 110q34 2 44 -35q13 -52 -32 -111q-6 -9 -14 -17
q-146 -159 -205 -482q-23 -129 -2 -189t69 -63t111 39.5t124 118.5q117 152 178 291q12 27 30 29q14 1 12 -16l-7 -21q-32 -72 -85.5 -165.5t-105.5 -162.5q-56 -75 -137.5 -125.5t-163.5 -50.5q-80 0 -121 64.5t-41 152t21.5 174.5t56.5 133q-35 -42 -72.5 -82.5
t-88.5 -91.5t-103 -94t-110.5 -85.5t-118 -72t-118.5 -47.5t-118.5 -16.5t-112.5 24.5q-103 44 -130.5 169.5t10.5 276t117.5 306t178.5 264.5q-131 62 -192 131q-40 43 -45 117t27 96q17 22 32 10q17 -13 2 -47q-32 -71 41 -147q67 -73 170 -119q195 211 437 337t509 126
q153 0 242.5 -67t89.5 -173zM1593 1231q0 81 -67.5 124.5t-177.5 43.5q-105 0 -205 -25.5t-183 -67.5t-165 -104.5t-148 -128t-135 -147.5q235 -74 563 -47q238 20 378 116t140 236z" />
    <glyph glyph-name="Aring" unicode="&#xc5;" horiz-adv-x="1458" 
d="M1546 1628q-2 -32 15 -54t43 -22q27 0 46.5 23.5t22.5 56.5q3 32 -14 54t-43 20q-27 -2 -47 -24t-23 -54zM1475 1624q4 45 48.5 78.5t100.5 36.5q56 1 92 -30.5t31 -76.5q-6 -46 -49.5 -79.5t-100.5 -34.5t-92.5 30t-29.5 76zM1673 1208q0 -43 -18.5 -87.5t-63.5 -92
t-111 -86t-171 -68t-234 -40.5q-334 -27 -594 55q-49 -44 -134.5 -179.5t-137.5 -263.5q-44 -109 -58.5 -197.5t-1 -145.5t47 -93t87.5 -42.5t119 9t142.5 59t156.5 109.5q153 129 276.5 279t203.5 295q59 106 112 110q34 2 44 -35q13 -52 -32 -111q-6 -9 -14 -17
q-146 -159 -205 -482q-23 -129 -2 -189t69 -63t111 39.5t124 118.5q117 152 178 291q12 27 30 29q14 1 12 -16l-7 -21q-32 -72 -85.5 -165.5t-105.5 -162.5q-56 -75 -137.5 -125.5t-163.5 -50.5q-80 0 -121 64.5t-41 152t21.5 174.5t56.5 133q-35 -42 -72.5 -82.5
t-88.5 -91.5t-103 -94t-110.5 -85.5t-118 -72t-118.5 -47.5t-118.5 -16.5t-112.5 24.5q-103 44 -130.5 169.5t10.5 276t117.5 306t178.5 264.5q-131 62 -192 131q-40 43 -45 117t27 96q17 22 32 10q17 -13 2 -47q-32 -71 41 -147q67 -73 170 -119q195 211 437 337t509 126
q153 0 242.5 -67t89.5 -173zM1593 1231q0 81 -67.5 124.5t-177.5 43.5q-105 0 -205 -25.5t-183 -67.5t-165 -104.5t-148 -128t-135 -147.5q235 -74 563 -47q238 20 378 116t140 236z" />
    <glyph glyph-name="AE" unicode="&#xc6;" horiz-adv-x="2811" 
d="M2656 449q125 -62 111 -171t-152 -225q-154 -129 -405 -207.5t-520 -78.5q-119 0 -221.5 19t-179 52.5t-136 79t-96 100.5t-54 115t-14.5 123t25 125q-36 -42 -74 -83t-88 -90.5t-101.5 -91.5t-109 -83.5t-115.5 -69t-116 -44.5t-116 -15t-110 24q-97 41 -131 164.5
t2.5 297t137.5 355.5q84 151 180 261q-137 65 -205 141q-42 49 -47 128t29 103q18 23 34 13q19 -12 3 -49q0 -1 -1 -3q-15 -28 -11.5 -57t16.5 -52t38 -52q66 -74 181 -129q102 114 210.5 205.5t234.5 168t268 118.5t286 42q195 0 291 -102q154 91 345 135t341 26
q124 -14 208 -53.5t117.5 -91t29 -112t-46.5 -115.5t-122.5 -101.5t-185.5 -70.5q-75 -18 -86 0q-7 13 25 27q22 9 53 12q36 4 73.5 23.5t68 50t53 68t33.5 77t4 78.5t-30.5 70.5t-74 54.5t-123.5 30q-161 17 -336 -33.5t-301 -148.5q16 -43 16 -84q0 -68 -44.5 -140.5
t-137.5 -131.5q16 -67 74.5 -110.5t128.5 -62t137 -33.5t109.5 -38t37.5 -62q-6 -24 -40 -32t-92.5 -6.5t-124.5 4t-152 -4.5t-160 -28q-82 -23 -150 -73.5t-113.5 -115t-68 -140t-20 -150t38.5 -144t99 -122.5t169 -85t242 -32q236 0 469 88.5t379 208.5q118 100 150 192
q30 88 -44 114q-6 2 -12 3q-59 14 -59 31q0 14 31 11q22 -2 48 -15zM1698 807q-76 26 -147.5 72.5t-108.5 103.5q-138 -51 -318 -68q-366 -32 -618 48q-73 -102 -160.5 -248.5t-136.5 -268.5q-44 -109 -58.5 -197.5t-1 -145.5t47 -93t87.5 -42.5t119 9t142.5 59t156.5 109.5
q155 131 304.5 311.5t232.5 334.5q58 109 113 119q37 7 51 -32q17 -50 -22 -112q-11 -17 -25 -33l-10 -16q62 30 135 51q101 32 217 39zM1645 1446q-66 84 -230 84q-111 0 -216.5 -29.5t-190.5 -75.5t-172.5 -118.5t-153.5 -141.5t-143 -161q120 -38 255 -47t330 8
q162 11 295 65q-8 32 -8 51q1 105 63.5 198t170.5 167zM1677 1346q-97 -107 -102 -211l-2 -9q104 93 104 220z" />
    <glyph glyph-name="Ccedilla" unicode="&#xc7;" horiz-adv-x="1454" 
d="M1004 -428q0 -83 -107 -156q-50 -34 -156 -34q-24 0 -62.5 5t-84.5 15t-78.5 29.5t-32.5 44.5q0 14 13 14q4 0 9 -2.5t7.5 -5t7.5 -8t6 -6.5q25 -26 77 -39t99 -13q58 0 115 17.5t82 56.5q29 45 29 84q0 56 -47.5 86.5t-106.5 30.5q-34 0 -66 -12.5t-53 -24.5t-28 -12
q-14 0 -26.5 8.5t-12.5 21.5q0 11 8 19q11 13 131 104q-134 10 -256 62q-107 45 -182 120.5t-112.5 167t-50 197.5t2.5 214.5t47.5 214.5t83 201.5t111.5 172.5q-28 106 -32.5 225t23.5 244q4 17 16 26t21 -0.5t4 -35.5q-26 -149 17 -390q164 212 385 307.5t467 67.5
q274 -31 396 -194q98 -131 67 -302q-30 -166 -167 -291q-172 -157 -432 -174q-97 -6 -200 9q-367 53 -508 348q-15 -20 -37.5 -68t-49.5 -119.5t-46.5 -156.5t-32 -175t-3.5 -179t37.5 -165t93.5 -136t161 -90q163 -50 349 -27t337 113q64 38 114 81.5t90 100.5t66.5 104.5
t65.5 126.5q11 24 24 19q14 -5 2 -34q-1 -2 -2 -5q-77 -158 -143.5 -250t-185.5 -176q-239 -162 -500 -156q-4 -3 -28 -20t-42.5 -32t-17.5 -20q47 7 80 7q38 0 77.5 -8.5t78.5 -25.5t63.5 -49t24.5 -73zM1290 1511q-224 33 -444.5 -94.5t-376.5 -365.5q126 -323 498 -365
q288 -32 482 105q139 100 183 252q43 151 -27 277q-80 142 -273 183q-20 5 -42 8z" />
    <glyph glyph-name="Egrave" unicode="&#xc8;" horiz-adv-x="1847" 
d="M1649 1522q0 -15 -19 -15q-6 0 -56.5 25.5t-109.5 57t-69 36.5q-66 28 -66 78q0 15 10 26t23 11q24 0 155.5 -104t131.5 -115zM1622 399q110 -59 88 -160.5t-160 -209.5q-154 -121 -395.5 -195t-492.5 -74q-150 0 -269 32t-192.5 86t-114.5 126t-44 150t28.5 159
t93.5 153.5t160.5 133.5t220.5 98q112 32 207 35q-47 17 -88.5 38.5t-79.5 51t-59 67.5t-17 79q9 97 79 184t174.5 148t227.5 104t244.5 59.5t218.5 5.5q114 -13 189 -48.5t102 -81.5t18 -99.5t-52 -102.5t-121 -90.5t-177 -62.5q-70 -16 -80 -1q-8 11 23 24q21 9 51 12
q45 4 92.5 33.5t83.5 71t52 90t7.5 91.5t-58.5 75.5t-138 41.5q-157 14 -329.5 -35t-301 -149.5t-151.5 -220.5q-13 -72 15 -121.5t79 -71.5t112 -38.5t114 -25.5t85 -30.5t25 -54.5q-8 -28 -60 -34.5t-120 -0.5t-170.5 0.5t-188.5 -29.5q-78 -22 -146 -69t-115.5 -107.5
t-75 -131t-30.5 -140.5t25 -135t83 -114.5t151.5 -79.5t224.5 -30q220 0 434 82t362 197q121 95 157 182q35 83 -37 105q-3 1 -7 2q-49 12 -46 27q3 14 40 12q25 -1 49 -13z" />
    <glyph glyph-name="Eacute" unicode="&#xc9;" horiz-adv-x="1847" 
d="M1825 1686q-10 -20 -163 -89.5t-163 -64.5q-15 7 -4 22q3 5 49.5 39.5t100 72t63.5 46.5q58 40 100 21q13 -6 18 -20t-1 -27zM1622 393q110 -59 88 -160.5t-160 -209.5q-154 -121 -395.5 -195t-492.5 -74q-150 0 -269 32t-192.5 86t-114.5 126t-44 150t28.5 159
t93.5 153.5t160.5 133.5t220.5 98q112 32 207 35q-46 16 -89 40.5t-80.5 57t-59 74t-17.5 84.5q7 85 57.5 162t128 134t175 102.5t199.5 71.5t201 35.5t181 0.5q115 -13 190.5 -50.5t103 -86t18.5 -105t-53 -108t-123 -95t-179 -65.5q-71 -16 -81 0q-6 12 24 25q22 9 51 12
q46 5 94 35.5t84 74.5t53 95t8.5 96t-59 79.5t-139.5 43.5q-119 12 -249.5 -14t-241.5 -78.5t-190.5 -135.5t-96.5 -178q-10 -58 4 -102t44.5 -70t71.5 -46t86 -30.5t87 -21.5t75 -21t50 -28.5t12 -44.5q-8 -28 -60 -34.5t-120 -0.5t-170.5 0.5t-188.5 -29.5
q-78 -22 -146 -69t-115.5 -107.5t-75 -131t-30.5 -140.5t25 -135t83 -114.5t151.5 -79.5t224.5 -30q220 0 434 82t362 197q121 95 157 182q35 83 -37 105q-3 1 -7 2q-49 12 -46 27q3 14 40 12q25 -1 49 -13z" />
    <glyph glyph-name="Ecircumflex" unicode="&#xca;" horiz-adv-x="1847" 
d="M1622 399q110 -59 88 -160.5t-160 -209.5q-154 -121 -395.5 -195t-492.5 -74q-150 0 -269 32t-192.5 86t-114.5 126t-44 150t28.5 159t93.5 153.5t160.5 133.5t220.5 98q112 32 207 35q-47 17 -88.5 38.5t-79.5 51t-59 67.5t-17 79q9 97 79 184t174.5 148t227.5 104
t244.5 59.5t218.5 5.5q114 -13 189 -48.5t102 -81.5t18 -99.5t-52 -102.5t-121 -90.5t-177 -62.5q-70 -16 -80 -1q-8 11 23 24q21 9 51 12q45 4 92.5 33.5t83.5 71t52 90t7.5 91.5t-58.5 75.5t-138 41.5q-157 14 -329.5 -35t-301 -149.5t-151.5 -220.5q-13 -72 15 -121.5
t79 -71.5t112 -38.5t114 -25.5t85 -30.5t25 -54.5q-8 -28 -60 -34.5t-120 -0.5t-170.5 0.5t-188.5 -29.5q-78 -22 -146 -69t-115.5 -107.5t-75 -131t-30.5 -140.5t25 -135t83 -114.5t151.5 -79.5t224.5 -30q220 0 434 82t362 197q121 95 157 182q35 83 -37 105q-3 1 -7 2
q-49 12 -46 27q3 14 40 12q25 -1 49 -13zM1640 1528q5 -9 -9 -10q-23 -2 -32 10l-92 139q-241 -125 -266 -139q-18 -15 -46 -9q-14 3 -5 9l301 207q76 10 78 0z" />
    <glyph glyph-name="Edieresis" unicode="&#xcb;" horiz-adv-x="1847" 
d="M1696 1673q0 -29 -18.5 -48t-47.5 -19q-30 0 -49.5 18.5t-19.5 48.5t18 49t47 19q30 0 50 -19t20 -49zM1432 1673q0 -29 -18.5 -48t-47.5 -19q-30 0 -50 18.5t-20 48.5q0 29 18.5 48.5t47.5 19.5q30 0 50 -19t20 -49zM1622 403q110 -59 88 -160.5t-160 -209.5
q-154 -121 -395.5 -195t-492.5 -74q-150 0 -269 32t-192.5 86t-114.5 126t-44 150t28.5 159t93.5 153.5t160.5 133.5t220.5 98q112 32 207 35q-47 17 -88.5 38.5t-79.5 51t-59 67.5t-17 79q9 97 79 184t174.5 148.5t227.5 104.5t244.5 59.5t218.5 5.5q114 -13 189 -48.5
t102 -81.5t18 -100t-52 -103t-121 -90.5t-177 -62.5q-70 -16 -80 -1q-8 11 23 24q21 9 51 12q45 4 92.5 33.5t83.5 71t52 90t7.5 91.5t-58.5 75.5t-138 41.5q-157 14 -329.5 -35t-301 -149.5t-151.5 -220.5q-13 -72 15 -121.5t79 -71.5t112 -38.5t114 -25.5t85 -30.5
t25 -54.5q-8 -28 -60 -34.5t-120 -0.5t-170.5 0.5t-188.5 -29.5q-78 -22 -146 -69t-115.5 -107.5t-75 -131t-30.5 -140t25 -134.5t83 -114.5t151.5 -79.5t224.5 -30q220 0 434 81.5t362 196.5q121 95 157 182q35 83 -37 105q-3 1 -7 2q-49 12 -46 27q3 14 40 12
q25 -1 49 -13z" />
    <glyph glyph-name="Igrave" unicode="&#xcc;" horiz-adv-x="1855" 
d="M2460 1384q1 -29 -9 -52t-32 -39.5t-42.5 -27.5t-54.5 -20t-53.5 -13t-52.5 -9q-67 -123 -121.5 -266.5t-91.5 -266t-80 -248t-110 -256t-158 -247.5q-165 -212 -372.5 -338t-436.5 -164q-173 -29 -327 -16.5t-270 64t-189.5 139t-85 209.5t43.5 276q36 95 131 180
t150 88q15 1 21 -2t3.5 -8t-8.5 -10t-14 -9q-64 -28 -141.5 -121t-106.5 -209q-27 -111 -5 -198.5t79 -151.5t139 -106t175.5 -62t188 -19.5t177.5 21.5q123 31 239 90t208 131.5t176.5 161.5t147 175.5t117 179t89.5 167t61 144.5q79 209 166 388.5t141 272.5
q-75 -16 -129 -29t-133.5 -34.5t-139 -42.5t-133 -52.5t-128.5 -65.5t-113 -79.5t-99 -96t-73.5 -115t-48.5 -136.5q-34 -150 38 -232t202 -32q75 30 121.5 87.5t58 113t9 100t-16.5 57.5q-4 5 4 17.5t19 15.5t20 -14q58 -112 -12.5 -243.5t-200.5 -180.5
q-64 -25 -128 -23.5t-114.5 27t-88.5 69.5t-49.5 104.5t1.5 133.5q115 526 1167 705q18 37 66.5 95t91.5 73q46 15 81 2.5t36 -52.5zM2361 1376q-22 9 -110 -102q127 26 134 72q3 19 -16 28q-4 2 -8 2zM2521 1526q0 -7 -6 -12t-12 -5t-56.5 25.5t-110 57t-69.5 36.5
q-63 33 -63 78q0 15 9 25t23 10q23 0 154 -102t131 -113z" />
    <glyph glyph-name="Iacute" unicode="&#xcd;" horiz-adv-x="1855" 
d="M2449 1448q1 -56 -40 -86.5t-117 -56.5q-13 0 -45.5 -9.5t-40.5 -9.5q-67 -123 -121.5 -266.5t-91.5 -266t-80 -248t-110 -256t-158 -247.5q-165 -212 -372.5 -338t-436.5 -164q-173 -29 -327 -16.5t-270 64t-189.5 139t-85 209.5t43.5 276q36 95 131 180t150 88
q15 1 21 -2t3.5 -7.5t-8.5 -9.5t-14 -9q-64 -28 -141.5 -121t-106.5 -209q-27 -111 -5 -198.5t79 -151.5t139 -106t175.5 -62t188 -19.5t177.5 21.5q123 31 239 90t208 131t176.5 161t147 175.5t117 179t89.5 167.5t61 144q79 209 166.5 389.5t140.5 272.5q-75 -16 -129 -29
t-133.5 -34.5t-139 -42.5t-133 -52.5t-128.5 -65.5t-113 -79.5t-99 -96t-73.5 -115t-48.5 -136.5q-34 -150 37.5 -232.5t201.5 -32.5q75 30 121.5 87.5t58 113.5t9 100.5t-16.5 57.5q-4 5 4 17t19 15t20 -14q58 -112 -12.5 -243.5t-200.5 -180.5q-64 -25 -128 -23t-114 27
t-88 69.5t-49.5 105t1.5 133.5q17 78 55.5 149t89.5 127t119.5 106.5t138 88t154 71.5t159 57.5t161 44.5t151.5 34t139 26q18 37 66.5 95t91.5 73q46 15 80.5 2.5t35.5 -51.5zM2351 1440q-21 9 -110 -103q127 26 134 72q3 20 -16 29q-4 2 -8 2zM2382 1675
q-11 -24 -190.5 -105.5t-192.5 -76.5q-7 4 -9 12.5t3 14.5q3 7 58.5 47t118.5 84.5t75 54.5q66 50 118 25q15 -8 20.5 -24.5t-1.5 -31.5z" />
    <glyph glyph-name="Icircumflex" unicode="&#xce;" horiz-adv-x="1855" 
d="M2449 1448q1 -56 -40 -86.5t-117 -56.5q-13 0 -45.5 -9.5t-40.5 -9.5q-67 -123 -121.5 -266.5t-91.5 -266t-80 -248t-110 -256t-158 -247.5q-165 -212 -372.5 -338t-436.5 -164q-173 -29 -327 -16.5t-270 64t-189.5 139t-85 209.5t43.5 276q36 95 131 180t150 88
q15 1 21 -2t3.5 -7.5t-8.5 -9.5t-14 -9q-64 -28 -141.5 -121t-106.5 -209q-27 -111 -5 -198.5t79 -151.5t139 -106t175.5 -62t188 -19.5t177.5 21.5q123 31 239 90t208 131t176.5 161t147 175.5t117 179t89.5 167.5t61 144q79 209 166.5 389.5t140.5 272.5q-75 -16 -129 -29
t-133.5 -34.5t-139 -42.5t-133 -52.5t-128.5 -65.5t-113 -79.5t-99 -96t-73.5 -115t-48.5 -136.5q-34 -150 37.5 -232.5t201.5 -32.5q75 30 121.5 87.5t58 113.5t9 100.5t-16.5 57.5q-4 5 4 17t19 15t20 -14q58 -112 -12.5 -243.5t-200.5 -180.5q-64 -25 -128 -23t-114 27
t-88 69.5t-49.5 105t1.5 133.5q17 78 55.5 149t89.5 127t119.5 106.5t138 88t154 71.5t159 57.5t161 44.5t151.5 34t139 26q18 37 66.5 95t91.5 73q46 15 80.5 2.5t35.5 -51.5zM2351 1440q-21 9 -110 -103q127 26 134 72q3 20 -16 29q-4 2 -8 2zM2535 1518q5 -11 -11 -12
q-22 -1 -30 12l-94 145q-243 -131 -270 -145q-18 -16 -45 -11q-16 4 -6 11l305 217q76 10 78 0z" />
    <glyph glyph-name="Idieresis" unicode="&#xcf;" horiz-adv-x="1855" 
d="M2449 1448q1 -56 -40 -86.5t-117 -56.5q-13 0 -45.5 -9.5t-40.5 -9.5q-67 -123 -121.5 -266.5t-91.5 -266t-80 -248t-110 -256t-158 -247.5q-165 -212 -372.5 -338t-436.5 -164q-173 -29 -327 -16.5t-270 64t-189.5 139t-85 209.5t43.5 276q36 95 131 180t150 88
q15 1 21 -2t3.5 -7.5t-8.5 -9.5t-14 -9q-64 -28 -141.5 -121t-106.5 -209q-27 -111 -5 -198.5t79 -151.5t139 -106t175.5 -62t188 -19.5t177.5 21.5q123 31 239 90t208 131t176.5 161t147 175.5t117 179t89.5 167.5t61 144q79 209 166.5 389.5t140.5 272.5q-75 -16 -129 -29
t-133.5 -34.5t-139 -42.5t-133 -52.5t-128.5 -65.5t-113 -79.5t-99 -96t-73.5 -115t-48.5 -136.5q-34 -150 37.5 -232.5t201.5 -32.5q75 30 121.5 87.5t58 113.5t9 100.5t-16.5 57.5q-4 5 4 17t19 15t20 -14q58 -112 -12.5 -243.5t-200.5 -180.5q-64 -25 -128 -23t-114 27
t-88 69.5t-49.5 105t1.5 133.5q17 78 55.5 149t89.5 127t119.5 106.5t138 88t154 71.5t159 57.5t161 44.5t151.5 34t139 26q18 37 66.5 95t91.5 73q46 15 80.5 2.5t35.5 -51.5zM2351 1440q-21 9 -110 -103q127 26 134 72q3 20 -16 29q-4 2 -8 2zM2595 1661
q0 -29 -18.5 -48.5t-47.5 -19.5q-30 0 -49.5 19t-19.5 49t18 49t47 19q30 0 50 -19t20 -49zM2331 1661q0 -29 -18.5 -48.5t-47.5 -19.5q-30 0 -50 19t-20 49q0 29 18.5 48.5t47.5 19.5q30 0 50 -19t20 -49z" />
    <glyph glyph-name="Eth" unicode="&#xd0;" horiz-adv-x="2103" 
d="M2095 489q-13 -139 -84 -254t-177.5 -187t-239.5 -104.5t-271 -15.5q-312 39 -555 146q-228 -184 -512 -148q-161 19 -222 116q-48 76 -12 158t136 115q121 40 282 -16q85 -32 312 -152q139 134 299 426l-168 -18q-14 -2 -26 22.5t-6.5 50t32.5 25.5q117 0 211 -2
q7 13 62.5 118.5t70.5 133t63.5 113.5t77.5 128.5t74 104t88 109.5q-153 92 -332.5 122.5t-372.5 -7.5q-273 -58 -440 -228q-125 -126 -142 -262q-15 -125 71 -193q32 -25 75 -38q91 -25 159.5 -7.5t115 63.5t70.5 91t26 76q1 13 18 13q21 0 23 -21v-11
q-11 -74 -54.5 -134.5t-104.5 -92.5t-133.5 -42.5t-139.5 15.5q-131 46 -190 162q-63 127 -9 269q64 168 270 280q174 94 426 131q187 27 373.5 -5t347.5 -118l51 60q29 25 88 65.5t84 48.5q52 21 54 5q2 -13 -33 -35q-34 -23 -59 -56l-97 -139q218 -144 333 -371.5
t87 -509.5zM1341 590q-57 0 -151 -4q-169 -265 -295 -402q-29 -32 -78 -73q227 -102 504 -127q129 -12 245 24.5t199 107.5t136 167t65 202q25 244 -67.5 455t-272.5 352q-73 -114 -210.5 -341.5t-184.5 -303.5q15 0 49 -1t53 -1q32 -1 41 -25q8 -20 -15 -27zM698 106
q-24 12 -70.5 35t-76 37.5t-74.5 33.5t-88 34q-134 46 -206 -17q-50 -44 -41 -113q9 -71 75 -108q38 -22 90 -24q211 -9 391 122z" />
    <glyph glyph-name="Ntilde" unicode="&#xd1;" horiz-adv-x="2127" 
d="M2441 1311q-1 -85 -48.5 -207.5t-108 -234t-154.5 -287t-156 -310.5q-123 -270 -104 -437q14 -122 100 -137q52 -10 123 23q66 31 85 8q14 -19 -13 -46q-40 -42 -117 -39q-208 9 -271 145t21 385q27 81 143.5 322.5t220 470.5t117.5 321q12 68 -21.5 98t-93.5 22
t-134 -44q-238 -113 -455 -373q-69 -84 -139.5 -189t-122 -192t-115 -210.5t-95.5 -190t-89.5 -188.5t-71.5 -152q-21 -44 -84 -56q-56 -11 -79 14q-11 12 -7 30q40 59 110 194t149 306t152 369t107 351q36 162 12.5 257t-86 137t-157 36.5t-199 -44.5t-213.5 -107
q-261 -162 -405 -416q-121 -213 -118 -409q2 -173 102 -251q62 -49 153 -49q181 0 329 136q112 103 152 229q38 120 -16 181q-45 51 -144 38q-19 -2 -23.5 5.5t2.5 16.5t17 11q171 41 230 -52q49 -78 2 -211q-50 -141 -177 -249q-167 -143 -378 -143q-134 0 -234 83
t-130 234t54 362q70 169 222.5 319.5t339.5 252.5q73 40 153.5 68.5t163 42.5t158.5 11.5t140.5 -28.5t110 -72.5t65.5 -126t7 -184.5q-4 -33 -10.5 -66t-19.5 -73t-21 -64.5t-29 -73t-27.5 -64t-32.5 -72t-30 -64.5q-57 -124 -53 -125q2 -1 28 44l1 1v1l1 1l34 55
q125 194 270 369q273 329 485 426q74 35 148 47.5t136.5 1t100.5 -59.5t37 -128zM2394 1731q-73 -143 -168 -136q-36 3 -103 33.5t-102 32.5q-29 3 -52 -12.5t-36 -42.5q-4 -10 -29 -4q-10 4 -10 8q77 134 166 127q38 -3 105 -31t100 -31q64 -5 94 60q4 9 27 3q8 -3 8 -7z
" />
    <glyph glyph-name="Ograve" unicode="&#xd2;" horiz-adv-x="1605" 
d="M1499 1511q0 -18 -18 -18q-7 0 -61.5 28t-116.5 60.5t-74 38.5q-68 33 -68 84q0 15 10 26t25 11q24 0 163.5 -109.5t139.5 -120.5zM1825 1081q-122 -190 -305 -307q-8 -99 -47 -219q-48 -147 -153 -291t-245.5 -253t-303 -154t-325.5 6q-86 28 -150 103.5t-95 178.5
t-23.5 233.5t58.5 260.5q-144 96 -158 258q-25 246 151 423q149 149 388 203q246 56 470 -15q241 -76 355 -274q95 -163 86 -388q204 136 266 258q9 19 27 19q18 -1 13 -21q-2 -9 -9 -21zM1403 780q33 371 -158 568q-142 146 -366 161q-207 14 -392 -85q-179 -96 -256 -258
q-64 -133 -41 -287q12 -95 82 -156q30 63 76 135t109 151t134 141t150.5 106.5t158 48t157.5 -36.5q15 -8 15.5 -16.5t-9.5 -12.5t-23 0q-73 23 -158.5 -12t-161 -104t-146.5 -158t-120 -169t-77 -143q186 -87 478.5 -48.5t547.5 175.5zM1391 709q-255 -136 -548 -172
t-497 45q-37 -99 -52 -198t-6 -188.5t51 -161t114 -106.5q182 -84 361.5 -2.5t323 255.5t216.5 382q29 86 37 146z" />
    <glyph glyph-name="Oacute" unicode="&#xd3;" horiz-adv-x="1605" 
d="M1825 1081q-122 -190 -305 -307q-8 -99 -47 -219q-48 -147 -153 -291t-245.5 -253t-303 -154t-325.5 6q-86 28 -150 103.5t-95 178.5t-23.5 233.5t58.5 260.5q-144 96 -158 258q-25 246 151 423q149 149 388 203q246 56 470 -15q241 -76 355 -274q95 -163 86 -388
q204 136 266 258q9 19 27 19q18 -1 13 -21q-2 -9 -9 -21zM1403 780q33 371 -158 568q-142 146 -366 161q-207 14 -392 -85q-179 -96 -256 -258q-64 -133 -41 -287q12 -95 82 -156q30 63 76 135t109 151t134 141t150.5 106.5t158 48t157.5 -36.5q15 -8 15.5 -16.5t-9.5 -12.5
t-23 0q-73 23 -158.5 -12t-161 -104t-146.5 -158t-120 -169t-77 -143q186 -87 478.5 -48.5t547.5 175.5zM1391 709q-255 -136 -548 -172t-497 45q-37 -99 -52 -198t-6 -188.5t51 -161t114 -106.5q182 -84 361.5 -2.5t323 255.5t216.5 382q29 86 37 146zM1620 1675
q-11 -24 -190.5 -105.5t-192.5 -76.5q-7 4 -9 12.5t3 14.5q3 7 58.5 47t118.5 84.5t75 54.5q67 51 119 25q15 -7 20.5 -24t-2.5 -32z" />
    <glyph glyph-name="Ocircumflex" unicode="&#xd4;" horiz-adv-x="1605" 
d="M1425 1556q3 -8 -8 -9q-19 -1 -26 9l-78 121q-200 -109 -223 -121q-15 -13 -38 -8q-11 2 -3 8l251 181q62 8 64 0zM1825 1081q-122 -190 -305 -307q-8 -99 -47 -219q-48 -147 -153 -291t-245.5 -253t-303 -154t-325.5 6q-86 28 -150 103.5t-95 178.5t-23.5 233.5
t58.5 260.5q-144 96 -158 258q-25 246 151 423q149 149 388 203q246 56 470 -15q241 -76 355 -274q95 -163 86 -388q204 136 266 258q9 19 27 19q18 -1 13 -21q-2 -9 -9 -21zM1403 780q33 371 -158 568q-142 146 -366 161q-207 14 -392 -85q-179 -96 -256 -258
q-64 -133 -41 -287q12 -95 82 -156q30 63 76 135t109 151t134 141t150.5 106.5t158 48t157.5 -36.5q15 -8 15.5 -16.5t-9.5 -12.5t-23 0q-73 23 -158.5 -12t-161 -104t-146.5 -158t-120 -169t-77 -143q186 -87 478.5 -48.5t547.5 175.5zM1391 709q-255 -136 -548 -172
t-497 45q-37 -99 -52 -198t-6 -188.5t51 -161t114 -106.5q182 -84 361.5 -2.5t323 255.5t216.5 382q29 86 37 146z" />
    <glyph glyph-name="Otilde" unicode="&#xd5;" horiz-adv-x="1605" 
d="M1825 1081q-122 -190 -305 -307q-8 -99 -47 -219q-48 -147 -153 -291t-245.5 -253t-303 -154t-325.5 6q-86 28 -150 103.5t-95 178.5t-23.5 233.5t58.5 260.5q-144 96 -158 258q-25 246 151 423q149 149 388 203q246 56 470 -15q241 -76 355 -274q95 -163 86 -388
q204 136 266 258q9 19 27 19q18 -1 13 -21q-2 -9 -9 -21zM1403 780q33 371 -158 568q-142 146 -366 161q-207 14 -392 -85q-179 -96 -256 -258q-64 -133 -41 -287q12 -95 82 -156q30 63 76 135t109 151t134 141t150.5 106.5t158 48t157.5 -36.5q15 -8 15.5 -16.5t-9.5 -12.5
t-23 0q-73 23 -158.5 -12t-161 -104t-146.5 -158t-120 -169t-77 -143q186 -87 478.5 -48.5t547.5 175.5zM1391 709q-255 -136 -548 -172t-497 45q-37 -99 -52 -198t-6 -188.5t51 -161t114 -106.5q182 -84 361.5 -2.5t323 255.5t216.5 382q29 86 37 146zM1356 1733
q-27 -58 -69.5 -99t-96.5 -37q-36 3 -103 33.5t-102 32.5q-55 5 -88 -55q-1 -3 -5 -4.5t-10 -1.5t-11.5 1t-9.5 3.5t-3 5.5q78 134 166 125q38 -2 105 -30t100 -30q61 -8 92 60q4 8 27 2q8 -3 8 -6z" />
    <glyph glyph-name="Odieresis" unicode="&#xd6;" horiz-adv-x="1605" 
d="M1446 1673q0 -29 -18.5 -48t-47.5 -19q-30 0 -49.5 18.5t-19.5 48.5t18 49t47 19q30 0 50 -19t20 -49zM1182 1673q0 -29 -18.5 -48t-47.5 -19q-30 0 -49.5 18.5t-19.5 48.5t18 49t47 19q30 0 50 -19t20 -49zM1825 1081q-122 -190 -305 -307q-8 -99 -47 -219
q-48 -147 -153 -291t-245.5 -253t-303 -154t-325.5 6q-86 28 -150 103.5t-95 178.5t-23.5 233.5t58.5 260.5q-144 96 -158 258q-25 246 151 423q149 149 388 203q246 56 470 -15q241 -76 355 -274q95 -163 86 -388q204 136 266 258q9 19 27 19q18 -1 13 -21q-2 -9 -9 -21z
M1403 780q33 371 -158 568q-142 146 -366 161q-207 14 -392 -85q-179 -96 -256 -258q-64 -133 -41 -287q12 -95 82 -156q30 63 76 135t109 151t134 141t150.5 106.5t158 48t157.5 -36.5q15 -8 15.5 -16.5t-9.5 -12.5t-23 0q-73 23 -158.5 -12t-161 -104t-146.5 -158
t-120 -169t-77 -143q186 -87 478.5 -48.5t547.5 175.5zM1391 709q-255 -136 -548 -172t-497 45q-37 -99 -52 -198t-6 -188.5t51 -161t114 -106.5q182 -84 361.5 -2.5t323 255.5t216.5 382q29 86 37 146z" />
    <glyph glyph-name="multiply" unicode="&#xd7;" horiz-adv-x="622" 
d="M532 584l-151 -164l88 -172q-2 -6 -17.5 -23t-21.5 -18l-86 174l-151 -164q-4 1 -13.5 19.5t-9.5 23.5l152 164l-89 172q2 6 17.5 23t21.5 18l86 -174l152 164q5 0 13.5 -18t8.5 -25z" />
    <glyph glyph-name="Oslash" unicode="&#xd8;" horiz-adv-x="1579" 
d="M362 -242l-65 29l88 160q-133 95 -171 295.5t48 435.5q-144 96 -158 258q-10 101 15 192.5t78 162.5t128.5 128.5t164.5 94t189 55.5t198.5 16.5t195.5 -27.5t178 -71l99 174l69 -33l-104 -184q119 -89 182.5 -229.5t56.5 -329.5q205 137 267 258q9 20 27.5 18.5
t11.5 -23.5q-3 -8 -9 -18q-122 -190 -305 -307q-8 -99 -47 -219q-48 -147 -152.5 -291t-245 -253t-303 -154t-325.5 6l-24 10zM403 692q140 -69 369 -59l449 799q-90 70 -208 98t-234.5 14.5t-227.5 -65t-191.5 -130t-121 -191.5t-21.5 -240q12 -95 82 -156q30 63 76 135
t109 151t133.5 141t150 106.5t158 48t157.5 -36.5q15 -8 16 -16.5t-9 -12.5t-23 0q-73 23 -159 -12t-161 -104t-146.5 -158t-120.5 -169t-77 -143zM1417 748q-285 -152 -596 -177l-342 -604q135 -63 272 -30.5t260 132.5t219 240t150 293q29 86 37 146zM1430 819
q32 365 -152 559l-418 -737q143 15 291.5 61.5t278.5 116.5zM373 621q-45 -117 -58.5 -232.5t12.5 -219t93 -163.5l313 559q-208 -6 -360 56z" />
    <glyph glyph-name="Ugrave" unicode="&#xd9;" horiz-adv-x="1929" 
d="M2019 987q29 -14 37 -38.5t-4 -59.5t-27.5 -66.5t-40.5 -77.5t-38 -75q-78 -165 -123 -332q-23 -87 -36 -167.5t-14.5 -149.5t18 -109.5t60.5 -38.5q55 4 56 -16q0 -16 -26 -26q-21 -9 -44 -5q-55 10 -89.5 53.5t-47 100.5t-12 131.5t8 134t19.5 121.5
q-66 -109 -125 -185q-79 -102 -162.5 -169t-155.5 -90t-132.5 -13.5t-100.5 57.5t-53 125t12 189t74 233.5t101.5 238t103 238t70.5 199.5q26 104 33 190t-11 156t-65 98q-81 49 -199 51t-241 -36t-242 -107q-309 -181 -452 -448q-116 -218 -91 -425q21 -174 133 -266
q127 -103 315 -51q22 6 45 15q116 43 212 180q91 130 104 255q14 129 -71 166q-53 23 -140 3q-39 -9 -48.5 -6t-2 12t20.5 17.5t20 11.5q161 68 237 -16q63 -69 40 -208q-25 -154 -138 -288q-99 -117 -236 -175q-202 -86 -362 -1q-131 69 -187 227q-66 190 6 414
q91 281 370 501q104 82 229 150q178 98 352.5 123t314.5 -33q266 -114 174 -518q-20 -86 -69 -206.5t-100.5 -233t-100.5 -228.5t-76 -227t-18 -195q13 -116 91 -132q89 -18 217 102q75 70 149 178q82 119 212.5 378.5t131.5 260.5q31 55 61.5 81.5t52.5 26.5zM2056 1483
q0 -9 -6 -14t-14 -5t-68.5 31t-129.5 68t-83 43q-76 37 -76 92q0 19 11 31t28 12q18 0 102 -61.5t160 -125.5t76 -71z" />
    <glyph glyph-name="Uacute" unicode="&#xda;" horiz-adv-x="1929" 
d="M2019 987q29 -14 37 -38.5t-4 -59.5t-27.5 -66.5t-40.5 -77.5t-38 -75q-78 -165 -123 -332q-23 -87 -36 -167.5t-14.5 -149.5t18 -109.5t60.5 -38.5q55 4 56 -16q0 -16 -26 -26q-21 -9 -44 -5q-55 10 -89.5 53.5t-47 100.5t-12 131.5t8 134t19.5 121.5
q-66 -109 -125 -185q-79 -102 -162.5 -169t-155.5 -90t-132.5 -13.5t-100.5 57.5t-53 125t12 189t74 233.5t101.5 238t103 238t70.5 199.5q26 104 33 190t-11 156t-65 98q-81 49 -199 51t-241 -36t-242 -107q-309 -181 -452 -448q-116 -218 -91 -425q21 -174 133 -266
q127 -103 315 -51q22 6 45 15q116 43 212 180q91 130 104 255q14 129 -71 166q-53 23 -140 3q-39 -9 -48.5 -6t-2 12t20.5 17.5t20 11.5q161 68 237 -16q63 -69 40 -208q-25 -154 -138 -288q-99 -117 -236 -175q-202 -86 -362 -1q-131 69 -187 227q-66 190 6 414
q91 281 370 501q104 82 229 150q178 98 352.5 123t314.5 -33q266 -114 174 -518q-20 -86 -69 -206.5t-100.5 -233t-100.5 -228.5t-76 -227t-18 -195q13 -116 91 -132q89 -18 217 102q75 70 149 178q82 119 212.5 378.5t131.5 260.5q31 55 61.5 81.5t52.5 26.5zM2064 1554
q-11 -24 -190.5 -105.5t-192.5 -76.5q-7 4 -9 12.5t3 14.5q3 7 58.5 47t118.5 84.5t75 54.5q67 51 119 25q15 -7 20.5 -24t-2.5 -32z" />
    <glyph glyph-name="Ucircumflex" unicode="&#xdb;" horiz-adv-x="1929" 
d="M2019 987q29 -14 37 -38.5t-4 -59.5t-27.5 -66.5t-40.5 -77.5t-38 -75q-78 -165 -123 -332q-23 -87 -36 -167.5t-14.5 -149.5t18 -109.5t60.5 -38.5q55 4 56 -16q0 -16 -26 -26q-21 -9 -44 -5q-55 10 -89.5 53.5t-47 100.5t-12 131.5t8 134t19.5 121.5
q-66 -109 -125 -185q-79 -102 -162.5 -169t-155.5 -90t-132.5 -13.5t-100.5 57.5t-53 125t12 189t74 233.5t101.5 238t103 238t70.5 199.5q26 104 33 190t-11 156t-65 98q-81 49 -199 51t-241 -36t-242 -107q-309 -181 -452 -448q-116 -218 -91 -425q21 -174 133 -266
q127 -103 315 -51q22 6 45 15q116 43 212 180q91 130 104 255q14 129 -71 166q-53 23 -140 3q-39 -9 -48.5 -6t-2 12t20.5 17.5t20 11.5q161 68 237 -16q63 -69 40 -208q-25 -154 -138 -288q-99 -117 -236 -175q-202 -86 -362 -1q-131 69 -187 227q-66 190 6 414
q91 281 370 501q104 82 229 150q178 98 352.5 123t314.5 -33q266 -114 174 -518q-20 -86 -69 -206.5t-100.5 -233t-100.5 -228.5t-76 -227t-18 -195q13 -116 91 -132q89 -18 217 102q75 70 149 178q82 119 212.5 378.5t131.5 260.5q31 55 61.5 81.5t52.5 26.5zM2111 1518
q5 -11 -11 -12q-22 -1 -29 12l-95 145q-243 -131 -270 -145q-18 -16 -45 -11q-16 4 -6 11l305 217q76 10 78 0z" />
    <glyph glyph-name="Udieresis" unicode="&#xdc;" horiz-adv-x="1929" 
d="M2019 987q29 -14 37 -38.5t-4 -59.5t-27.5 -66.5t-40.5 -77.5t-38 -75q-78 -165 -123 -332q-23 -87 -36 -167.5t-14.5 -149.5t18 -109.5t60.5 -38.5q55 4 56 -16q0 -16 -26 -26q-21 -9 -44 -5q-55 10 -89.5 53.5t-47 100.5t-12 131.5t8 134t19.5 121.5
q-66 -109 -125 -185q-79 -102 -162.5 -169t-155.5 -90t-132.5 -13.5t-100.5 57.5t-53 125t12 189t74 233.5t101.5 238t103 238t70.5 199.5q26 104 33 190t-11 156t-65 98q-81 49 -199 51t-241 -36t-242 -107q-309 -181 -452 -448q-116 -218 -91 -425q21 -174 133 -266
q127 -103 315 -51q22 6 45 15q116 43 212 180q91 130 104 255q14 129 -71 166q-53 23 -140 3q-39 -9 -48.5 -6t-2 12t20.5 17.5t20 11.5q161 68 237 -16q63 -69 40 -208q-25 -154 -138 -288q-99 -117 -236 -175q-202 -86 -362 -1q-131 69 -187 227q-66 190 6 414
q91 281 370 501q104 82 229 150q178 98 352.5 123t314.5 -33q266 -114 174 -518q-20 -86 -69 -206.5t-100.5 -233t-100.5 -228.5t-76 -227t-18 -195q13 -116 91 -132q89 -18 217 102q75 70 149 178q82 119 212.5 378.5t131.5 260.5q31 55 61.5 81.5t52.5 26.5zM2038 1473
q0 -29 -18.5 -48.5t-47.5 -19.5q-30 0 -49.5 19t-19.5 49q0 29 18 48t47 19q30 0 50 -18.5t20 -48.5zM1774 1473q0 -29 -18.5 -48.5t-47.5 -19.5q-30 0 -50 19t-20 49q0 29 18.5 48t47.5 19q30 0 50 -18.5t20 -48.5z" />
    <glyph glyph-name="Yacute" unicode="&#xdd;" horiz-adv-x="2060" 
d="M2294 -59q14 -46 -24 -109t-124 -100q-50 -20 -140.5 -30.5t-162 -13t-207.5 -3.5q-98 -148 -249 -260.5t-318 -176.5q-234 -90 -426 -51q-135 27 -185 104q-51 80 18 167q62 77 208 137q190 78 403.5 104.5t481.5 26.5q199 491 280 792q-33 -71 -72 -141.5t-92 -150
t-118.5 -149.5t-132.5 -116q-52 -35 -110 -55t-113 -24t-104 11.5t-83.5 48t-50.5 90t-6 132.5q32 228 299 662q70 114 121.5 234t78 230t13.5 196t-70 122q-80 51 -189 55.5t-222.5 -31t-232.5 -104.5t-222 -158t-187 -198.5t-131 -220.5q-101 -255 -58.5 -404.5
t163.5 -203t260 -3.5q121 43 225 185q97 133 116 260q19 130 -63 167q-44 19 -114 7q-45 -9 -43 4q2 12 30 22q4 1 9 2q169 46 232 -47q53 -80 8 -221q-49 -154 -184 -281q-100 -94 -224 -145q-69 -28 -141.5 -30t-136.5 22.5t-119.5 69t-90.5 112.5t-49.5 148t4 181.5
t70.5 207.5q59 121 154 233t206 198t237.5 150.5t247 97t235 31.5t202.5 -41q108 -49 157 -140.5t39.5 -205.5t-52 -233t-115.5 -242q-265 -451 -320 -700q-19 -88 1.5 -142.5t66 -67.5t106.5 3t121 59q89 63 179 185t157.5 258.5t115 254t74.5 208.5q5 25 39 50q46 35 67 2
q27 -43 -5 -184q-62 -271 -161 -568t-204 -482q31 2 93.5 3t107.5 3t106 8t105 19t86.5 34t69 56t34.5 82q-4 28 6 31q8 2 18 -31zM1540 -315q-246 0 -451 -35t-372 -131q-182 -104 -169 -184q10 -58 117 -81q132 -29 299 14q38 10 74 23q149 56 282 155.5t220 238.5z
M2216 1544q-11 -24 -190.5 -105.5t-192.5 -76.5q-7 4 -9 12.5t3 14.5q3 7 58.5 47t118.5 84.5t75 54.5q66 50 119 24q15 -7 20.5 -23.5t-2.5 -31.5z" />
    <glyph glyph-name="Thorn" unicode="&#xde;" horiz-adv-x="688" 
d="M862 1536l-110 -279q137 -21 231 -77q94 -51 147 -113t62.5 -123t-8 -123t-61.5 -117.5t-101.5 -102.5t-126 -81t-135.5 -51q-191 -50 -357 -43l-153 -313q-34 -66 -63 -88t-78 -19q-7 0 -38 6t-48 4q37 34 184 293.5t215 401.5q152 319 244 634.5t90 395.5
q9 -14 41 -18.5t41 -12.5q36 -34 41 -69.5t-17 -104.5zM952 1145q-76 43 -215 74l-102 -279q-107 -283 -148 -340l-65 -133q162 4 278 41q126 40 222.5 121.5t139 173t17.5 186t-127 156.5z" />
    <glyph glyph-name="germandbls" unicode="&#xdf;" horiz-adv-x="894" 
d="M606 590q-5 38 -5 64.5t13.5 54t28 46t38.5 42t45 41.5t48 44t47 50q42 49 67.5 114t28 127.5t-26 114.5t-87.5 72q-61 18 -112 4.5t-94 -54t-71 -83.5t-43 -86q-50 -140 -119.5 -349t-119.5 -357.5t-110.5 -309t-123 -280.5t-127.5 -195q-111 -129 -240 -218.5
t-245 -97.5q-93 -6 -153 27t-66 107q-3 62 37.5 108.5t99.5 46.5q41 0 67.5 -29.5t22.5 -70.5q-5 -41 -37.5 -71t-73.5 -30q-32 0 -61 25q14 -36 65.5 -50t98.5 -3q184 48 330.5 225t283.5 522q69 174 116 298.5t102 263.5t188 464q31 61 60 104.5t67.5 80.5t81 54t99 17
t122.5 -22q93 -33 126.5 -92.5t31.5 -147.5q-3 -146 -142 -264q-13 -10 -46 -32t-58.5 -40t-54 -46t-43 -54.5t-14.5 -61.5t22 -71q140 -221 135 -326q-3 -60 -44.5 -123.5t-101.5 -103.5l15 -2q94 -13 184 94q44 54 154 268q5 9 14.5 10t15 -6t0.5 -16q-16 -35 -24.5 -54
t-26.5 -56.5t-32 -59.5t-34.5 -55t-39.5 -53t-43.5 -44t-49.5 -35.5t-53.5 -21t-60.5 -8t-66 11.5q-48 -20 -84 -20q-127 0 -167 91q-30 66 -3 135q22 56 62 62q3 1 6 1q34 5 56.5 -12.5t21.5 -57.5q-3 -55 22.5 -97t63.5 -61q82 64 90 213q2 51 -34 175.5t-40 148.5z
M555 35q-77 48 -82 153q-32 -32 -36.5 -70.5t17 -64.5t60.5 -26q25 0 41 8z" />
    <glyph glyph-name="agrave" unicode="&#xe0;" horiz-adv-x="716" 
d="M862 377q-181 -371 -309 -381q-28 -2 -53 9t-46.5 40.5t-22 82t19.5 132.5q-77 -123 -148 -192q-98 -94 -175 -63q-63 25 -77 121q-19 133 70 298q40 75 100 147q62 73 150 117.5t178.5 41.5t146.5 -64q21 -23 13 -44t-35 -16q-17 56 -67 69.5t-107 -18.5
q-67 -37 -141.5 -117.5t-131.5 -174.5q-72 -131 -84 -207q-13 -92 39 -102q49 -10 119 55q16 16 31 34q81 97 182 287q39 75 66.5 104.5t72.5 26.5q3 0 36 -6t50 -2q-37 -37 -104 -166.5t-86 -216.5q-23 -123 20 -123q30 -1 70 38t80 101.5t66.5 111t48.5 93.5q12 26 27 22
q14 -4 4 -31q-1 -4 -3 -7zM662 831q0 -18 -21 -18q-8 0 -68.5 31t-130 67.5t-82.5 42.5q-75 36 -75 93q0 19 11 31t28 12q18 0 102 -62t160 -126t76 -71z" />
    <glyph glyph-name="aacute" unicode="&#xe1;" horiz-adv-x="716" 
d="M862 377q-181 -371 -309 -381q-28 -2 -53 9t-46.5 40.5t-22 82t19.5 132.5q-77 -123 -148 -192q-98 -94 -175 -63q-63 25 -77 121q-19 133 70 298q40 75 100 147q62 73 150 117.5t178.5 41.5t146.5 -64q21 -23 13 -44t-35 -16q-17 56 -67 69.5t-107 -18.5
q-67 -37 -141.5 -117.5t-131.5 -174.5q-72 -131 -84 -207q-13 -92 39 -102q49 -10 119 55q16 16 31 34q81 97 182 287q39 75 66.5 104.5t72.5 26.5q3 0 36 -6t50 -2q-37 -37 -104 -166.5t-86 -216.5q-23 -123 20 -123q30 -1 70 38t80 101.5t66.5 111t48.5 93.5q12 26 27 22
q14 -4 4 -31q-1 -4 -3 -7zM842 989q-11 -24 -190.5 -105.5t-192.5 -76.5q-7 4 -9 12.5t3 14.5q3 7 58.5 47t118.5 84.5t75 54.5q65 50 118 24q15 -8 20.5 -24t-1.5 -31z" />
    <glyph glyph-name="acircumflex" unicode="&#xe2;" horiz-adv-x="716" 
d="M862 377q-181 -371 -309 -381q-28 -2 -53 9t-46.5 40.5t-22 82t19.5 132.5q-77 -123 -148 -192q-98 -94 -175 -63q-63 25 -77 121q-19 133 70 298q40 75 100 147q62 73 150 117.5t178.5 41.5t146.5 -64q21 -23 13 -44t-35 -16q-17 56 -67 69.5t-107 -18.5
q-67 -37 -141.5 -117.5t-131.5 -174.5q-72 -131 -84 -207q-13 -92 39 -102q49 -10 119 55q16 16 31 34q81 97 182 287q39 75 66.5 104.5t72.5 26.5q3 0 36 -6t50 -2q-37 -37 -104 -166.5t-86 -216.5q-23 -123 20 -123q30 -1 70 38t80 101.5t66.5 111t48.5 93.5q12 26 27 22
q14 -4 4 -31q-1 -4 -3 -7zM840 840q5 -11 -11 -12q-22 -1 -30 12l-94 145q-244 -131 -271 -145q-18 -16 -45 -11q-16 4 -6 11l305 217q76 10 78 0z" />
    <glyph glyph-name="atilde" unicode="&#xe3;" horiz-adv-x="716" 
d="M862 377q-181 -371 -309 -381q-28 -2 -53 9t-46.5 40.5t-22 82t19.5 132.5q-77 -123 -148 -192q-98 -94 -175 -63q-63 25 -77 121q-19 133 70 298q40 75 100 147q62 73 150 117.5t178.5 41.5t146.5 -64q21 -23 13 -44t-35 -16q-17 56 -67 69.5t-107 -18.5
q-67 -37 -141.5 -117.5t-131.5 -174.5q-72 -131 -84 -207q-13 -92 39 -102q49 -10 119 55q16 16 31 34q81 97 182 287q39 75 66.5 104.5t72.5 26.5q3 0 36 -6t50 -2q-37 -37 -104 -166.5t-86 -216.5q-23 -123 20 -123q30 -1 70 38t80 101.5t66.5 111t48.5 93.5q12 26 27 22
q14 -4 4 -31q-1 -4 -3 -7zM915 1067q-35 -71 -86 -120t-116 -44q-43 4 -124.5 40.5t-123.5 39.5q-35 3 -63 -16.5t-44 -51.5q-4 -11 -32 -5q-16 4 -15 10q90 162 201 153q45 -3 126.5 -37t121.5 -37q73 -8 112 72q4 10 31 4q13 -4 12 -8z" />
    <glyph glyph-name="adieresis" unicode="&#xe4;" horiz-adv-x="716" 
d="M862 377q-181 -371 -309 -381q-28 -2 -53 9t-46.5 40.5t-22 82t19.5 132.5q-77 -123 -148 -192q-98 -94 -175 -63q-63 25 -77 121q-19 133 70 298q40 75 100 147q62 73 150 117.5t178.5 41.5t146.5 -64q21 -23 13 -44t-35 -16q-17 56 -67 69.5t-107 -18.5
q-67 -37 -141.5 -117.5t-131.5 -174.5q-72 -131 -84 -207q-13 -92 39 -102q49 -10 119 55q16 16 31 34q81 97 182 287q39 75 66.5 104.5t72.5 26.5q3 0 36 -6t50 -2q-37 -37 -104 -166.5t-86 -216.5q-23 -123 20 -123q30 -1 70 38t80 101.5t66.5 111t48.5 93.5q12 26 27 22
q14 -4 4 -31q-1 -4 -3 -7zM840 940q0 -29 -18.5 -48.5t-47.5 -19.5q-30 0 -49.5 19t-19.5 49t18 49t47 19q30 0 50 -19t20 -49zM575 940q0 -30 -18 -49t-47 -19q-30 0 -50 19t-20 49q0 29 18.5 48.5t47.5 19.5q30 0 49.5 -19t19.5 -49z" />
    <glyph glyph-name="aring" unicode="&#xe5;" horiz-adv-x="716" 
d="M862 377q-181 -371 -309 -381q-28 -2 -53 9t-46.5 40.5t-22 82t19.5 132.5q-77 -123 -148 -192q-98 -94 -175 -63q-63 25 -77 121q-19 133 70 298q40 75 100 147q62 73 150 117.5t178.5 41.5t146.5 -64q21 -23 13 -44t-35 -16q-17 56 -67 69.5t-107 -18.5
q-67 -37 -141.5 -117.5t-131.5 -174.5q-72 -131 -84 -207q-13 -92 39 -102q49 -10 119 55q16 16 31 34q81 97 182 287q39 75 66.5 104.5t72.5 26.5q3 0 36 -6t50 -2q-37 -37 -104 -166.5t-86 -216.5q-23 -123 20 -123q30 -1 70 38t80 101.5t66.5 111t48.5 93.5q12 26 27 22
q14 -4 4 -31q-1 -4 -3 -7zM573 1006q-2 -32 15 -54t43 -22q27 0 46.5 23.5t22.5 56.5q3 32 -14 53.5t-43 19.5q-27 -2 -47 -23.5t-23 -53.5zM502 1001q4 45 48.5 78.5t100.5 36.5q56 1 92 -30t31 -76q-6 -46 -49 -80t-100 -35t-93 30.5t-30 75.5z" />
    <glyph glyph-name="ae" unicode="&#xe6;" horiz-adv-x="892" 
d="M1042 383q-68 -146 -94 -191q-102 -171 -243 -195q-26 -5 -54 -5q-66 0 -121 39q-97 67 -79 229q-77 -123 -148 -192q-98 -94 -175 -63q-63 25 -77 121q-19 133 70 298q40 75 100 147q62 73 150 117.5t178.5 41.5t146.5 -64l6 -9q72 54 140 68t121 -20q58 -46 22.5 -134
t-135.5 -165q-46 -34 -126.5 -62.5t-123.5 -28.5l-8 -16q-14 -32 -20 -75.5t-2 -86.5t29 -72.5t69 -29.5q187 0 338 350q11 26 30 29q12 1 11 -12q0 -7 -5 -19zM666 627q-22 42 -68.5 50t-97.5 -20q-67 -37 -141.5 -117.5t-131.5 -174.5q-72 -131 -84 -207q-13 -92 39 -102
q49 -10 119 55q16 16 31 34q78 90 182 287q59 111 152 195zM829 440q77 65 105 151q21 69 -8 88q-39 25 -136 -75q-26 -26 -55 -61t-76 -107l-43 -86q38 2 101 26t112 64z" />
    <glyph glyph-name="ccedilla" unicode="&#xe7;" horiz-adv-x="532" 
d="M555 -236q0 -82 -106 -155q-52 -35 -156 -35q-24 0 -62.5 5t-84.5 15t-78.5 29.5t-32.5 44.5q0 15 12 15q4 0 9 -3t8 -5.5t8 -8t6 -6.5q25 -26 76.5 -38.5t99.5 -12.5q58 0 115 17.5t82 56.5q28 44 28 84q0 56 -47 86t-106 30q-34 0 -66.5 -12.5t-53.5 -24.5t-28 -12
q-14 0 -26.5 9t-12.5 22q0 10 8 18q7 9 58 48.5t82 60.5h-2q-93 0 -145.5 40t-62 102.5t6 139t50.5 150t81 135.5q57 77 129 119.5t145 42.5q75 0 112.5 -38.5t29.5 -102.5q-6 -54 -55.5 -97.5t-81.5 -11.5q51 60 63 104q25 101 -41 101q-51 0 -110 -52t-109 -124
q-38 -55 -75.5 -145t-37.5 -169q0 -68 29.5 -112.5t91.5 -44.5q37 0 72 12.5t62 29.5t56.5 50t48 57.5t45 69.5t39 69t36.5 72q9 18 19.5 22t13.5 -6t-5 -30q-27 -57 -41 -85.5t-39.5 -75.5t-44.5 -71t-48 -56t-57 -48t-65.5 -29t-79.5 -16l5 -8q-3 -2 -28 -19t-44.5 -32.5
t-18.5 -20.5q41 6 80 6q38 0 77.5 -8.5t78.5 -25.5t63.5 -49t24.5 -73z" />
    <glyph glyph-name="egrave" unicode="&#xe8;" horiz-adv-x="503" 
d="M651 383q-68 -146 -94 -191q-102 -171 -243 -195q-26 -5 -54 -5q-81 0 -138.5 52t-58.5 144q-1 90 43.5 195.5t114.5 187.5q53 63 117 104.5t125.5 52t107.5 -22.5q57 -45 22.5 -134t-134.5 -165q-45 -34 -127 -62.5t-125 -28.5q-13 -31 -21 -75.5t-7 -92t25.5 -80
t71.5 -32.5q187 0 338 350q11 25 30 29q13 2 12 -13q0 -7 -5 -18zM438 440q77 65 105 151q21 69 -8 88q-39 25 -136 -75q-27 -27 -55 -61q-74 -92 -123 -193q35 0 101 24.5t116 65.5zM588 813q0 -18 -21 -18q-8 0 -68.5 31t-129.5 67.5t-82 42.5q-76 37 -76 92q0 19 11 31
t28 12q18 0 102 -61.5t160 -125.5t76 -71z" />
    <glyph glyph-name="eacute" unicode="&#xe9;" horiz-adv-x="503" 
d="M651 383q-68 -146 -94 -191q-102 -171 -243 -195q-26 -5 -54 -5q-81 0 -138.5 52t-58.5 144q-1 90 43.5 195.5t114.5 187.5q53 63 117 104.5t125.5 52t107.5 -22.5q57 -45 22.5 -134t-134.5 -165q-45 -34 -127 -62.5t-125 -28.5q-13 -31 -21 -75.5t-7 -92t25.5 -80
t71.5 -32.5q187 0 338 350q11 25 30 29q13 2 12 -13q0 -7 -5 -18zM438 440q77 65 105 151q21 69 -8 88q-39 25 -136 -75q-27 -27 -55 -61q-74 -92 -123 -193q35 0 101 24.5t116 65.5zM807 989q-11 -24 -190.5 -105.5t-192.5 -76.5q-7 4 -9 12.5t3 14.5q3 7 58.5 47
t118.5 84.5t75 54.5q65 50 118 24q15 -8 20.5 -24t-1.5 -31z" />
    <glyph glyph-name="ecircumflex" unicode="&#xea;" horiz-adv-x="503" 
d="M651 383q-68 -146 -94 -191q-102 -171 -243 -195q-26 -5 -54 -5q-81 0 -138.5 52t-58.5 144q-1 90 43.5 195.5t114.5 187.5q53 63 117 104.5t125.5 52t107.5 -22.5q57 -45 22.5 -134t-134.5 -165q-45 -34 -127 -62.5t-125 -28.5q-13 -31 -21 -75.5t-7 -92t25.5 -80
t71.5 -32.5q187 0 338 350q11 25 30 29q13 2 12 -13q0 -7 -5 -18zM438 440q77 65 105 151q21 69 -8 88q-39 25 -136 -75q-27 -27 -55 -61q-74 -92 -123 -193q35 0 101 24.5t116 65.5zM750 840q5 -11 -11 -12q-22 -1 -30 12l-95 145q-243 -131 -270 -145q-18 -16 -45 -11
q-16 4 -6 11l305 217q76 10 78 0z" />
    <glyph glyph-name="edieresis" unicode="&#xeb;" horiz-adv-x="503" 
d="M651 383q-68 -146 -94 -191q-102 -171 -243 -195q-26 -5 -54 -5q-81 0 -138.5 52t-58.5 144q-1 90 43.5 195.5t114.5 187.5q53 63 117 104.5t125.5 52t107.5 -22.5q57 -45 22.5 -134t-134.5 -165q-45 -34 -127 -62.5t-125 -28.5q-13 -31 -21 -75.5t-7 -92t25.5 -80
t71.5 -32.5q187 0 338 350q11 25 30 29q13 2 12 -13q0 -7 -5 -18zM438 440q77 65 105 151q21 69 -8 88q-39 25 -136 -75q-27 -27 -55 -61q-74 -92 -123 -193q35 0 101 24.5t116 65.5zM729 901q0 -29 -18 -48t-47 -19q-30 0 -50 18.5t-20 48.5t18 49t47 19q30 0 50 -19
t20 -49zM465 901q0 -29 -18.5 -48t-47.5 -19q-30 0 -49.5 18.5t-19.5 48.5t18 49t47 19q30 0 50 -19t20 -49z" />
    <glyph glyph-name="igrave" unicode="&#xec;" horiz-adv-x="344" 
d="M483 375q-78 -168 -132 -244q-94 -131 -189 -131q-54 0 -88.5 27.5t-44.5 68.5t-4 86.5t26 83.5l178 340q40 77 51.5 88t59.5 11h104q-4 -4 -20 -15t-30.5 -25.5t-24.5 -33.5q-158 -257 -213 -398q-21 -45 -25 -59q-36 -124 43 -129q22 -3 47.5 9.5t42.5 29.5
q84 82 193 309q12 25 26 21q14 -5 2 -34q-1 -2 -2 -5zM487 836q0 -9 -6 -14t-14 -5t-68.5 31t-130 67.5t-82.5 42.5q-75 36 -75 93q0 19 11 31t28 12q18 0 102 -61.5t159.5 -125.5t75.5 -71z" />
    <glyph glyph-name="iacute" unicode="&#xed;" horiz-adv-x="344" 
d="M483 375q-78 -168 -132 -244q-94 -131 -189 -131q-54 0 -88.5 27.5t-44.5 68.5t-4 86.5t26 83.5l178 340q40 77 51.5 88t59.5 11h104q-4 -4 -20 -15t-30.5 -25.5t-24.5 -33.5q-158 -257 -213 -398q-21 -45 -25 -59q-36 -124 43 -129q22 -3 47.5 9.5t42.5 29.5
q84 82 193 309q12 25 26 21q14 -5 2 -34q-1 -2 -2 -5zM774 1032q-11 -24 -190.5 -105.5t-192.5 -76.5q-7 4 -9 12.5t3 14.5q3 7 58.5 47t118.5 84.5t75 54.5q66 50 119 24q15 -7 20.5 -23.5t-2.5 -31.5z" />
    <glyph glyph-name="icircumflex" unicode="&#xee;" horiz-adv-x="344" 
d="M483 375q-78 -168 -132 -244q-94 -131 -189 -131q-54 0 -88.5 27.5t-44.5 68.5t-4 86.5t26 83.5l178 340q40 77 51.5 88t59.5 11h104q-4 -4 -20 -15t-30.5 -25.5t-24.5 -33.5q-158 -257 -213 -398q-21 -45 -25 -59q-36 -124 43 -129q22 -3 47.5 9.5t42.5 29.5
q84 82 193 309q12 25 26 21q14 -5 2 -34q-1 -2 -2 -5zM647 831q5 -11 -11 -12q-22 -1 -30 12l-94 146q-243 -132 -270 -146q-17 -15 -45 -11q-17 3 -7 11l306 218q75 10 77 0z" />
    <glyph glyph-name="idieresis" unicode="&#xef;" horiz-adv-x="344" 
d="M483 375q-78 -168 -132 -244q-94 -131 -189 -131q-54 0 -88.5 27.5t-44.5 68.5t-4 86.5t26 83.5l178 340q40 77 51.5 88t59.5 11h104q-4 -4 -20 -15t-30.5 -25.5t-24.5 -33.5q-158 -257 -213 -398q-21 -45 -25 -59q-36 -124 43 -129q22 -3 47.5 9.5t42.5 29.5
q84 82 193 309q12 25 26 21q14 -5 2 -34q-1 -2 -2 -5zM618 879q0 -30 -18 -49t-47 -19q-30 0 -50 19t-20 49q0 29 18.5 48t47.5 19q30 0 49.5 -18.5t19.5 -48.5zM354 879q0 -30 -18 -49t-47 -19q-30 0 -50 19t-20 49q0 29 18.5 48t47.5 19q30 0 49.5 -18.5t19.5 -48.5z" />
    <glyph glyph-name="eth" unicode="&#xf0;" horiz-adv-x="794" 
d="M750 1221q-57 -33 -154 -97q90 -131 90 -354q0 -139 -39 -283q-16 -65 -41.5 -129.5t-66 -132t-88 -119t-112 -84t-134.5 -32.5q-46 0 -77 33t-42.5 74.5t-11.5 86.5q0 68 18 133q22 76 81.5 154.5t143.5 133t162 54.5q54 0 82.5 -31.5t28.5 -84.5v-31q22 99 22 193
q0 86 -23 186.5t-69 179.5q-30 -21 -151 -110q-7 -4 -19 -0.5t-23 14.5t-19 23.5t-5.5 26t16.5 22.5l156 86q-79 92 -184 92q-14 0 -38 -4t-36 -4q-22 0 -22 14q0 43 118 43q149 0 242 -96l160 86q29 16 48 -1q18 -15 -1 -34q-5 -4 -12 -8zM561 535q0 104 -72 104
q-42 0 -89.5 -37t-85.5 -90.5t-66.5 -106.5t-42.5 -92q-41 -112 -41 -217q0 -32 13 -57t44 -25q24 0 50.5 13.5t48.5 32t48 50.5t43 56t39.5 61t32 54t25.5 47q53 92 53 207z" />
    <glyph glyph-name="ntilde" unicode="&#xf1;" 
d="M831 377q-78 -161 -125 -229q-107 -155 -212 -156q-30 0 -56 10.5t-48.5 37.5t-23.5 73.5t19 117.5q19 64 113 215q33 54 14 74q-24 26 -114 -46q-21 -17 -46 -40q-145 -130 -284 -405q-11 -20 -26.5 -25.5t-51.5 -5.5q-5 0 -20 -1t-20 -1.5t-14 -3t-16 -6.5
q29 58 127 262.5t156 310.5q43 79 70.5 105.5t74.5 23.5q3 0 36 -6t50 -2q-74 -40 -248 -385q96 119 170 184q84 75 207.5 142.5t171.5 50.5q-25 -43 -62 -111t-104.5 -211t-79.5 -207q-19 -102 33 -102q104 0 281 354q11 26 26 21t5 -32q-1 -4 -3 -7zM895 1001
q-34 -70 -86 -119t-117 -44q-43 4 -124.5 40.5t-123.5 39.5q-35 3 -62.5 -16.5t-43.5 -51.5q-4 -11 -32 -6q-16 4 -15 10q91 163 201 154q45 -3 126 -37t121 -37q74 -8 113 72q4 10 31 3q13 -4 12 -8z" />
    <glyph glyph-name="ograve" unicode="&#xf2;" 
d="M836 385q-1 -1 -13 -28.5t-17.5 -40.5t-21.5 -44.5t-27 -50.5t-30.5 -49t-35.5 -49t-38 -41.5t-43 -35t-46 -21.5t-50 -9q-84 0 -131 54q-96 -73 -178 -70q-75 2 -112 57.5t-32.5 139.5t43.5 176q61 144 174 245.5t216 98.5q75 -1 112 -56.5t32.5 -140t-44.5 -176.5
q-25 -58 -70.5 -123.5t-101.5 -118.5q26 -51 96 -51q27 0 54 13t52.5 41t45.5 52.5t43.5 67t35.5 64.5t32.5 64.5t23.5 49.5q5 10 15.5 11t16 -6.5t-0.5 -22.5zM537 649q-64 18 -148 -62t-143 -206q-62 -130 -70.5 -221.5t45.5 -112.5q60 -15 139 51q-32 46 -32 101
q4 88 71 88q26 0 44 -18.5t18 -43.5q0 -6 -4 -22q36 52 63 110q61 128 66.5 222.5t-49.5 113.5zM633 836q0 -9 -6.5 -14t-14.5 -5t-68.5 31t-129.5 67.5t-82 42.5q-76 37 -76 93q0 19 11 31t28 12q18 0 102 -61.5t160 -125.5t76 -71z" />
    <glyph glyph-name="oacute" unicode="&#xf3;" 
d="M836 385q-1 -1 -13 -28.5t-17.5 -40.5t-21.5 -44.5t-27 -50.5t-30.5 -49t-35.5 -49t-38 -41.5t-43 -35t-46 -21.5t-50 -9q-84 0 -131 54q-96 -73 -178 -70q-75 2 -112 57.5t-32.5 139.5t43.5 176q61 144 174 245.5t216 98.5q75 -1 112 -56.5t32.5 -140t-44.5 -176.5
q-25 -58 -70.5 -123.5t-101.5 -118.5q26 -51 96 -51q27 0 54 13t52.5 41t45.5 52.5t43.5 67t35.5 64.5t32.5 64.5t23.5 49.5q5 10 15.5 11t16 -6.5t-0.5 -22.5zM537 649q-64 18 -148 -62t-143 -206q-62 -130 -70.5 -221.5t45.5 -112.5q60 -15 139 51q-32 46 -32 101
q4 88 71 88q26 0 44 -18.5t18 -43.5q0 -6 -4 -22q36 52 63 110q61 128 66.5 222.5t-49.5 113.5zM905 1038q-11 -24 -190.5 -105.5t-192.5 -76.5q-7 4 -9 12.5t3 14.5q3 7 58.5 47t118.5 84.5t75 54.5q67 51 119 25q15 -7 20.5 -24t-2.5 -32z" />
    <glyph glyph-name="ocircumflex" unicode="&#xf4;" 
d="M836 385q-1 -1 -13 -28.5t-17.5 -40.5t-21.5 -44.5t-27 -50.5t-30.5 -49t-35.5 -49t-38 -41.5t-43 -35t-46 -21.5t-50 -9q-84 0 -131 54q-96 -73 -178 -70q-75 2 -112 57.5t-32.5 139.5t43.5 176q61 144 174 245.5t216 98.5q75 -1 112 -56.5t32.5 -140t-44.5 -176.5
q-25 -58 -70.5 -123.5t-101.5 -118.5q26 -51 96 -51q27 0 54 13t52.5 41t45.5 52.5t43.5 67t35.5 64.5t32.5 64.5t23.5 49.5q5 10 15.5 11t16 -6.5t-0.5 -22.5zM537 649q-64 18 -148 -62t-143 -206q-62 -130 -70.5 -221.5t45.5 -112.5q60 -15 139 51q-32 46 -32 101
q4 88 71 88q26 0 44 -18.5t18 -43.5q0 -6 -4 -22q36 52 63 110q61 128 66.5 222.5t-49.5 113.5zM784 840q5 -11 -11 -12q-22 -1 -30 12l-94 145q-243 -131 -270 -145q-18 -16 -45 -11q-16 4 -6 11l305 217q76 10 78 0z" />
    <glyph glyph-name="otilde" unicode="&#xf5;" 
d="M836 385q-1 -1 -13 -28.5t-17.5 -40.5t-21.5 -44.5t-27 -50.5t-30.5 -49t-35.5 -49t-38 -41.5t-43 -35t-46 -21.5t-50 -9q-84 0 -131 54q-96 -73 -178 -70q-75 2 -112 57.5t-32.5 139.5t43.5 176q61 144 174 245.5t216 98.5q75 -1 112 -56.5t32.5 -140t-44.5 -176.5
q-25 -58 -70.5 -123.5t-101.5 -118.5q26 -51 96 -51q27 0 54 13t52.5 41t45.5 52.5t43.5 67t35.5 64.5t32.5 64.5t23.5 49.5q5 10 15.5 11t16 -6.5t-0.5 -22.5zM537 649q-64 18 -148 -62t-143 -206q-62 -130 -70.5 -221.5t45.5 -112.5q60 -15 139 51q-32 46 -32 101
q4 88 71 88q26 0 44 -18.5t18 -43.5q0 -6 -4 -22q36 52 63 110q61 128 66.5 222.5t-49.5 113.5zM887 1047q-34 -71 -86 -120t-117 -44q-43 4 -124.5 40.5t-123.5 39.5q-35 3 -62.5 -16.5t-43.5 -51.5q-4 -11 -32 -6q-16 4 -15 10q91 163 200 154q45 -3 126.5 -37t121.5 -37
q74 -8 113 72q4 10 31 4q13 -4 12 -8z" />
    <glyph glyph-name="odieresis" unicode="&#xf6;" 
d="M836 385q-1 -1 -13 -28.5t-17.5 -40.5t-21.5 -44.5t-27 -50.5t-30.5 -49t-35.5 -49t-38 -41.5t-43 -35t-46 -21.5t-50 -9q-84 0 -131 54q-96 -73 -178 -70q-75 2 -112 57.5t-32.5 139.5t43.5 176q61 144 174 245.5t216 98.5q75 -1 112 -56.5t32.5 -140t-44.5 -176.5
q-25 -58 -70.5 -123.5t-101.5 -118.5q26 -51 96 -51q27 0 54 13t52.5 41t45.5 52.5t43.5 67t35.5 64.5t32.5 64.5t23.5 49.5q5 10 15.5 11t16 -6.5t-0.5 -22.5zM537 649q-64 18 -148 -62t-143 -206q-62 -130 -70.5 -221.5t45.5 -112.5q60 -15 139 51q-32 46 -32 101
q4 88 71 88q26 0 44 -18.5t18 -43.5q0 -6 -4 -22q36 52 63 110q61 128 66.5 222.5t-49.5 113.5zM799 936q0 -29 -18.5 -48.5t-47.5 -19.5q-30 0 -49.5 19t-19.5 49t18 49t47 19q30 0 50 -19t20 -49zM535 936q0 -29 -18.5 -48.5t-47.5 -19.5q-30 0 -50 19t-20 49
q0 29 18.5 48.5t47.5 19.5q30 0 50 -19t20 -49z" />
    <glyph glyph-name="divide" unicode="&#xf7;" horiz-adv-x="821" 
d="M604 514q-6 -35 -34.5 -59.5t-63.5 -24.5t-55.5 24.5t-14.5 59.5q4 35 33.5 59.5t65.5 24.5q34 0 54.5 -24.5t14.5 -59.5zM516 55q-4 -35 -33 -59.5t-65 -24.5q-34 0 -55 24.5t-15 59.5t34.5 59.5t63.5 24.5t55.5 -24.5t14.5 -59.5zM842 305l-4 -2h-705l-2 2v37l2 2h705
l4 -2v-37z" />
    <glyph glyph-name="oslash" unicode="&#xf8;" 
d="M139 -111l-37 17l58 100q-84 27 -97.5 136t41.5 231q61 144 174 245.5t216 98.5q29 0 59 -15l51 91l39 -19l-55 -94q49 -46 49.5 -141.5t-43.5 -194.5q-25 -58 -70.5 -123.5t-101.5 -118.5q26 -51 96 -51q27 0 54 13t52.5 41t45.5 52.5t43.5 67t35.5 64.5t32.5 64.5
t23.5 49.5q5 10 15.5 11t16 -6.5t-0.5 -22.5q-1 -1 -13 -28.5t-17.5 -40.5t-21.5 -44.5t-27 -50.5t-30.5 -49t-35.5 -49t-38 -41.5t-43 -35t-46 -21.5t-50 -9q-84 0 -131 54q-96 -73 -178 -70h-2zM246 381q-52 -109 -66.5 -192.5t13.5 -122.5l331 585q-64 7 -143 -72
t-135 -198zM520 313q51 108 62.5 196t-21.5 124l-203 -359q16 13 41 13q26 0 44 -18.5t18 -43.5q0 -6 -4 -22q36 52 63 110zM328 199v22l-101 -176q58 -9 133 53q-32 46 -32 101z" />
    <glyph glyph-name="ugrave" unicode="&#xf9;" horiz-adv-x="731" 
d="M877 377q-17 -35 -24 -50.5t-26 -52.5t-31 -57t-32.5 -53t-37 -52t-39 -43t-43 -36.5t-45 -21.5t-48.5 -9q-73 0 -101.5 69t7.5 193q-62 -109 -135.5 -185.5t-141.5 -76.5q-42 0 -80 20t-49 72q-3 16 -3.5 32.5t1.5 31t6.5 31t9.5 29.5t13 29.5t14 28t15 29t14 27.5
q-12 0 -19.5 7.5t0.5 25.5l37 71q59 113 115 226q21 43 80 43h125q-41 -30 -67 -62.5t-64 -110.5q-92 -186 -129 -264q-62 -134 -35 -194q19 -45 76 -15q37 19 79 68q53 61 117.5 171.5t95.5 172.5t93 191q21 43 80 43h110q-45 -36 -70.5 -72.5t-70.5 -130.5
q-124 -250 -137 -326q-12 -61 0.5 -91t37.5 -32q35 0 73.5 31t75.5 87t64.5 106.5t59.5 117.5q11 25 25.5 21.5t7.5 -28.5q-1 -5 -4 -11zM668 842q0 -9 -6.5 -14t-14.5 -5t-68.5 31t-129 68t-82.5 43q-76 37 -76 92q0 19 11 31t28 12q18 0 102 -61.5t160 -125.5t76 -71z" />
    <glyph glyph-name="uacute" unicode="&#xfa;" horiz-adv-x="731" 
d="M877 377q-17 -35 -24 -50.5t-26 -52.5t-31 -57t-32.5 -53t-37 -52t-39 -43t-43 -36.5t-45 -21.5t-48.5 -9q-73 0 -101.5 69t7.5 193q-62 -109 -135.5 -185.5t-141.5 -76.5q-42 0 -80 20t-49 72q-3 16 -3.5 32.5t1.5 31t6.5 31t9.5 29.5t13 29.5t14 28t15 29t14 27.5
q-12 0 -19.5 7.5t0.5 25.5l37 71q59 113 115 226q21 43 80 43h125q-41 -30 -67 -62.5t-64 -110.5q-92 -186 -129 -264q-62 -134 -35 -194q19 -45 76 -15q37 19 79 68q53 61 117.5 171.5t95.5 172.5t93 191q21 43 80 43h110q-45 -36 -70.5 -72.5t-70.5 -130.5
q-124 -250 -137 -326q-12 -61 0.5 -91t37.5 -32q35 0 73.5 31t75.5 87t64.5 106.5t59.5 117.5q11 25 25.5 21.5t7.5 -28.5q-1 -5 -4 -11zM889 1014q-11 -24 -190.5 -106t-192.5 -77q-7 4 -9 12.5t3 14.5q3 7 58.5 47t118.5 84.5t75 54.5q66 50 118 25q15 -8 20.5 -24
t-1.5 -31z" />
    <glyph glyph-name="ucircumflex" unicode="&#xfb;" horiz-adv-x="731" 
d="M877 377q-17 -35 -24 -50.5t-26 -52.5t-31 -57t-32.5 -53t-37 -52t-39 -43t-43 -36.5t-45 -21.5t-48.5 -9q-73 0 -101.5 69t7.5 193q-62 -109 -135.5 -185.5t-141.5 -76.5q-42 0 -80 20t-49 72q-3 16 -3.5 32.5t1.5 31t6.5 31t9.5 29.5t13 29.5t14 28t15 29t14 27.5
q-12 0 -19.5 7.5t0.5 25.5l37 71q59 113 115 226q21 43 80 43h125q-41 -30 -67 -62.5t-64 -110.5q-92 -186 -129 -264q-62 -134 -35 -194q19 -45 76 -15q37 19 79 68q53 61 117.5 171.5t95.5 172.5t93 191q21 43 80 43h110q-45 -36 -70.5 -72.5t-70.5 -130.5
q-124 -250 -137 -326q-12 -61 0.5 -91t37.5 -32q35 0 73.5 31t75.5 87t64.5 106.5t59.5 117.5q11 25 25.5 21.5t7.5 -28.5q-1 -5 -4 -11zM834 862q5 -11 -11 -12q-22 -1 -30 12l-95 146q-243 -132 -270 -146q-18 -16 -45 -11q-16 4 -6 11l305 217q76 10 78 0z" />
    <glyph glyph-name="udieresis" unicode="&#xfc;" horiz-adv-x="731" 
d="M877 377q-17 -35 -24 -50.5t-26 -52.5t-31 -57t-32.5 -53t-37 -52t-39 -43t-43 -36.5t-45 -21.5t-48.5 -9q-73 0 -101.5 69t7.5 193q-62 -109 -135.5 -185.5t-141.5 -76.5q-42 0 -80 20t-49 72q-3 16 -3.5 32.5t1.5 31t6.5 31t9.5 29.5t13 29.5t14 28t15 29t14 27.5
q-12 0 -19.5 7.5t0.5 25.5l37 71q59 113 115 226q21 43 80 43h125q-41 -30 -67 -62.5t-64 -110.5q-92 -186 -129 -264q-62 -134 -35 -194q19 -45 76 -15q37 19 79 68q53 61 117.5 171.5t95.5 172.5t93 191q21 43 80 43h110q-45 -36 -70.5 -72.5t-70.5 -130.5
q-124 -250 -137 -326q-12 -61 0.5 -91t37.5 -32q35 0 73.5 31t75.5 87t64.5 106.5t59.5 117.5q11 25 25.5 21.5t7.5 -28.5q-1 -5 -4 -11zM551 977q0 -29 -18.5 -48.5t-47.5 -19.5q-30 0 -49.5 19t-19.5 49q0 29 18 48t47 19q30 0 50 -18.5t20 -48.5zM815 977q0 -30 -18 -49
t-47 -19q-30 0 -50 19t-20 49q0 29 18 48t47 19q30 0 50 -18.5t20 -48.5z" />
    <glyph glyph-name="yacute" unicode="&#xfd;" horiz-adv-x="817" 
d="M961 373q-40 -82 -64.5 -127.5t-58 -97t-63.5 -80.5t-75 -61.5t-98.5 -57t-128.5 -51.5q-46 -83 -87 -147t-104.5 -143t-126.5 -131t-146.5 -88t-170.5 -36q-59 0 -101 15t-63 40t-27.5 57.5t1 67.5t26.5 70q53 103 193 168q61 30 142.5 54t194 51.5t161.5 41.5
q13 22 25.5 47t25 54.5t22.5 53.5t22 59t19 54.5t19 56.5t16 49.5t15 48.5t12 38q-86 -151 -129 -210q-122 -167 -232 -167q-42 0 -80 20t-49 72q-3 16 -3.5 32.5t1.5 31t6.5 31t9.5 29.5t13 29.5t14 28t15 29t14 27.5q-12 0 -19.5 7.5t0.5 25.5l37 71q59 113 115 226
q21 43 80 43h125q-4 -3 -20.5 -15t-30.5 -26t-25 -33q-74 -126 -184 -363q-62 -134 -35 -194q19 -45 76 -15q37 19 79 68q145 168 322 535q21 43 80 43h110q-23 -16 -42 -37.5t-32 -40.5t-30 -57t-26 -60.5t-29 -77.5q-26 -71 -81 -231t-83 -238q81 24 160.5 74.5
t134.5 128.5q54 79 129 225q12 25 26 21q15 -3 7 -29zM328 -147q-20 -5 -81.5 -21t-95 -25t-84.5 -23.5t-91.5 -28.5t-73.5 -29q-113 -48 -173 -144q-52 -82 -29 -139q21 -48 91 -49q63 0 137.5 40t142.5 104.5t119 122.5t93 116zM922 1028q-11 -24 -190.5 -105.5
t-192.5 -76.5q-18 11 -7 26q3 7 58.5 47.5t118.5 85t75 54.5q66 50 119 24q15 -8 20.5 -24t-1.5 -31z" />
    <glyph glyph-name="thorn" unicode="&#xfe;" horiz-adv-x="788" 
d="M616 393q73 136 54 217q-12 55 -60 48q-68 -9 -155 -130q-98 -133 -275 -465q52 -47 132.5 -4t163 136t140.5 198zM569 1067l-258 -694q94 154 151 221q121 144 210 119q69 -19 92 -84.5t3 -149t-64 -171t-101 -156.5t-131.5 -110t-154 -46.5t-152.5 37.5l-238 -488
q-34 -66 -62.5 -87.5t-78.5 -18.5q-7 0 -38 6t-48 4q37 34 184 293t215 401q152 319 259.5 684.5t105.5 444.5q9 -14 41 -18.5t41 -12.5q36 -34 41 -69.5t-17 -104.5z" />
    <glyph glyph-name="ydieresis" unicode="&#xff;" horiz-adv-x="817" 
d="M961 373q-40 -82 -64.5 -127.5t-58 -97t-63.5 -80.5t-75 -61.5t-98.5 -57t-128.5 -51.5q-46 -83 -87 -147t-104.5 -143t-126.5 -131t-146.5 -88t-170.5 -36q-59 0 -101 15t-63 40t-27.5 57.5t1 67.5t26.5 70q53 103 193 168q61 30 142.5 54t194 51.5t161.5 41.5
q13 22 25.5 47t25 54.5t22.5 53.5t22 59t19 54.5t19 56.5t16 49.5t15 48.5t12 38q-86 -151 -129 -210q-122 -167 -232 -167q-42 0 -80 20t-49 72q-3 16 -3.5 32.5t1.5 31t6.5 31t9.5 29.5t13 29.5t14 28t15 29t14 27.5q-12 0 -19.5 7.5t0.5 25.5l37 71q59 113 115 226
q21 43 80 43h125q-4 -3 -20.5 -15t-30.5 -26t-25 -33q-74 -126 -184 -363q-62 -134 -35 -194q19 -45 76 -15q37 19 79 68q145 168 322 535q21 43 80 43h110q-23 -16 -42 -37.5t-32 -40.5t-30 -57t-26 -60.5t-29 -77.5q-26 -71 -81 -231t-83 -238q81 24 160.5 74.5
t134.5 128.5q54 79 129 225q12 25 26 21q15 -3 7 -29zM328 -147q-20 -5 -81.5 -21t-95 -25t-84.5 -23.5t-91.5 -28.5t-73.5 -29q-113 -48 -173 -144q-52 -82 -29 -139q21 -48 91 -49q63 0 137.5 40t142.5 104.5t119 122.5t93 116zM776 950q0 -29 -18 -48t-47 -19
q-30 0 -50 18.5t-20 48.5q0 29 18.5 48.5t47.5 19.5q30 0 49.5 -19t19.5 -49zM512 950q0 -29 -18.5 -48t-47.5 -19q-30 0 -49.5 18.5t-19.5 48.5t18 49t47 19q30 0 50 -19t20 -49z" />
    <glyph glyph-name="Amacron" unicode="&#x100;" horiz-adv-x="1458" 
d="M1761 1323q0 -47 -20 -96t-67.5 -100t-118.5 -93t-182.5 -74.5t-248.5 -44.5q-366 -32 -618 48q-73 -102 -160.5 -248.5t-136.5 -268.5q-44 -109 -58.5 -197.5t-1 -145.5t47 -93t87.5 -42.5t119 9t142.5 59t156.5 109.5q155 131 304.5 311.5t232.5 334.5q58 109 113 119
q37 7 51 -32q17 -50 -22 -112q-11 -17 -25 -33q-90 -101 -166 -252.5t-103 -296.5q-23 -129 -2 -189t69 -63t111 39.5t124 118.5q117 152 178 291q12 27 30 29q14 1 12 -16l-7 -21q-32 -72 -85.5 -165.5t-105.5 -162.5q-56 -75 -137.5 -125.5t-163.5 -50.5q-80 0 -121 64.5
t-41 152t21.5 174.5t56.5 133q-35 -42 -72.5 -82.5t-88.5 -91.5t-103 -94t-110.5 -85.5t-118 -72t-118.5 -47.5t-118.5 -16.5t-112.5 24.5q-97 41 -131 164.5t2.5 297t137.5 355.5q84 151 180 261q-137 65 -205 141q-42 49 -47 128t29 103q18 23 34 13q19 -12 3 -49
q0 -1 -1 -3q-15 -28 -11.5 -57t16.5 -52t38 -52q66 -74 181 -129q102 114 210.5 205.5t234.5 168t268 118.5t286 42q162 0 257 -72t95 -188zM1677 1348q0 88 -72.5 135t-189.5 47q-111 0 -216.5 -29.5t-190.5 -75.5t-172.5 -118.5t-153.5 -141.5t-143 -161q120 -38 255 -47
t330 8q254 22 403.5 126t149.5 257zM1769 1741l-24 -62h-438l26 62h436z" />
    <glyph glyph-name="amacron" unicode="&#x101;" horiz-adv-x="716" 
d="M862 377q-181 -371 -309 -381q-28 -2 -53 9t-46.5 40.5t-22 82t19.5 132.5q-77 -123 -148 -192q-98 -94 -175 -63q-63 25 -77 121q-19 133 70 298q40 75 100 147q62 73 150 117.5t178.5 41.5t146.5 -64q21 -23 13 -44t-35 -16q-17 56 -67 69.5t-107 -18.5
q-67 -37 -141.5 -117.5t-131.5 -174.5q-72 -131 -84 -207q-13 -92 39 -102q49 -10 119 55q16 16 31 34q81 97 182 287q39 75 66.5 104.5t72.5 26.5q3 0 36 -6t50 -2q-37 -37 -104 -166.5t-86 -216.5q-23 -123 20 -123q30 -1 70 38t80 101.5t66.5 111t48.5 93.5q12 26 27 22
q14 -4 4 -31q-1 -4 -3 -7zM881 946l-25 -61h-438l26 61h437z" />
    <glyph glyph-name="Abreve" unicode="&#x102;" horiz-adv-x="1458" 
d="M1733 1718q16 20 36 14q11 -5 9 -16q-37 -82 -112 -129t-173 -47q-61 0 -117.5 28.5t-64.5 80.5q-8 49 2 70.5t28 21.5q8 0 14.5 -13t15.5 -33.5t22 -33.5q31 -30 62.5 -40.5t78.5 -10.5q42 0 72 7t53.5 24.5t36.5 32t37 44.5zM1673 1208q0 -43 -18.5 -87.5t-63.5 -92
t-111 -86t-171 -68t-234 -40.5q-334 -27 -594 55q-49 -44 -134.5 -179.5t-137.5 -263.5q-44 -109 -58.5 -197.5t-1 -145.5t47 -93t87.5 -42.5t119 9t142.5 59t156.5 109.5q153 129 276.5 279t203.5 295q59 106 112 110q34 2 44 -35q13 -52 -32 -111q-6 -9 -14 -17
q-146 -159 -205 -482q-23 -129 -2 -189t69 -63t111 39.5t124 118.5q117 152 178 291q12 27 30 29q14 1 12 -16l-7 -21q-32 -72 -85.5 -165.5t-105.5 -162.5q-56 -75 -137.5 -125.5t-163.5 -50.5q-80 0 -121 64.5t-41 152t21.5 174.5t56.5 133q-35 -42 -72.5 -82.5
t-88.5 -91.5t-103 -94t-110.5 -85.5t-118 -72t-118.5 -47.5t-118.5 -16.5t-112.5 24.5q-103 44 -130.5 169.5t10.5 276t117.5 306t178.5 264.5q-131 62 -192 131q-40 43 -45 117t27 96q17 22 32 10q17 -13 2 -47q-32 -71 41 -147q67 -73 170 -119q195 211 437 337t509 126
q153 0 242.5 -67t89.5 -173zM1593 1231q0 81 -67.5 124.5t-177.5 43.5q-105 0 -205 -25.5t-183 -67.5t-165 -104.5t-148 -128t-135 -147.5q235 -74 563 -47q238 20 378 116t140 236z" />
    <glyph glyph-name="abreve" unicode="&#x103;" horiz-adv-x="716" 
d="M862 377q-181 -371 -309 -381q-28 -2 -53 9t-46.5 40.5t-22 82t19.5 132.5q-77 -123 -148 -192q-98 -94 -175 -63q-63 25 -77 121q-19 133 70 298q40 75 100 147q62 73 150 117.5t178.5 41.5t146.5 -64q21 -23 13 -44t-35 -16q-17 56 -67 69.5t-107 -18.5
q-67 -37 -141.5 -117.5t-131.5 -174.5q-72 -131 -84 -207q-13 -92 39 -102q49 -10 119 55q16 16 31 34q81 97 182 287q39 75 66.5 104.5t72.5 26.5q3 0 36 -6t50 -2q-37 -37 -104 -166.5t-86 -216.5q-23 -123 20 -123q30 -1 70 38t80 101.5t66.5 111t48.5 93.5q12 26 27 22
q14 -4 4 -31q-1 -4 -3 -7zM899 1079q16 20 36 14q11 -5 9 -16q-37 -82 -112 -129t-173 -47q-61 0 -117.5 28.5t-64.5 80.5q-8 49 2.5 70.5t28.5 21.5q7 0 12.5 -8.5t9 -20t11.5 -26.5t18 -25q31 -30 62.5 -40.5t78.5 -10.5q42 0 72 7t53.5 24.5t36.5 32t37 44.5z" />
    <glyph glyph-name="Aogonek" unicode="&#x104;" horiz-adv-x="1458" 
d="M1331 -53q-90 -71 -165.5 -169.5t-78.5 -164.5q0 -68 60 -68q42 0 104 62q3 2 6.5 3t7.5 1t6 -3t1 -9q-7 -36 -65 -75.5t-130 -39.5q-40 0 -66.5 24t-25.5 68q1 61 64.5 148t148.5 161q-46 -16 -88 -16q-80 0 -121 64.5t-41 152t21.5 174.5t56.5 133q-35 -42 -72.5 -82.5
t-88.5 -91.5t-103 -94t-110.5 -85.5t-118 -72t-118.5 -47.5t-118.5 -16.5t-112.5 24.5q-97 41 -131 164.5t2.5 297t137.5 355.5q84 151 180 261q-137 65 -205 141q-42 49 -47 128t29 103q18 23 34 13q19 -12 3 -49q0 -1 -1 -3q-15 -28 -11.5 -57t16.5 -52t38 -52
q66 -74 181 -129q102 114 210.5 205.5t234.5 168t268 118.5t286 42q162 0 257 -72t95 -188q0 -47 -20 -96t-67.5 -100t-118.5 -93t-182.5 -74.5t-248.5 -44.5q-366 -32 -618 48q-73 -102 -160.5 -248.5t-136.5 -268.5q-44 -109 -58.5 -197.5t-1 -145.5t47 -93t87.5 -42.5
t119 9t142.5 59t156.5 109.5q155 131 304.5 311.5t232.5 334.5q58 109 113 119q37 7 51 -32q17 -50 -22 -112q-11 -17 -25 -33q-90 -101 -166 -252.5t-103 -296.5q-23 -129 -2 -189t69 -63t111 39.5t124 118.5q117 152 178 291q12 27 30 29q14 1 12 -16l-7 -21
q-32 -72 -85.5 -165.5t-105.5 -162.5q-30 -40 -80 -84v-14zM1677 1348q0 88 -72.5 135t-189.5 47q-111 0 -216.5 -29.5t-190.5 -75.5t-172.5 -118.5t-153.5 -141.5t-143 -161q120 -38 255 -47t330 8q254 22 403.5 126t149.5 257z" />
    <glyph glyph-name="aogonek" unicode="&#x105;" horiz-adv-x="716" 
d="M862 377q-133 -272 -235 -348q-85 -72 -153 -164t-71 -154q0 -67 60 -67q43 0 104 61q3 2 6.5 3t7.5 1t6 -3t1 -9q-7 -36 -65 -75.5t-130 -39.5q-40 0 -66.5 24t-25.5 68q1 64 71 156.5t158 167.5q-36 3 -61 27.5t-36 82t18 152.5q-77 -123 -148 -192q-98 -94 -175 -63
q-63 25 -77 121q-19 133 70 298q40 75 100 147q62 73 150 117.5t178.5 41.5t146.5 -64q21 -23 13 -44t-35 -16q-17 56 -67 69.5t-107 -18.5q-67 -37 -141.5 -117.5t-131.5 -174.5q-72 -131 -84 -207q-13 -92 39 -102q49 -10 119 55q16 16 31 34q81 97 182 287
q39 75 66.5 104.5t72.5 26.5q3 0 36 -6t50 -2q-37 -37 -104 -166.5t-86 -216.5q-23 -123 20 -123q30 -1 70 38t80 101.5t66.5 111t48.5 93.5q12 26 27 22q14 -4 4 -31q-1 -4 -3 -7z" />
    <glyph glyph-name="Cacute" unicode="&#x106;" horiz-adv-x="1454" 
d="M1597 375q-77 -158 -143.5 -250t-185.5 -176q-110 -75 -233 -116.5t-272.5 -39t-291.5 63.5q-93 39 -162 106.5t-107.5 150t-56.5 178.5t-13.5 194.5t24.5 197.5t54 187.5t79.5 164t97.5 127.5q-27 81 -31.5 175.5t23.5 191.5q4 13 15.5 20t20 0t3.5 -28
q-27 -118 16 -303q159 164 376 238t456 52q281 -25 397 -162q89 -106 51 -239q-36 -129 -176 -224q-193 -129 -481 -124q-59 1 -119 8q-356 39 -496 270q-14 -15 -37.5 -64t-51 -122.5t-49 -164t-35 -186.5t-5.5 -191.5t35.5 -176.5t91.5 -144t160 -93q163 -50 349 -27
t337 113q64 38 114 81.5t90 100.5t66.5 104.5t65.5 126.5q11 24 24 19q14 -5 2 -34q-1 -2 -2 -5zM1284 1450q-219 26 -434.5 -74t-368.5 -286q123 -252 488 -285q297 -26 488 94q132 82 166 202q35 119 -43 214q-91 111 -296 135zM1640 1688q-8 -20 -156 -87.5t-159 -62.5
q-15 8 -4 23q3 5 48 38t97 69.5t62 45.5q59 39 98 19q12 -6 16 -19.5t-2 -25.5z" />
    <glyph glyph-name="cacute" unicode="&#x107;" horiz-adv-x="532" 
d="M692 375q-27 -58 -42.5 -89t-42 -79t-47 -73.5t-52 -57t-62.5 -47t-72.5 -26.5t-88.5 -11q-93 0 -145.5 40t-62 102.5t6 139t50.5 150t81 135.5q57 77 129 119.5t145 42.5q75 0 112.5 -38.5t29.5 -102.5q-6 -54 -55.5 -97.5t-81.5 -11.5q51 60 63 104q25 101 -41 101
q-51 0 -110 -52t-109 -124q-38 -55 -75.5 -145t-37.5 -169q0 -68 29.5 -112.5t91.5 -44.5q37 0 72 12.5t62 29.5t56.5 50t48 57.5t45 69.5t39 69t36.5 72q9 18 19.5 22t13.5 -6t-5 -30zM879 1040q-11 -24 -190.5 -105.5t-192.5 -76.5q-7 4 -9.5 12.5t2.5 14.5q3 7 58.5 47
t118.5 84.5t75 54.5q67 51 119 25q15 -8 20.5 -24.5t-1.5 -31.5z" />
    <glyph glyph-name="Ccircumflex" unicode="&#x108;" horiz-adv-x="1454" 
d="M1610 1540q4 -12 -12 -12q-20 0 -25 12l-86 131q-202 -96 -227 -108q-16 -16 -41 -11q-16 3 -7 11l261 174q67 8 69 0zM1597 375q-77 -158 -143.5 -250t-185.5 -176q-110 -75 -233 -116.5t-272.5 -39t-291.5 63.5q-93 39 -162 106.5t-107.5 150t-56.5 178.5t-13.5 194.5
t24.5 197.5t54 187.5t79.5 164t97.5 127.5q-27 81 -31.5 175.5t23.5 191.5q4 13 15.5 20t20 0t3.5 -28q-27 -118 16 -303q159 164 376 238t456 52q281 -25 397 -162q89 -106 51 -239q-36 -129 -176 -224q-193 -129 -481 -124q-59 1 -119 8q-356 39 -496 270
q-14 -15 -37.5 -64t-51 -122.5t-49 -164t-35 -186.5t-5.5 -191.5t35.5 -176.5t91.5 -144t160 -93q163 -50 349 -27t337 113q64 38 114 81.5t90 100.5t66.5 104.5t65.5 126.5q11 24 24 19q14 -5 2 -34q-1 -2 -2 -5zM1284 1450q-219 26 -434.5 -74t-368.5 -286
q123 -252 488 -285q297 -26 488 94q132 82 166 202q35 119 -43 214q-91 111 -296 135z" />
    <glyph glyph-name="ccircumflex" unicode="&#x109;" horiz-adv-x="532" 
d="M692 375q-27 -58 -42.5 -89t-42 -79t-47 -73.5t-52 -57t-62.5 -47t-72.5 -26.5t-88.5 -11q-93 0 -145.5 40t-62 102.5t6 139t50.5 150t81 135.5q57 77 129 119.5t145 42.5q75 0 112.5 -38.5t29.5 -102.5q-6 -54 -55.5 -97.5t-81.5 -11.5q51 60 63 104q25 101 -41 101
q-51 0 -110 -52t-109 -124q-38 -55 -75.5 -145t-37.5 -169q0 -68 29.5 -112.5t91.5 -44.5q37 0 72 12.5t62 29.5t56.5 50t48 57.5t45 69.5t39 69t36.5 72q9 18 19.5 22t13.5 -6t-5 -30zM719 827q5 -11 -11 -12q-22 -1 -30 12l-94 146q-244 -132 -271 -146q-18 -16 -45 -11
q-16 4 -6 11l305 217q76 10 78 0z" />
    <glyph glyph-name="Cdotaccent" unicode="&#x10a;" horiz-adv-x="1454" 
d="M1544 1688q0 -40 -31 -71.5t-69 -31.5q-20 0 -32.5 10.5t-12.5 30.5q0 34 32 74.5t64 40.5q22 0 35.5 -16t13.5 -37zM1597 375q-77 -158 -143.5 -250t-185.5 -176q-110 -75 -233 -116.5t-272.5 -39t-291.5 63.5q-93 39 -162 106.5t-107.5 150t-56.5 178.5t-13.5 194.5
t24.5 197.5t54 187.5t79.5 164t97.5 127.5q-27 81 -31.5 175.5t23.5 191.5q4 13 15.5 20t20 0t3.5 -28q-27 -118 16 -303q159 164 376 238t456 52q281 -25 397 -162q89 -106 51 -239q-36 -129 -176 -224q-193 -129 -481 -124q-59 1 -119 8q-356 39 -496 270
q-14 -15 -37.5 -64t-51 -122.5t-49 -164t-35 -186.5t-5.5 -191.5t35.5 -176.5t91.5 -144t160 -93q163 -50 349 -27t337 113q64 38 114 81.5t90 100.5t66.5 104.5t65.5 126.5q11 24 24 19q14 -5 2 -34q-1 -2 -2 -5zM1284 1450q-219 26 -434.5 -74t-368.5 -286
q123 -252 488 -285q297 -26 488 94q132 82 166 202q35 119 -43 214q-91 111 -296 135z" />
    <glyph glyph-name="cdotaccent" unicode="&#x10b;" horiz-adv-x="532" 
d="M692 375q-27 -58 -42.5 -89t-42 -79t-47 -73.5t-52 -57t-62.5 -47t-72.5 -26.5t-88.5 -11q-93 0 -145.5 40t-62 102.5t6 139t50.5 150t81 135.5q57 77 129 119.5t145 42.5q75 0 112.5 -38.5t29.5 -102.5q-6 -54 -55.5 -97.5t-81.5 -11.5q51 60 63 104q25 101 -41 101
q-51 0 -110 -52t-109 -124q-38 -55 -75.5 -145t-37.5 -169q0 -68 29.5 -112.5t91.5 -44.5q37 0 72 12.5t62 29.5t56.5 50t48 57.5t45 69.5t39 69t36.5 72q9 18 19.5 22t13.5 -6t-5 -30zM657 948q0 -40 -31 -71t-69 -31q-20 0 -32.5 10.5t-12.5 30.5q0 34 32 74t64 40
q22 0 35.5 -16t13.5 -37z" />
    <glyph glyph-name="Ccaron" unicode="&#x10c;" horiz-adv-x="1454" 
d="M1239 1726q-5 11 11 12q22 0 30 -12l94 -145q244 131 271 145q18 16 45 11q16 -4 6 -11l-305 -217q-76 -10 -78 0zM1597 375q-77 -158 -143.5 -250t-185.5 -176q-110 -75 -233 -116.5t-272.5 -39t-291.5 63.5q-124 52 -205 148t-112.5 210t-31 242t33 248t87 224.5
t124.5 174.5q-28 82 -32.5 175t23.5 191q4 13 15.5 20t20 0t3.5 -28q-27 -116 17 -303q160 164 376 238.5t455 52.5q281 -25 397 -162q89 -106 52 -239q-37 -130 -178 -224q-192 -130 -481 -124q-57 1 -117 8q-356 39 -496 270q-17 -17 -44 -74.5t-54.5 -144t-49 -187
t-20 -206t25.5 -197.5t93 -166t178 -108q163 -50 349 -27t337 113q64 38 114 81.5t90 100.5t66.5 104.5t65.5 126.5q11 24 24 19q14 -5 2 -34q-1 -2 -2 -5zM1264 1391q-219 26 -434.5 -74.5t-368.5 -286.5q123 -252 487 -285q296 -26 488 94q132 81 167 202q34 119 -43 214
q-90 112 -296 136z" />
    <glyph glyph-name="ccaron" unicode="&#x10d;" horiz-adv-x="532" 
d="M692 375q-27 -58 -42.5 -89t-42 -79t-47 -73.5t-52 -57t-62.5 -47t-72.5 -26.5t-88.5 -11q-93 0 -145.5 40t-62 102.5t6 139t50.5 150t81 135.5q57 77 129 119.5t145 42.5q75 0 112.5 -38.5t29.5 -102.5q-6 -54 -55.5 -97.5t-81.5 -11.5q51 60 63 104q25 101 -41 101
q-51 0 -110 -52t-109 -124q-38 -55 -75.5 -145t-37.5 -169q0 -68 29.5 -112.5t91.5 -44.5q37 0 72 12.5t62 29.5t56.5 50t48 57.5t45 69.5t39 69t36.5 72q9 18 19.5 22t13.5 -6t-5 -30zM473 1143q-5 11 11 12q22 1 30 -12l94 -146q244 132 271 146q18 16 45 11q16 -4 6 -11
l-305 -217q-76 -10 -78 0z" />
    <glyph glyph-name="Dcaron" unicode="&#x10e;" horiz-adv-x="2103" 
d="M2095 444q-13 -125 -71.5 -222t-147 -155.5t-200 -94t-232.5 -41.5t-242.5 6.5t-233 44.5t-200.5 79q-226 -170 -512 -137q-163 18 -223 108q-47 70 -10 146q39 78 144 107q118 32 273 -17q111 -38 312 -139q84 74 164.5 185t149 230.5t137 240.5t154 246t173.5 216
q-154 85 -332.5 113.5t-372.5 -6.5q-278 -55 -446 -216q-122 -118 -136 -242q-13 -116 75 -177q31 -21 71 -33q91 -23 159.5 -6.5t115 59t70.5 84.5t26 70q1 13 20 12q20 0 22 -20l-1 -8q-8 -55 -38.5 -102.5t-74 -78.5t-98 -51t-110.5 -19.5t-111 15.5q-134 44 -192 154
q-61 118 -5 249q68 157 279 260q171 82 415 115q186 26 372 -4t349 -108q78 85 151.5 132t116.5 40q12 -3 15 -9t-2.5 -11t-12.5 -5q-25 0 -66.5 -43t-67.5 -80.5t-46 -70.5q219 -135 333.5 -345.5t86.5 -470.5zM1966 440q25 226 -67.5 420.5t-272.5 325.5
q-60 -86 -228 -343.5t-285 -418t-218 -260.5q-47 -47 -78 -70q98 -54 218.5 -83t242.5 -32t240 25t212.5 82t158 145.5t77.5 208.5zM698 90q-16 7 -56 26t-61.5 28.5t-56 24.5t-67.5 27t-68 23q-135 43 -206 -16q-50 -41 -41 -105q9 -66 76 -99q38 -20 89 -22
q210 -9 391 113zM1649 1729q-5 9 9 10q23 2 32 -10l94 -136q243 124 270 136q18 14 45 10q16 -3 6 -10l-305 -201q-76 -10 -78 0z" />
    <glyph glyph-name="dcaron" unicode="&#x10f;" horiz-adv-x="1341" 
d="M1130 1274q-47 -44 -249.5 -419t-290.5 -583q-11 -26 -20 -55.5t-17 -70.5t4 -67t45 -26q23 0 48 15.5t50.5 47.5t45.5 59.5t45.5 74t36 66.5t29.5 59q6 13 9 18q8 18 19.5 22.5t15 -5t-3.5 -29.5q-162 -381 -332 -381q-54 0 -92 55q-45 68 -18 181q-72 -118 -119 -165
q-88 -87 -180 -63q-69 19 -91.5 84.5t-3 149.5t63 172t100.5 157q59 68 133 109t154 47t154 -37q139 263 237 486q29 67 58.5 89t80.5 17q3 0 36.5 -5t51.5 -3zM649 657q-53 47 -134 4t-163 -135t-139 -196q-72 -136 -54 -217q12 -56 60 -50q69 9 156 132q108 150 274 462z
M1358 1174q0 -48 -19.5 -89.5t-52 -70t-66 -47.5t-69.5 -31q-19 -8 -21.5 4t17.5 18q61 20 105 67t51 112q-28 -21 -58 -21q-35 0 -55 24.5t-14 59.5q4 35 33 59.5t65 24.5q41 0 62.5 -33t21.5 -77z" />
    <glyph glyph-name="Dcroat" unicode="&#x110;" horiz-adv-x="2103" 
d="M2095 489q-11 -118 -58 -214t-118 -158.5t-162.5 -106t-193.5 -61t-210 -18t-212 17.5t-199.5 49.5t-173.5 75.5q-228 -184 -512 -148q-161 19 -222 116q-48 76 -12 158t136 115q121 40 282 -16q85 -32 312 -152q139 134 299 426l-168 -18q-14 -2 -26 22.5t-6.5 50
t32.5 25.5q117 0 211 -2q7 13 62.5 118.5t70.5 133t63.5 113.5t77.5 128.5t74 104t88 109.5q-153 92 -332.5 122.5t-372.5 -7.5q-273 -58 -440 -228q-125 -126 -142 -262q-15 -125 71 -193q32 -25 75 -38q91 -25 159.5 -7.5t115 63.5t70.5 91t26 76q1 13 18 13q21 0 23 -21
v-11q-11 -74 -54.5 -134.5t-104.5 -92.5t-133.5 -42.5t-139.5 15.5q-131 46 -190 162q-63 127 -9 269q64 168 270 280q174 94 426 131q187 27 373.5 -5t347.5 -118q78 93 152 144.5t116 42.5q12 -3 15 -9.5t-2.5 -12t-12.5 -5.5q-25 0 -66 -46.5t-68 -88t-46 -76.5
q218 -144 333 -371.5t87 -509.5zM1966 485q25 244 -67.5 455t-272.5 352q-73 -114 -210.5 -341.5t-184.5 -303.5q15 0 49 -1t53 -1q32 -1 41 -25q8 -20 -15 -27l-18 -3q-57 0 -151 -4q-169 -265 -295 -402q-29 -32 -78 -73q98 -58 218.5 -90t242.5 -35.5t240 27t212.5 89
t158 157.5t77.5 226zM698 106q-24 12 -70.5 35t-76 37.5t-74.5 33.5t-88 34q-134 46 -206 -17q-50 -44 -41 -113q9 -71 75 -108q38 -22 90 -24q211 -9 391 122z" />
    <glyph glyph-name="dcroat" unicode="&#x111;" horiz-adv-x="751" 
d="M1130 973q-102 0 -190 -6q-99 -179 -199 -377t-151 -318q-11 -26 -20 -55.5t-17 -70.5t4 -67t45 -26q23 0 48 15.5t50.5 47.5t45.5 59.5t45.5 74t36 66.5t29.5 59q6 13 9 18q8 18 19.5 22.5t15 -5t-3.5 -29.5q-162 -381 -332 -381q-54 0 -92 55q-45 68 -18 181
q-72 -118 -119 -165q-88 -87 -180 -63q-69 19 -91.5 84.5t-3 149.5t63 172t100.5 157q59 68 133 109t154 47t154 -37q47 90 133 262l-127 -14q-14 -2 -26 22.5t-6.5 50t32.5 25.5q96 0 166 -2l65 142q29 67 58.5 89t80.5 17q3 0 36.5 -5t51.5 -3q-31 -27 -153 -242
q86 -4 145 -4q32 -1 41 -25q8 -20 -15 -27zM649 657q-53 47 -134 4t-163 -135t-139 -196q-72 -136 -54 -217q12 -56 60 -50q69 9 156 132q108 150 274 462z" />
    <glyph glyph-name="Emacron" unicode="&#x112;" horiz-adv-x="1794" 
d="M1755 1741l-24 -62h-439l27 62h436zM1628 424q110 -59 88 -161t-160 -210q-153 -121 -394.5 -194.5t-493.5 -73.5q-150 0 -269 32t-192.5 86t-114.5 126t-44 150t28.5 159t93.5 153.5t160.5 133.5t220.5 98q112 32 207 35q-46 16 -89 40.5t-80.5 57t-59 74t-17.5 84.5
q9 101 78 189t172.5 147t226.5 99t243.5 53.5t219.5 2.5q115 -13 190.5 -50.5t103 -86t18.5 -105t-53 -108t-123 -95t-179 -65.5q-71 -16 -81 0q-6 12 24 25q21 9 51 12q46 5 94 35.5t84 74.5t53 95t8.5 96t-59 79.5t-139.5 43.5q-161 16 -330.5 -27.5t-296.5 -141
t-149 -222.5q-10 -58 4 -102.5t44.5 -70.5t71.5 -46t86 -30t87 -21.5t75 -21.5t50 -28.5t12 -44.5q-7 -23 -39.5 -30.5t-87 -6t-116.5 4t-143.5 -4t-152.5 -26.5q-78 -22 -146 -69t-115.5 -107.5t-75 -131t-30.5 -140.5t25 -135t83 -114.5t151.5 -79.5t224.5 -30
q220 0 434.5 82t362.5 197q120 94 156 181q35 83 -37 105q-3 1 -7 2q-49 12 -46 27t40 13q25 -1 49 -13z" />
    <glyph glyph-name="emacron" unicode="&#x113;" horiz-adv-x="503" 
d="M651 383q-68 -146 -94 -191q-102 -171 -243 -195q-26 -5 -54 -5q-81 0 -138.5 52t-58.5 144q-1 90 43.5 195.5t114.5 187.5q53 63 117 104.5t125.5 52t107.5 -22.5q57 -45 22.5 -134t-134.5 -165q-45 -34 -127 -62.5t-125 -28.5q-13 -31 -21 -75.5t-7 -92t25.5 -80
t71.5 -32.5q187 0 338 350q11 25 30 29q13 2 12 -13q0 -7 -5 -18zM438 440q77 65 105 151q21 69 -8 88q-39 25 -136 -75q-27 -27 -55 -61q-74 -92 -123 -193q35 0 101 24.5t116 65.5zM756 979l-25 -61h-438l26 61h437z" />
    <glyph glyph-name="Edotaccent" unicode="&#x116;" horiz-adv-x="1794" 
d="M1628 426q110 -59 88 -161t-160 -210q-153 -121 -394.5 -194.5t-493.5 -73.5q-150 0 -269 32t-192.5 86t-114.5 126t-44 150t28.5 159t93.5 153.5t160.5 133.5t220.5 98q112 32 207 35q-46 16 -89 40.5t-80.5 57t-59 74t-17.5 84.5q9 101 78 189t172.5 147t226.5 99
t243.5 53.5t219.5 2.5q115 -13 190.5 -50.5t103 -86t18.5 -105t-53 -108t-123 -95t-179 -65.5q-71 -16 -81 0q-6 12 24 25q21 9 51 12q46 5 94 35.5t84 74.5t53 95t8.5 96t-59 79.5t-139.5 43.5q-161 16 -330.5 -27.5t-296.5 -141t-149 -222.5q-10 -58 4 -102.5t44.5 -70.5
t71.5 -46t86 -30t87 -21.5t75 -21.5t50 -28.5t12 -44.5q-7 -23 -39.5 -30.5t-87 -6t-116.5 4t-143.5 -4t-152.5 -26.5q-78 -22 -146 -69t-115.5 -107.5t-75 -131t-30.5 -140.5t25 -135t83 -114.5t151.5 -79.5t224.5 -30q220 0 434.5 82t362.5 197q120 94 156 181
q35 83 -37 105q-3 1 -7 2q-49 12 -46 27t40 13q25 -1 49 -13zM1614 1688q0 -40 -31.5 -71.5t-69.5 -31.5q-20 0 -32.5 10.5t-12.5 30.5q0 34 32.5 74.5t64.5 40.5q22 0 35.5 -16t13.5 -37z" />
    <glyph glyph-name="edotaccent" unicode="&#x117;" horiz-adv-x="503" 
d="M651 383q-68 -146 -94 -191q-102 -171 -243 -195q-26 -5 -54 -5q-81 0 -138.5 52t-58.5 144q-1 90 43.5 195.5t114.5 187.5q53 63 117 104.5t125.5 52t107.5 -22.5q57 -45 22.5 -134t-134.5 -165q-45 -34 -127 -62.5t-125 -28.5q-13 -31 -21 -75.5t-7 -92t25.5 -80
t71.5 -32.5q187 0 338 350q11 25 30 29q13 2 12 -13q0 -7 -5 -18zM438 440q77 65 105 151q21 69 -8 88q-39 25 -136 -75q-27 -27 -55 -61q-74 -92 -123 -193q35 0 101 24.5t116 65.5zM651 995q0 -40 -31 -71t-69 -31q-20 0 -32.5 10.5t-12.5 30.5q0 34 32 74.5t64 40.5
q22 0 35.5 -16t13.5 -38z" />
    <glyph glyph-name="Eogonek" unicode="&#x118;" horiz-adv-x="1794" 
d="M1624 526q110 -59 88 -160.5t-160 -209.5q-140 -111 -357.5 -183t-449.5 -84q-90 -71 -164 -168t-77 -163q0 -68 59 -68q44 0 105 61q3 2 6.5 3t7 1t5.5 -3t1 -9q-7 -36 -64.5 -75t-129.5 -39q-41 0 -67.5 24t-25.5 68q1 52 51 126.5t114.5 137.5t123.5 102h-26
q-150 0 -269 32t-192.5 86t-114.5 126t-44 150t28.5 159t93.5 153.5t160.5 133.5t220.5 98q112 32 207 35q-46 16 -89 40.5t-80.5 57t-59 74t-17.5 84.5q9 101 79.5 192.5t177 156t231 109.5t247.5 62t221 6q115 -13 190.5 -50.5t103 -85.5t18.5 -104.5t-53 -108t-123 -95
t-179 -65.5q-73 -17 -81 1q-5 10 23 22q21 10 52 13q46 5 94 35.5t84 74.5t53 95t8.5 96t-59 79.5t-139.5 43.5q-118 11 -251.5 -17.5t-246.5 -85t-195 -142.5t-99 -181q-10 -58 4 -102t44.5 -70t71.5 -46t86 -30.5t87 -21.5t75 -21t50 -28.5t12 -44.5q-8 -28 -60 -34.5
t-120 -0.5t-170.5 0.5t-188.5 -29.5q-78 -22 -146 -69t-115.5 -107.5t-75 -131t-30.5 -140.5t25 -135t83 -114.5t151.5 -79.5t224.5 -30q220 0 434 82t362 197q121 95 157 182q35 83 -37 105q-3 1 -7 2q-49 12 -46 27q3 14 40 12q25 -1 49 -13z" />
    <glyph glyph-name="eogonek" unicode="&#x119;" horiz-adv-x="503" 
d="M651 383q-3 -7 -21 -46.5t-24 -52t-24 -47.5t-28.5 -51t-29.5 -44.5t-35.5 -45t-38 -35.5t-44.5 -32q-84 -70 -149.5 -160t-68.5 -152q0 -67 60 -67q43 0 104 61q3 2 6.5 3t7.5 1t6 -3t1 -9q-7 -36 -65 -75.5t-130 -39.5q-40 0 -66.5 24.5t-25.5 68.5q1 62 67.5 151
t153.5 164q-28 -4 -47 -4q-81 0 -138.5 52t-58.5 144q-1 90 43.5 195.5t114.5 187.5q53 63 117 104.5t125.5 52t107.5 -22.5q57 -45 22.5 -134t-134.5 -165q-45 -34 -127 -62.5t-125 -28.5q-13 -31 -21 -75.5t-7 -92t25.5 -80t71.5 -32.5q187 0 338 350q11 25 30 29
q13 2 12 -13q0 -7 -5 -18zM438 440q77 65 105 151q21 69 -8 88q-39 25 -136 -75q-27 -27 -55 -61q-74 -92 -123 -193q35 0 101 24.5t116 65.5z" />
    <glyph glyph-name="Ecaron" unicode="&#x11a;" horiz-adv-x="1794" 
d="M1622 393q110 -59 88 -160.5t-160 -209.5q-154 -121 -395.5 -195t-492.5 -74q-150 0 -269 32t-192.5 86t-114.5 126t-44 150t28.5 159t93.5 153.5t160.5 133.5t220.5 98q112 32 207 35q-46 16 -89 40.5t-80.5 57t-59 74t-17.5 84.5q7 85 57.5 162t128 134t175 102.5
t199.5 71.5t201 35.5t181 0.5q115 -13 190.5 -50.5t103 -86t18.5 -105t-53 -108t-123 -95t-179 -65.5q-71 -16 -81 0q-6 12 24 25q22 9 51 12q46 5 94 35.5t84 74.5t53 95t8.5 96t-59 79.5t-139.5 43.5q-119 12 -249.5 -14t-241.5 -78.5t-190.5 -135.5t-96.5 -178
q-10 -58 4 -102t44.5 -70t71.5 -46t86 -30.5t87 -21.5t75 -21t50 -28.5t12 -44.5q-8 -28 -60 -34.5t-120 -0.5t-170.5 0.5t-188.5 -29.5q-78 -22 -146 -69t-115.5 -107.5t-75 -131t-30.5 -140.5t25 -135t83 -114.5t151.5 -79.5t224.5 -30q220 0 434 82t362 197
q121 95 157 182q35 83 -37 105q-3 1 -7 2q-49 12 -46 27q3 14 40 12q25 -1 49 -13zM1354 1720q-3 7 8 9q20 1 29 -9l86 -112q220 100 245 112q17 13 43 7q6 -1 7 -3q0 -2 -3 -4l-278 -168q-68 -8 -70 0z" />
    <glyph glyph-name="ecaron" unicode="&#x11b;" horiz-adv-x="503" 
d="M651 383q-68 -146 -94 -191q-102 -171 -243 -195q-26 -5 -54 -5q-81 0 -138.5 52t-58.5 144q-1 90 43.5 195.5t114.5 187.5q53 63 117 104.5t125.5 52t107.5 -22.5q57 -45 22.5 -134t-134.5 -165q-45 -34 -127 -62.5t-125 -28.5q-13 -31 -21 -75.5t-7 -92t25.5 -80
t71.5 -32.5q187 0 338 350q11 25 30 29q13 2 12 -13q0 -7 -5 -18zM438 440q77 65 105 151q21 69 -8 88q-39 25 -136 -75q-27 -27 -55 -61q-74 -92 -123 -193q35 0 101 24.5t116 65.5zM434 1100q-5 11 11 12q22 1 30 -12l94 -146q244 132 271 146q18 16 45 11q16 -4 6 -11
l-305 -217q-76 -10 -78 0z" />
    <glyph glyph-name="Gcircumflex" unicode="&#x11c;" horiz-adv-x="1486" 
d="M1534 1563q4 -8 -8 -10q-19 -2 -25 10l-76 116q-195 -106 -215 -116q-15 -13 -38 -8q-11 2 -3 8l244 174q62 8 62 0zM1593 -283q40 -9 43 -27q2 -9 -12 -12q-16 -4 -47 3q-68 18 -200 28t-261 8q-55 -79 -128.5 -152.5t-153.5 -130.5t-168.5 -106t-171.5 -79.5t-164 -50
t-146 -17.5t-116 18q-165 60 -147 166q16 95 168 193q184 118 447 168q36 7 72 12q194 29 434 33q78 133 127 249.5t80 253.5l8 35q-29 -28 -67.5 -59t-95 -69t-116 -71t-132 -60.5t-142.5 -42.5t-147 -12.5t-147 25.5q-76 26 -132 86.5t-86 148t-34.5 193.5t23 231.5
t85.5 252.5q-71 79 -101.5 171.5t-8 194t103.5 187.5q19 22 32 18q15 -3 -9 -33q-86 -122 -80 -247.5t94 -233.5q6 15 39 74q71 121 179.5 215.5t229 149t246 76t236.5 3.5q206 -34 292 -163q74 -112 29 -248q-48 -142 -203 -240q-194 -122 -485 -127q-131 -3 -261 33.5
t-218 99.5q-81 -183 -100.5 -344.5t31 -276.5t167.5 -153q142 -40 289 -1t264.5 117.5t147.5 149.5q69 161 150 186q50 15 79 -27q19 -29 14 -67q-20 -160 -87.5 -317t-190.5 -358q244 -3 448 -54zM1235 1450q-124 19 -270.5 -28.5t-283.5 -155t-220 -250.5
q-50 -88 -58 -105q88 -69 219 -102.5t269 -20.5q276 30 447 172q126 105 145 227q18 119 -75 194q-65 52 -173 69zM1010 -285q-215 -7 -377 -32q-195 -30 -389 -138q-161 -89 -207 -171q-49 -85 64 -117q9 -3 20 -5q70 -16 183 7.5t238.5 78.5t254 155t213.5 222z" />
    <glyph glyph-name="gcircumflex" unicode="&#x11d;" horiz-adv-x="802" 
d="M948 377q-38 -78 -59 -119t-52 -93t-58 -81t-64 -58.5t-82 -50.5q-28 -79 -74 -163.5t-111 -167t-138.5 -147t-161 -104.5t-173.5 -40q-192 0 -192 158q0 131 178 235q90 53 185 92t203.5 74.5t156.5 54.5q34 99 47 228q13 126 2 167q-25 -47 -51 -91t-68.5 -101.5
t-83.5 -95.5t-92 -59t-98 -7q-73 31 -97 99t-2.5 149t65 162.5t103.5 152.5q62 74 142 116.5t170 39.5t164 -61q41 -34 29 -66q-8 -21 -27 -19q-16 4 -25 25q-25 69 -81 74.5t-119.5 -36t-129.5 -114.5q-76 -85 -131 -184t-66 -175t40 -103q43 -18 101 21.5t109 107t92 140
t56 122.5q13 42 36.5 56t51.5 16t39 10q40 -245 -27 -498q96 69 144 133q30 40 53.5 82.5t43.5 86.5t22 48q9 18 20.5 21.5t14.5 -7t-5 -30.5zM485 -92l-71 -25q-101 -34 -160 -56t-145 -61t-146 -79q-78 -52 -117 -136q-40 -86 0 -129q25 -28 80 -28q59 0 134.5 35
t123.5 71q87 71 185 201q74 106 116 207zM772 797q5 -11 -11 -12q-22 -1 -30 12l-94 145q-243 -131 -270 -145q-17 -15 -45 -11q-17 3 -7 11l306 217q75 10 77 0z" />
    <glyph glyph-name="Gbreve" unicode="&#x11e;" horiz-adv-x="1486" 
d="M1552 1722q13 16 30 11q9 -3 7 -13q-31 -66 -91 -103.5t-138 -37.5q-48 0 -93.5 23t-52.5 65q-7 39 1.5 56.5t23.5 17.5q7 0 11.5 -10t12 -27t17.5 -27q43 -41 113 -41q44 0 74.5 12.5t45.5 27t39 46.5zM1593 -283q40 -9 43 -27q2 -9 -12 -12q-16 -4 -47 3
q-68 18 -200 28t-261 8q-55 -79 -128.5 -152.5t-153.5 -130.5t-168.5 -106t-171.5 -79.5t-164 -50t-146 -17.5t-116 18q-165 60 -147 166q16 95 168 193q184 118 447 168q36 7 72 12q194 29 434 33q78 133 127 249.5t80 253.5l8 35q-29 -28 -67.5 -59t-95 -69t-116 -71
t-132 -60.5t-142.5 -42.5t-147 -12.5t-147 25.5q-76 26 -132 86.5t-86 148t-34.5 193.5t23 231.5t85.5 252.5q-71 79 -101.5 171.5t-8 194t103.5 187.5q19 22 32 18q15 -3 -9 -33q-86 -122 -80 -247.5t94 -233.5q6 15 39 74q95 162 241.5 278.5t308 166t308.5 26.5
q206 -34 296 -166q79 -115 41 -256q-39 -147 -189 -249q-189 -129 -482 -134q-131 -3 -261 33.5t-218 99.5q-81 -183 -100.5 -344.5t31 -276.5t167.5 -153q142 -40 289 -1t264.5 117.5t147.5 149.5q69 161 150 186q50 15 79 -27q19 -29 14 -67q-20 -160 -87.5 -317
t-190.5 -358q244 -3 448 -54zM1202 1477q-185 28 -398 -105.5t-343 -355.5q-50 -88 -58 -105q88 -69 219 -102.5t269 -20.5q272 29 436 175q121 109 135 237q14 124 -81 202q-68 57 -179 75zM1010 -285q-215 -7 -377 -32q-195 -30 -389 -138q-161 -89 -207 -171
q-49 -85 64 -117q9 -3 20 -5q70 -16 183 7.5t238.5 78.5t254 155t213.5 222z" />
    <glyph glyph-name="gbreve" unicode="&#x11f;" horiz-adv-x="802" 
d="M948 377q-38 -78 -59 -119t-52 -93t-58 -81t-64 -58.5t-82 -50.5q-28 -79 -74 -163.5t-111 -167t-138.5 -147t-161 -104.5t-173.5 -40q-192 0 -192 158q0 131 178 235q90 53 185 92t203.5 74.5t156.5 54.5q34 99 47 228q13 126 2 167q-25 -47 -51 -91t-68.5 -101.5
t-83.5 -95.5t-92 -59t-98 -7q-73 31 -97 99t-2.5 149t65 162.5t103.5 152.5q62 74 142 116.5t170 39.5t164 -61q41 -34 29 -66q-8 -21 -27 -19q-16 4 -25 25q-25 69 -81 74.5t-119.5 -36t-129.5 -114.5q-76 -85 -131 -184t-66 -175t40 -103q43 -18 101 21.5t109 107t92 140
t56 122.5q13 42 36.5 56t51.5 16t39 10q40 -245 -27 -498q96 69 144 133q30 40 53.5 82.5t43.5 86.5t22 48q9 18 20.5 21.5t14.5 -7t-5 -30.5zM485 -92l-71 -25q-101 -34 -160 -56t-145 -61t-146 -79q-78 -52 -117 -136q-40 -86 0 -129q25 -28 80 -28q59 0 134.5 35
t123.5 71q87 71 185 201q74 106 116 207zM844 1100q16 20 36 14q11 -5 9 -16q-37 -82 -112 -129t-173 -47q-61 0 -117.5 28t-64.5 80q-8 49 2.5 70.5t28.5 21.5q7 0 12.5 -8.5t9 -20t11.5 -26.5t18 -25q31 -30 62.5 -40.5t78.5 -10.5q42 0 72 7t53.5 25t36.5 32t37 45z" />
    <glyph glyph-name="Gdotaccent" unicode="&#x120;" horiz-adv-x="1486" 
d="M1593 -283q40 -9 43 -27q2 -9 -12 -12q-16 -4 -47 3q-68 18 -200 28t-261 8q-55 -79 -128.5 -152.5t-153.5 -130.5t-168.5 -106t-171.5 -79.5t-164 -50t-146 -17.5t-116 18q-165 60 -147 166q16 95 168 193q184 118 447 168q36 7 72 12q194 29 434 33q78 133 127 249.5
t80 253.5l8 35q-29 -28 -67.5 -59t-95 -69t-116 -71t-132 -60.5t-142.5 -42.5t-147 -12.5t-147 25.5q-76 26 -132 86.5t-86 148t-34.5 193.5t23 231.5t85.5 252.5q-71 79 -101.5 171.5t-8 194t103.5 187.5q19 22 32 18q15 -3 -9 -33q-86 -122 -80 -247.5t94 -233.5
q6 15 39 74q95 162 241.5 278.5t308 166t308.5 26.5q206 -34 296 -166q79 -115 41 -256q-39 -147 -189 -249q-189 -129 -482 -134q-131 -3 -261 33.5t-218 99.5q-81 -183 -100.5 -344.5t31 -276.5t167.5 -153q142 -40 289 -1t264.5 117.5t147.5 149.5q69 161 150 186
q50 15 79 -27q19 -29 14 -67q-20 -160 -87.5 -317t-190.5 -358q244 -3 448 -54zM1202 1477q-185 28 -398 -105.5t-343 -355.5q-50 -88 -58 -105q88 -69 219 -102.5t269 -20.5q272 29 436 175q121 109 135 237q14 124 -81 202q-68 57 -179 75zM1010 -285q-215 -7 -377 -32
q-195 -30 -389 -138q-161 -89 -207 -171q-49 -85 64 -117q9 -3 20 -5q70 -16 183 7.5t238.5 78.5t254 155t213.5 222zM1364 1698q0 -32 -24.5 -57t-55.5 -25q-15 0 -26 9t-11 24q0 28 25.5 60t52.5 32q18 0 28.5 -13.5t10.5 -29.5z" />
    <glyph glyph-name="gdotaccent" unicode="&#x121;" horiz-adv-x="802" 
d="M948 377q-38 -78 -59 -119t-52 -93t-58 -81t-64 -58.5t-82 -50.5q-28 -79 -74 -163.5t-111 -167t-138.5 -147t-161 -104.5t-173.5 -40q-192 0 -192 158q0 131 178 235q90 53 185 92t203.5 74.5t156.5 54.5q34 99 47 228q13 126 2 167q-25 -47 -51 -91t-68.5 -101.5
t-83.5 -95.5t-92 -59t-98 -7q-73 31 -97 99t-2.5 149t65 162.5t103.5 152.5q62 74 142 116.5t170 39.5t164 -61q41 -34 29 -66q-8 -21 -27 -19q-16 4 -25 25q-25 69 -81 74.5t-119.5 -36t-129.5 -114.5q-76 -85 -131 -184t-66 -175t40 -103q43 -18 101 21.5t109 107t92 140
t56 122.5q13 42 36.5 56t51.5 16t39 10q40 -245 -27 -498q96 69 144 133q30 40 53.5 82.5t43.5 86.5t22 48q9 18 20.5 21.5t14.5 -7t-5 -30.5zM485 -92l-71 -25q-101 -34 -160 -56t-145 -61t-146 -79q-78 -52 -117 -136q-40 -86 0 -129q25 -28 80 -28q59 0 134.5 35
t123.5 71q87 71 185 201q74 106 116 207zM727 1020q0 -40 -31 -71t-69 -31q-20 0 -32.5 10.5t-12.5 29.5q0 34 32 74.5t64 40.5q22 0 35.5 -16t13.5 -37z" />
    <glyph glyph-name="Gcommaaccent" unicode="&#x122;" horiz-adv-x="1144" 
d="M791 -627q0 -66 -48.5 -113.5t-105.5 -66.5q-12 -6 -13.5 3t11.5 13q44 13 75.5 46.5t37.5 80.5q-21 -14 -41 -14q-26 0 -41.5 17.5t-10.5 42.5q3 26 24 43.5t46 17.5q32 0 49 -20t17 -50zM1593 -129q38 -9 43 -26q3 -11 -13.5 -14.5t-45.5 3.5q-68 18 -201 28.5
t-260 8.5q-55 -79 -128.5 -152.5t-153.5 -130.5t-168.5 -106t-171.5 -79.5t-164 -50t-146 -17.5t-116 18q-165 60 -147 166q16 95 168 192q184 118 448 168q35 7 71 12q194 29 434 33q78 133 127 249.5t80 254.5l8 35q-29 -28 -67.5 -59t-95 -69t-116 -71t-132 -60.5
t-142.5 -42.5t-147 -12.5t-147 25.5q-76 26 -132 86.5t-86 148t-34.5 193t23 231t85.5 252.5q-71 79 -101.5 171.5t-8 194t103.5 187.5q19 22 32 19q12 -5 -9 -33q-86 -122 -80 -247.5t94 -233.5q6 15 39 74q95 162 241.5 278.5t308 166t308.5 26.5q206 -34 296 -166
q79 -115 41 -256q-39 -147 -189 -249q-189 -129 -482 -134q-131 -3 -261 33.5t-218 99.5q-81 -183 -100.5 -344.5t31 -276.5t167.5 -153q142 -40 289 -1t264.5 117.5t147.5 149.5q69 161 150 186q50 15 79 -27q19 -29 14 -67q-20 -160 -87.5 -317.5t-190.5 -358.5
q249 -3 448 -53zM1202 1630q-185 28 -398 -105.5t-343 -355.5q-52 -91 -58 -104q88 -69 219 -102.5t269 -20.5q271 29 435 174q121 108 136 236q14 124 -81 203q-67 57 -179 75zM1010 -131q-207 -6 -377 -33q-195 -30 -389 -137q-162 -90 -208 -172q-48 -84 65 -116
q9 -3 20 -5q70 -16 183 7.5t238.5 78.5t254 155t213.5 222z" />
    <glyph glyph-name="gcommaaccent" unicode="&#x123;" horiz-adv-x="802" 
d="M948 377q-38 -78 -59 -119t-52 -93t-58 -81t-64 -58.5t-82 -50.5q-28 -79 -74 -163.5t-111 -167t-138.5 -147t-161 -104.5t-173.5 -40q-192 0 -192 158q0 131 178 235q90 53 185 92t203.5 74.5t156.5 54.5q34 99 47 228q13 126 2 167q-25 -47 -51 -91t-68.5 -101.5
t-83.5 -95.5t-92 -59t-98 -7q-73 31 -97 99t-2.5 149t65 162.5t103.5 152.5q62 74 142 116.5t170 39.5t164 -61q41 -34 29 -66q-8 -21 -27 -19q-16 4 -25 25q-25 69 -81 74.5t-119.5 -36t-129.5 -114.5q-76 -85 -131 -184t-66 -175t40 -103q43 -18 101 21.5t109 107t92 140
t56 122.5q13 42 36.5 56t51.5 16t39 10q40 -245 -27 -498q96 69 144 133q30 40 53.5 82.5t43.5 86.5t22 48q9 18 20.5 21.5t14.5 -7t-5 -30.5zM485 -92l-71 -25q-101 -34 -160 -56t-145 -61t-146 -79q-78 -52 -117 -136q-40 -86 0 -129q25 -28 80 -28q59 0 134.5 35
t123.5 71q87 71 185 201q74 106 116 207zM539 971q0 82 60 141t132 84q16 6 18 -5q2 -10 -14 -14q-1 -1 -2 -1q-55 -19 -94 -60.5t-45 -99.5q25 18 51 18q32 0 50.5 -22.5t13.5 -53.5q-4 -32 -30.5 -53.5t-57.5 -21.5q-39 0 -60.5 25t-21.5 63z" />
    <glyph glyph-name="Hcircumflex" unicode="&#x124;" horiz-adv-x="2828" 
d="M3119 1536q-16 -8 -60.5 -69.5t-103.5 -160.5t-131 -254.5t-129 -322.5q125 0 164 14q30 11 36 3t-20 -27q-66 -46 -198 -55q-1 -4 -32.5 -100t-48 -157t-37 -151t-17.5 -151t28 -89q21 -22 51 -23t64 23q115 86 256 371q11 21 23.5 27t15 -5.5t-7.5 -35.5
q-76 -162 -126.5 -238t-123.5 -147q-54 -53 -116 -68t-116 12q-30 15 -48.5 45t-23.5 71t-4 84.5t12 98.5t22 100.5t29.5 102t30.5 91.5t28.5 80.5t21.5 58.5q-90 0 -694 26q-49 -146 -120.5 -283.5t-171 -265.5t-215 -227.5t-259 -167.5t-297.5 -88q-140 -18 -274.5 3
t-244.5 78t-186.5 148t-101 214.5t13.5 277.5q25 93 110 175.5t140 84.5q20 0 24.5 -5.5t-2.5 -12.5t-18 -11q-61 -26 -127 -116.5t-82 -206.5q-14 -107 14 -195t85.5 -145t135 -96.5t164 -55.5t171 -16t157.5 16q695 157 977 899q-54 0 -123 -32q-55 -24 -63 -5q-3 8 8 27
q15 25 52 49.5t75 28.5h80q66 167 156.5 363t142.5 300q-48 -5 -121.5 -11.5t-126.5 -11t-123.5 -13t-123 -19t-116 -28.5t-111 -41t-98 -57.5t-88 -77.5t-70 -101t-54.5 -127q-21 -66 -19 -128t23.5 -108t59.5 -77.5t90 -36t114 15.5q43 16 79.5 55.5t57 85.5t35.5 94.5
t14.5 82t-6.5 47.5q-16 23 -1 31q14 7 25 -12q2 -2 3 -5q37 -88 14.5 -172.5t-83.5 -151.5t-136 -94q-60 -22 -120.5 -20t-110 25.5t-92 63t-66 93t-32 115t10.5 129.5q19 76 55 139t81 108.5t105.5 82t121.5 60.5t137 42t142.5 27t148 16.5t144.5 11t139.5 8t126.5 9.5
q21 38 68 94t89 69q47 13 82 -1.5t35 -55.5q0 -45 -44.5 -81t-98.5 -53t-99 -17q-35 -67 -91 -209t-111 -292t-62 -167q153 0 396 -17.5t298 -17.5q15 43 43 113t81 191t105 221.5t112 183.5t106 98q81 29 117 27q24 -2 -21 -25zM2873 1569q4 -9 -9 -9q-16 0 -21 9l-74 112
q-187 -100 -207 -112q-14 -13 -37 -7q-11 2 -4 7l236 168q59 8 61 0zM2292 1579q-23 12 -109 -98q122 19 131 65q4 22 -15 31q-3 2 -7 2z" />
    <glyph glyph-name="hcircumflex" unicode="&#x125;" horiz-adv-x="679" 
d="M823 375q-83 -171 -133 -243q-99 -139 -198 -140q-30 0 -56 10.5t-48.5 37.5t-23.5 73.5t19 117.5q19 64 113 215q33 54 14 74q-24 26 -114 -46q-21 -17 -46 -40q-146 -131 -287 -405q-10 -20 -25 -25.5t-50 -5.5q-5 0 -20 -1t-20 -1.5t-14 -3t-16 -6.5q15 30 71.5 147.5
t80 166t75.5 155.5t85 173.5t79.5 158t88.5 171.5t83 156q40 72 70 102t76 27q4 0 36.5 -5t49.5 -3q-62 -63 -220.5 -351.5t-304.5 -584.5q91 116 166 180q84 75 207.5 142.5t171.5 50.5q-25 -43 -62 -111t-104.5 -211t-79.5 -207q-20 -104 31 -108q33 -2 75 38.5t84.5 109
t67.5 115t50 97.5q13 26 27 21q15 -6 3 -36q-1 -2 -2 -5zM901 1370q5 -11 -11 -12q-22 -1 -30 12l-94 146q-243 -132 -270 -146q-17 -15 -45 -11q-17 3 -7 11l306 217q75 10 77 0z" />
    <glyph glyph-name="Hbar" unicode="&#x126;" horiz-adv-x="2828" 
d="M3119 1536q-24 -12 -93.5 -116t-148.5 -257h328l-18 -82h-348q-85 -181 -144 -352q125 0 164 14q30 11 36 3t-20 -27q-66 -46 -198 -55q-1 -4 -32.5 -100t-48 -157t-37 -151t-17.5 -151t28 -89q21 -22 51 -23t64 23q115 86 256 371q11 21 23.5 27t15 -5.5t-7.5 -35.5
q-76 -162 -126.5 -238t-123.5 -147q-54 -53 -116 -68t-116 12q-30 15 -48.5 45t-23.5 71t-4 84.5t12 98.5t22 100.5t29.5 102t30.5 91.5t28.5 80.5t21.5 58.5q-90 0 -694 26q-49 -146 -120.5 -283.5t-171 -265.5t-215 -227.5t-259 -167.5t-297.5 -88q-140 -18 -274.5 3
t-244.5 78t-186.5 148t-101 214.5t13.5 277.5q25 93 110 175.5t140 84.5q20 0 24.5 -5.5t-2.5 -12.5t-18 -11q-61 -26 -127 -116.5t-82 -206.5q-14 -107 14 -195t85.5 -145t135 -96.5t164 -55.5t171 -16t157.5 16q695 157 977 899q-54 0 -123 -32q-55 -24 -63 -5q-3 8 8 27
q15 25 52 49.5t75 28.5h80q74 183 135 319h-405l20 82h424q86 188 125 262q-48 -5 -121.5 -11.5t-126.5 -11t-123.5 -13t-123 -19t-116 -28.5t-111 -41t-98 -57.5t-88 -77.5t-70 -101t-54.5 -127q-21 -66 -19 -128t23.5 -108t59.5 -77.5t90 -36t114 15.5q43 16 79.5 55.5
t57 85.5t35.5 94.5t14.5 82t-6.5 47.5q-16 23 -1 31q14 7 25 -12q2 -2 3 -5q37 -88 14.5 -172.5t-83.5 -151.5t-136 -94q-60 -22 -120.5 -20t-110 25.5t-92 63t-66 93t-32 115t10.5 129.5q19 76 55 139t81 108.5t105.5 82t121.5 60.5t137 42t142.5 27t148 16.5t144.5 11
t139.5 8t126.5 9.5q21 38 68 94t89 69q47 13 82 -1.5t35 -55.5q0 -45 -44.5 -81t-98.5 -53t-99 -17q-41 -77 -114 -267h729q160 336 262 371q81 29 117 27q24 -2 -21 -25zM2576 727q35 108 146 354h-721l-119 -319q153 0 396 -17.5t298 -17.5zM2292 1579q-23 12 -109 -98
q122 19 131 65q4 22 -15 31q-3 2 -7 2z" />
    <glyph glyph-name="hbar" unicode="&#x127;" horiz-adv-x="679" 
d="M711 1026l-25 -41h-137q-178 -311 -361 -686q91 116 166 180q84 75 207.5 142.5t171.5 50.5q-25 -43 -62 -111t-104.5 -211t-79.5 -207q-20 -104 31 -108q33 -2 75 38.5t84.5 109t67.5 115t50 97.5q13 26 27 21q15 -6 3 -36q-1 -2 -2 -5q-83 -171 -133 -243
q-99 -139 -198 -140q-30 0 -56 10.5t-48.5 37.5t-23.5 73.5t19 117.5q19 64 113 215q33 54 14 74q-24 26 -114 -46q-21 -17 -46 -40q-146 -131 -287 -405q-10 -20 -25 -25.5t-50 -5.5q-5 0 -20 -1t-20 -1.5t-14 -3t-16 -6.5q321 670 494 999h-158l27 41h151l49 88
q40 72 70 102t76 27q4 0 36.5 -5t49.5 -3q-41 -41 -140 -209h138z" />
    <glyph glyph-name="Itilde" unicode="&#x128;" horiz-adv-x="1902" 
d="M2449 1448q1 -56 -40 -86.5t-117 -56.5q-13 0 -45.5 -9.5t-40.5 -9.5q-67 -123 -121.5 -266.5t-91.5 -266t-80 -248t-110 -256t-158 -247.5q-165 -212 -372.5 -338t-436.5 -164q-173 -29 -327 -16.5t-270 64t-189.5 139t-85 209.5t43.5 276q36 95 131 180t150 88
q15 1 21 -2t3.5 -7.5t-8.5 -9.5t-14 -9q-64 -28 -141.5 -121t-106.5 -209q-27 -111 -5 -198.5t79 -151.5t139 -106t175.5 -62t188 -19.5t177.5 21.5q123 31 239 90t208 131t176.5 161t147 175.5t117 179t89.5 167.5t61 144q79 209 166.5 389.5t140.5 272.5q-75 -16 -129 -29
t-133.5 -34.5t-139 -42.5t-133 -52.5t-128.5 -65.5t-113 -79.5t-99 -96t-73.5 -115t-48.5 -136.5q-34 -150 37.5 -232.5t201.5 -32.5q75 30 121.5 87.5t58 113.5t9 100.5t-16.5 57.5q-4 5 4 17t19 15t20 -14q58 -112 -12.5 -243.5t-200.5 -180.5q-64 -25 -128 -23t-114 27
t-88 69.5t-49.5 105t1.5 133.5q17 78 55.5 149t89.5 127t119.5 106.5t138 88t154 71.5t159 57.5t161 44.5t151.5 34t139 26q18 37 66.5 95t91.5 73q46 15 80.5 2.5t35.5 -51.5zM2351 1440q-21 9 -110 -103q127 26 134 72q3 20 -16 29q-4 2 -8 2zM2628 1720
q-71 -144 -170 -137q-37 3 -105.5 33.5t-103.5 32.5q-60 6 -90 -56q-4 -10 -29 -4q-12 4 -12 8q78 134 170 127q39 -2 108 -30t101 -31q63 -5 96 59q2 8 26 3q9 -2 9 -5z" />
    <glyph glyph-name="itilde" unicode="&#x129;" horiz-adv-x="356" 
d="M483 375q-78 -168 -132 -244q-94 -131 -189 -131q-54 0 -88.5 27.5t-44.5 68.5t-4 86.5t26 83.5l178 340q40 77 51.5 88t59.5 11h104q-4 -4 -20 -15t-30.5 -25.5t-24.5 -33.5q-158 -257 -213 -398q-21 -45 -25 -59q-36 -124 43 -129q22 -3 47.5 9.5t42.5 29.5
q84 82 193 309q12 25 26 21q14 -5 2 -34q-1 -2 -2 -5zM700 961q-71 -145 -170 -138q-37 3 -105 33.5t-103 32.5q-31 3 -54.5 -12.5t-36.5 -42.5q-4 -10 -29 -4q-13 3 -12 8q78 134 170 127q39 -2 108 -30.5t101 -31.5q63 -5 97 60q2 8 25 3q9 -2 9 -5z" />
    <glyph glyph-name="Imacron" unicode="&#x12a;" horiz-adv-x="1902" 
d="M2449 1448q1 -56 -40 -86.5t-117 -56.5q-13 0 -45.5 -9.5t-40.5 -9.5q-67 -123 -121.5 -266.5t-91.5 -266t-80 -248t-110 -256t-158 -247.5q-165 -212 -372.5 -338t-436.5 -164q-173 -29 -327 -16.5t-270 64t-189.5 139t-85 209.5t43.5 276q36 95 131 180t150 88
q15 1 21 -2t3.5 -7.5t-8.5 -9.5t-14 -9q-64 -28 -141.5 -121t-106.5 -209q-27 -111 -5 -198.5t79 -151.5t139 -106t175.5 -62t188 -19.5t177.5 21.5q123 31 239 90t208 131t176.5 161t147 175.5t117 179t89.5 167.5t61 144q79 209 166.5 389.5t140.5 272.5q-75 -16 -129 -29
t-133.5 -34.5t-139 -42.5t-133 -52.5t-128.5 -65.5t-113 -79.5t-99 -96t-73.5 -115t-48.5 -136.5q-34 -150 37.5 -232.5t201.5 -32.5q75 30 121.5 87.5t58 113.5t9 100.5t-16.5 57.5q-4 5 4 17t19 15t20 -14q58 -112 -12.5 -243.5t-200.5 -180.5q-64 -25 -128 -23t-114 27
t-88 69.5t-49.5 105t1.5 133.5q17 78 55.5 149t89.5 127t119.5 106.5t138 88t154 71.5t159 57.5t161 44.5t151.5 34t139 26q18 37 66.5 95t91.5 73q46 15 80.5 2.5t35.5 -51.5zM2351 1440q-21 9 -110 -103q127 26 134 72q3 20 -16 29q-4 2 -8 2zM2591 1692l-25 -62h-438
l26 62h437z" />
    <glyph glyph-name="imacron" unicode="&#x12b;" horiz-adv-x="356" 
d="M483 375q-78 -168 -132 -244q-94 -131 -189 -131q-54 0 -88.5 27.5t-44.5 68.5t-4 86.5t26 83.5l178 340q40 77 51.5 88t59.5 11h104q-4 -4 -20 -15t-30.5 -25.5t-24.5 -33.5q-158 -257 -213 -398q-21 -45 -25 -59q-36 -124 43 -129q22 -3 47.5 9.5t42.5 29.5
q84 82 193 309q12 25 26 21q14 -5 2 -34q-1 -2 -2 -5zM649 915l-22 -55h-406l25 55h403z" />
    <glyph glyph-name="Iogonek" unicode="&#x12e;" horiz-adv-x="1902" 
d="M2449 1448q1 -56 -40 -86.5t-117 -56.5q-13 0 -45.5 -9.5t-40.5 -9.5q-99 -184 -199 -516q-51 -164 -122.5 -313.5t-173 -290t-222.5 -249t-276 -186t-328 -106.5q-102 -15 -197 -18q-80 -73 -140 -157.5t-61 -141.5q0 -68 60 -68q42 0 104 62q4 2 9 3.5t9.5 -1.5
t2.5 -11q-7 -35 -65 -73.5t-130 -38.5q-41 0 -67 23t-25 67q1 68 77.5 165.5t168.5 170.5q-226 3 -382.5 85t-213.5 234.5t22 370.5q36 95 131 180t150 88q15 1 21 -2t3.5 -7.5t-8.5 -9.5t-14 -9q-64 -28 -141.5 -121t-106.5 -209q-27 -111 -5 -198.5t79 -151.5t139 -106
t175.5 -62t188 -19.5t177.5 21.5q123 31 239 90t208 131t176.5 161t147 175.5t117 179t89.5 167.5t61 144q29 77 59 147.5t51.5 117.5t48.5 97.5t39.5 72.5t34.5 59.5t25 42.5q-75 -16 -129 -29t-133.5 -34.5t-139 -42.5t-133 -52.5t-128.5 -65.5t-113 -79.5t-99 -96
t-73.5 -115t-48.5 -136.5q-34 -150 37.5 -232.5t201.5 -32.5q75 30 121.5 87.5t58 113.5t9 100.5t-16.5 57.5q-4 5 4 17t19 15t20 -14q58 -112 -12.5 -243.5t-200.5 -180.5q-64 -25 -128 -23t-114 27t-88 69.5t-49.5 105t1.5 133.5q17 78 55.5 149t89.5 127t119.5 106.5
t138 88t154 71.5t159 57.5t161 44.5t151.5 34t139 26q18 37 66.5 95t91.5 73q46 15 80.5 2.5t35.5 -51.5zM2351 1440q-21 9 -110 -103q127 26 134 72q3 20 -16 29q-4 2 -8 2z" />
    <glyph glyph-name="iogonek" unicode="&#x12f;" horiz-adv-x="356" 
d="M143 174q-33 -124 43 -129q42 -5 93 39q77 77 192 309q10 24 24 21t7 -29l-4 -10q-78 -166 -131 -240q-77 -107 -152 -129q-86 -73 -155 -165.5t-72 -155.5q0 -68 59 -68q44 0 105 61q3 2 6.5 3t7 1t5.5 -3t1 -9q-7 -36 -65 -75t-130 -39q-40 0 -66.5 24t-25.5 68
q3 73 90.5 180t180.5 172q-47 5 -75.5 32.5t-35 67.5t-1 83t21.5 83l131 334q16 39 -21 86l113 2q47 0 55 -17.5t-12 -54.5l-164 -383q-21 -45 -25 -59zM432 856q-6 -35 -34.5 -59.5t-63.5 -24.5t-56 24.5t-16 59.5q6 35 35 59.5t63 24.5q35 0 56.5 -24.5t15.5 -59.5z" />
    <glyph glyph-name="Idotaccent" unicode="&#x130;" horiz-adv-x="1902" 
d="M2449 1450q1 -56 -40 -86.5t-117 -56.5q-13 0 -45.5 -9.5t-40.5 -9.5q-67 -123 -121.5 -266.5t-91.5 -266t-80 -248t-110 -256t-158 -247.5q-165 -212 -372.5 -338t-436.5 -164q-173 -29 -327 -16.5t-270 64t-189.5 139t-85 209.5t43.5 276q36 95 131 180t150 88
q15 1 21 -2t3.5 -7.5t-8.5 -9.5t-14 -9q-64 -28 -141.5 -121t-106.5 -209q-27 -111 -5 -198.5t79 -151.5t139 -106t175.5 -62t188 -19.5t177.5 21.5q123 31 239 90t208 131t176.5 161t147 175.5t117 179t89.5 167.5t61 144q79 209 166.5 389.5t140.5 272.5q-75 -16 -129 -29
t-133.5 -34.5t-139 -42.5t-133 -52.5t-128.5 -65.5t-113 -79.5t-99 -96t-73.5 -115t-48.5 -136.5q-34 -150 37.5 -232.5t201.5 -32.5q75 30 121.5 87.5t58 113.5t9 100.5t-16.5 57.5q-4 5 4 17t19 15t20 -14q58 -112 -12.5 -243.5t-200.5 -180.5q-64 -25 -128 -23t-114 27
t-88 69.5t-49.5 105t1.5 133.5q17 78 55.5 149t89.5 127t119.5 106.5t138 88t154 71.5t159 57.5t161 44.5t151.5 34t139 26q18 37 66.5 95t91.5 73q46 15 80.5 2.5t35.5 -51.5zM2351 1442q-21 9 -110 -103q127 26 134 72q3 20 -16 29q-4 2 -8 2zM2320 1688q0 -40 -31 -71.5
t-69 -31.5q-20 0 -32.5 10.5t-12.5 30.5q0 34 32 74.5t64 40.5q22 0 35.5 -16t13.5 -37z" />
    <glyph glyph-name="dotlessi" unicode="&#x131;" horiz-adv-x="356" 
d="M483 375q-78 -168 -132 -244q-94 -131 -189 -131q-54 0 -88.5 27.5t-44.5 68.5t-4 86.5t26 83.5l178 340q40 77 51.5 88t59.5 11h104q-4 -4 -20 -15t-30.5 -25.5t-24.5 -33.5q-158 -257 -213 -398q-21 -45 -25 -59q-36 -124 43 -129q22 -3 47.5 9.5t42.5 29.5
q84 82 193 309q12 25 26 21q14 -5 2 -34q-1 -2 -2 -5z" />
    <glyph glyph-name="Jcircumflex" unicode="&#x134;" horiz-adv-x="2043" 
d="M2593 1452q-1 -30 -14.5 -53t-40.5 -39.5t-50 -25.5t-61 -21q-13 0 -46.5 -8.5t-41.5 -8.5q-72 -124 -136 -278.5t-115 -303.5t-107.5 -305.5t-139 -331.5t-184.5 -333q-69 -107 -162 -196t-187 -148t-199 -103t-193 -67t-175 -35q-174 -24 -327 -7t-266.5 72.5t-183 146
t-75.5 214t56 277.5q39 93 137.5 175.5t153.5 84.5q26 1 24 -8q-3 -10 -27 -21q-65 -26 -145.5 -116.5t-112.5 -205.5q-27 -96 -17 -175.5t50 -142t101 -108.5t137 -76.5t157 -45t162 -14t152 15.5q510 114 883 708q132 210 293 571q52 116 57 126q160 355 327 622
q-74 -12 -154.5 -33t-170 -54t-173.5 -74.5t-163.5 -96.5t-142 -116.5t-105.5 -138.5t-57 -159q-22 -145 43.5 -222.5t191.5 -31.5q62 22 106.5 63.5t64 86t28 88.5t4.5 75t-14 42q-21 13 -8 27q14 15 36 2q8 -4 15 -13q31 -83 8 -166t-89.5 -153.5t-152.5 -100.5
q-66 -20 -126 -19.5t-110 28t-84 70t-47.5 104.5t-2.5 133q16 98 68 185.5t125 154.5t169 124t194.5 97t205.5 71.5t198.5 50t177.5 29.5q23 40 72.5 95.5t93.5 68.5q46 14 80.5 0t34.5 -53zM2494 1446q-7 3 -17 -1.5t-25.5 -19t-24.5 -23t-28.5 -30t-22.5 -24.5
q129 22 138 68q4 19 -13 28q-3 2 -7 2zM2714 1518q5 -11 -11 -12q-22 -1 -30 12l-95 145q-243 -131 -270 -145q-18 -16 -45 -11q-16 4 -6 11l305 217q76 10 78 0z" />
    <glyph glyph-name="jcircumflex" unicode="&#x135;" horiz-adv-x="362" 
d="M121 332q-12 0 -19.5 7.5t0.5 25.5l109 235q18 37 -21 86l113 2q47 0 55 -17.5t-12 -54.5l-164 -383q-52 -120 -127 -270q50 19 71 27.5t60 28t61.5 38t52 49.5t56.5 70q23 33 45 70.5t33.5 59t27 53.5t17.5 36q12 25 26 21q15 -3 7 -29l-4 -10q-40 -82 -64 -128
t-58 -98.5t-64 -81.5t-75 -62t-98.5 -57.5t-128.5 -51.5q-46 -83 -86.5 -147t-104.5 -143t-126.5 -131t-146 -88t-170.5 -36q-59 0 -101 15t-63 40t-27.5 57.5t1 67.5t26.5 70q53 104 192 168q61 30 142.5 54t194 51.5t161.5 41.5q46 79 65 119q21 43 144 295zM-127 -147
q-14 -4 -99.5 -26t-123 -32.5t-99 -30.5t-102.5 -38q-114 -49 -175 -145q-51 -82 -28 -139q20 -48 90 -48q63 0 138 40.5t142.5 104t119.5 122.5t92 116q22 32 45 76zM522 797q5 -11 -11 -12q-22 -1 -30 12l-94 145q-243 -131 -270 -145q-18 -16 -45 -11q-16 4 -6 11
l305 217q76 10 78 0z" />
    <glyph glyph-name="Kcommaaccent" unicode="&#x136;" horiz-adv-x="2443" 
d="M3320 1671q-118 -196 -301 -394t-373 -348.5t-374.5 -257.5t-317.5 -141q-8 -10 -2 -73t42 -191t83 -235q138 -320 366 -320q130 0 250 55.5t174 159.5q10 25 25 29q12 2 12 -11q1 -13 -10 -34q-56 -114 -194 -200.5t-267 -86.5q-161 0 -290.5 106t-207.5 277
q-33 73 -58 154.5t-37.5 150.5t-18 128t-1.5 94t15 40q46 -4 164.5 48.5t284 156.5t339.5 238t350 315.5t296 366.5q22 34 42 38t22 -16.5t-13 -48.5zM2271 1638q67 20 103 -18q32 -34 7 -81q-37 -72 -174 -100l-61 -9q-52 -94 -106.5 -229.5t-96 -263t-98.5 -275
t-114.5 -275t-143.5 -252.5t-185.5 -219t-240.5 -162.5t-309 -93.5q-139 -21 -279 -1.5t-257.5 76.5t-202 149.5t-113.5 216.5t8 278q18 68 66.5 126.5t94 87.5t75.5 32q15 2 21.5 -3.5t3.5 -13.5t-11 -12q-17 -7 -44.5 -30t-61.5 -60.5t-62 -96t-37 -122.5
q-12 -92 6.5 -171.5t60.5 -136.5t101.5 -101t129 -69.5t143.5 -38.5t145 -12t133 15q121 28 231 78.5t195.5 111t164 141t135 155t112 167.5t90.5 164t74 158q220 495 311 677q-43 -5 -139.5 -13.5t-158 -15t-146 -20.5t-150.5 -33q-245 -68 -369 -249q-94 -136 -86 -281
q6 -124 84 -182q80 -61 201 -17q65 24 109.5 92t59 146t1.5 145q-2 12 8 12q18 -2 29 -26q25 -76 7.5 -156.5t-73.5 -151.5t-127 -97q-156 -57 -278 23q-101 66 -133 193q-37 149 43 294q105 189 372 281q61 21 127 36q100 22 210.5 35t257 22.5t180.5 12.5q21 38 68 94
t89 69zM2273 1505q51 24 55 57q3 22 -18 24q-20 3 -47 -19q-27 -20 -80 -86q59 9 90 24zM1683 -436q0 -82 -60 -141.5t-132 -84.5q-14 -6 -18 4q-3 11 14 16q1 1 2 1q55 19 94 60.5t45 99.5q-27 -19 -51 -19q-32 0 -50.5 22.5t-13.5 53.5q4 32 31 54t58 22q39 0 60 -25
t21 -63z" />
    <glyph glyph-name="kcommaaccent" unicode="&#x137;" horiz-adv-x="706" 
d="M537 1165q71 104 137 101h10q4 0 36.5 -6.5t49.5 -2.5q-75 -58 -209 -264t-242 -420q-45 -88 -73 -174q188 232 334 287q77 27 125 23t63.5 -34t9 -69.5t-37 -84.5t-76.5 -77q-50 -35 -97 -54t-110 -25q-39 -94 -14 -192.5t91.5 -121t163.5 67.5q66 71 166 280
q11 23 24 16q14 -8 3 -34q-47 -108 -93.5 -185t-85.5 -118.5t-81.5 -63.5t-74.5 -26t-73 0q-57 6 -99.5 51.5t-57.5 122.5q-17 91 19.5 161t76.5 74q34 -3 80.5 15t81.5 47q61 49 59 99q-2 40 -44 48q-75 13 -201 -91l-11 -9q-96 -86 -168 -187q-32 -60 -56.5 -179.5
t-0.5 -139.5h-129q-20 0 -22.5 12.5t5.5 32.5q17 63 43 126.5t66 146t59 126.5q-167 -317 -217 -364q-13 -11 -19 2q-5 12 3 24q58 77 167 285t227.5 437t191.5 337zM268 -225q0 -82 -60 -141.5t-132 -84.5q-14 -6 -18 4q-3 11 14 16q1 1 2 1q55 19 94 60.5t45 99.5
q-27 -19 -51 -19q-32 0 -50.5 22.5t-13.5 53.5q4 32 30.5 54t57.5 22q39 0 60.5 -25t21.5 -63z" />
    <glyph glyph-name="kgreenlandic" unicode="&#x138;" horiz-adv-x="706" 
d="M770 674q19 -49 -12.5 -86t-77.5 -25q-1 17 -15 29t-40 15t-58.5 -3.5t-75 -27t-85.5 -54.5q-69 -198 -23 -342q31 -100 103 -125q84 -29 171 62l2 2q66 71 166 280q11 23 24 16q14 -8 3 -34q-47 -108 -93.5 -185t-85.5 -118.5t-81.5 -63.5t-74.5 -26t-73 0
q-66 7 -120.5 53t-71.5 141q-17 109 -2 180q-57 -73 -98 -151q-18 -36 -47 -102.5t-35 -79.5q-6 -15 -17 -22t-22 -8t-37 -1q-5 0 -20 -1t-20 -1.5t-14 -3t-16 -6.5q251 541 303 647q34 71 66.5 101.5t79.5 27.5l49 -8l-19 -37q-44 -83 -167 -330q78 99 169 183t175 116
q150 55 190 -12z" />
    <glyph glyph-name="Lacute" unicode="&#x139;" horiz-adv-x="1527" 
d="M1874 1315q13 -146 -55 -300.5t-187 -278.5t-278 -215t-320 -118q-15 -30 -29 -61q-18 -38 -89 -169q-4 -6 -6 -9.5t-5 -9.5t-6 -11q168 -41 353.5 -121.5t318.5 -183.5q69 -54 117.5 -126t68 -138.5t20 -124t-19.5 -90.5q-21 -40 -51 -55q-22 -12 -35 -14.5t-16 2.5
t-1 14.5t7 21.5t11 23q2 3 3 5t2 4.5t2 4.5q19 41 21 107.5t-27.5 151t-93.5 140.5q-71 63 -158 110.5t-194.5 81t-186 52.5t-202.5 43q-172 -244 -363 -334q-171 -83 -314 -37q-101 32 -140 113q-43 90 19 180q73 108 267 166q107 32 255 38t259 -15q38 50 127 233
q-107 -3 -200.5 22t-159 69.5t-107.5 105t-54.5 126.5t8 134.5t72 129.5t146 112t221.5 80q57 13 68 -3q6 -11 -22 -22q-17 -7 -41 -10q-87 -11 -162 -58.5t-118 -115t-65.5 -145t-3.5 -150.5t66 -129.5t146.5 -83.5t234.5 -11l172 424q167 414 380 544q129 78 238 35
q72 -29 98 -95q7 -19 9 -39zM1790 1272q-1 56 -48 69q-70 18 -180 -79q-158 -139 -323 -459q-92 -170 -176 -344q137 30 269.5 110t233.5 188t163 244.5t61 270.5zM758 63q-101 22 -214 20t-212 -28q-207 -53 -266 -151q-40 -67 7 -122q50 -59 160 -59q99 -1 209 52
q170 81 316 288zM2083 1677q-11 -23 -188 -102t-189 -74q-17 10 -6 25q3 7 57.5 46t116.5 82.5t74 53.5q68 48 116 23q15 -6 21 -22.5t-2 -31.5z" />
    <glyph glyph-name="lacute" unicode="&#x13a;" horiz-adv-x="434" 
d="M649 1010q-175 -393 -420 -615q-3 -10 -19.5 -58t-23.5 -77q-16 -73 -12 -122.5t28.5 -73t56 -25t69 23t69.5 68.5q70 98 152 260q13 26 28 24q15 -4 3 -34q-4 -8 -17 -37t-21 -45.5t-24.5 -48.5t-29 -52t-32.5 -49.5t-38 -48.5t-42.5 -40.5t-48.5 -34t-53 -21t-59 -8.5
q-189 0 -134 262q6 30 38 141q47 169 133.5 370t177.5 353q30 51 65.5 88t67 53.5t60.5 20t47 -15t25 -50t-4.5 -86t-41.5 -122.5zM618 1040q34 78 33 133q-1 51 -42 10q-17 -17 -40 -50q-67 -95 -165 -305.5t-158 -366.5q105 106 207 267.5t165 311.5zM1008 1614
q-11 -24 -190.5 -105.5t-192.5 -76.5q-18 11 -7 26q3 7 58.5 47.5t118.5 85t75 54.5q66 50 119 24q15 -8 20.5 -24t-1.5 -31z" />
    <glyph glyph-name="Lcommaaccent" unicode="&#x13b;" horiz-adv-x="1527" 
d="M1960 1587q13 -150 -57 -307.5t-192 -282t-282.5 -215.5t-322.5 -118q-122 -251 -180 -353l-43 -69q168 -41 353 -121.5t318 -183.5q69 -54 118 -126.5t68.5 -139t20 -124t-19.5 -90.5q-21 -40 -51 -55q-22 -12 -35 -14.5t-16 2.5t-1 14.5t7 21.5t11 23q2 3 3 5t2 4.5
t2 4.5q19 41 21 108t-27.5 151.5t-93.5 140.5q-71 63 -158.5 110.5t-195 81t-186 52.5t-202.5 43q-173 -244 -362 -334q-171 -83 -314 -37q-101 32 -140 113q-43 90 19 180q73 108 267 166q106 32 255 37.5t259 -15.5q93 144 215 395q-107 -3 -200.5 22t-159 69.5
t-107.5 105t-54.5 126.5t8 134.5t72 129.5t146 112t221.5 80q57 13 67 -3q7 -11 -21 -22q-18 -7 -42 -10q-87 -11 -162 -58.5t-118 -114.5t-65.5 -145t-3 -150.5t66.5 -129t146.5 -83.5t234.5 -11l174 421q170 425 387 559q130 81 240 38q73 -29 100 -96q8 -21 10 -42z
M1876 1542q-1 58 -48 71q-70 19 -180 -77q-162 -142 -333 -477q-96 -166 -180 -340q138 31 272 111t238 188.5t168 247t63 276.5zM741 162q-101 22 -214 20t-212 -28q-206 -53 -265 -150q-41 -68 6 -123q51 -60 161 -60q99 -1 209 52q168 80 315 289zM834 -285
q0 -43 -18.5 -82t-49 -66.5t-62 -46.5t-63.5 -30q-14 -6 -18 4q-3 11 14 16q1 1 2 1q55 19 94 60t45 99q-25 -18 -51 -18q-32 0 -50 22.5t-13 53.5q4 32 30.5 53.5t57.5 21.5q39 0 60.5 -25t21.5 -63z" />
    <glyph glyph-name="lcommaaccent" unicode="&#x13c;" horiz-adv-x="434" 
d="M649 1010q-175 -393 -420 -615q-3 -10 -19.5 -58t-23.5 -77q-16 -73 -12 -122.5t28.5 -73t56 -25t69 23t69.5 68.5q70 98 152 260q13 26 28 24q15 -4 3 -34q-4 -8 -17 -37t-21 -45.5t-24.5 -48.5t-29 -52t-32.5 -49.5t-38 -48.5t-42.5 -40.5t-48.5 -34t-53 -21t-59 -8.5
q-189 0 -134 262q6 30 38 141q47 169 133.5 370t177.5 353q30 51 65.5 88t67 53.5t60.5 20t47 -15t25 -50t-4.5 -86t-41.5 -122.5zM618 1040q34 78 33 133q-1 51 -42 10q-17 -17 -40 -50q-67 -95 -165 -305.5t-158 -366.5q105 106 207 267.5t165 311.5zM246 -195
q0 -43 -18.5 -82t-49 -66.5t-62 -46.5t-63.5 -30q-14 -6 -18 4q-3 11 14 16q1 1 2 1q55 19 94 60t45 99q-25 -18 -51 -18q-32 0 -50 22.5t-13 53.5q4 32 30.5 54t57.5 22q39 0 60.5 -25.5t21.5 -63.5z" />
    <glyph glyph-name="Lcaron" unicode="&#x13d;" horiz-adv-x="1527" 
d="M1878 1661q0 -65 -45.5 -108.5t-103.5 -61.5q-12 -6 -14 3t11 13q44 13 75.5 46.5t37.5 80.5q-21 -14 -41 -14q-26 0 -40.5 17.5t-10.5 43.5q3 25 24.5 42.5t47.5 17.5q30 0 44.5 -23.5t14.5 -56.5zM1767 1309q16 -183 -81 -356.5t-275 -293.5t-393 -157
q-19 -39 -32.5 -71.5t-31 -64t-71.5 -124.5q168 -41 353 -121.5t318 -183.5q69 -54 118 -126.5t68.5 -139t20 -124t-19.5 -90.5q-21 -40 -51 -55q-22 -12 -35 -14.5t-16 2.5t-1 14.5t7 21.5t11 23q2 3 3 5t2 4.5t2 4.5q19 41 21 108t-27.5 151.5t-93.5 140.5
q-71 63 -158.5 110.5t-195 81t-186 52.5t-202.5 43q-173 -244 -362 -334q-171 -83 -314 -37q-101 32 -140 113q-43 90 19 180q73 108 267 166q106 32 255 37.5t259 -15.5q27 42 36 55.5t21.5 35.5t15.5 29t20 43t34 71q-107 -3 -200.5 22t-159 69.5t-107.5 104.5t-54.5 126
t8 135t72 129.5t146 111.5t221.5 80q57 13 67 -3q7 -11 -21 -22q-18 -7 -42 -10q-87 -11 -162 -58.5t-118 -114.5t-65.5 -145t-3 -150.5t66.5 -129t146.5 -83.5t234.5 -11l151 352q155 390 352 507q117 70 214 26q66 -30 84 -95q4 -13 5 -26zM1692 1268q-1 54 -45 65
q-66 17 -170 -81q-138 -132 -283 -418q-63 -103 -147 -277q280 62 463 260.5t182 450.5zM741 162q-101 22 -214 20t-212 -28q-206 -53 -265 -150q-41 -68 6 -123q51 -60 161 -60q99 -1 209 52q168 80 315 289z" />
    <glyph glyph-name="lcaron" unicode="&#x13e;" horiz-adv-x="757" 
d="M649 1010q-175 -393 -420 -615q-3 -10 -19.5 -58t-23.5 -77q-16 -73 -12 -122.5t28.5 -73t56 -25t69 23t69.5 68.5q70 98 152 260q13 26 28 24q15 -4 3 -34q-4 -8 -17 -37t-21 -45.5t-24.5 -48.5t-29 -52t-32.5 -49.5t-38 -48.5t-42.5 -40.5t-48.5 -34t-53 -21t-59 -8.5
q-189 0 -134 262q6 30 38 141q47 169 133.5 370t177.5 353q30 51 65.5 88t67 53.5t60.5 20t47 -15t25 -50t-4.5 -86t-41.5 -122.5zM618 1040q34 78 33 133q-1 51 -42 10q-17 -17 -40 -50q-67 -95 -165 -305.5t-158 -366.5q105 106 207 267.5t165 311.5zM995 1143
q0 -48 -19.5 -89.5t-52 -70t-66 -47.5t-69.5 -31q-18 -7 -21 4q-4 12 15 18q1 1 2 1q61 20 105 66.5t51 111.5q-28 -21 -57 -21q-35 0 -55.5 24.5t-14.5 59.5q4 35 33 59.5t65 24.5q41 0 62.5 -33t21.5 -77z" />
    <glyph glyph-name="Ldotaccent" unicode="&#x13f;" horiz-adv-x="1818" 
d="M1454 502q-6 -35 -34.5 -59.5t-63.5 -24.5t-55.5 24.5t-14.5 59.5q4 35 33 59.5t65 24.5q34 0 55 -24.5t15 -59.5zM1960 1604q13 -150 -57.5 -310t-192 -288t-282.5 -221.5t-322 -120.5q-122 -251 -180 -353l-43 -69q168 -41 353 -121.5t318 -183.5q69 -54 118 -126.5
t68.5 -139t20 -124t-19.5 -90.5q-21 -40 -51 -55q-22 -12 -35 -14.5t-16 2.5t-1 14.5t7 21.5t11 23q2 3 3 5t2 4.5t2 4.5q19 41 21 108t-27.5 151.5t-93.5 140.5q-71 63 -158.5 110.5t-195 81t-186 52.5t-202.5 43q-173 -244 -362 -334q-171 -83 -314 -37q-101 32 -140 113
q-43 90 19 180q73 108 267 166q106 32 255 37.5t259 -15.5q93 144 215 395q-107 -3 -200.5 22t-159 69.5t-107.5 105t-54.5 126.5t8 134.5t72 129.5t146 112t221.5 80q57 13 67 -3q7 -11 -21 -22q-18 -7 -42 -10q-87 -11 -162 -58.5t-118 -114.5t-65.5 -145t-3 -150.5
t66.5 -129t146.5 -83.5t234.5 -11l174 438q159 409 378 542q131 80 247 41q75 -26 102 -87q8 -18 10 -37zM1876 1559q-1 58 -48 71q-70 19 -181 -78q-162 -144 -332 -477q-96 -182 -180 -356q137 30 271.5 113t238.5 195t168 253t63 279zM741 162q-101 22 -214 20t-212 -28
q-206 -53 -265 -150q-41 -68 6 -123q51 -60 161 -60q99 -1 209 52q168 80 315 289z" />
    <glyph glyph-name="Lslash" unicode="&#x141;" horiz-adv-x="1527" 
d="M1335 453q-107 0 -340 -11l-69 -129l-43 -69q168 -41 353 -121.5t318 -183.5q69 -54 118 -126.5t68.5 -139t20 -124t-19.5 -90.5q-21 -40 -51 -55q-22 -12 -35 -14.5t-16 2.5t-1 14.5t7 21.5t11 23q2 3 3 5t2 4.5t2 4.5q19 41 21 108t-27.5 151.5t-93.5 140.5
q-71 63 -158.5 110.5t-195 81t-186 52.5t-202.5 43q-173 -244 -362 -334q-171 -83 -314 -37q-101 32 -140 113q-43 90 19 180q73 108 267 166q106 32 255 37.5t259 -15.5q41 63 102 176q-191 -9 -284 -20q-14 -2 -26 22.5t-6.5 50t32.5 25.5q10 0 124.5 -1t200.5 -1
q16 29 72 143q-107 -3 -200.5 22t-159 69.5t-107.5 105t-54.5 126.5t8 134.5t72 129.5t146 112t221.5 80q57 13 67 -3q7 -11 -21 -22q-18 -7 -42 -10q-87 -11 -162 -58.5t-118 -114.5t-65.5 -145t-3 -150.5t66.5 -129t146.5 -83.5t234.5 -11l174 438q170 420 390 546
q131 76 242 31q72 -29 97 -90l8 -28q21 -149 -48.5 -309.5t-193.5 -288t-287 -221.5t-325 -121l-74 -154q123 0 295 -4q32 -1 41 -25q8 -20 -15 -27zM1876 1561q-1 58 -48 71q-70 19 -181 -78q-162 -144 -332 -477q-96 -182 -180 -356q137 30 271.5 113t238.5 195t168 253
t63 279zM741 164q-101 22 -214 20t-212 -28q-206 -53 -265 -150q-41 -68 6 -123q51 -60 161 -60q99 -1 209 52q168 80 315 289z" />
    <glyph glyph-name="lslash" unicode="&#x142;" horiz-adv-x="434" 
d="M483 530l-196 -79q-18 -20 -58 -56q-3 -10 -19.5 -58t-23.5 -77q-16 -73 -12 -122.5t28.5 -73t56 -25t69 23t69.5 68.5q70 98 152 260q13 26 28 24q15 -4 3 -34q-4 -8 -17 -37t-21 -45.5t-24.5 -48.5t-29 -52t-32.5 -49.5t-38 -48.5t-42.5 -40.5t-48.5 -34t-53 -21
t-59 -8.5q-35 0 -61.5 9t-43 22.5t-26.5 37t-14 44t-2 53t5 54t11 56.5t13 52.5t14 48.5l-95 -43q-10 -7 -13 12q-5 31 16 50q5 5 12 7l98 39q51 167 133.5 355t167.5 329q30 51 65.5 88t67 53.5t60.5 20t47 -15t25 -50t-4.5 -86t-41.5 -122.5q-132 -297 -299 -490l135 49
q20 7 23 -8q3 -18 -21 -29zM618 1040q34 78 33 133q-1 51 -42 10q-17 -17 -40 -50q-64 -90 -154.5 -282.5t-160.5 -365.5q8 2 22 9q97 106 189.5 256t152.5 290z" />
    <glyph glyph-name="Nacute" unicode="&#x143;" horiz-adv-x="2127" 
d="M2308 1257q-1 -79 -45 -192t-101 -216.5t-143.5 -266.5t-144.5 -289q-116 -254 -96 -409q15 -111 96 -124q48 -6 111 23q64 29 79 4q12 -19 -16 -45q-38 -35 -104 -33q-194 9 -253 135.5t19 358.5q26 74 134.5 298.5t204 437t108.5 298.5q12 63 -19.5 90.5t-87.5 20
t-125 -40.5q-226 -110 -422 -346q-64 -78 -129 -175t-113.5 -179.5t-106.5 -194t-89.5 -178t-82 -174t-67.5 -142.5q-19 -42 -79 -52q-52 -8 -73 16q-9 11 -5 26q92 135 256.5 498.5t224.5 633.5q34 150 12 238t-80 127t-145.5 34t-184.5 -41.5t-198 -99.5
q-247 -153 -381 -394q-113 -201 -105 -383q6 -161 105 -228q55 -37 131 -37q171 0 310 130q104 98 139 217q33 113 -23 165q-42 40 -127 29q-18 -2 -22 5t2.5 15t15.5 10q161 39 215 -50q45 -75 -3 -201q-51 -135 -174 -234q-152 -123 -339 -123q-124 0 -216.5 77.5
t-120.5 218t50 335.5q66 157 207.5 296.5t315.5 233.5q68 37 142.5 64t151 40t147 11t130.5 -26.5t102 -68t60.5 -117.5t7.5 -171q-3 -24 -7.5 -48t-12.5 -51t-14 -47t-18.5 -51.5t-19 -48t-22.5 -52t-21 -47t-23 -50.5t-22 -47q-53 -116 -49 -116q1 0 25 39q24 41 34 56
q127 192 252 342q246 300 451 395q68 32 137 44t126.5 1t93 -55.5t34.5 -118.5zM2316 1679q-10 -21 -176.5 -97t-177.5 -71q-17 10 -6 25q3 6 54 43t109.5 78.5t69.5 50.5q65 48 111 23q14 -6 18.5 -21.5t-2.5 -30.5z" />
    <glyph glyph-name="nacute" unicode="&#x144;" 
d="M831 377q-78 -161 -125 -229q-107 -155 -212 -156q-30 0 -56 10.5t-48.5 37.5t-23.5 73.5t19 117.5q19 64 113 215q33 54 14 74q-24 26 -114 -46q-21 -17 -46 -40q-145 -130 -284 -405q-11 -20 -26.5 -25.5t-51.5 -5.5q-5 0 -20 -1t-20 -1.5t-14 -3t-16 -6.5
q29 58 127 262.5t156 310.5q43 79 70.5 105.5t74.5 23.5q3 0 36 -6t50 -2q-74 -40 -248 -385q96 119 170 184q84 75 207.5 142.5t171.5 50.5q-25 -43 -62 -111t-104.5 -211t-79.5 -207q-19 -102 33 -102q104 0 281 354q11 26 26 21t5 -32q-1 -4 -3 -7zM922 1028
q-11 -24 -190.5 -105.5t-192.5 -76.5q-18 11 -7 26q3 7 58.5 47.5t118.5 85t75 54.5q66 50 119 24q15 -8 20.5 -24t-1.5 -31z" />
    <glyph glyph-name="Ncommaaccent" unicode="&#x145;" horiz-adv-x="2127" 
d="M2433 1368q-1 -85 -48.5 -207t-108 -233.5t-154.5 -287t-156 -310.5q-123 -270 -104 -437q14 -122 100 -137q52 -10 123 23q68 32 85 6q13 -19 -15 -47q-42 -39 -115 -37q-208 9 -271 145t21 385q27 81 143.5 322.5t220 471t117.5 321.5q12 68 -22 97.5t-94 21.5
t-134 -44q-238 -113 -454 -372q-69 -84 -139.5 -189t-122 -192t-115 -210.5t-96 -190.5t-89 -188.5t-71.5 -152.5q-21 -44 -84 -56q-56 -11 -79 14q-11 12 -7 30q99 145 275.5 538t242.5 683q36 162 12.5 257t-86 137t-157 36t-199 -45t-213.5 -107q-261 -162 -405 -416
q-121 -213 -118 -409q2 -173 103 -251q62 -48 152 -48q181 0 330 136q111 103 151 229q38 121 -17 181q-44 50 -143 37q-19 -2 -23.5 5.5t2.5 16.5t17 11q171 41 230 -52q49 -78 2 -211q-50 -141 -177 -249q-167 -143 -378 -143q-134 0 -234 83.5t-130 234.5t54 362
q70 169 222 319t339 252q86 47 181 77t190 42t178.5 -6t144.5 -62t90.5 -131.5t14.5 -208.5q-4 -33 -10.5 -66t-19.5 -73t-21 -64.5t-29 -73t-27.5 -64t-32.5 -72t-30 -64.5q-57 -125 -53 -125q1 0 27 44q25 43 36 59q118 184 271 368q273 329 485 426q74 35 148 47.5
t136.5 1t100.5 -59.5t37 -128zM1565 -285q0 -43 -18.5 -82t-49 -66.5t-62 -46.5t-63.5 -30q-14 -6 -18 4q-3 11 14 16q1 1 2 1q55 19 94 60t45 99q-25 -18 -51 -18q-32 0 -50 22.5t-13 53.5q4 32 30.5 53.5t57.5 21.5q39 0 60.5 -25t21.5 -63z" />
    </font>
</defs>
</svg>
