<?xml version="1.0" standalone="no"?>
<!DOCTYPE svg PUBLIC "-//W3C//DTD SVG 1.1//EN" "http://www.w3.org/Graphics/SVG/1.1/DTD/svg11.dtd" >
<svg xmlns="http://www.w3.org/2000/svg" xmlns:xlink="http://www.w3.org/1999/xlink" version="1.1">
<metadata>
Created by FontForge 20170731 at Fri Feb 19 17:35:46 2021
 By Aleksey,,,
Copyright (c) 2010 by Stereotypes.de. All rights reserved.
</metadata>
<defs>
<font id="StRydeRegular" horiz-adv-x="1128" >
  <font-face 
    font-family="St Ryde Regular"
    font-weight="400"
    font-stretch="normal"
    units-per-em="2048"
    panose-1="2 0 5 3 2 0 0 2 0 3"
    ascent="1638"
    descent="-410"
    x-height="987"
    cap-height="1434"
    bbox="-159.723 -547 2410 1923"
    underline-thickness="143"
    underline-position="-470"
    unicode-range="U+000D-FB02"
  />
<missing-glyph horiz-adv-x="960" 
d="M164 0v1434h1282v-1434h-1282zM233 1364v-1294h1145v1294h-1145zM469 702q0 136 97.5 234t234.5 98t234.5 -98t97.5 -234t-97.5 -233.5t-234.5 -97.5t-234.5 97.5t-97.5 233.5z" />
    <glyph glyph-name="fi" unicode="fi" horiz-adv-x="1230" 
d="M809 854h-426v-803q0 -51 -88 -51q-49 0 -70 18v836h-121q-14 24 -14 57q0 76 76 76h59v189q0 145 64.5 207.5t187.5 62.5q66 0 109 -6t63.5 -18.5t27.5 -26t7 -33.5q0 -46 -18 -68h-148q-69 0 -102 -30t-33 -109v-168h485q73 0 109.5 -34.5t36.5 -125.5v-647
q0 -53 47 -53h59q13 -26 13 -51q0 -76 -138 -76q-66 0 -100.5 32.5t-34.5 106.5v658q0 57 -51 57zM817 1268q0 102 101 102q100 0 100 -102q0 -99 -100 -99q-101 0 -101 99z" />
    <glyph glyph-name="fl" unicode="fl" horiz-adv-x="1288" 
d="M383 1155v-168h248q14 -21 14 -55q0 -32 -16.5 -55t-53.5 -23h-192v-803q0 -51 -88 -51q-49 0 -70 18v836h-121q-14 24 -14 57q0 76 76 76h59v189q0 145 64.5 207.5t187.5 62.5q66 0 109 -6t63.5 -18.5t27.5 -26t7 -33.5q0 -46 -18 -68h-148q-69 0 -102 -30t-33 -109z
M977 1366v-1077q0 -90 30.5 -123t106.5 -33h139q7 -21 7 -47q0 -36 -49 -61t-148 -25q-125 0 -182.5 60t-57.5 192v1161q30 23 76 23q78 -3 78 -70z" />
    <glyph glyph-name=".notdef" horiz-adv-x="960" 
d="M164 0v1434h1282v-1434h-1282zM233 1364v-1294h1145v1294h-1145zM469 702q0 136 97.5 234t234.5 98t234.5 -98t97.5 -234t-97.5 -233.5t-234.5 -97.5t-234.5 97.5t-97.5 233.5z" />
    <glyph glyph-name=".null" horiz-adv-x="0" 
 />
    <glyph glyph-name=".null" horiz-adv-x="0" 
 />
    <glyph glyph-name="nonmarkingreturn" horiz-adv-x="682" 
 />
    <glyph glyph-name="CR" unicode="&#xd;" horiz-adv-x="0" 
 />
    <glyph glyph-name="space" unicode=" " horiz-adv-x="491" 
 />
    <glyph glyph-name="exclam" unicode="!" horiz-adv-x="419" 
d="M205 1434q35 0 59.5 -15.5t24.5 -48.5v-1046q-23 -23 -80 -23q-80 0 -80 86v1030q27 17 76 17zM117 92q0 96 94 96t94 -96q0 -92 -94 -92t-94 92z" />
    <glyph glyph-name="quotedbl" unicode="&#x22;" horiz-adv-x="600" 
d="M344 1081v305q0 27 17 38.5t55 11.5q48 0 66 -24.5t18 -90.5q0 -127 -23.5 -193.5t-64.5 -66.5q-45 0 -68 20zM100 1081v305q0 27 17 38.5t55 11.5q48 0 66 -24.5t18 -90.5q0 -127 -23.5 -193.5t-64.5 -66.5q-45 0 -68 20z" />
    <glyph glyph-name="numbersign" unicode="#" horiz-adv-x="1642" 
d="M1497 864h-264l-76 -434h342q17 -26 17 -61q0 -37 -24.5 -65t-84.5 -28h-277l-65 -370q-24 -17 -78 -17q-88 0 -72 76l56 311h-432l-66 -370q-20 -17 -78 -17q-85 0 -71 76l55 311h-324q-1 3 -6 14t-6.5 16t-3.5 15.5t-2 22.5q0 44 18.5 65t75.5 21h275l75 434h-336
q-1 3 -6 14t-6.5 16t-3.5 15.5t-2 22.5q0 43 18.5 63.5t75.5 20.5h287l76 426q29 16 73 16q37 0 60.5 -15t17.5 -48l-67 -379h432l76 426q26 16 71 16q37 0 60.5 -15t19.5 -48l-67 -379h329q17 -21 17 -60q0 -37 -24 -64.5t-85 -27.5zM643 864l-78 -434h430l78 434h-430z
" />
    <glyph glyph-name="dollar" unicode="$" horiz-adv-x="1226" 
d="M639 1669q58 0 55 -55v-164q118 -7 202 -41.5t132 -79.5q33 -33 33 -80q0 -44 -45 -75q-114 97 -324 110l-2 -491q226 -67 325.5 -159t102.5 -259q0 -172 -109 -275t-325 -118l-2 -205q-18 -15 -59 -15q-30 0 -45.5 15t-14.5 55v150q-218 6 -362 94q-90 59 -90 121
q0 50 28 82q68 -62 182.5 -99.5t243.5 -42.5l2 525q-236 70 -329 159t-93 254q0 77 25 141.5t75.5 116t134 82.5t193.5 37l2 199q25 18 64 18zM963 369q0 91 -61 149.5t-214 110.5l-2 -488q142 11 209.5 72.5t67.5 155.5zM301 1073q0 -85 59.5 -139t208.5 -107l2 455
q-143 -7 -206.5 -64t-63.5 -145z" />
    <glyph glyph-name="percent" unicode="%" horiz-adv-x="1783" 
d="M1139 1434q36 0 51.5 -17t5.5 -47l-514 -1362q-28 -12 -64 -12q-78 0 -45 84l502 1343q25 11 64 11zM1038 420q0 213 90 321.5t234 108.5q147 0 233 -107.5t86 -322.5q0 -220 -86.5 -323t-234.5 -103q-147 0 -234.5 104t-87.5 322zM1157 416q0 -168 55.5 -245t147.5 -77
q201 0 201 322q0 165 -53.5 247t-145.5 82q-90 0 -147.5 -83.5t-57.5 -245.5zM72 1006q0 213 89.5 321.5t233.5 108.5q147 0 233.5 -107.5t86.5 -322.5q0 -220 -87 -323t-235 -103q-147 0 -234 104t-87 322zM190 1001q0 -168 55.5 -244.5t147.5 -76.5q201 0 201 321
q0 166 -53.5 248t-145.5 82q-90 0 -147.5 -84t-57.5 -246z" />
    <glyph glyph-name="ampersand" unicode="&#x26;" horiz-adv-x="1671" 
d="M1434 768h-168q-16 -148 -69.5 -291.5t-141.5 -255.5q130 -59 274 -59h191q16 -29 16 -74q0 -46 -41 -67t-152 -21q-204 0 -397 111q-157 -131 -362 -131q-225 0 -350 122.5t-125 331.5q0 329 321 438q-8 55 -8 127q0 221 108 326t326 105q133 0 196.5 -27.5t63.5 -73.5
q0 -45 -12 -67h-232q-157 0 -222.5 -63t-65.5 -214q0 -216 96.5 -400t257.5 -296q85 93 139 220t72 259h-277q-16 32 -16 66q0 40 20 60.5t68 20.5h539q18 -22 18 -71q0 -76 -67 -76zM825 190q-133 105 -229.5 250.5t-140.5 313.5q-203 -85 -203 -316q0 -145 91 -232
t251 -87q124 0 231 71z" />
    <glyph glyph-name="quotesingle" unicode="'" horiz-adv-x="356" 
d="M100 1081v305q0 27 17 38.5t55 11.5q48 0 66 -24.5t18 -90.5q0 -127 -23.5 -193.5t-64.5 -66.5q-45 0 -68 20z" />
    <glyph glyph-name="parenleft" unicode="(" horiz-adv-x="481" 
d="M57 623q0 192 26 353.5t67.5 264.5t93 160t104.5 57q33 0 57.5 -18.5t30.5 -53.5q-94 -69 -157.5 -261.5t-63.5 -501.5q0 -303 64 -503t165 -272q-12 -77 -88 -77q-55 0 -108.5 63t-96 172t-68.5 271t-26 346z" />
    <glyph glyph-name="parenright" unicode=")" horiz-adv-x="481" 
d="M444 606q0 -192 -25.5 -353.5t-67.5 -264.5t-93 -160t-104 -57q-33 0 -57.5 18t-30.5 53q94 69 157.5 262t63.5 502q0 303 -64.5 502.5t-165.5 271.5q12 78 88 78q55 0 108.5 -63t96 -172t68.5 -271t26 -346z" />
    <glyph glyph-name="asterisk" unicode="*" horiz-adv-x="1073" 
d="M854 965l-229 20l163 -235q-18 -36 -49 -54q-11 -7 -25.5 -10.5t-31 -3t-31 12.5t-22.5 34l-94 211l-129 -264q-41 4 -66 18q-83 49 -29 107l138 186l-293 -20q-19 34 -19 67q0 41 17 64.5t63 15.5l229 -20l-167 239q24 32 53 49q82 52 106 -28l101 -219l123 270
q32 4 75 -19q11 -7 20.5 -17.5t16.5 -25t4 -32.5t-18 -35l-133 -182l293 20q16 -32 16 -70q0 -33 -20 -59.5t-62 -19.5z" />
    <glyph glyph-name="plus" unicode="+" horiz-adv-x="1073" 
d="M612 895v-274h334q17 -21 17 -74q0 -78 -72 -78h-279v-334q-29 -16 -73 -16q-40 0 -59 18.5t-19 65.5v266h-334q-16 32 -16 74q0 34 14.5 56t46.5 22h289v333q20 17 78 17q73 0 73 -76z" />
    <glyph glyph-name="comma" unicode="," horiz-adv-x="358" 
d="M176 0q-45 0 -69.5 23.5t-24.5 68.5q0 96 94 96q50 0 75 -31.5t25 -109.5q0 -111 -30.5 -176.5t-73.5 -65.5q-45 0 -53 35q26 25 41.5 74.5t15.5 85.5z" />
    <glyph glyph-name="hyphen" unicode="-" horiz-adv-x="874" 
d="M676 469h-547q-18 36 -18 74q0 78 82 78h552q17 -20 17 -70q0 -82 -86 -82z" />
    <glyph glyph-name="period" unicode="." horiz-adv-x="350" 
d="M82 92q0 96 92 96q94 0 94 -96q0 -92 -94 -92q-92 0 -92 92z" />
    <glyph glyph-name="slash" unicode="/" horiz-adv-x="610" 
d="M410 1458q37 0 60 -15t17 -48l-262 -1489q-20 -17 -78 -17q-85 0 -71 76l260 1477q29 16 74 16z" />
    <glyph glyph-name="zero" unicode="0" horiz-adv-x="1212" 
d="M106 569q0 147 38 259.5t107 182.5t160 105t201 35q231 0 362.5 -145t131.5 -437q0 -154 -36.5 -267t-105 -180t-157.5 -98.5t-201 -31.5t-201.5 32.5t-157.5 100t-104.5 180t-36.5 264.5zM262 563q0 -229 92.5 -332.5t251.5 -103.5q163 0 252.5 101.5t89.5 334.5
q0 227 -89.5 338t-246.5 111q-156 0 -253 -113t-97 -336z" />
    <glyph glyph-name="one" unicode="1" horiz-adv-x="980" 
d="M465 1126q31 21 74 21q34 0 59 -16t25 -48l-2 -933h290q19 -28 19 -64q0 -39 -17.5 -62.5t-50.5 -23.5h-694q-18 36 -18 70q0 41 18.5 60.5t75.5 19.5h221v755q-71 -43 -155.5 -67.5t-145.5 -24.5q-27 0 -47.5 17t-20.5 51q0 30 21 65q271 42 348 180z" />
    <glyph glyph-name="two" unicode="2" horiz-adv-x="1021" 
d="M63 958q0 66 113.5 129.5t294.5 63.5q219 0 327.5 -88t108.5 -246q0 -334 -641 -686h686q15 -18 15 -59q0 -72 -60 -72h-837q-15 38 -15 82q0 65 47 102q21 13 70.5 43t81.5 49.5t84 52.5t87.5 58.5t82 61t78 65.5t65 67t53.5 71t33 71.5t13 73.5q0 202 -287 202
q-111 0 -207 -38t-129 -91q-64 24 -64 88z" />
    <glyph glyph-name="three" unicode="3" horiz-adv-x="1064" 
d="M778 752q-2 107 -79 172t-220 65q-119 0 -210 -44t-124 -111q-32 11 -47.5 30.5t-15.5 55.5q0 35 24.5 73.5t71.5 74t128 58.5t181 23q214 0 331.5 -105t117.5 -268q0 -115 -63.5 -205.5t-163.5 -113.5v-4q112 -19 188 -103.5t76 -226.5q0 -82 -28 -152t-84.5 -126
t-151.5 -87.5t-220 -31.5q-97 0 -175 19.5t-124.5 48.5t-77.5 67t-43 71.5t-12 65.5q0 43 17 65.5t53 30.5q12 -41 35.5 -77.5t64 -71t106 -54.5t148.5 -20q169 0 253.5 73.5t84.5 190.5q0 113 -75.5 176.5t-202.5 63.5h-70q-21 0 -32 18t-11 47q0 38 14 66q162 1 250 68.5
t86 177.5z" />
    <glyph glyph-name="four" unicode="4" horiz-adv-x="1173" 
d="M829 692q72 0 72 -57v-498h195q14 -21 14 -71q0 -66 -53 -66h-156v-281q-21 -12 -84 -12q-65 0 -65 60l-2 233h-674q-13 23 -13 55q0 23 15 74l307 975q26 16 86 16q34 0 47 -19.5t4 -49.5l-284 -914h512v535q30 20 79 20z" />
    <glyph glyph-name="five" unicode="5" horiz-adv-x="1087" 
d="M909 991h-612l-21 -454q132 51 273 51q104 0 188 -24t149 -74t100.5 -134t35.5 -198q0 -195 -127.5 -319t-372.5 -124q-99 0 -179 20.5t-128.5 52.5t-81 72.5t-45 77t-12.5 70.5q0 76 74 94q9 -44 33.5 -84.5t66 -79t110.5 -62t156 -23.5q178 0 265 83.5t87 229.5
q0 147 -96 217t-266 70q-82 0 -186 -22.5t-134 -22.5q-27 0 -41.5 19t-13.5 54l23 641q34 21 94 21h710q19 -29 19 -68q0 -38 -17.5 -61t-50.5 -23z" />
    <glyph glyph-name="six" unicode="6" horiz-adv-x="1138" 
d="M106 682q0 348 132 541.5t395 193.5q162 0 266.5 -53t104.5 -119q0 -28 -13.5 -51.5t-34.5 -34.5q-27 20 -45.5 32.5t-60.5 34t-96.5 33t-116.5 11.5q-352 0 -375 -520q164 84 348 84q79 0 145 -13t124.5 -44t99 -78t63.5 -118t23 -161q0 -91 -25 -167.5t-77 -139
t-141 -98t-208 -35.5q-508 0 -508 702zM596 705q-187 0 -336 -87q8 -262 90.5 -380.5t259.5 -118.5q156 0 229.5 82t73.5 217q0 147 -85 217t-232 70z" />
    <glyph glyph-name="seven" unicode="7" horiz-adv-x="976" 
d="M401 -272q-38 0 -53 19t-4 48l416 1192h-742q-18 23 -18 80q0 30 17.5 52t48.5 22h866q10 -17 10 -56q0 -37 -16 -90l-443 -1253q-28 -14 -82 -14z" />
    <glyph glyph-name="eight" unicode="8" horiz-adv-x="1114" 
d="M84 389q0 133 64.5 222t168.5 134q-180 100 -180 320q0 165 107.5 257.5t304.5 92.5q209 0 318.5 -91.5t109.5 -264.5q0 -109 -55 -194.5t-144 -133.5q250 -96 250 -348q0 -85 -27 -156.5t-82 -127.5t-148 -87.5t-216 -31.5q-236 0 -353.5 111.5t-117.5 297.5zM545 666
l-64 14q-109 -24 -178.5 -97t-69.5 -196q0 -119 82 -193.5t238 -74.5q169 0 248.5 71t79.5 191q0 62 -26 110.5t-75.5 81.5t-105 54.5t-129.5 38.5zM279 1065q0 -59 20.5 -105.5t50 -75.5t79 -51.5t91.5 -34.5t103 -24q96 29 155.5 103.5t59.5 181.5q0 109 -74 170t-205 61
q-126 0 -203 -62t-77 -163z" />
    <glyph glyph-name="nine" unicode="9" 
d="M1022 412q0 -703 -510 -703q-180 0 -302 63t-122 128q0 49 43 80q31 -24 73 -48t123 -49.5t160 -25.5q199 0 285 119.5t92 390.5q-151 -99 -366 -99q-86 0 -160.5 23t-135.5 69.5t-96.5 125.5t-35.5 182q0 105 26.5 191t81 152t144.5 102t210 36q126 0 214 -36.5
t151.5 -121t94 -228t30.5 -351.5zM512 401q210 0 352 101q-9 274 -83.5 390t-237.5 116q-164 0 -244 -89.5t-80 -238.5q0 -133 83 -206t210 -73z" />
    <glyph glyph-name="colon" unicode=":" horiz-adv-x="350" 
d="M82 92q0 96 92 96q94 0 94 -96q0 -92 -94 -92q-92 0 -92 92zM82 928q0 96 92 96q94 0 94 -96q0 -92 -94 -92q-92 0 -92 92z" />
    <glyph glyph-name="semicolon" unicode=";" horiz-adv-x="358" 
d="M176 0q-45 0 -69.5 23.5t-24.5 68.5q0 96 94 96q50 0 75 -31.5t25 -109.5q0 -111 -30.5 -176.5t-73.5 -65.5q-45 0 -53 35q26 25 41.5 74.5t15.5 85.5zM86 928q0 96 92 96q94 0 94 -96q0 -92 -94 -92q-92 0 -92 92z" />
    <glyph glyph-name="less" unicode="&#x3c;" horiz-adv-x="729" 
d="M123 588l438 413q18 9 39 9q22 0 39.5 -20t17.5 -44q0 -25 -28 -57l-406 -387l414 -391q12 -16 12 -43q0 -26 -20.5 -46t-40.5 -20q-31 0 -62 31l-424 399q-1 1 -7.5 12.5t-8.5 16t-5 16.5t-3 25q0 29 9 45.5t36 40.5z" />
    <glyph glyph-name="equal" unicode="=" horiz-adv-x="1073" 
d="M889 252h-762q-16 40 -16 80q0 71 65 71h770q17 -27 17 -73q0 -78 -74 -78zM889 641h-762q-16 40 -16 80q0 32 16 52t49 20h770q17 -27 17 -74q0 -78 -74 -78z" />
    <glyph glyph-name="greater" unicode="&#x3e;" horiz-adv-x="729" 
d="M606 424l-438 -414q-16 -8 -39 -8q-22 0 -39.5 20t-17.5 44q0 25 28 57l406 387l-414 391q-12 16 -12 43q0 26 20.5 46t40.5 20q31 0 62 -31l424 -399q1 -1 7.5 -12.5t8.5 -16t5 -16.5t3 -25q0 -29 -9 -45.5t-36 -40.5z" />
    <glyph glyph-name="question" unicode="?" horiz-adv-x="1009" 
d="M768 967q0 147 -81.5 217.5t-221.5 70.5q-119 0 -210.5 -47t-121.5 -116q-65 23 -65 92q0 34 24.5 72.5t71.5 74t128 59t181 23.5q208 0 329.5 -111t121.5 -303q0 -96 -31.5 -173.5t-87.5 -129.5t-130 -82.5t-163 -40.5l12 -270q-23 -20 -78 -20q-60 0 -63 63l-8 266
q0 45 16 64q70 2 134.5 19t120 50.5t89 90.5t33.5 131zM371 92q0 96 94 96t94 -96q0 -45 -24.5 -68.5t-69.5 -23.5q-94 0 -94 92z" />
    <glyph glyph-name="at" unicode="@" horiz-adv-x="1771" 
d="M1333 -129q39 -20 39 -55q0 -47 -49 -72q-176 -86 -436 -86q-235 0 -419.5 97t-291 282t-106.5 430q0 179 59.5 330t166 257t259 165t332.5 59q181 0 333 -58t257.5 -160t164 -245t58.5 -311q0 -231 -113.5 -367.5t-283.5 -136.5q-99 0 -145 41.5t-46 108.5v22
q-193 -170 -362 -170q-119 0 -183.5 75.5t-64.5 201.5q0 103 68.5 165.5t199.5 69.5l342 23v73q0 49 -17.5 84t-49 53t-65.5 25.5t-75 7.5q-89 0 -174 -17t-121 -36q-26 16 -26 66q0 41 56 71.5t128.5 43t144.5 12.5q45 -1 84 -6.5t84.5 -23t78 -45.5t54 -78t21.5 -116v-467
q0 -45 19 -60t65 -15q104 0 177 107t73 294q0 136 -49.5 252.5t-137.5 200t-216 131t-279 47.5q-304 0 -493 -187.5t-189 -488.5q0 -207 90 -361.5t244 -233.5t350 -79q153 0 247.5 19.5t196.5 60.5zM782 127q77 0 156 37t174 110v160l-336 -28q-72 -7 -107.5 -42t-35.5 -90
q0 -65 38.5 -106t110.5 -41z" />
    <glyph glyph-name="A" unicode="A" horiz-adv-x="1310" 
d="M115 0q-55 0 -78 23l528 1384q18 10 25.5 14t26.5 8.5t42 4.5q68 0 91 -62l524 -1335q-17 -37 -78 -37q-71 0 -90 63l-115 285h-674l-112 -297q-10 -28 -31 -39.5t-59 -11.5zM649 1214l-280 -731h569z" />
    <glyph glyph-name="B" unicode="B" horiz-adv-x="1361" 
d="M293 1434h448q404 0 404 -377q0 -196 -148 -301q108 -42 171 -130.5t63 -226.5q0 -84 -26.5 -152.5t-71 -114t-105 -76t-125 -43.5t-135.5 -13h-475q-38 0 -59 15.5t-21 58.5v1345q24 15 80 15zM707 672h-336v-539h350q350 0 350 275q0 73 -26.5 125.5t-76.5 82t-114 43
t-147 13.5zM711 1303h-340v-502h338q63 2 112 15t89 42t61.5 80t21.5 123q0 133 -71 187.5t-211 54.5z" />
    <glyph glyph-name="C" unicode="C" horiz-adv-x="1312" 
d="M1165 301q26 2 48 -14.5t22 -50.5q0 -56 -53 -95q-161 -161 -445 -161q-136 0 -245 42.5t-191 129.5t-126 230.5t-44 334.5q0 185 43.5 326.5t123 231t187.5 134.5t242 45q168 0 271 -45t169 -125q45 -39 45 -88q0 -28 -17 -47t-42 -27q-71 90 -172 135.5t-248 45.5
q-205 0 -324.5 -148t-119.5 -440q0 -588 454 -588q277 0 422 174z" />
    <glyph glyph-name="D" unicode="D" horiz-adv-x="1425" 
d="M293 1434h278q367 0 545 -178.5t178 -555.5q0 -153 -30 -271.5t-85.5 -199t-138.5 -132t-184.5 -74.5t-228.5 -23h-334q-38 0 -59 15.5t-21 58.5v1343q27 17 80 17zM582 1284h-209v-1141h248q259 0 386.5 128.5t127.5 424.5q0 301 -135 444.5t-418 143.5z" />
    <glyph glyph-name="E" unicode="E" horiz-adv-x="1302" 
d="M1012 659h-639v-507h805q18 -18 18 -66q0 -40 -16.5 -63t-49.5 -23h-845q-32 0 -52 15.5t-20 60.5v1341q27 17 76 17h889q18 -18 18 -66q0 -40 -16.5 -63t-49.5 -23h-757v-471h684q18 -18 18 -72q0 -80 -63 -80z" />
    <glyph glyph-name="F" unicode="F" horiz-adv-x="1275" 
d="M1012 633h-639v-617q-19 -16 -88 -16q-32 0 -52 15.5t-20 60.5v1341q27 17 76 17h880q17 -21 17 -66q0 -40 -16.5 -63t-49.5 -23h-747v-498h688q16 -20 16 -65q0 -86 -65 -86z" />
    <glyph glyph-name="G" unicode="G" horiz-adv-x="1437" 
d="M1141 604h-385q-15 34 -15 68q0 31 19.5 48t75.5 17h327q65 0 88 -28t23 -101v-592q-27 -18 -74 -18q-29 0 -44 13.5t-15 51.5v134q-166 -217 -416 -217q-96 0 -181.5 26t-161.5 83.5t-131.5 142t-87.5 209t-32 276.5q0 183 48 326t133 231.5t197 134t245 45.5
q109 0 201.5 -22t148 -54.5t86.5 -66.5t31 -62q0 -30 -21 -49.5t-45 -21.5q-68 61 -160.5 96t-238.5 35q-98 0 -183 -37t-151 -109t-103.5 -187t-37.5 -261q0 -156 38 -274.5t104 -187.5t145 -102.5t169 -33.5q123 0 229.5 61.5t174.5 169.5v256z" />
    <glyph glyph-name="H" unicode="H" horiz-adv-x="1501" 
d="M1210 1434q78 0 78 -64v-1352q-25 -18 -78 -18q-39 0 -61.5 15.5t-22.5 60.5v583h-753v-639q-20 -20 -88 -20q-32 0 -52 15.5t-20 60.5v1341q31 17 84 17q76 0 76 -64v-563h753v610q34 17 84 17z" />
    <glyph glyph-name="I" unicode="I" horiz-adv-x="585" 
d="M299 1434q74 0 74 -64v-1350q-33 -20 -86 -20q-74 0 -74 76v1341q31 17 86 17z" />
    <glyph glyph-name="J" unicode="J" horiz-adv-x="790" 
d="M506 1434q72 0 72 -66v-1089q0 -279 -277 -279q-130 0 -195 26.5t-65 69.5q0 36 12 60h209q84 0 124 36.5t40 122.5v1102q34 17 80 17z" />
    <glyph glyph-name="K" unicode="K" horiz-adv-x="1257" 
d="M297 1434q74 0 74 -64v-631q172 130 318.5 321t215.5 361q26 13 68 13q23 0 40 -16.5t17 -39.5q0 -38 -31 -98q-155 -297 -389 -512q42 -41 95.5 -123.5t101 -165t97 -161t101 -128t95.5 -49.5h57q14 -18 14 -53q0 -88 -122 -88q-60 0 -120 49t-114 131t-102.5 168
t-105 182.5t-101.5 151.5q-64 -50 -135 -96v-568q-30 -18 -90 -18q-68 0 -68 74v1341q38 19 84 19z" />
    <glyph glyph-name="L" unicode="L" horiz-adv-x="1105" 
d="M295 1434q32 0 55 -15.5t23 -48.5v-1218h678q18 -23 18 -66q0 -86 -92 -86h-692q-72 0 -72 74v1345q30 15 82 15z" />
    <glyph glyph-name="M" unicode="M" horiz-adv-x="1837" 
d="M911 78q-77 0 -104 86l-406 991l-67 -1098q-3 -57 -78 -57q-52 0 -80 14l92 1309q10 111 111 111q41 0 78 -13l454 -1130l389 1057q25 86 109 86q49 0 96 -21l156 -1393q-30 -20 -84 -20q-77 0 -84 57l-98 1098l-375 -991q-14 -53 -40 -69.5t-69 -16.5z" />
    <glyph glyph-name="N" unicode="N" horiz-adv-x="1503" 
d="M1137 41l-772 1087l8 -1110q-22 -18 -90 -18q-20 0 -33.5 4t-25 21.5t-11.5 48.5v1343q34 17 84 17q47 0 74 -39l768 -1108l-4 1126q28 21 75 21q35 0 59.5 -15.5t24.5 -48.5v-1356q-24 -14 -82 -14q-45 0 -75 41z" />
    <glyph glyph-name="O" unicode="O" horiz-adv-x="1458" 
d="M131 717q0 184 44 326t125 231.5t190.5 134.5t244.5 45q273 0 431.5 -186t158.5 -551q0 -194 -42.5 -337.5t-122 -230t-185.5 -128t-240 -41.5q-136 0 -244.5 42.5t-190 129.5t-125.5 230.5t-44 334.5zM287 715q0 -158 33 -274.5t94 -186t141.5 -102.5t181.5 -33
q432 0 432 596q0 294 -116.5 445t-317.5 151q-208 0 -328 -151.5t-120 -444.5z" />
    <glyph glyph-name="P" unicode="P" horiz-adv-x="1271" 
d="M293 1434h448q86 0 158.5 -25.5t128 -76t86.5 -132.5t31 -188q0 -101 -26 -179.5t-69 -127t-103 -80t-122.5 -44t-134.5 -12.5h-317v-553q-26 -16 -88 -16q-72 0 -72 74v1345q30 15 80 15zM717 1303h-344v-601h284q161 0 248.5 69t87.5 230q0 150 -72.5 226t-203.5 76z
" />
    <glyph glyph-name="Q" unicode="Q" horiz-adv-x="1458" 
d="M131 717q0 184 44 326t125 231.5t190.5 134.5t244.5 45q273 0 431.5 -186t158.5 -551q0 -540 -330 -682q55 -104 122.5 -157.5t139.5 -53.5h103q12 -24 12 -57q0 -45 -36.5 -73t-102.5 -28q-230 0 -375 324q-65 -10 -123 -10q-136 0 -244.5 42.5t-190 129.5t-125.5 230.5
t-44 334.5zM287 715q0 -158 33 -274.5t94 -186t141.5 -102.5t181.5 -33q432 0 432 596q0 294 -116.5 445t-317.5 151q-208 0 -328 -151.5t-120 -444.5z" />
    <glyph glyph-name="R" unicode="R" horiz-adv-x="1372" 
d="M293 1434h448q88 0 160 -21.5t130 -67t90 -123.5t32 -184q0 -161 -95.5 -265t-238.5 -136q34 -45 75 -117.5t74 -133.5t69.5 -119.5t76.5 -92t80 -33.5h57q15 -19 15 -53q0 -88 -123 -88q-60 0 -113 43.5t-97 117t-83 152t-88 168t-94 144.5h-295v-607q-21 -18 -80 -18
q-38 0 -59 15.5t-21 58.5v1345q24 15 80 15zM711 1307h-338v-555h311q138 0 227.5 72t89.5 212q0 271 -290 271z" />
    <glyph glyph-name="S" unicode="S" horiz-adv-x="1245" 
d="M612 1454q295 0 424 -125q33 -33 33 -80q0 -44 -45 -75q-56 47 -159 79.5t-253 32.5q-154 0 -228.5 -58.5t-74.5 -154.5t79.5 -156t285.5 -120q241 -64 346 -156t106 -266q2 -184 -124.5 -289.5t-376.5 -105.5q-258 0 -414 96q-92 59 -92 121q0 50 28 82q76 -66 204 -104
t267 -38q183 0 268 63.5t85 168.5q0 101 -75 162.5t-273 117.5q-263 72 -366 163t-103 263q0 170 115.5 274.5t342.5 104.5z" />
    <glyph glyph-name="T" unicode="T" horiz-adv-x="1224" 
d="M1124 1282h-434v-1266q-21 -16 -88 -16t-67 74v1208h-484q-18 36 -18 78q0 31 20 52.5t64 21.5h1057q18 -22 18 -66q0 -39 -17.5 -62.5t-50.5 -23.5z" />
    <glyph glyph-name="U" unicode="U" horiz-adv-x="1435" 
d="M1085 541v876q27 17 80 17q80 0 80 -64v-850q0 -540 -528 -540q-265 0 -390.5 132t-125.5 408l-2 897q27 17 82 17q77 0 77 -64v-827q0 -212 84 -315t275 -103q199 0 283.5 101.5t84.5 314.5z" />
    <glyph glyph-name="V" unicode="V" horiz-adv-x="1325" 
d="M141 1434q61 0 84 -56l459 -1161q133 220 278 604.5t173 593.5q36 19 84 19q24 0 40.5 -11.5t16.5 -29.5q0 -33 -14 -107q-35 -190 -196 -585t-335 -689q-35 -12 -69 -12q-54 0 -80 66l-533 1351q34 17 92 17z" />
    <glyph glyph-name="W" unicode="W" horiz-adv-x="2048" 
d="M928 1434q62 0 82 -56l458 -1161q125 207 249.5 589.5t152.5 608.5q40 19 84 19q24 0 40.5 -11.5t16.5 -29.5q0 -31 -12 -107q-39 -216 -178 -605t-303 -669q-34 -12 -70 -12q-57 0 -80 66l-291 737q-190 -466 -379 -789q-34 -12 -69 -12q-53 0 -80 64l-512 1351
q34 17 92 17q61 0 84 -56l438 -1159q75 127 174 349.5t174 430.5l-163 418q31 17 92 17z" />
    <glyph glyph-name="X" unicode="X" horiz-adv-x="1370" 
d="M215 1434q43 0 73.5 -19.5t59.5 -60.5l342 -484l348 504q40 60 113 60q64 0 86 -33l-457 -658l504 -710q-41 -33 -106 -33q-34 0 -69.5 17.5t-57.5 48.5l-383 544l-392 -557q-33 -53 -110 -53q-54 0 -80 37l489 702l-456 654q23 41 96 41z" />
    <glyph glyph-name="Y" unicode="Y" horiz-adv-x="1210" 
d="M700 477v-459q-25 -18 -88 -18q-69 0 -69 59v412q-153 219 -276 462.5t-193 475.5q41 25 90 25q33 0 50.5 -12t27.5 -42q126 -413 385 -792q126 189 241 443t140 392q22 11 75 11q23 0 38.5 -16.5t15.5 -39.5q-3 -120 -152.5 -419t-284.5 -482z" />
    <glyph glyph-name="Z" unicode="Z" horiz-adv-x="1308" 
d="M1145 1294l-856 -1153h940q14 -33 14 -67q0 -74 -78 -74h-1087q-12 27 -12 57q0 46 28 82l856 1147h-813q-18 32 -18 70q0 34 17 56t54 22h973q13 -13 13 -56q0 -45 -31 -84z" />
    <glyph glyph-name="bracketleft" unicode="[" horiz-adv-x="628" 
d="M119 -150v1584q40 24 108 24h324q18 -22 18 -67q0 -86 -57 -86h-240v-1379h279q18 -27 18 -67t-15.5 -63t-45.5 -23h-369q-20 30 -20 77z" />
    <glyph glyph-name="backslash" unicode="\" horiz-adv-x="610" 
d="M150 1458q44 0 73 -16l260 -1477q14 -76 -71 -76q-58 0 -78 17l-262 1489q-6 33 17.5 48t60.5 15z" />
    <glyph glyph-name="bracketright" unicode="]" horiz-adv-x="628" 
d="M569 1378v-1583q-40 -24 -108 -24h-324q-18 23 -18 67q0 86 57 86h240v1379h-279q-18 27 -18 67t15.5 63t45.5 23h369q20 -30 20 -78z" />
    <glyph glyph-name="asciicircum" unicode="^" horiz-adv-x="989" 
d="M801 1188q-10 -47 -49 -53q-16 -7 -39 0q-26 7 -64 31.5t-93 66t-81 59.5q-26 -17 -81.5 -59t-93.5 -66.5t-64 -31.5q-20 -7 -37 0q-39 6 -49 53q25 13 90.5 72.5t129 108t101.5 48.5q37 0 100.5 -47.5t131.5 -107t98 -74.5z" />
    <glyph glyph-name="underscore" unicode="_" horiz-adv-x="1245" 
d="M1143 -317h-1086q-16 40 -16 75q0 33 18 54.5t56 21.5h1075q14 -17 14 -70q0 -34 -14.5 -57.5t-46.5 -23.5z" />
    <glyph glyph-name="grave" unicode="`" horiz-adv-x="1105" 
d="M692 1184q-13 -58 -69 -58q-30 0 -89.5 41t-131.5 98t-111 78q4 70 80 70q28 0 75 -30.5t89.5 -68.5t88.5 -78t68 -52z" />
    <glyph glyph-name="a" unicode="a" horiz-adv-x="1009" 
d="M174 793q-29 25 -29 65q0 46 55.5 81.5t131 52t151.5 16.5q72 0 132 -16t108.5 -49.5t76 -92.5t27.5 -139v-527q0 -71 52 -71h57q12 -16 12 -54q0 -59 -131 -59q-58 0 -92.5 39t-34.5 102v9q-173 -170 -354 -170q-132 0 -201 83t-69 222q0 123 70.5 196t207.5 80l346 21
v88q0 194 -213 194q-88 0 -174.5 -21.5t-128.5 -49.5zM358 115q160 0 332 159v193l-338 -33q-145 -14 -145 -151q0 -72 39 -120t112 -48z" />
    <glyph glyph-name="b" unicode="b" horiz-adv-x="1056" 
d="M285 1372v-493q126 129 284 129q169 0 271 -126.5t102 -367.5q0 -268 -119 -401t-317 -133q-190 0 -320 92q-51 40 -51 84v1257q31 21 78 21q72 0 72 -62zM537 850q-150 0 -252 -121v-532q91 -74 227 -74q133 0 208 95.5t75 281.5q0 173 -71 261.5t-187 88.5z" />
    <glyph glyph-name="c" unicode="c" horiz-adv-x="966" 
d="M868 868q0 -41 -39 -80q-77 38 -126.5 51t-143.5 13q-61 0 -112 -19.5t-93 -60.5t-66 -113t-24 -170q0 -171 85.5 -268.5t225.5 -97.5q87 0 162 24.5t117 55.5q27 -24 27 -68q0 -57 -62 -94q-103 -61 -252 -61q-207 0 -329.5 138t-122.5 374q0 111 25.5 200.5t68 147
t100.5 96.5t119 55.5t127 16.5q73 0 127.5 -11t80.5 -23.5t62 -35.5q40 -23 43 -70z" />
    <glyph glyph-name="d" unicode="d" horiz-adv-x="1153" 
d="M961 0q-55 0 -96.5 24t-61.5 72q-129 -116 -293 -116q-81 0 -150 28.5t-125 87.5t-88 159.5t-32 233.5q0 107 24 195t64 147.5t94 100t112.5 58.5t120.5 18q162 0 261 -99v465q0 28 16.5 44t46.5 16q55 0 84 -21v-1223q0 -69 63 -69h66q12 -24 12 -53q0 -30 -30 -49
t-88 -19zM532 123q155 0 259 94v528q-48 55 -101.5 79t-140.5 24q-51 0 -99 -19.5t-90.5 -59.5t-68 -110.5t-25.5 -162.5q0 -186 73.5 -279.5t192.5 -93.5z" />
    <glyph glyph-name="e" unicode="e" horiz-adv-x="1026" 
d="M909 477h-649q3 -170 84.5 -262t214.5 -92q99 0 188.5 29.5t131.5 62.5q34 -20 34 -68q0 -47 -34 -71q-129 -96 -332 -96q-198 0 -318 139.5t-120 369.5q0 125 37 226t100 164t142.5 96t166.5 33q179 0 274 -118.5t95 -307.5q0 -64 -15 -105zM551 868
q-104 0 -182.5 -71.5t-100.5 -206.5h516q0 129 -58 203.5t-175 74.5z" />
    <glyph glyph-name="f" unicode="f" horiz-adv-x="708" 
d="M383 1155v-168h248q14 -21 14 -55q0 -32 -16.5 -55t-53.5 -23h-192v-803q0 -51 -88 -51q-49 0 -70 18v836h-121q-14 24 -14 57q0 76 76 76h59v189q0 145 64.5 207.5t187.5 62.5q66 0 109 -6t63.5 -18.5t27.5 -26t7 -33.5q0 -46 -18 -68h-148q-69 0 -102 -30t-33 -109z
" />
    <glyph glyph-name="g" unicode="g" horiz-adv-x="1034" 
d="M872 864h-98q57 -91 57 -237q0 -196 -97 -286.5t-265 -90.5q-93 0 -172 31q-27 -66 -27 -111q0 -56 34.5 -83.5t121.5 -27.5h313q112 0 170 -57.5t58 -155.5q0 -165 -128.5 -263.5t-351.5 -98.5q-171 0 -286 65t-115 138q0 22 13.5 45.5t35.5 38.5q123 -152 348 -152
q161 0 252.5 56t91.5 151q0 100 -122 100h-306q-142 0 -205 50t-63 147q0 103 78 217q-96 93 -96 287q0 189 99.5 285t264.5 96q132 0 215 -60q20 39 74 39h166q14 -18 14 -55q0 -31 -15.5 -49.5t-58.5 -18.5zM268 623q0 -132 52.5 -190t150.5 -58q203 0 203 248
q0 129 -51 191.5t-144 62.5q-98 0 -154.5 -64t-56.5 -190z" />
    <glyph glyph-name="h" unicode="h" horiz-adv-x="1093" 
d="M213 1434q33 0 52.5 -16t19.5 -48v-559q69 92 161.5 144.5t194.5 52.5q134 0 205.5 -82t71.5 -244v-516q0 -51 43 -51h61q10 -17 10 -45q0 -32 -37 -51t-106 -19q-127 0 -127 152v493q0 105 -41.5 155t-126.5 50t-169.5 -52.5t-139.5 -140.5v-641q-22 -16 -80 -16
q-33 0 -53.5 15.5t-20.5 60.5v1339q30 19 82 19z" />
    <glyph glyph-name="i" unicode="i" horiz-adv-x="595" 
d="M233 987q73 0 109.5 -34.5t36.5 -125.5v-647q0 -53 47 -53h59q13 -20 13 -51q0 -76 -138 -76q-66 0 -100.5 32.5t-34.5 106.5v645q0 58 -51 58h-59q-13 23 -13 61q0 42 35.5 63t95.5 21zM182 1268q0 102 101 102q100 0 100 -102q0 -99 -100 -99q-101 0 -101 99z" />
    <glyph glyph-name="j" unicode="j" horiz-adv-x="581" 
d="M252 987q78 0 111.5 -35.5t33.5 -122.5v-921q0 -135 -64.5 -196.5t-174.5 -61.5q-195 0 -195 86q0 32 10 61h150q60 0 93.5 35t33.5 107v845q0 58 -47 58h-80q-10 27 -10 63q0 82 139 82zM207 1268q0 102 100 102q101 0 101 -102q0 -99 -101 -99q-100 0 -100 99z" />
    <glyph glyph-name="k" unicode="k" horiz-adv-x="929" 
d="M209 1434q34 0 59 -16t25 -48v-803q139 66 227 182t94 222q26 16 68 16q76 0 76 -65q0 -101 -104 -226t-226 -172q37 -21 77.5 -69t75.5 -98t72 -98t79.5 -78.5t86.5 -30.5h72q12 -20 12 -58q0 -40 -30.5 -66t-86.5 -26q-52 0 -101.5 27.5t-87.5 70t-78.5 96.5t-73 104.5
t-73.5 97.5t-79 71v-447q-27 -20 -86 -20q-32 0 -52 15.5t-20 60.5v1337q28 21 74 21z" />
    <glyph glyph-name="l" unicode="l" horiz-adv-x="612" 
d="M301 1366v-1077q0 -90 30 -123t107 -33h140q6 -18 6 -47q0 -36 -49 -61t-148 -25q-126 0 -183 60t-57 192v1161q30 23 76 23q78 -3 78 -70z" />
    <glyph glyph-name="m" unicode="m" horiz-adv-x="1814" 
d="M225 987q73 0 114.5 -39.5t41.5 -120.5v-34q73 104 155 159.5t189 55.5q101 0 166 -54.5t88 -162.5q160 217 362 217q131 0 208 -86t77 -252v-500q0 -55 39 -55h78q10 -17 10 -43q0 -33 -39 -52.5t-115 -19.5q-67 0 -100 33.5t-33 109.5v490q0 105 -44 159t-126 54
q-168 0 -307 -191v-485q0 -29 8.5 -42t28.5 -13h72q8 -20 8 -45q0 -34 -41 -52t-111 -18q-65 0 -96 33.5t-31 109.5v494q0 209 -159 209q-158 0 -287 -193v-635q-27 -18 -88 -18q-76 0 -76 80v704q0 58 -51 58h-74q-14 35 -14 67q0 78 147 78z" />
    <glyph glyph-name="n" unicode="n" horiz-adv-x="1212" 
d="M223 987q74 0 116 -41t42 -119v-30q159 211 360 211q132 0 207.5 -85.5t75.5 -252.5v-500q0 -55 39 -55h80q8 -20 8 -43q0 -33 -38 -52.5t-114 -19.5q-68 0 -100.5 33.5t-32.5 109.5v490q0 104 -46.5 160.5t-127.5 56.5q-171 0 -311 -203v-629q-27 -18 -88 -18
q-76 0 -76 80v704q0 58 -51 58h-74q-14 35 -14 67q0 78 145 78z" />
    <glyph glyph-name="o" unicode="o" 
d="M115 492q0 255 124.5 385.5t331.5 130.5q206 0 323.5 -129.5t117.5 -386.5q0 -137 -33 -237t-94 -159.5t-141.5 -87.5t-182.5 -28q-101 0 -181 29t-140 89t-92.5 160t-32.5 234zM276 489q0 -366 285 -366q139 0 214 85.5t75 280.5q0 186 -73.5 279.5t-205.5 93.5
q-135 0 -215 -95t-80 -278z" />
    <glyph glyph-name="p" unicode="p" horiz-adv-x="1150" 
d="M207 987q70 0 108 -38.5t41 -110.5q64 78 146 124t170 46q59 0 109.5 -14t98 -49t81 -90.5t54 -143t21.5 -201.5q0 -131 -32.5 -234t-88.5 -166.5t-126.5 -96.5t-149.5 -33q-168 0 -283 120v-483q-27 -16 -82 -16q-75 0 -75 80v1103q0 58 -49 58h-74q-15 38 -15 67
q0 78 146 78zM629 846q-153 0 -273 -152v-428q110 -139 254 -139q122 0 197.5 93t75.5 274q0 85 -15 149.5t-38.5 102t-57.5 61t-68 31.5t-75 8z" />
    <glyph glyph-name="q" unicode="q" horiz-adv-x="1142" 
d="M799 -322v410q-124 -108 -295 -108q-173 0 -281 131t-108 383q0 250 115.5 382t291.5 132q177 0 289 -119q19 47 60.5 72.5t97.5 25.5q112 0 112 -74q0 -38 -10 -65h-72q-53 0 -53 -64v-1153q-32 -16 -80 -16q-67 0 -67 63zM535 123q158 0 264 96v510q-88 121 -273 121
q-50 0 -95 -21t-83 -62t-61 -111.5t-23 -161.5q0 -178 77 -274.5t194 -96.5z" />
    <glyph glyph-name="r" unicode="r" horiz-adv-x="872" 
d="M203 987q78 0 117.5 -38.5t39.5 -131.5v-10q68 88 153 144.5t167 56.5q85 0 130.5 -43t45.5 -129q0 -113 -90 -113q-34 0 -59 25q0 90 -91 90q-65 0 -133 -48.5t-123 -130.5v-641q-21 -18 -86 -18q-34 0 -53.5 15.5t-19.5 58.5v704q0 64 -51 64h-76q-13 37 -13 67
q0 33 39 55.5t103 22.5z" />
    <glyph glyph-name="s" unicode="s" horiz-adv-x="933" 
d="M461 1008q156 0 247 -49t91 -107q0 -63 -37 -82q-36 33 -120 56.5t-185 23.5t-149 -36t-48 -93q0 -63 54.5 -96.5t181.5 -57.5q180 -31 259 -101t79 -200q0 -137 -92.5 -211.5t-272.5 -74.5q-158 0 -265.5 49t-107.5 108q0 57 33 86q48 -37 146.5 -69.5t183.5 -32.5
q121 0 176 39.5t55 103.5q0 68 -52 104t-179 60q-188 33 -264 99.5t-76 201.5q0 124 89 201.5t253 77.5z" />
    <glyph glyph-name="t" unicode="t" horiz-adv-x="751" 
d="M614 854h-249v-563q0 -88 29.5 -121t94.5 -33h197q10 -23 10 -45q0 -29 -19 -48t-75.5 -31.5t-152.5 -12.5q-111 0 -172.5 57t-61.5 197v600h-121q-16 22 -16 57q0 38 14.5 57t52.5 19h70v268q30 17 80 17q32 0 51 -17t19 -51v-217h313q14 -14 14 -53q0 -80 -78 -80z" />
    <glyph glyph-name="u" unicode="u" horiz-adv-x="1212" 
d="M985 0q-65 0 -102 35.5t-37 126.5v18q-153 -200 -365 -200q-274 0 -274 329v479q0 56 -47 56h-90q-9 40 -9 65q3 78 158 78q80 0 116 -33t36 -110v-500q0 -207 157 -207q191 0 318 217v615q34 18 88 18q76 0 76 -61v-736q0 -32 12 -44.5t35 -12.5h76q6 -36 6 -51
q0 -38 -40 -60t-114 -22z" />
    <glyph glyph-name="v" unicode="v" horiz-adv-x="1046" 
d="M135 987q63 0 94.5 -21t46.5 -61l267 -702q103 145 179.5 322.5t76.5 275.5q0 61 -64 61h-59q-10 23 -10 62q0 29 32.5 46t92.5 17q81 0 119 -35.5t38 -117.5q0 -128 -97 -349t-222 -403q-31 -44 -55 -63t-58 -19q-36 0 -57 12l-307 805q-15 45 -56 45h-59q-12 32 -12 62
q0 27 29.5 45t80.5 18z" />
    <glyph glyph-name="w" unicode="w" horiz-adv-x="1599" 
d="M1051 14l-224 643q-36 -142 -100 -293.5t-135 -269.5q-33 -53 -57.5 -73.5t-57.5 -20.5q-40 0 -59 16l-264 809q-9 37 -45 37h-74q-10 27 -10 56q0 69 137 69q55 0 84 -20.5t45 -63.5l217 -682q92 139 163.5 321t71.5 273q0 47 -36 47h-60q-10 23 -10 53q0 32 39.5 52
t103.5 20q40 0 67 -21t38 -55l233 -694q98 132 164 306t66 284q0 26 -14 40.5t-36 14.5h-69q-10 23 -10 56q0 31 38 50t99 19q75 0 109 -38t34 -115q0 -138 -84.5 -358.5t-189.5 -377.5q-24 -35 -37.5 -52t-35.5 -31.5t-46 -14.5q-35 0 -55 14z" />
    <glyph glyph-name="x" unicode="x" horiz-adv-x="1083" 
d="M225 987q55 0 90 -21.5t64 -68.5l172 -272l215 299q39 63 96 63q51 0 76 -25.5t23 -60.5l-336 -391l204 -320q40 -65 93 -65h75q9 -16 9 -51q0 -33 -36 -53.5t-102 -20.5q-103 0 -155 82l-193 299l-241 -324q-45 -57 -103 -57q-37 0 -62 26.5t-28 61.5l360 410l-213 333
q-22 31 -57 31h-86q-8 28 -8 45q0 37 41 58.5t102 21.5z" />
    <glyph glyph-name="y" unicode="y" horiz-adv-x="1105" 
d="M299 879l254 -672q14 -44 47 -51q103 203 177.5 388.5t74.5 262.5q0 55 -49 55h-74q-10 20 -10 56q0 31 36 50t89 19q164 0 164 -143q0 -138 -150 -473t-272 -529q-81 -129 -171 -178t-208 -49q-141 0 -141 80q0 33 12 57h151q66 0 121 32t113 124l65 115q-32 6 -57 31.5
t-39 64.5l-270 702q-14 41 -51 41h-76q-10 20 -10 56q0 32 34 50.5t97 18.5q60 0 91.5 -25.5t51.5 -82.5z" />
    <glyph glyph-name="z" unicode="z" horiz-adv-x="1021" 
d="M86 59q0 39 23 68l585 727h-561q-16 22 -16 57q0 24 3.5 38.5t19 26t44.5 11.5h703q10 -30 10 -53q0 -37 -27 -72l-579 -725h633q12 -20 12 -65q0 -72 -80 -72h-754q-16 28 -16 59z" />
    <glyph glyph-name="braceleft" unicode="{" horiz-adv-x="655" 
d="M418 1458q174 0 174 -90q0 -33 -14 -55h-142q-48 0 -75 -30.5t-27 -88.5v-416q0 -84 -29.5 -122t-62.5 -42v-8q31 -2 61.5 -44.5t30.5 -127.5v-411q0 -111 100 -111h146q12 -18 12 -51q0 -45 -52 -67.5t-145 -22.5q-84 0 -143 52t-59 159v446q0 95 -80 107q-45 9 -45 77
q0 46 14 64q45 -2 78 29.5t33 80.5v439q0 65 19 112.5t52.5 72.5t71 36.5t82.5 11.5z" />
    <glyph glyph-name="bar" unicode="|" horiz-adv-x="544" 
d="M281 1458q73 0 73 -55v-1616q-32 -16 -92 -16q-67 0 -67 69v1602q26 16 86 16z" />
    <glyph glyph-name="braceright" unicode="}" horiz-adv-x="655" 
d="M242 -229q-174 0 -174 90q0 33 14 55h141q48 0 75.5 30.5t27.5 88.5v416q0 84 29.5 121.5t62.5 41.5v9q-31 2 -61.5 44.5t-30.5 127.5v411q0 111 -101 111h-145q-12 18 -12 51q0 90 196 90q84 0 143.5 -52t59.5 -159v-446q0 -95 80 -107q45 -9 45 -78q0 -46 -14 -63
q-45 2 -78 -30t-33 -81v-438q0 -65 -19 -112.5t-52.5 -72.5t-71 -36.5t-82.5 -11.5z" />
    <glyph glyph-name="asciitilde" unicode="~" horiz-adv-x="1054" 
d="M272 1346q59 0 169.5 -32t158.5 -32q86 0 129 49q14 -7 25.5 -26.5t11.5 -42.5q0 -39 -37.5 -67t-103.5 -28q-56 0 -183 30t-172 30q-38 0 -71.5 -17.5t-38.5 -35.5q-41 13 -41 63q0 36 43.5 72.5t109.5 36.5z" />
    <glyph glyph-name="uni00A0" unicode="&#xa0;" horiz-adv-x="491" 
 />
    <glyph glyph-name="exclamdown" unicode="&#xa1;" horiz-adv-x="354" 
d="M14 -446q-35 0 -59.5 15t-24.5 48v1047q22 22 80 22q80 0 80 -86v-1030q-26 -16 -76 -16zM102 895q0 -96 -94 -96t-94 96q0 92 94 92t94 -92z" />
    <glyph glyph-name="cent" unicode="&#xa2;" horiz-adv-x="1030" 
d="M920 868q2 -15 -9.5 -38.5t-29.5 -41.5q-65 31 -110 44t-116 16l-4 -723q81 6 151.5 29t102.5 49q29 -25 29 -68q0 -58 -64 -94q-93 -50 -221 -57l-2 -156q-19 -16 -63 -16q-26 0 -40 12t-14 43l2 117q-190 22 -299.5 156.5t-109.5 351.5q0 103 23.5 187.5t63.5 141.5
t94.5 98t113.5 61t125 26l2 161q26 15 55 15q62 -3 62 -56l-3 -125q55 -3 98.5 -13.5t65 -20.5t54.5 -29q40 -23 43 -70zM262 489q0 -152 73.5 -245.5t199.5 -112.5l4 717q-124 -11 -200.5 -99t-76.5 -260z" />
    <glyph glyph-name="sterling" unicode="&#xa3;" horiz-adv-x="1196" 
d="M1087 0h-1044q-16 40 -16 74q0 73 53 78q59 3 94.5 100t46.5 330h-135q-16 40 -16 67q0 42 17 63t69 21h71q2 27 2 84q0 101 14.5 189t48.5 166.5t85 134t128.5 88t174.5 32.5q183 0 285 -38.5t102 -96.5q0 -62 -43 -84q-116 72 -336 72q-74 0 -129.5 -26.5t-88.5 -68.5
t-53 -105t-27 -125.5t-7 -139.5v-82h520q17 -17 17 -59q0 -38 -23.5 -65t-83.5 -27h-438q-12 -324 -90 -430h850q18 -27 18 -66q0 -40 -16.5 -63t-49.5 -23z" />
    <glyph glyph-name="currency" unicode="&#xa4;" horiz-adv-x="1081" 
d="M162 500q0 111 63 196l-90 88q-26 20 -41 48.5t-14 54.5q4 50 32 72.5t62 19.5l160 -172q88 63 198 63q100 0 179 -51l86 105q39 63 96 63q50 0 75 -25.5t23 -60.5l-164 -184q78 -97 78 -217q0 -112 -65 -199l112 -108q52 -44 49 -105q-3 -36 -31.5 -59t-64.5 -25
l-172 186q-88 -63 -201 -63q-88 0 -161 45l-92 -115q-45 -57 -101 -57q-38 0 -62.5 26t-29.5 62l162 178q-86 102 -86 234zM283 500q0 -103 74 -177.5t175 -74.5q103 0 177.5 74.5t74.5 177.5q0 101 -74.5 175.5t-177.5 74.5q-101 0 -175 -74.5t-74 -175.5z" />
    <glyph glyph-name="yen" unicode="&#xa5;" horiz-adv-x="1208" 
d="M696 477v-78h344q17 -14 17 -51q0 -78 -107 -78h-254v-252q-25 -18 -88 -18q-69 0 -69 59v211h-332q-1 3 -6 11t-7 12.5t-4 14t-2 20.5q0 36 17 53.5t67 17.5h267v72l-35 47h-297q-2 4 -6 12.5t-6.5 13.5t-4.5 14.5t-2 21.5q0 34 17 51t65 16l156 -2q-225 370 -344 764
q41 25 82 25q33 0 51 -12t27 -42q139 -448 381 -798q124 184 240 442t141 399q22 11 69 11q23 0 38 -16t15 -40q-3 -98 -101.5 -317.5t-219.5 -415.5l235 2q17 -14 17 -51q0 -31 -28 -54.5t-89 -23.5h-215z" />
    <glyph glyph-name="brokenbar" unicode="&#xa6;" horiz-adv-x="544" 
d="M268 1458q36 0 61 -15t25 -48v-684q-21 -21 -90 -21q-31 0 -50 16.5t-19 61.5v674q22 16 73 16zM268 539q36 0 61 -15.5t25 -48.5v-684q-20 -20 -90 -20q-32 0 -50.5 15t-18.5 60v676q24 17 73 17z" />
    <glyph glyph-name="section" unicode="&#xa7;" horiz-adv-x="1212" 
d="M627 1481q171 0 272.5 -55t101.5 -121q0 -64 -57 -88q-33 45 -120 77.5t-212 32.5q-274 0 -274 -143q0 -66 72 -109t229 -78q101 -21 175 -47.5t136 -65.5t95 -94.5t34 -127.5q0 -83 -32 -151.5t-91 -139.5q70 -63 70 -146q1 -147 -117 -226t-317 -79q-174 0 -290 59.5
t-116 112.5q0 38 8 53.5t31 32.5q52 -49 149 -83t218 -34q140 0 214 41t73 117q-1 56 -77 94.5t-241 75.5q-108 25 -178.5 49t-133.5 62.5t-93 95t-31 133.5q-1 84 36 146t105 124q-76 70 -76 189q0 127 108.5 210t328.5 83zM563 877q-136 32 -194 63q-105 -88 -105 -207
q1 -38 19.5 -68.5t47 -53t77.5 -42.5t97.5 -34.5t121.5 -32.5q150 -37 221 -68q42 42 65.5 97t22.5 108q-1 83 -92 138.5t-281 99.5z" />
    <glyph glyph-name="dieresis" unicode="&#xa8;" horiz-adv-x="976" 
d="M156 1260q0 94 94 94t94 -94q0 -93 -94 -93t-94 93zM586 1260q0 94 92 94q94 0 94 -94q0 -93 -94 -93q-92 0 -92 93z" />
    <glyph glyph-name="copyright" unicode="&#xa9;" horiz-adv-x="1626" 
d="M76 717q0 338 199.5 537.5t537.5 199.5q337 0 537 -199.5t200 -537.5q0 -337 -200 -537t-537 -200q-338 0 -537.5 200t-199.5 537zM211 717q0 -276 163 -439t439 -163q277 0 440.5 163.5t163.5 438.5q0 279 -163.5 441.5t-440.5 162.5t-439.5 -162.5t-162.5 -441.5z
M1061 1022q1 -11 -10.5 -32t-24.5 -34q-60 31 -98.5 41.5t-114.5 10.5q-102 0 -167.5 -69t-65.5 -218q0 -136 67.5 -214.5t179.5 -78.5q66 0 124.5 19t90.5 42q10 -7 18.5 -22t8.5 -31q0 -50 -47 -74q-82 -51 -203 -51q-165 0 -262.5 110.5t-97.5 299.5q0 109 30.5 191.5
t82 129t111.5 69t126 22.5q60 0 104.5 -9t65.5 -19t49 -28q33 -17 33 -55z" />
    <glyph glyph-name="ordfeminine" unicode="&#xaa;" horiz-adv-x="555" 
d="M102 1102q-20 12 -20 51q0 35 61.5 55.5t126.5 20.5q34 0 63 -6t60 -21.5t49.5 -49.5t18.5 -83v-244q0 -37 33 -37q5 0 20 5q10 -10 10 -31q0 -25 -15 -35t-46 -10q-88 0 -88 74q-90 -76 -191 -76q-73 0 -112 42.5t-39 114.5q0 59 42 95.5t120 40.5l180 12v20
q0 95 -111 95q-88 0 -162 -33zM203 801q83 0 172 61v88l-174 -18q-74 -6 -74 -62q0 -31 19.5 -50t56.5 -19z" />
    <glyph glyph-name="guillemotleft" unicode="&#xab;" horiz-adv-x="1013" 
d="M106 573l312 349q16 8 37 8q27 0 46 -21.5t19 -46.5q0 -30 -22 -55l-273 -309l287 -332q6 -24 6 -35q0 -25 -21.5 -42t-45.5 -17q-37 0 -60 30l-293 330q-16 29 -16 70t24 71zM516 573l311 349q16 8 37 8q27 0 46.5 -22t19.5 -46q0 -29 -23 -55l-272 -309l287 -332
q6 -24 6 -35q0 -25 -22 -42t-46 -17q-36 0 -59 30l-293 330q-16 29 -16 70t24 71z" />
    <glyph glyph-name="logicalnot" unicode="&#xac;" horiz-adv-x="1110" 
d="M872 262q-31 0 -50 16.5t-19 61.5v281h-676q-16 40 -16 79q0 32 16 52t49 20h770q17 -27 17 -74v-415q-21 -21 -91 -21z" />
    <glyph glyph-name="uni00AD" unicode="&#xad;" horiz-adv-x="874" 
d="M676 469h-547q-18 36 -18 74q0 78 82 78h552q17 -20 17 -70q0 -82 -86 -82z" />
    <glyph glyph-name="registered" unicode="&#xae;" horiz-adv-x="1193" 
d="M76 915q0 239 141 381t379 142t380 -142t142 -381q0 -238 -142 -379t-380 -141t-379 141t-141 379zM176 918q0 -194 113.5 -309t306.5 -115q194 0 308 115t114 309q0 195 -113.5 307t-308.5 112q-194 0 -307 -112t-113 -307zM457 1182h172q72 0 121 -38t49 -118
q0 -58 -33.5 -96.5t-83.5 -55.5q13 -17 38 -59t45 -64t42 -22h27q8 -8 8 -33q0 -55 -68 -55q-33 0 -59.5 23.5t-42 54t-39 75t-43.5 70.5h-84v-213q-10 -10 -51 -10q-49 0 -49 47v486q13 8 51 8zM614 1102h-108v-162h96q46 0 74.5 22.5t28.5 61.5q0 38 -25.5 58t-65.5 20z
" />
    <glyph glyph-name="macron" unicode="&#xaf;" horiz-adv-x="929" 
d="M680 1190h-545q-16 32 -16 53q0 37 17.5 53.5t74.5 16.5h561q16 -16 16 -49q0 -74 -108 -74z" />
    <glyph glyph-name="degree" unicode="&#xb0;" horiz-adv-x="677" 
d="M66 1161q0 113 79.5 194t192.5 81q112 0 193 -81t81 -194t-80.5 -192.5t-193.5 -79.5q-114 0 -193 79t-79 193zM170 1161q0 -71 50 -120.5t120 -49.5t120 49.5t50 120.5t-50 120.5t-120 49.5t-120 -49.5t-50 -120.5z" />
    <glyph glyph-name="plusminus" unicode="&#xb1;" horiz-adv-x="1073" 
d="M612 967v-275h334q17 -21 17 -74q0 -77 -72 -77h-279v-334q-31 -17 -73 -17q-40 0 -59 18.5t-19 65.5v267h-334q-16 32 -16 73q0 34 14.5 56t46.5 22h289v334q19 16 78 16q73 0 73 -75zM889 -20h-762q-16 36 -16 73q0 29 16 47.5t49 18.5h770q17 -24 17 -68
q0 -71 -74 -71z" />
    <glyph glyph-name="twosuperior" unicode="&#xb2;" horiz-adv-x="702" 
d="M51 1290q0 48 75.5 95t195.5 47q145 0 222 -65.5t77 -178.5q0 -77 -42.5 -155.5t-111 -143.5t-132.5 -112t-130 -85v-8l444 6q10 -20 10 -55q0 -51 -43 -51h-561q-10 23 -10 61q0 48 35 76q166 116 230 170q190 161 190 280q0 72 -49 110t-134 38q-70 0 -134 -28.5
t-89 -67.5q-43 21 -43 67z" />
    <glyph glyph-name="threesuperior" unicode="&#xb3;" horiz-adv-x="692" 
d="M483 1186q0 59 -45 94t-129 35q-70 0 -127 -24t-82 -62q-21 10 -31 23.5t-10 39.5q0 49 68 94.5t190 45.5q139 0 212 -64t73 -164q0 -67 -39 -121t-100 -69v-2q68 -10 115 -61.5t47 -135.5q0 -103 -76.5 -171.5t-229.5 -68.5q-75 0 -132 16.5t-86.5 42t-43.5 52t-14 51.5
q0 53 47 68q54 -123 223 -123q97 0 146 39.5t49 103.5q0 63 -43.5 97t-120.5 34h-43q-15 0 -23 13.5t-8 34.5q0 20 9 47q97 0 150.5 36.5t53.5 98.5z" />
    <glyph glyph-name="acute" unicode="&#xb4;" horiz-adv-x="1062" 
d="M293 1186q22 12 68 52t88.5 78t90 68.5t76.5 30.5q78 0 78 -69q-39 -21 -110 -78t-130 -98.5t-89 -41.5q-59 0 -72 58z" />
    <glyph glyph-name="mu" unicode="&#xb5;" horiz-adv-x="1234" 
d="M975 63q-63 63 -78 134q-156 -206 -367 -215q-112 -3 -165 47v-398q-22 -16 -80 -16q-72 0 -72 131v1042q0 56 -51 56h-94q-9 40 -9 65q3 78 160 78q44 0 74 -14t46 -33.5t24.5 -56.5t10 -66.5t1.5 -79.5v-334q0 -132 38.5 -199t131.5 -67q106 0 197.5 57t146.5 158v617
q35 18 88 18q39 0 56.5 -15t17.5 -46q0 -123 1 -368t1 -368q0 -32 11 -44.5t36 -12.5h80q6 -18 6 -51q0 -50 -84 -66q-43 -8 -73 2.5t-54 44.5z" />
    <glyph glyph-name="paragraph" unicode="&#xb6;" horiz-adv-x="1398" 
d="M1233 1282h-129v-1573q-22 -18 -70 -18q-84 0 -84 78v1513h-215l-2 -1321q0 -104 -56 -151.5t-138 -47.5q-35 0 -58.5 25t-23.5 61q59 12 92 42t33 90v514q-196 0 -336 137.5t-140 331.5q0 197 137 334t339 137h700q16 -24 16 -66q0 -86 -65 -86z" />
    <glyph glyph-name="periodcentered" unicode="&#xb7;" horiz-adv-x="350" 
d="M82 537q0 96 92 96q94 0 94 -96q0 -93 -94 -93q-92 0 -92 93z" />
    <glyph glyph-name="cedilla" unicode="&#xb8;" horiz-adv-x="1136" 
d="M637 -229q0 42 -39 62t-92 22q-12 12 -12 41l2 137l100 -2l-8 -105q143 -19 143 -164q0 -76 -48 -119.5t-130 -43.5q-76 0 -118 27.5t-42 62.5t39 55q14 -22 46 -37.5t69 -15.5q41 0 65.5 20.5t24.5 59.5z" />
    <glyph glyph-name="onesuperior" unicode="&#xb9;" horiz-adv-x="651" 
d="M569 584h-467q-14 24 -14 49q0 29 13.5 43t54.5 14h147v586q-41 -33 -92 -51.5t-92 -18.5q-49 0 -49 56q0 28 12 45q76 6 138 38t83 80q22 11 59 11q58 0 58 -45v-701h182q14 -14 14 -45q0 -61 -47 -61z" />
    <glyph glyph-name="ordmasculine" unicode="&#xba;" horiz-adv-x="600" 
d="M59 973q0 129 67 194.5t177 65.5t174 -65t64 -195q0 -134 -65.5 -197t-176.5 -63q-112 0 -176 63t-64 197zM164 971q0 -170 135 -170q137 0 137 170q0 86 -35.5 129t-97.5 43q-63 0 -101 -43.5t-38 -128.5z" />
    <glyph glyph-name="guillemotright" unicode="&#xbb;" horiz-adv-x="1013" 
d="M496 428l-312 -348q-16 -8 -37 -8q-27 0 -46 21.5t-19 45.5q0 31 22 56l273 309l-287 332q-6 24 -6 34q0 25 22 42.5t46 17.5q35 0 59 -31l293 -330q16 -29 16 -69q0 -42 -24 -72zM907 428l-311 -348q-16 -8 -37 -8q-27 0 -46 21.5t-19 45.5q0 31 22 56l272 309l-286 332
q-6 24 -6 34q0 25 21.5 42.5t45.5 17.5q36 0 60 -31l292 -330q17 -31 17 -69q0 -41 -25 -72z" />
    <glyph glyph-name="onequarter" unicode="&#xbc;" horiz-adv-x="1740" 
d="M1137 1434q36 0 51.5 -17t5.5 -47l-514 -1362q-28 -12 -64 -12q-78 0 -45 84l502 1343q25 11 64 11zM569 584h-467q-14 24 -14 49q0 29 13.5 43t54.5 14h147v586q-41 -33 -92 -51.5t-92 -18.5q-49 0 -49 56q0 28 12 45q76 6 138 38t83 80q22 11 59 11q58 0 58 -45v-701
h182q14 -14 14 -45q0 -61 -47 -61zM1507 598q54 0 54 -43v-287h122q13 -13 13 -49q0 -47 -39 -47h-96l2 -162q-20 -10 -64 -10q-49 0 -49 43l-2 129h-414q-10 12 -10 39q0 24 10 51l189 576q23 10 65 10q24 0 34.5 -13t4.5 -34l-172 -533h293v314q28 16 59 16z" />
    <glyph glyph-name="onehalf" unicode="&#xbd;" horiz-adv-x="1808" 
d="M1137 1434q36 0 51.5 -17t5.5 -47l-514 -1362q-28 -12 -64 -12q-78 0 -45 84l502 1343q25 11 64 11zM569 584h-467q-14 24 -14 49q0 29 13.5 43t54.5 14h147v586q-41 -33 -92 -51.5t-92 -18.5q-49 0 -49 56q0 28 12 45q76 6 138 38t83 80q22 11 59 11q58 0 58 -45v-701
h182q14 -14 14 -45q0 -61 -47 -61zM1155 707q0 48 75 94.5t195 46.5q145 0 222 -65.5t77 -178.5q0 -62 -29.5 -126.5t-73 -116.5t-102 -103t-109 -85.5t-101.5 -63.5v-9l444 6q10 -20 10 -55q0 -51 -43 -51h-561q-10 23 -10 61q0 48 35 76q169 118 236 176q183 158 184 275
q0 72 -49 109.5t-134 37.5q-70 0 -134 -28.5t-89 -67.5q-43 21 -43 68z" />
    <glyph glyph-name="threequarters" unicode="&#xbe;" horiz-adv-x="1697" 
d="M1094 1434q36 0 51.5 -17t5.5 -47l-514 -1362q-28 -12 -64 -12q-78 0 -45 84l502 1343q25 11 64 11zM483 1186q0 59 -45 94t-129 35q-70 0 -127 -24t-82 -62q-21 10 -31 23.5t-10 39.5q0 49 68 94.5t190 45.5q139 0 212 -64t73 -164q0 -67 -39 -121t-100 -69v-2
q68 -10 115 -61.5t47 -135.5q0 -103 -76.5 -171.5t-229.5 -68.5q-75 0 -132 16.5t-86.5 42t-43.5 52t-14 51.5q0 53 47 68q54 -123 223 -123q97 0 146 39.5t49 103.5q0 63 -43.5 97t-120.5 34h-43q-15 0 -23 13.5t-8 34.5q0 20 9 47q97 0 150.5 36.5t53.5 98.5zM1466 598
q54 0 54 -43v-287h122q13 -13 13 -49q0 -47 -39 -47h-96l2 -162q-20 -10 -64 -10q-49 0 -49 43l-2 129h-414q-10 12 -10 39q0 24 10 51l189 576q23 10 65 10q24 0 34.5 -13t4.5 -34l-172 -533h293v314q28 16 59 16z" />
    <glyph glyph-name="questiondown" unicode="&#xbf;" horiz-adv-x="1009" 
d="M223 20q0 -147 81.5 -217.5t221.5 -70.5q119 0 210 47.5t122 116.5q66 -24 66 -93q0 -34 -25 -72.5t-72 -74t-128 -59t-181 -23.5q-207 0 -328.5 111t-121.5 303q0 128 55 221.5t145.5 142.5t210.5 62l-12 270q24 21 78 21q60 0 63 -64l8 -266q0 -45 -16 -64
q-70 -2 -134.5 -19t-120 -50.5t-89 -90.5t-33.5 -131zM621 895q0 -96 -95 -96q-94 0 -94 96q0 45 24.5 68.5t69.5 23.5q95 0 95 -92z" />
    <glyph glyph-name="Agrave" unicode="&#xc0;" horiz-adv-x="1310" 
d="M115 0q-55 0 -78 23l528 1384q18 10 25.5 14t26.5 8.5t42 4.5q68 0 91 -62l524 -1335q-17 -37 -78 -37q-71 0 -90 63l-115 285h-674l-112 -297q-10 -28 -31 -39.5t-59 -11.5zM649 1214l-280 -731h569zM838 1630q-12 -57 -70 -57q-30 0 -89.5 41t-131.5 98t-111 78
q4 70 80 70q36 0 99.5 -48t130.5 -108t92 -74z" />
    <glyph glyph-name="Aacute" unicode="&#xc1;" horiz-adv-x="1310" 
d="M115 0q-55 0 -78 23l528 1384q18 10 25.5 14t26.5 8.5t42 4.5q68 0 91 -62l524 -1335q-17 -37 -78 -37q-71 0 -90 63l-115 285h-674l-112 -297q-10 -28 -31 -39.5t-59 -11.5zM649 1214l-280 -731h569zM463 1632q25 14 91.5 74t130.5 108t101 48q78 0 78 -70
q-39 -21 -110.5 -78t-130 -98t-88.5 -41q-60 0 -72 57z" />
    <glyph glyph-name="Acircumflex" unicode="&#xc2;" horiz-adv-x="1310" 
d="M115 0q-55 0 -78 23l528 1384q18 10 25.5 14t26.5 8.5t42 4.5q68 0 91 -62l524 -1335q-17 -37 -78 -37q-71 0 -90 63l-115 285h-674l-112 -297q-10 -28 -31 -39.5t-59 -11.5zM649 1214l-280 -731h569zM981 1634q-10 -47 -49 -53q-16 -7 -39 0q-26 7 -64.5 32t-92.5 66.5
t-81 59.5q-26 -18 -81 -59.5t-93.5 -66.5t-64.5 -32q-20 -7 -37 0q-39 6 -49 53q25 13 90.5 73t129 108.5t101.5 48.5q37 0 100.5 -47.5t131.5 -107.5t98 -75z" />
    <glyph glyph-name="Atilde" unicode="&#xc3;" horiz-adv-x="1310" 
d="M115 0q-55 0 -78 23l528 1384q18 10 25.5 14t26.5 8.5t42 4.5q68 0 91 -62l524 -1335q-17 -37 -78 -37q-71 0 -90 63l-115 285h-674l-112 -297q-10 -28 -31 -39.5t-59 -11.5zM649 1214l-280 -731h569zM485 1792q59 0 169.5 -31.5t158.5 -31.5q86 0 129 49q13 -7 25 -27
t12 -43q0 -39 -37.5 -66.5t-103.5 -27.5q-56 0 -183 29.5t-172 29.5q-38 0 -71.5 -17.5t-38.5 -35.5q-41 13 -41 63q0 36 43.5 72.5t109.5 36.5z" />
    <glyph glyph-name="Adieresis" unicode="&#xc4;" horiz-adv-x="1310" 
d="M115 0q-55 0 -78 23l528 1384q18 10 25.5 14t26.5 8.5t42 4.5q68 0 91 -62l524 -1335q-17 -37 -78 -37q-71 0 -90 63l-115 285h-674l-112 -297q-10 -28 -31 -39.5t-59 -11.5zM649 1214l-280 -731h569zM346 1706q0 94 94 94q45 0 70 -24t25 -70q0 -92 -95 -92
q-94 0 -94 92zM776 1706q0 94 92 94q95 0 95 -94q0 -92 -95 -92q-92 0 -92 92z" />
    <glyph glyph-name="Aring" unicode="&#xc5;" horiz-adv-x="1310" 
d="M115 0q-55 0 -78 23l528 1384q18 10 25.5 14t26.5 8.5t42 4.5q68 0 91 -62l524 -1335q-17 -37 -78 -37q-71 0 -90 63l-115 285h-674l-112 -297q-10 -28 -31 -39.5t-59 -11.5zM649 1214l-280 -731h569zM475 1743q0 180 180 180q89 0 135 -46.5t46 -133.5q0 -88 -46 -134
t-135 -46q-180 0 -180 180zM559 1743q0 -46 24.5 -71t71.5 -25q46 0 71.5 25t25.5 71q0 45 -26 70.5t-71 25.5q-96 0 -96 -96z" />
    <glyph glyph-name="AE" unicode="&#xc6;" horiz-adv-x="2002" 
d="M1831 0h-846q-33 0 -52.5 15.5t-19.5 60.5v272h-583l-119 -297q-10 -28 -31 -39.5t-59 -11.5q-61 0 -84 23l557 1384q40 27 166 27h1118q18 -18 18 -66q0 -39 -17 -62.5t-48 -23.5h-758v-471h684q19 -24 19 -72q0 -38 -16.5 -59t-47.5 -21h-639v-507h805q18 -18 18 -66
q0 -39 -17 -62.5t-48 -23.5zM702 1282l-319 -797h530v797h-211z" />
    <glyph glyph-name="Ccedilla" unicode="&#xc7;" horiz-adv-x="1312" 
d="M1165 301q26 2 48 -14.5t22 -50.5q0 -56 -53 -95q-161 -161 -445 -161q-136 0 -245 42.5t-191 129.5t-126 230.5t-44 334.5q0 185 43.5 326.5t123 231t187.5 134.5t242 45q168 0 271 -45t169 -125q45 -39 45 -88q0 -28 -17 -47t-42 -27q-71 90 -172 135.5t-248 45.5
q-205 0 -324.5 -148t-119.5 -440q0 -588 454 -588q277 0 422 174zM836 -229q0 42 -39 62t-92 22q-13 13 -13 41l2 137l101 -2l-9 -105q144 -19 144 -164q0 -76 -48 -119.5t-130 -43.5q-76 0 -118 27.5t-42 62.5t39 55q14 -22 46 -37.5t68 -15.5q41 0 66 20.5t25 59.5z" />
    <glyph glyph-name="Egrave" unicode="&#xc8;" horiz-adv-x="1302" 
d="M1012 659h-639v-507h805q18 -18 18 -66q0 -40 -16.5 -63t-49.5 -23h-845q-32 0 -52 15.5t-20 60.5v1341q27 17 76 17h889q18 -18 18 -66q0 -40 -16.5 -63t-49.5 -23h-757v-471h684q18 -18 18 -72q0 -80 -63 -80zM885 1630q-12 -57 -70 -57q-30 0 -89.5 41t-131.5 98
t-111 78q4 70 80 70q36 0 99.5 -48t130.5 -108t92 -74z" />
    <glyph glyph-name="Eacute" unicode="&#xc9;" horiz-adv-x="1302" 
d="M1012 659h-639v-507h805q18 -18 18 -66q0 -40 -16.5 -63t-49.5 -23h-845q-32 0 -52 15.5t-20 60.5v1341q27 17 76 17h889q18 -18 18 -66q0 -40 -16.5 -63t-49.5 -23h-757v-471h684q18 -18 18 -72q0 -80 -63 -80zM483 1632q25 14 92 74t131 108t101 48q78 0 78 -70
q-39 -21 -110.5 -78t-130.5 -98t-89 -41q-60 0 -72 57z" />
    <glyph glyph-name="Ecircumflex" unicode="&#xca;" horiz-adv-x="1302" 
d="M1012 659h-639v-507h805q18 -18 18 -66q0 -40 -16.5 -63t-49.5 -23h-845q-32 0 -52 15.5t-20 60.5v1341q27 17 76 17h889q18 -18 18 -66q0 -40 -16.5 -63t-49.5 -23h-757v-471h684q18 -18 18 -72q0 -80 -63 -80zM1024 1634q-10 -47 -49 -53q-16 -7 -39 0q-26 7 -64.5 32
t-92.5 66.5t-81 59.5q-26 -18 -81 -59.5t-93.5 -66.5t-64.5 -32q-20 -7 -37 0q-39 6 -49 53q25 13 90.5 73t129 108.5t101.5 48.5q37 0 100.5 -47.5t131.5 -107.5t98 -75z" />
    <glyph glyph-name="Edieresis" unicode="&#xcb;" horiz-adv-x="1302" 
d="M1012 659h-639v-507h805q18 -18 18 -66q0 -40 -16.5 -63t-49.5 -23h-845q-32 0 -52 15.5t-20 60.5v1341q27 17 76 17h889q18 -18 18 -66q0 -40 -16.5 -63t-49.5 -23h-757v-471h684q18 -18 18 -72q0 -80 -63 -80zM408 1706q0 94 94 94t94 -94q0 -92 -94 -92t-94 92z
M838 1706q0 94 92 94q94 0 94 -94q0 -92 -94 -92q-92 0 -92 92z" />
    <glyph glyph-name="Igrave" unicode="&#xcc;" horiz-adv-x="585" 
d="M299 1434q74 0 74 -64v-1350q-33 -20 -86 -20q-74 0 -74 76v1341q31 17 86 17zM494 1630q-12 -57 -70 -57q-30 0 -89.5 41t-131.5 98t-111 78q4 70 80 70q36 0 99.5 -48t130.5 -108t92 -74z" />
    <glyph glyph-name="Iacute" unicode="&#xcd;" horiz-adv-x="585" 
d="M299 1434q74 0 74 -64v-1350q-33 -20 -86 -20q-74 0 -74 76v1341q31 17 86 17zM92 1632q25 14 92 74t131 108t101 48q78 0 78 -70q-39 -21 -110.5 -78t-130.5 -98t-89 -41q-60 0 -72 57z" />
    <glyph glyph-name="Icircumflex" unicode="&#xce;" horiz-adv-x="585" 
d="M299 1434q74 0 74 -64v-1350q-33 -20 -86 -20q-74 0 -74 76v1341q31 17 86 17zM618 1634q-10 -47 -49 -53q-16 -7 -39 0q-26 7 -64 32t-92 66.5t-81 59.5q-26 -17 -81.5 -59t-94 -67t-64.5 -32q-20 -7 -37 0q-39 6 -49 53q25 13 91 73t129.5 108.5t101.5 48.5
q37 0 100.5 -47.5t131 -107.5t97.5 -75z" />
    <glyph glyph-name="Idieresis" unicode="&#xcf;" horiz-adv-x="585" 
d="M299 1434q74 0 74 -64v-1350q-33 -20 -86 -20q-74 0 -74 76v1341q31 17 86 17zM-14 1706q0 94 94 94t94 -94q0 -92 -94 -92t-94 92zM416 1706q0 94 92 94q94 0 94 -94q0 -92 -94 -92q-92 0 -92 92z" />
    <glyph glyph-name="Eth" unicode="&#xd0;" horiz-adv-x="1425" 
d="M293 1434h278q367 0 545 -178.5t178 -555.5q0 -153 -30 -271.5t-85.5 -199t-138.5 -132t-184.5 -74.5t-228.5 -23h-328q-49 0 -67.5 34t-18.5 105v490h-162q-18 36 -18 71q0 80 82 80h98v637q27 17 80 17zM639 629h-266v-486h248q259 0 386.5 128.5t127.5 424.5
q0 301 -135 444.5t-418 143.5h-209v-504h336q16 -22 16 -71q0 -80 -86 -80z" />
    <glyph glyph-name="Ntilde" unicode="&#xd1;" horiz-adv-x="1503" 
d="M1137 41l-772 1087l8 -1110q-22 -18 -90 -18q-20 0 -33.5 4t-25 21.5t-11.5 48.5v1343q34 17 84 17q47 0 74 -39l768 -1108l-4 1126q28 21 75 21q35 0 59.5 -15.5t24.5 -48.5v-1356q-24 -14 -82 -14q-45 0 -75 41zM582 1792q59 0 169 -31.5t158 -31.5q86 0 129 49
q13 -7 25 -27t12 -43q0 -39 -37.5 -66.5t-103.5 -27.5q-56 0 -182.5 29.5t-171.5 29.5q-38 0 -72 -17.5t-39 -35.5q-41 13 -41 63q0 36 44 72.5t110 36.5z" />
    <glyph glyph-name="Ograve" unicode="&#xd2;" horiz-adv-x="1458" 
d="M131 717q0 184 44 326t125 231.5t190.5 134.5t244.5 45q273 0 431.5 -186t158.5 -551q0 -194 -42.5 -337.5t-122 -230t-185.5 -128t-240 -41.5q-136 0 -244.5 42.5t-190 129.5t-125.5 230.5t-44 334.5zM287 715q0 -158 33 -274.5t94 -186t141.5 -102.5t181.5 -33
q432 0 432 596q0 294 -116.5 445t-317.5 151q-208 0 -328 -151.5t-120 -444.5zM930 1630q-12 -57 -70 -57q-30 0 -89.5 41t-131.5 98t-111 78q4 70 80 70q36 0 99.5 -48t130.5 -108t92 -74z" />
    <glyph glyph-name="Oacute" unicode="&#xd3;" horiz-adv-x="1458" 
d="M131 717q0 184 44 326t125 231.5t190.5 134.5t244.5 45q273 0 431.5 -186t158.5 -551q0 -194 -42.5 -337.5t-122 -230t-185.5 -128t-240 -41.5q-136 0 -244.5 42.5t-190 129.5t-125.5 230.5t-44 334.5zM287 715q0 -158 33 -274.5t94 -186t141.5 -102.5t181.5 -33
q432 0 432 596q0 294 -116.5 445t-317.5 151q-208 0 -328 -151.5t-120 -444.5zM526 1632q25 14 92 74t131 108t101 48q78 0 78 -70q-39 -21 -110.5 -78t-130.5 -98t-89 -41q-60 0 -72 57z" />
    <glyph glyph-name="Ocircumflex" unicode="&#xd4;" horiz-adv-x="1458" 
d="M131 717q0 184 44 326t125 231.5t190.5 134.5t244.5 45q273 0 431.5 -186t158.5 -551q0 -194 -42.5 -337.5t-122 -230t-185.5 -128t-240 -41.5q-136 0 -244.5 42.5t-190 129.5t-125.5 230.5t-44 334.5zM287 715q0 -158 33 -274.5t94 -186t141.5 -102.5t181.5 -33
q432 0 432 596q0 294 -116.5 445t-317.5 151q-208 0 -328 -151.5t-120 -444.5zM1055 1634q-10 -47 -49 -53q-16 -7 -39 0q-26 7 -64.5 32t-92.5 66.5t-81 59.5q-26 -17 -81.5 -59t-94 -67t-64.5 -32q-20 -7 -36 0q-40 6 -50 53q25 13 91 73t129.5 108.5t101.5 48.5
q37 0 100.5 -47.5t131.5 -107.5t98 -75z" />
    <glyph glyph-name="Otilde" unicode="&#xd5;" horiz-adv-x="1458" 
d="M131 717q0 184 44 326t125 231.5t190.5 134.5t244.5 45q273 0 431.5 -186t158.5 -551q0 -194 -42.5 -337.5t-122 -230t-185.5 -128t-240 -41.5q-136 0 -244.5 42.5t-190 129.5t-125.5 230.5t-44 334.5zM287 715q0 -158 33 -274.5t94 -186t141.5 -102.5t181.5 -33
q432 0 432 596q0 294 -116.5 445t-317.5 151q-208 0 -328 -151.5t-120 -444.5zM559 1792q59 0 169.5 -31.5t158.5 -31.5q86 0 129 49q13 -7 25 -27t12 -43q0 -39 -38 -66.5t-104 -27.5q-56 0 -182.5 29.5t-171.5 29.5q-38 0 -72 -17.5t-39 -35.5q-40 13 -40 63
q0 36 43.5 72.5t109.5 36.5z" />
    <glyph glyph-name="Odieresis" unicode="&#xd6;" horiz-adv-x="1458" 
d="M131 717q0 184 44 326t125 231.5t190.5 134.5t244.5 45q273 0 431.5 -186t158.5 -551q0 -194 -42.5 -337.5t-122 -230t-185.5 -128t-240 -41.5q-136 0 -244.5 42.5t-190 129.5t-125.5 230.5t-44 334.5zM287 715q0 -158 33 -274.5t94 -186t141.5 -102.5t181.5 -33
q432 0 432 596q0 294 -116.5 445t-317.5 151q-208 0 -328 -151.5t-120 -444.5zM420 1706q0 94 94 94t94 -94q0 -92 -94 -92t-94 92zM850 1706q0 94 92 94q94 0 94 -94q0 -92 -94 -92q-92 0 -92 92z" />
    <glyph glyph-name="multiply" unicode="&#xd7;" horiz-adv-x="964" 
d="M313 825l170 -172l236 236q22 0 55 -33q64 -64 -12 -139l-170 -170l233 -236q-2 -4 -4.5 -11t-4 -11.5t-5 -10.5t-8.5 -12.5t-12 -13.5q-19 -20 -35.5 -28t-39.5 -1t-50 33l-183 182l-235 -235q-42 17 -60 35q-20 20 -27.5 36.5t-0.5 39.5t35 51l180 180l-234 235
q0 25 31 56q65 65 141 -11z" />
    <glyph glyph-name="Oslash" unicode="&#xd8;" horiz-adv-x="1458" 
d="M131 717q0 184 44 326t125 231.5t190.5 134.5t244.5 45q116 0 217 -37l92 236q20 10 58 10q24 0 39.5 -12.5t17.5 -30.5q0 -14 -6 -29l-92 -233q128 -81 196 -243t68 -398q0 -194 -42.5 -337.5t-122 -230t-185.5 -128t-240 -41.5q-112 0 -203 26l-108 -280q-16 -7 -49 -7
q-24 0 -44 12t-20 31q0 17 8 33l103 266q-291 158 -291 656zM287 715q0 -379 200 -502l406 1069q-79 29 -158 29q-208 0 -328 -151.5t-120 -444.5zM1169 715q0 344 -178 483l-399 -1061q64 -18 145 -18q432 0 432 596z" />
    <glyph glyph-name="Ugrave" unicode="&#xd9;" horiz-adv-x="1435" 
d="M1085 541v876q27 17 80 17q80 0 80 -64v-850q0 -540 -528 -540q-265 0 -390.5 132t-125.5 408l-2 897q27 17 82 17q77 0 77 -64v-827q0 -212 84 -315t275 -103q199 0 283.5 101.5t84.5 314.5zM918 1630q-12 -57 -70 -57q-30 0 -89.5 41t-131.5 98t-111 78q4 70 80 70
q36 0 99.5 -48t130.5 -108t92 -74z" />
    <glyph glyph-name="Uacute" unicode="&#xda;" horiz-adv-x="1435" 
d="M1085 541v876q27 17 80 17q80 0 80 -64v-850q0 -540 -528 -540q-265 0 -390.5 132t-125.5 408l-2 897q27 17 82 17q77 0 77 -64v-827q0 -212 84 -315t275 -103q199 0 283.5 101.5t84.5 314.5zM516 1632q25 14 92 74t131 108t101 48q78 0 78 -70q-39 -21 -110.5 -78
t-130.5 -98t-89 -41q-60 0 -72 57z" />
    <glyph glyph-name="Ucircumflex" unicode="&#xdb;" horiz-adv-x="1435" 
d="M1085 541v876q27 17 80 17q80 0 80 -64v-850q0 -540 -528 -540q-265 0 -390.5 132t-125.5 408l-2 897q27 17 82 17q77 0 77 -64v-827q0 -212 84 -315t275 -103q199 0 283.5 101.5t84.5 314.5zM1042 1634q-10 -47 -49 -53q-16 -7 -39 0q-26 7 -64 32t-92 66.5t-81 59.5
q-26 -17 -81.5 -59t-94 -67t-64.5 -32q-20 -7 -37 0q-39 6 -49 53q25 13 91 73t129.5 108.5t101.5 48.5q37 0 100.5 -47.5t131 -107.5t97.5 -75z" />
    <glyph glyph-name="Udieresis" unicode="&#xdc;" horiz-adv-x="1435" 
d="M1085 541v876q27 17 80 17q80 0 80 -64v-850q0 -540 -528 -540q-265 0 -390.5 132t-125.5 408l-2 897q27 17 82 17q77 0 77 -64v-827q0 -212 84 -315t275 -103q199 0 283.5 101.5t84.5 314.5zM410 1706q0 94 94 94t94 -94q0 -92 -94 -92t-94 92zM840 1706q0 94 92 94
q94 0 94 -94q0 -92 -94 -92q-92 0 -92 92z" />
    <glyph glyph-name="Yacute" unicode="&#xdd;" horiz-adv-x="1210" 
d="M700 477v-459q-25 -18 -88 -18q-69 0 -69 59v412q-153 219 -276 462.5t-193 475.5q41 25 90 25q33 0 50.5 -12t27.5 -42q126 -413 385 -792q126 189 241 443t140 392q22 11 75 11q23 0 38.5 -16.5t15.5 -39.5q-3 -120 -152.5 -419t-284.5 -482zM403 1632q25 14 92 74
t131 108t101 48q78 0 78 -70q-39 -21 -110.5 -78t-130.5 -98t-89 -41q-60 0 -72 57z" />
    <glyph glyph-name="Thorn" unicode="&#xde;" horiz-adv-x="1214" 
d="M287 1434q29 0 47 -13t18 -37v-208h369q86 0 158 -25.5t127.5 -76t86.5 -132.5t31 -188q0 -101 -26 -179.5t-68.5 -127.5t-102.5 -81t-123 -44.5t-134 -12.5h-318v-293q-26 -16 -88 -16q-71 0 -71 74v1345q30 15 94 15zM696 1044h-344v-600h285q78 0 137 15t105 48.5
t70 92.5t24 143q0 150 -73 225.5t-204 75.5z" />
    <glyph glyph-name="germandbls" unicode="&#xdf;" horiz-adv-x="1261" 
d="M924 879q-36 4 -82 4q-100 0 -153.5 -38.5t-53.5 -105.5q0 -58 55 -97t174 -67q145 -34 216.5 -104t72.5 -201q0 -132 -86.5 -211t-247.5 -79q-138 0 -239 55t-101 112q0 49 31 80q46 -39 131 -71.5t178 -32.5q96 0 145.5 42t49.5 101q0 69 -45.5 109.5t-155.5 64.5
q-155 37 -236 109.5t-81 191.5t76 192.5t223 82.5q6 27 6 90q0 89 -65.5 134.5t-168.5 45.5q-56 0 -102.5 -15.5t-88 -51.5t-64.5 -105t-23 -166v-907q0 -18 -21 -29.5t-51 -11.5q-59 0 -86 18v959q0 119 36 209.5t98.5 143.5t138 78.5t163.5 25.5q79 0 146 -19t120 -57
t83 -101.5t30 -146.5q0 -158 -22 -231z" />
    <glyph glyph-name="agrave" unicode="&#xe0;" horiz-adv-x="1009" 
d="M174 793q-29 25 -29 65q0 46 55.5 81.5t131 52t151.5 16.5q72 0 132 -16t108.5 -49.5t76 -92.5t27.5 -139v-527q0 -71 52 -71h57q12 -16 12 -54q0 -59 -131 -59q-58 0 -92.5 39t-34.5 102v9q-173 -170 -354 -170q-132 0 -201 83t-69 222q0 123 70.5 196t207.5 80l346 21
v88q0 194 -213 194q-88 0 -174.5 -21.5t-128.5 -49.5zM358 115q160 0 332 159v193l-338 -33q-145 -14 -145 -151q0 -72 39 -120t112 -48zM631 1184q-13 -58 -70 -58q-30 0 -89.5 41t-131.5 98t-111 78q4 70 80 70q36 0 99.5 -47.5t130.5 -107.5t92 -74z" />
    <glyph glyph-name="aacute" unicode="&#xe1;" horiz-adv-x="1009" 
d="M174 793q-29 25 -29 65q0 46 55.5 81.5t131 52t151.5 16.5q72 0 132 -16t108.5 -49.5t76 -92.5t27.5 -139v-527q0 -71 52 -71h57q12 -16 12 -54q0 -59 -131 -59q-58 0 -92.5 39t-34.5 102v9q-173 -170 -354 -170q-132 0 -201 83t-69 222q0 123 70.5 196t207.5 80l346 21
v88q0 194 -213 194q-88 0 -174.5 -21.5t-128.5 -49.5zM358 115q160 0 332 159v193l-338 -33q-145 -14 -145 -151q0 -72 39 -120t112 -48zM338 1186q25 14 92 74t131 107.5t101 47.5q77 0 77 -69q-39 -21 -110 -78t-130 -98.5t-89 -41.5q-59 0 -72 58z" />
    <glyph glyph-name="acircumflex" unicode="&#xe2;" horiz-adv-x="1009" 
d="M174 793q-29 25 -29 65q0 46 55.5 81.5t131 52t151.5 16.5q72 0 132 -16t108.5 -49.5t76 -92.5t27.5 -139v-527q0 -71 52 -71h57q12 -16 12 -54q0 -59 -131 -59q-58 0 -92.5 39t-34.5 102v9q-173 -170 -354 -170q-132 0 -201 83t-69 222q0 123 70.5 196t207.5 80l346 21
v88q0 194 -213 194q-88 0 -174.5 -21.5t-128.5 -49.5zM358 115q160 0 332 159v193l-338 -33q-145 -14 -145 -151q0 -72 39 -120t112 -48zM805 1188q-10 -47 -49 -53q-16 -7 -39 0q-26 7 -64 31.5t-93 66t-81 59.5q-26 -17 -81.5 -59t-93.5 -66.5t-64 -31.5q-20 -7 -37 0
q-39 6 -49 53q25 13 90.5 72.5t129 108t101.5 48.5q37 0 100.5 -47.5t131.5 -107t98 -74.5z" />
    <glyph glyph-name="atilde" unicode="&#xe3;" horiz-adv-x="1009" 
d="M174 793q-29 25 -29 65q0 46 55.5 81.5t131 52t151.5 16.5q72 0 132 -16t108.5 -49.5t76 -92.5t27.5 -139v-527q0 -71 52 -71h57q12 -16 12 -54q0 -59 -131 -59q-58 0 -92.5 39t-34.5 102v9q-173 -170 -354 -170q-132 0 -201 83t-69 222q0 123 70.5 196t207.5 80l346 21
v88q0 194 -213 194q-88 0 -174.5 -21.5t-128.5 -49.5zM358 115q160 0 332 159v193l-338 -33q-145 -14 -145 -151q0 -72 39 -120t112 -48zM317 1346q59 0 169.5 -32t158.5 -32q86 0 129 49q14 -7 25.5 -26.5t11.5 -42.5q0 -39 -37.5 -67t-103.5 -28q-56 0 -183 30t-172 30
q-38 0 -71.5 -17.5t-38.5 -35.5q-41 13 -41 63q0 36 43.5 72.5t109.5 36.5z" />
    <glyph glyph-name="adieresis" unicode="&#xe4;" horiz-adv-x="1009" 
d="M174 793q-29 25 -29 65q0 46 55.5 81.5t131 52t151.5 16.5q72 0 132 -16t108.5 -49.5t76 -92.5t27.5 -139v-527q0 -71 52 -71h57q12 -16 12 -54q0 -59 -131 -59q-58 0 -92.5 39t-34.5 102v9q-173 -170 -354 -170q-132 0 -201 83t-69 222q0 123 70.5 196t207.5 80l346 21
v88q0 194 -213 194q-88 0 -174.5 -21.5t-128.5 -49.5zM358 115q160 0 332 159v193l-338 -33q-145 -14 -145 -151q0 -72 39 -120t112 -48zM174 1260q0 94 94 94t94 -94q0 -93 -94 -93t-94 93zM604 1260q0 94 92 94q95 0 95 -94q0 -93 -95 -93q-92 0 -92 93z" />
    <glyph glyph-name="aring" unicode="&#xe5;" horiz-adv-x="1009" 
d="M174 793q-29 25 -29 65q0 46 55.5 81.5t131 52t151.5 16.5q72 0 132 -16t108.5 -49.5t76 -92.5t27.5 -139v-527q0 -71 52 -71h57q12 -16 12 -54q0 -59 -131 -59q-58 0 -92.5 39t-34.5 102v9q-173 -170 -354 -170q-132 0 -201 83t-69 222q0 123 70.5 196t207.5 80l346 21
v88q0 194 -213 194q-88 0 -174.5 -21.5t-128.5 -49.5zM358 115q160 0 332 159v193l-338 -33q-145 -14 -145 -151q0 -72 39 -120t112 -48zM297 1296q0 181 180 181q88 0 134 -47t46 -134q0 -88 -45.5 -134t-134.5 -46q-180 0 -180 180zM381 1296q0 -46 24.5 -71t71.5 -25
q46 0 71 25t25 71q0 45 -25.5 71t-70.5 26q-96 0 -96 -97z" />
    <glyph glyph-name="ae" unicode="&#xe6;" horiz-adv-x="1607" 
d="M174 793q-29 25 -29 65q0 46 55.5 81.5t131 52t151.5 16.5q53 0 100.5 -9t91.5 -29t75.5 -56.5t44.5 -86.5q59 89 148.5 135t191.5 46q180 0 275 -118.5t95 -307.5q0 -67 -14 -105h-647q12 -301 237 -348q47 -6 97 -6q91 3 167 31.5t115 60.5q35 -23 35 -68
q0 -61 -97.5 -114t-269.5 -53q-123 0 -218.5 56.5t-149.5 160.5q-90 -95 -204.5 -156t-219.5 -61q-132 0 -201 83t-69 222q0 111 57.5 180.5t171.5 87.5q91 12 393 31q-2 117 -23.5 177t-64 81.5t-123.5 21.5q-88 0 -174.5 -21.5t-128.5 -49.5zM358 115q87 0 179 49.5
t176 136.5q-18 65 -21 139v27l-340 -33q-145 -14 -145 -151q0 -71 39 -119.5t112 -48.5zM1133 868q-104 0 -182.5 -71.5t-102.5 -206.5h516q0 128 -57.5 203t-173.5 75z" />
    <glyph glyph-name="ccedilla" unicode="&#xe7;" horiz-adv-x="968" 
d="M879 868q0 -41 -39 -80q-77 38 -127 51t-144 13q-61 0 -112 -19.5t-93 -60.5t-66 -113t-24 -170q0 -171 86 -268.5t226 -97.5q87 0 161.5 24.5t116.5 55.5q27 -24 27 -68q0 -57 -62 -94q-103 -61 -251 -61q-207 0 -330 138t-123 374q0 111 25.5 200.5t68 147t100.5 96.5
t119 55.5t127 16.5q73 0 128 -11t81.5 -23.5t61.5 -35.5q40 -23 43 -70zM649 -229q0 42 -39 62t-92 22q-12 12 -12 41l2 137l100 -2l-8 -105q143 -19 143 -164q0 -76 -48 -119.5t-130 -43.5q-76 0 -117.5 27.5t-41.5 62.5q0 36 38 55q14 -22 46 -37.5t69 -15.5
q41 0 65.5 20.5t24.5 59.5z" />
    <glyph glyph-name="egrave" unicode="&#xe8;" horiz-adv-x="1032" 
d="M915 477h-649q3 -170 84.5 -262t214.5 -92q99 0 188.5 29.5t131.5 62.5q35 -21 35 -68t-35 -71q-129 -96 -332 -96q-198 0 -318 139.5t-120 369.5q0 125 37 226t100 164t142.5 96t166.5 33q179 0 274 -118.5t95 -307.5q0 -64 -15 -105zM557 868q-104 0 -182.5 -71.5
t-100.5 -206.5h517q0 128 -58.5 203t-175.5 75zM713 1184q-13 -58 -70 -58q-30 0 -89.5 41t-131.5 98t-111 78q4 70 80 70q36 0 99.5 -47.5t130.5 -107.5t92 -74z" />
    <glyph glyph-name="eacute" unicode="&#xe9;" horiz-adv-x="1032" 
d="M915 477h-649q3 -170 84.5 -262t214.5 -92q99 0 188.5 29.5t131.5 62.5q35 -21 35 -68t-35 -71q-129 -96 -332 -96q-198 0 -318 139.5t-120 369.5q0 125 37 226t100 164t142.5 96t166.5 33q179 0 274 -118.5t95 -307.5q0 -64 -15 -105zM557 868q-104 0 -182.5 -71.5
t-100.5 -206.5h517q0 128 -58.5 203t-175.5 75zM420 1186q22 12 68 52t88.5 78t90 68.5t76.5 30.5q78 0 78 -69q-39 -21 -110 -78t-130 -98.5t-89 -41.5q-59 0 -72 58z" />
    <glyph glyph-name="ecircumflex" unicode="&#xea;" horiz-adv-x="1032" 
d="M915 477h-649q3 -170 84.5 -262t214.5 -92q99 0 188.5 29.5t131.5 62.5q35 -21 35 -68t-35 -71q-129 -96 -332 -96q-198 0 -318 139.5t-120 369.5q0 125 37 226t100 164t142.5 96t166.5 33q179 0 274 -118.5t95 -307.5q0 -64 -15 -105zM557 868q-104 0 -182.5 -71.5
t-100.5 -206.5h517q0 128 -58.5 203t-175.5 75zM889 1188q-10 -47 -49 -53q-16 -7 -39 0q-26 7 -64 31.5t-93 66t-81 59.5q-26 -17 -81.5 -59t-93.5 -66.5t-64 -31.5q-20 -7 -37 0q-39 6 -49 53q25 13 90.5 72.5t129 108t101.5 48.5q37 0 100.5 -47.5t131.5 -107t98 -74.5z
" />
    <glyph glyph-name="edieresis" unicode="&#xeb;" horiz-adv-x="1032" 
d="M915 477h-649q3 -170 84.5 -262t214.5 -92q99 0 188.5 29.5t131.5 62.5q35 -21 35 -68t-35 -71q-129 -96 -332 -96q-198 0 -318 139.5t-120 369.5q0 125 37 226t100 164t142.5 96t166.5 33q179 0 274 -118.5t95 -307.5q0 -64 -15 -105zM557 868q-104 0 -182.5 -71.5
t-100.5 -206.5h517q0 128 -58.5 203t-175.5 75zM258 1260q0 94 94 94t94 -94q0 -93 -94 -93t-94 93zM688 1260q0 94 92 94q94 0 94 -94q0 -93 -94 -93q-92 0 -92 93z" />
    <glyph glyph-name="igrave" unicode="&#xec;" horiz-adv-x="598" 
d="M233 987q74 0 111 -34.5t37 -125.5v-647q0 -53 47 -53h61q11 -22 11 -51q0 -76 -138 -76q-137 0 -137 139v645q0 58 -51 58h-59q-13 23 -13 61q0 42 35.5 63t95.5 21zM410 1184q-13 -58 -70 -58q-30 0 -89.5 41t-131.5 98t-111 78q4 70 80 70q36 0 99.5 -47.5
t130.5 -107.5t92 -74z" />
    <glyph glyph-name="iacute" unicode="&#xed;" horiz-adv-x="598" 
d="M233 987q74 0 111 -34.5t37 -125.5v-647q0 -53 47 -53h61q11 -22 11 -51q0 -76 -138 -76q-137 0 -137 139v645q0 58 -51 58h-59q-13 23 -13 61q0 42 35.5 63t95.5 21zM117 1186q22 12 68 52t88.5 78t90 68.5t76.5 30.5q78 0 78 -69q-39 -21 -110.5 -78t-130.5 -98.5
t-89 -41.5q-58 0 -71 58z" />
    <glyph glyph-name="icircumflex" unicode="&#xee;" horiz-adv-x="598" 
d="M233 987q74 0 111 -34.5t37 -125.5v-647q0 -53 47 -53h61q11 -22 11 -51q0 -76 -138 -76q-137 0 -137 139v645q0 58 -51 58h-59q-13 23 -13 61q0 42 35.5 63t95.5 21zM584 1188q-10 -47 -49 -53q-16 -7 -39 0q-26 7 -64 31.5t-93 66t-81 59.5q-25 -17 -81 -59
t-94.5 -66.5t-64.5 -31.5q-20 -7 -36 0q-40 6 -50 53q25 13 91 73t129.5 108t101.5 48q37 0 100.5 -47.5t131.5 -107t98 -74.5z" />
    <glyph glyph-name="idieresis" unicode="&#xef;" horiz-adv-x="598" 
d="M233 987q74 0 111 -34.5t37 -125.5v-647q0 -53 47 -53h61q11 -22 11 -51q0 -76 -138 -76q-137 0 -137 139v645q0 58 -51 58h-59q-13 23 -13 61q0 42 35.5 63t95.5 21zM-47 1260q0 94 94 94t94 -94q0 -93 -94 -93t-94 93zM383 1260q0 94 92 94q94 0 94 -94q0 -93 -94 -93
q-92 0 -92 93z" />
    <glyph glyph-name="eth" unicode="&#xf0;" horiz-adv-x="1126" 
d="M901 1212l-67 -18q174 -304 174 -629q0 -158 -31.5 -271t-92 -178t-140 -94.5t-183.5 -29.5q-103 0 -184.5 28.5t-143 89t-94.5 161t-33 237.5q0 129 33 226.5t91 154.5t130.5 84.5t159.5 27.5q148 0 260 -71q-45 119 -110 219l-211 -59q-20 20 -27 47q-2 18 -1.5 33
t19 29t58.5 26l90 24q-47 59 -113 117q16 43 47 66q71 50 113 8q64 -64 121 -146l182 52q20 -9 29 -43q15 -68 -76 -91zM848 565q0 86 -21 193q-114 108 -284 108q-125 0 -202 -89.5t-77 -270.5q0 -371 297 -371q71 0 121.5 20.5t89 69t57.5 133t19 207.5z" />
    <glyph glyph-name="ntilde" unicode="&#xf1;" horiz-adv-x="1212" 
d="M223 987q74 0 116 -41t42 -119v-30q159 211 360 211q132 0 207.5 -85.5t75.5 -252.5v-500q0 -55 39 -55h80q8 -20 8 -43q0 -33 -38 -52.5t-114 -19.5q-68 0 -100.5 33.5t-32.5 109.5v490q0 104 -46.5 160.5t-127.5 56.5q-171 0 -311 -203v-629q-27 -18 -88 -18
q-76 0 -76 80v704q0 58 -51 58h-74q-14 35 -14 67q0 78 145 78zM436 1343q59 0 169.5 -31.5t158.5 -31.5q86 0 129 49q14 -7 25.5 -26.5t11.5 -42.5q0 -39 -38 -67t-104 -28q-56 0 -182.5 30t-171.5 30q-38 0 -71.5 -18t-38.5 -36q-41 13 -41 64q0 36 43.5 72t109.5 36z" />
    <glyph glyph-name="ograve" unicode="&#xf2;" 
d="M115 492q0 255 124.5 385.5t331.5 130.5q206 0 323.5 -129.5t117.5 -386.5q0 -137 -33 -237t-94 -159.5t-141.5 -87.5t-182.5 -28q-101 0 -181 29t-140 89t-92.5 160t-32.5 234zM276 489q0 -366 285 -366q139 0 214 85.5t75 280.5q0 186 -73.5 279.5t-205.5 93.5
q-135 0 -215 -95t-80 -278zM725 1182q-13 -58 -70 -58q-30 0 -89 41t-131 98t-111 78q4 70 79 70q36 0 99.5 -47.5t130.5 -107.5t92 -74z" />
    <glyph glyph-name="oacute" unicode="&#xf3;" 
d="M115 492q0 255 124.5 385.5t331.5 130.5q206 0 323.5 -129.5t117.5 -386.5q0 -137 -33 -237t-94 -159.5t-141.5 -87.5t-182.5 -28q-101 0 -181 29t-140 89t-92.5 160t-32.5 234zM276 489q0 -366 285 -366q139 0 214 85.5t75 280.5q0 186 -73.5 279.5t-205.5 93.5
q-135 0 -215 -95t-80 -278zM432 1184q25 14 92 74t131 107.5t101 47.5q78 0 78 -70q-39 -21 -110.5 -78t-130.5 -98t-89 -41q-59 0 -72 58z" />
    <glyph glyph-name="ocircumflex" unicode="&#xf4;" 
d="M115 492q0 255 124.5 385.5t331.5 130.5q206 0 323.5 -129.5t117.5 -386.5q0 -137 -33 -237t-94 -159.5t-141.5 -87.5t-182.5 -28q-101 0 -181 29t-140 89t-92.5 160t-32.5 234zM276 489q0 -366 285 -366q139 0 214 85.5t75 280.5q0 186 -73.5 279.5t-205.5 93.5
q-135 0 -215 -95t-80 -278zM899 1186q-10 -47 -49 -53q-16 -7 -39 0q-26 7 -64 31.5t-93 66t-81 59.5q-26 -17 -81.5 -59t-93.5 -66.5t-64 -31.5q-20 -7 -37 0q-39 6 -49 53q25 13 90.5 72.5t129 108t101.5 48.5q37 0 100.5 -47.5t131.5 -107t98 -74.5z" />
    <glyph glyph-name="otilde" unicode="&#xf5;" 
d="M115 492q0 255 124.5 385.5t331.5 130.5q206 0 323.5 -129.5t117.5 -386.5q0 -137 -33 -237t-94 -159.5t-141.5 -87.5t-182.5 -28q-101 0 -181 29t-140 89t-92.5 160t-32.5 234zM276 489q0 -366 285 -366q139 0 214 85.5t75 280.5q0 186 -73.5 279.5t-205.5 93.5
q-135 0 -215 -95t-80 -278zM412 1343q59 0 169 -31.5t158 -31.5q86 0 129 49q14 -7 25.5 -26.5t11.5 -42.5q0 -39 -37.5 -67t-103.5 -28q-56 0 -182.5 30t-171.5 30q-38 0 -72 -18t-39 -36q-41 13 -41 64q0 36 44 72t110 36z" />
    <glyph glyph-name="odieresis" unicode="&#xf6;" 
d="M115 492q0 255 124.5 385.5t331.5 130.5q206 0 323.5 -129.5t117.5 -386.5q0 -137 -33 -237t-94 -159.5t-141.5 -87.5t-182.5 -28q-101 0 -181 29t-140 89t-92.5 160t-32.5 234zM276 489q0 -366 285 -366q139 0 214 85.5t75 280.5q0 186 -73.5 279.5t-205.5 93.5
q-135 0 -215 -95t-80 -278zM268 1257q0 95 94 95q45 0 70 -24t25 -71q0 -92 -95 -92q-94 0 -94 92zM698 1257q0 95 93 95q94 0 94 -95q0 -92 -94 -92q-93 0 -93 92z" />
    <glyph glyph-name="divide" unicode="&#xf7;" horiz-adv-x="1073" 
d="M444 125q0 96 93 96q94 0 94 -96q0 -92 -94 -92q-93 0 -93 92zM444 899q0 96 93 96q94 0 94 -96q0 -92 -94 -92q-93 0 -93 92zM889 442h-762q-16 40 -16 80q0 32 16 52t49 20h770q17 -27 17 -74q0 -78 -74 -78z" />
    <glyph glyph-name="oslash" unicode="&#xf8;" 
d="M115 492q0 255 124.5 385.5t331.5 130.5q47 0 107 -11l82 260q31 9 49 9q38 0 41 -29q0 -18 -6 -33l-74 -235q242 -104 242 -477q0 -137 -33 -237t-94 -159.5t-141.5 -87.5t-182.5 -28q-49 0 -104 10l-62 -203q-24 -12 -55 -12t-37 22q-2 11 6 43l56 174
q-250 99 -250 478zM276 489q0 -251 140 -323l215 690q-30 6 -60 6q-135 0 -215 -95t-80 -278zM850 489q0 239 -133 320l-213 -684q18 -2 57 -2q139 0 214 85.5t75 280.5z" />
    <glyph glyph-name="ugrave" unicode="&#xf9;" horiz-adv-x="1212" 
d="M985 0q-65 0 -102 35.5t-37 126.5v18q-153 -200 -365 -200q-274 0 -274 329v479q0 56 -47 56h-90q-9 40 -9 65q3 78 158 78q80 0 116 -33t36 -110v-500q0 -207 157 -207q191 0 318 217v615q34 18 88 18q76 0 76 -61v-736q0 -32 12 -44.5t35 -12.5h76q6 -36 6 -51
q0 -38 -40 -60t-114 -22zM735 1182q-13 -58 -69 -58q-30 0 -89.5 41t-131.5 98t-111 78q4 70 80 70q28 0 75 -30.5t89.5 -68.5t88.5 -78t68 -52z" />
    <glyph glyph-name="uacute" unicode="&#xfa;" horiz-adv-x="1212" 
d="M985 0q-65 0 -102 35.5t-37 126.5v18q-153 -200 -365 -200q-274 0 -274 329v479q0 56 -47 56h-90q-9 40 -9 65q3 78 158 78q80 0 116 -33t36 -110v-500q0 -207 157 -207q191 0 318 217v615q34 18 88 18q76 0 76 -61v-736q0 -32 12 -44.5t35 -12.5h76q6 -36 6 -51
q0 -38 -40 -60t-114 -22zM442 1184q25 14 92 74t131 107.5t101 47.5q78 0 78 -70q-39 -21 -110.5 -78t-130.5 -98t-89 -41q-59 0 -72 58z" />
    <glyph glyph-name="ucircumflex" unicode="&#xfb;" horiz-adv-x="1212" 
d="M985 0q-65 0 -102 35.5t-37 126.5v18q-153 -200 -365 -200q-274 0 -274 329v479q0 56 -47 56h-90q-9 40 -9 65q3 78 158 78q80 0 116 -33t36 -110v-500q0 -207 157 -207q191 0 318 217v615q34 18 88 18q76 0 76 -61v-736q0 -32 12 -44.5t35 -12.5h76q6 -36 6 -51
q0 -38 -40 -60t-114 -22zM911 1186q-10 -47 -49 -53q-16 -7 -39 0q-26 7 -64 32t-92 66t-81 59q-25 -17 -81 -59t-94.5 -66.5t-64.5 -31.5q-20 -7 -37 0q-39 6 -49 53q25 13 91 73t129.5 108t101.5 48q37 0 100.5 -47.5t131 -107t97.5 -74.5z" />
    <glyph glyph-name="udieresis" unicode="&#xfc;" horiz-adv-x="1212" 
d="M985 0q-65 0 -102 35.5t-37 126.5v18q-153 -200 -365 -200q-274 0 -274 329v479q0 56 -47 56h-90q-9 40 -9 65q3 78 158 78q80 0 116 -33t36 -110v-500q0 -207 157 -207q191 0 318 217v615q34 18 88 18q76 0 76 -61v-736q0 -32 12 -44.5t35 -12.5h76q6 -36 6 -51
q0 -38 -40 -60t-114 -22zM281 1257q0 95 94 95q45 0 69.5 -24t24.5 -71q0 -92 -94 -92t-94 92zM711 1257q0 95 92 95q94 0 94 -95q0 -92 -94 -92q-92 0 -92 92z" />
    <glyph glyph-name="yacute" unicode="&#xfd;" horiz-adv-x="1105" 
d="M299 879l254 -672q14 -44 47 -51q103 203 177.5 388.5t74.5 262.5q0 55 -49 55h-74q-10 20 -10 56q0 31 36 50t89 19q164 0 164 -143q0 -138 -150 -473t-272 -529q-81 -129 -171 -178t-208 -49q-141 0 -141 80q0 33 12 57h151q66 0 121 32t113 124l65 115q-32 6 -57 31.5
t-39 64.5l-270 702q-14 41 -51 41h-76q-10 20 -10 56q0 32 34 50.5t97 18.5q60 0 91.5 -25.5t51.5 -82.5zM395 1186q25 14 92 74t131 107.5t101 47.5q78 0 78 -69q-39 -21 -110.5 -78t-130.5 -98.5t-89 -41.5q-59 0 -72 58z" />
    <glyph glyph-name="thorn" unicode="&#xfe;" horiz-adv-x="1150" 
d="M285 1434q71 0 71 -56v-540q64 78 146 124t170 46q59 0 109.5 -14t98 -49t81 -90.5t54 -143t21.5 -201.5q0 -131 -32.5 -234t-88.5 -166.5t-126.5 -96.5t-149.5 -33q-168 0 -283 120v-483q-27 -16 -82 -16q-75 0 -75 80v1738q43 15 86 15zM629 846q-153 0 -273 -152v-428
q110 -139 254 -139q122 0 197.5 93t75.5 274q0 85 -15 149.5t-38.5 102t-57.5 61t-68 31.5t-75 8z" />
    <glyph glyph-name="ydieresis" unicode="&#xff;" horiz-adv-x="1105" 
d="M299 879l254 -672q14 -44 47 -51q103 203 177.5 388.5t74.5 262.5q0 55 -49 55h-74q-10 20 -10 56q0 31 36 50t89 19q164 0 164 -143q0 -138 -150 -473t-272 -529q-81 -129 -171 -178t-208 -49q-141 0 -141 80q0 33 12 57h151q66 0 121 32t113 124l65 115q-32 6 -57 31.5
t-39 64.5l-270 702q-14 41 -51 41h-76q-10 20 -10 56q0 32 34 50.5t97 18.5q60 0 91.5 -25.5t51.5 -82.5zM231 1260q0 94 95 94q94 0 94 -94q0 -93 -94 -93q-95 0 -95 93zM662 1260q0 94 92 94q94 0 94 -94q0 -93 -94 -93q-92 0 -92 93z" />
    <glyph glyph-name="Amacron" unicode="&#x100;" horiz-adv-x="1310" 
d="M115 0q-55 0 -78 23l528 1384q18 10 25.5 14t26.5 8.5t42 4.5q68 0 91 -62l524 -1335q-17 -37 -78 -37q-71 0 -90 63l-115 285h-674l-112 -297q-10 -28 -31 -39.5t-59 -11.5zM649 1214l-280 -731h569zM883 1636h-545q-16 32 -16 54q0 36 17.5 52.5t74.5 16.5h561
q16 -16 16 -49q0 -74 -108 -74z" />
    <glyph glyph-name="amacron" unicode="&#x101;" horiz-adv-x="1009" 
d="M174 793q-29 25 -29 65q0 46 55.5 81.5t131 52t151.5 16.5q72 0 132 -16t108.5 -49.5t76 -92.5t27.5 -139v-527q0 -71 52 -71h57q12 -16 12 -54q0 -59 -131 -59q-58 0 -92.5 39t-34.5 102v9q-173 -170 -354 -170q-132 0 -201 83t-69 222q0 123 70.5 196t207.5 80l346 21
v88q0 194 -213 194q-88 0 -174.5 -21.5t-128.5 -49.5zM358 115q160 0 332 159v193l-338 -33q-145 -14 -145 -151q0 -72 39 -120t112 -48zM711 1190h-545q-16 32 -16 53q0 37 17.5 53.5t74.5 16.5h561q16 -16 16 -49q0 -74 -108 -74z" />
    <glyph glyph-name="Abreve" unicode="&#x102;" horiz-adv-x="1310" 
d="M115 0q-55 0 -78 23l528 1384q18 10 25.5 14t26.5 8.5t42 4.5q68 0 91 -62l524 -1335q-17 -37 -78 -37q-71 0 -90 63l-115 285h-674l-112 -297q-10 -28 -31 -39.5t-59 -11.5zM649 1214l-280 -731h569zM475 1829q3 -65 45 -103q43 -40 135 -40q88 0 129 38q41 36 50 103
q18 15 59 12q28 0 40 -14.5t9 -34.5q-13 -89 -80 -150q-70 -61 -207 -61q-132 0 -206 59q-77 62 -84 156q-3 44 47 47q34 3 63 -12z" />
    <glyph glyph-name="abreve" unicode="&#x103;" horiz-adv-x="1009" 
d="M174 793q-29 25 -29 65q0 46 55.5 81.5t131 52t151.5 16.5q72 0 132 -16t108.5 -49.5t76 -92.5t27.5 -139v-527q0 -71 52 -71h57q12 -16 12 -54q0 -59 -131 -59q-58 0 -92.5 39t-34.5 102v9q-173 -170 -354 -170q-132 0 -201 83t-69 222q0 123 70.5 196t207.5 80l346 21
v88q0 194 -213 194q-88 0 -174.5 -21.5t-128.5 -49.5zM358 115q160 0 332 159v193l-338 -33q-145 -14 -145 -151q0 -72 39 -120t112 -48zM297 1382q3 -64 45 -102q44 -41 135 -41q87 0 129 39q40 36 49 102q19 16 60 13q27 0 39.5 -14.5t9.5 -35.5q-13 -88 -80 -149
q-70 -61 -207 -61q-133 0 -207 59q-77 62 -84 156q-3 44 47 47q33 2 64 -13z" />
    <glyph glyph-name="Aogonek" unicode="&#x104;" horiz-adv-x="1310" 
d="M750 1372l526 -1337q-37 -48 -58.5 -79t-42 -73t-20.5 -71q0 -49 29.5 -67.5t85.5 -18.5q8 -19 8 -45q0 -48 -68 -48q-62 0 -109.5 38t-47.5 118q0 107 100 229q-40 13 -57 66l-105 264h-674l-112 -297q-10 -28 -31 -39.5t-59 -11.5q-55 0 -78 23l528 1384q18 10 25.5 14
t26.5 8.5t42 4.5q68 0 91 -62zM649 1214l-280 -731h569z" />
    <glyph glyph-name="aogonek" unicode="&#x105;" horiz-adv-x="1009" 
d="M174 793q-29 25 -29 65q0 46 55.5 81.5t131 52t151.5 16.5q167 0 255.5 -78t88.5 -264v-482q0 -71 52 -71h57q12 -16 12 -54q0 -19 -20 -39q-37 -36 -68 -94t-31 -96q0 -48 29 -68t84 -20q10 -15 10 -43q0 -49 -67 -49q-62 0 -110 38t-48 117q0 94 68 195q-50 7 -72.5 45
t-28.5 115q-79 -83 -171.5 -131.5t-186.5 -48.5q-132 0 -201 83t-69 222q0 114 61.5 184.5t181.5 87.5q52 6 111.5 10.5t149.5 9.5t118 7q-3 118 -24 177.5t-63 81t-124 21.5q-88 0 -174.5 -21.5t-128.5 -49.5zM358 115q165 0 332 170v182l-338 -33q-145 -14 -145 -151
q0 -71 39 -119.5t112 -48.5z" />
    <glyph glyph-name="Cacute" unicode="&#x106;" horiz-adv-x="1312" 
d="M1165 301q26 2 48 -14.5t22 -50.5q0 -56 -53 -95q-161 -161 -445 -161q-136 0 -245 42.5t-191 129.5t-126 230.5t-44 334.5q0 185 43.5 326.5t123 231t187.5 134.5t242 45q168 0 271 -45t169 -125q45 -39 45 -88q0 -28 -17 -47t-42 -27q-71 90 -172 135.5t-248 45.5
q-205 0 -324.5 -148t-119.5 -440q0 -588 454 -588q277 0 422 174zM522 1632q25 14 92 74t131 108t101 48q78 0 78 -70q-39 -21 -110.5 -78t-130.5 -98t-89 -41q-60 0 -72 57z" />
    <glyph glyph-name="cacute" unicode="&#x107;" horiz-adv-x="968" 
d="M879 868q0 -41 -39 -80q-77 38 -127 51t-144 13q-61 0 -112 -19.5t-93 -60.5t-66 -113t-24 -170q0 -171 86 -268.5t226 -97.5q87 0 161.5 24.5t116.5 55.5q27 -24 27 -68q0 -57 -62 -94q-103 -61 -251 -61q-207 0 -330 138t-123 374q0 111 25.5 200.5t68 147t100.5 96.5
t119 55.5t127 16.5q73 0 128 -11t81.5 -23.5t61.5 -35.5q40 -23 43 -70zM422 1186q22 12 68 52t88.5 78t90 68.5t76.5 30.5q78 0 78 -69q-39 -21 -110 -78t-130 -98.5t-89 -41.5q-59 0 -72 58z" />
    <glyph glyph-name="Ccircumflex" unicode="&#x108;" horiz-adv-x="1312" 
d="M1165 301q26 2 48 -14.5t22 -50.5q0 -56 -53 -95q-161 -161 -445 -161q-136 0 -245 42.5t-191 129.5t-126 230.5t-44 334.5q0 185 43.5 326.5t123 231t187.5 134.5t242 45q168 0 271 -45t169 -125q45 -39 45 -88q0 -28 -17 -47t-42 -27q-71 90 -172 135.5t-248 45.5
q-205 0 -324.5 -148t-119.5 -440q0 -588 454 -588q277 0 422 174zM1067 1634q-10 -47 -49 -53q-16 -7 -39 0q-26 7 -64.5 32t-92.5 66.5t-81 59.5q-26 -18 -81 -59.5t-93.5 -66.5t-64.5 -32q-20 -7 -37 0q-39 6 -49 53q25 13 90.5 73t129 108.5t101.5 48.5q37 0 100.5 -47.5
t131.5 -107.5t98 -75z" />
    <glyph glyph-name="ccircumflex" unicode="&#x109;" horiz-adv-x="968" 
d="M879 868q0 -41 -39 -80q-77 38 -127 51t-144 13q-61 0 -112 -19.5t-93 -60.5t-66 -113t-24 -170q0 -171 86 -268.5t226 -97.5q87 0 161.5 24.5t116.5 55.5q27 -24 27 -68q0 -57 -62 -94q-103 -61 -251 -61q-207 0 -330 138t-123 374q0 111 25.5 200.5t68 147t100.5 96.5
t119 55.5t127 16.5q73 0 128 -11t81.5 -23.5t61.5 -35.5q40 -23 43 -70zM891 1188q-10 -47 -49 -53q-16 -7 -39 0q-26 7 -64 31.5t-93 66t-81 59.5q-26 -17 -81.5 -59t-93.5 -66.5t-64 -31.5q-20 -7 -37 0q-39 6 -49 53q25 13 90.5 72.5t129 108t101.5 48.5
q37 0 100.5 -47.5t131.5 -107t98 -74.5z" />
    <glyph glyph-name="Cdotaccent" unicode="&#x10a;" horiz-adv-x="1312" 
d="M1165 301q26 2 48 -14.5t22 -50.5q0 -56 -53 -95q-161 -161 -445 -161q-136 0 -245 42.5t-191 129.5t-126 230.5t-44 334.5q0 185 43.5 326.5t123 231t187.5 134.5t242 45q168 0 271 -45t169 -125q45 -39 45 -88q0 -28 -17 -47t-42 -27q-71 90 -172 135.5t-248 45.5
q-205 0 -324.5 -148t-119.5 -440q0 -588 454 -588q277 0 422 174zM651 1700q0 96 92 96q95 0 95 -96q0 -92 -95 -92q-92 0 -92 92z" />
    <glyph glyph-name="cdotaccent" unicode="&#x10b;" horiz-adv-x="968" 
d="M879 868q0 -41 -39 -80q-77 38 -127 51t-144 13q-61 0 -112 -19.5t-93 -60.5t-66 -113t-24 -170q0 -171 86 -268.5t226 -97.5q87 0 161.5 24.5t116.5 55.5q27 -24 27 -68q0 -57 -62 -94q-103 -61 -251 -61q-207 0 -330 138t-123 374q0 111 25.5 200.5t68 147t100.5 96.5
t119 55.5t127 16.5q73 0 128 -11t81.5 -23.5t61.5 -35.5q40 -23 43 -70zM469 1264q0 94 94 94t94 -94q0 -95 -94 -95t-94 95z" />
    <glyph glyph-name="Ccaron" unicode="&#x10c;" horiz-adv-x="1312" 
d="M1165 301q26 2 48 -14.5t22 -50.5q0 -56 -53 -95q-161 -161 -445 -161q-136 0 -245 42.5t-191 129.5t-126 230.5t-44 334.5q0 185 43.5 326.5t123 231t187.5 134.5t242 45q168 0 271 -45t169 -125q45 -39 45 -88q0 -28 -17 -47t-42 -27q-71 90 -172 135.5t-248 45.5
q-205 0 -324.5 -148t-119.5 -440q0 -588 454 -588q277 0 422 174zM727 1577q-22 0 -35 10q-41 18 -147 101.5t-148 105.5q2 30 24.5 50t55.5 20q12 0 27 -5t35 -17.5t35 -22t41 -31t37.5 -31t41 -34.5t35.5 -31q11 9 36.5 31t40.5 34.5t39 31.5t40.5 30t35.5 22.5t34.5 17
t27.5 5.5q32 0 55 -20.5t25 -49.5q-42 -22 -148 -105t-147 -102q-20 -10 -41 -10z" />
    <glyph glyph-name="ccaron" unicode="&#x10d;" horiz-adv-x="968" 
d="M879 868q0 -41 -39 -80q-77 38 -127 51t-144 13q-61 0 -112 -19.5t-93 -60.5t-66 -113t-24 -170q0 -171 86 -268.5t226 -97.5q87 0 161.5 24.5t116.5 55.5q27 -24 27 -68q0 -57 -62 -94q-103 -61 -251 -61q-207 0 -330 138t-123 374q0 111 25.5 200.5t68 147t100.5 96.5
t119 55.5t127 16.5q73 0 128 -11t81.5 -23.5t61.5 -35.5q40 -23 43 -70zM559 1130q-20 0 -35 11q-41 18 -147 101.5t-148 105.5q2 30 24.5 49.5t55.5 19.5q12 0 27 -5t35 -17.5t35 -22t41 -31t37.5 -31t41 -34.5t35.5 -31q11 9 36.5 31t40.5 34.5t39 31.5t40.5 30t35.5 22.5
t34.5 17t27.5 5.5q32 0 55.5 -20t24.5 -49q-42 -22 -148 -105t-147 -102q-22 -11 -41 -11z" />
    <glyph glyph-name="Dcaron" unicode="&#x10e;" horiz-adv-x="1425" 
d="M293 1434h278q367 0 545 -178.5t178 -555.5q0 -153 -30 -271.5t-85.5 -199t-138.5 -132t-184.5 -74.5t-228.5 -23h-334q-38 0 -59 15.5t-21 58.5v1343q27 17 80 17zM582 1284h-209v-1141h248q259 0 386.5 128.5t127.5 424.5q0 301 -135 444.5t-418 143.5zM651 1577
q-22 0 -35 10q-41 18 -146.5 101.5t-147.5 105.5q2 30 24 50t55 20q12 0 27 -5t35 -17.5t35 -22t41 -31t37.5 -31t41 -34.5t35.5 -31q11 9 36.5 31t40.5 34.5t39 31.5t40.5 30t35.5 22.5t34.5 17t27.5 5.5q32 0 55 -20.5t25 -49.5q-42 -22 -148 -105t-147 -102
q-20 -10 -41 -10z" />
    <glyph glyph-name="dcaron" unicode="&#x10f;" horiz-adv-x="1177" 
d="M961 0q-55 0 -96.5 24t-61.5 72q-129 -116 -293 -116q-81 0 -150 28.5t-125 87.5t-88 159.5t-32 233.5q0 107 24 195t64 147.5t94 100t112.5 58.5t120.5 18q162 0 261 -99v465q0 28 16.5 44t46.5 16q55 0 84 -21v-1223q0 -69 63 -69h66q12 -24 12 -53q0 -30 -30 -49
t-88 -19zM532 123q155 0 259 94v528q-48 55 -101.5 79t-140.5 24q-51 0 -99 -19.5t-90.5 -59.5t-68 -110.5t-25.5 -162.5q0 -186 73.5 -279.5t192.5 -93.5zM1163 1245q-45 0 -69.5 23.5t-24.5 68.5q0 97 94 97q50 0 75.5 -32t25.5 -110q0 -111 -31 -176t-74 -65
q-45 0 -53 34q26 25 41.5 74.5t15.5 85.5z" />
    <glyph glyph-name="Dcroat" unicode="&#x110;" horiz-adv-x="1425" 
d="M293 1434h278q367 0 545 -178.5t178 -555.5q0 -153 -30 -271.5t-85.5 -199t-138.5 -132t-184.5 -74.5t-228.5 -23h-328q-49 0 -67.5 34t-18.5 105v490h-162q-18 36 -18 71q0 80 82 80h98v637q27 17 80 17zM639 629h-266v-486h248q259 0 386.5 128.5t127.5 424.5
q0 301 -135 444.5t-418 143.5h-209v-504h336q16 -22 16 -71q0 -80 -86 -80z" />
    <glyph glyph-name="dcroat" unicode="&#x111;" horiz-adv-x="1153" 
d="M1059 1145h-121v-955q0 -69 63 -69h66q12 -24 12 -53q0 -24 -22 -41t-62 -23q-35 -3 -71 0q-87 13 -111 100q-120 -116 -276 -122h-66q-74 6 -136.5 38t-112.5 91t-78.5 156t-28.5 222q0 107 24 195t64 147.5t94 100t112.5 58.5t120.5 18q155 0 261 -103v240h-281
q-14 35 -14 63q0 58 53 58h242v108q0 28 16.5 44t46.5 16q55 0 84 -21v-147h162q12 -18 12 -64q0 -57 -53 -57zM532 123q157 0 259 106v514q-50 57 -102 81t-140 24q-51 0 -99 -19.5t-90.5 -59.5t-68 -110.5t-25.5 -162.5q0 -186 73.5 -279.5t192.5 -93.5z" />
    <glyph glyph-name="Emacron" unicode="&#x112;" horiz-adv-x="1302" 
d="M1012 659h-639v-507h805q18 -18 18 -66q0 -40 -16.5 -63t-49.5 -23h-845q-32 0 -52 15.5t-20 60.5v1341q27 17 76 17h889q18 -18 18 -66q0 -40 -16.5 -63t-49.5 -23h-757v-471h684q18 -18 18 -72q0 -80 -63 -80zM934 1636h-545q-16 32 -16 54q0 36 17.5 52.5t74.5 16.5
h561q16 -16 16 -49q0 -74 -108 -74z" />
    <glyph glyph-name="emacron" unicode="&#x113;" horiz-adv-x="1032" 
d="M915 477h-649q3 -170 84.5 -262t214.5 -92q99 0 188.5 29.5t131.5 62.5q35 -21 35 -68t-35 -71q-129 -96 -332 -96q-198 0 -318 139.5t-120 369.5q0 125 37 226t100 164t142.5 96t166.5 33q179 0 274 -118.5t95 -307.5q0 -64 -15 -105zM557 868q-104 0 -182.5 -71.5
t-100.5 -206.5h517q0 128 -58.5 203t-175.5 75zM793 1190h-545q-1 2 -5.5 10.5t-6 12.5t-3.5 12t-2 18q0 36 18 53t75 17h561q16 -16 16 -49q0 -74 -108 -74z" />
    <glyph glyph-name="Ebreve" unicode="&#x114;" horiz-adv-x="1302" 
d="M1012 659h-639v-507h805q18 -18 18 -66q0 -40 -16.5 -63t-49.5 -23h-845q-32 0 -52 15.5t-20 60.5v1341q27 17 76 17h889q18 -18 18 -66q0 -40 -16.5 -63t-49.5 -23h-757v-471h684q18 -18 18 -72q0 -80 -63 -80zM526 1829q3 -65 45 -103q43 -40 136 -40q88 0 129 38
q40 35 49 103q18 15 59 12q28 0 40 -14.5t9 -34.5q-13 -89 -80 -150q-70 -61 -206 -61q-133 0 -207 59q-77 62 -84 156q-3 44 47 47q34 3 63 -12z" />
    <glyph glyph-name="ebreve" unicode="&#x115;" horiz-adv-x="1032" 
d="M915 477h-649q3 -170 84.5 -262t214.5 -92q99 0 188.5 29.5t131.5 62.5q35 -21 35 -68t-35 -71q-129 -96 -332 -96q-198 0 -318 139.5t-120 369.5q0 125 37 226t100 164t142.5 96t166.5 33q179 0 274 -118.5t95 -307.5q0 -64 -15 -105zM557 868q-104 0 -182.5 -71.5
t-100.5 -206.5h517q0 128 -58.5 203t-175.5 75zM381 1382q3 -64 45 -102q44 -41 135 -41q87 0 129 39q40 36 49 102q19 16 60 13q27 0 39.5 -14.5t9.5 -35.5q-13 -88 -80 -149q-70 -61 -207 -61q-133 0 -207 59q-77 62 -84 156q-3 44 47 47q33 2 64 -13z" />
    <glyph glyph-name="Edotaccent" unicode="&#x116;" horiz-adv-x="1302" 
d="M1012 659h-639v-507h805q18 -18 18 -66q0 -40 -16.5 -63t-49.5 -23h-845q-32 0 -52 15.5t-20 60.5v1341q27 17 76 17h889q18 -18 18 -66q0 -40 -16.5 -63t-49.5 -23h-757v-471h684q18 -18 18 -72q0 -80 -63 -80zM629 1700q0 96 92 96q94 0 94 -96q0 -92 -94 -92
q-92 0 -92 92z" />
    <glyph glyph-name="edotaccent" unicode="&#x117;" horiz-adv-x="1032" 
d="M915 477h-649q3 -170 84.5 -262t214.5 -92q99 0 188.5 29.5t131.5 62.5q35 -21 35 -68t-35 -71q-129 -96 -332 -96q-198 0 -318 139.5t-120 369.5q0 125 37 226t100 164t142.5 96t166.5 33q179 0 274 -118.5t95 -307.5q0 -64 -15 -105zM557 868q-104 0 -182.5 -71.5
t-100.5 -206.5h517q0 128 -58.5 203t-175.5 75zM467 1264q0 94 94 94t94 -94q0 -95 -94 -95t-94 95z" />
    <glyph glyph-name="Eogonek" unicode="&#x118;" horiz-adv-x="1302" 
d="M1012 659h-639v-507h809q14 -21 14 -64q0 -42 -31 -84q-40 -44 -70 -99t-30 -93q0 -49 29.5 -67.5t85.5 -18.5q10 -23 10 -45q0 -48 -70 -48q-69 0 -119.5 36.5t-50.5 115.5q0 96 90 215h-755q-32 0 -52 15.5t-20 60.5v1341q27 17 76 17h889q18 -18 18 -66
q0 -40 -16.5 -63t-49.5 -23h-757v-471h684q18 -18 18 -72q0 -80 -63 -80z" />
    <glyph glyph-name="eogonek" unicode="&#x119;" horiz-adv-x="1032" 
d="M915 477h-647q6 -170 84 -262t213 -92q99 0 188.5 29.5t131.5 62.5q35 -21 35 -68q0 -36 -33 -69q-43 -35 -72 -95t-29 -100q0 -51 28.5 -69.5t84.5 -18.5q10 -17 10 -45q0 -47 -67 -47q-62 0 -110 38.5t-48 117.5q0 63 37 143q-83 -22 -168 -22q-198 0 -318 139.5
t-120 369.5q0 125 37 226t100 164t142.5 96t166.5 33q179 0 274 -118.5t95 -307.5q0 -64 -15 -105zM557 868q-104 0 -182.5 -71.5t-102.5 -206.5h519q0 128 -58.5 203t-175.5 75z" />
    <glyph glyph-name="Ecaron" unicode="&#x11a;" horiz-adv-x="1302" 
d="M1012 659h-639v-507h805q18 -18 18 -66q0 -40 -16.5 -63t-49.5 -23h-845q-32 0 -52 15.5t-20 60.5v1341q27 17 76 17h889q18 -18 18 -66q0 -40 -16.5 -63t-49.5 -23h-757v-471h684q18 -18 18 -72q0 -80 -63 -80zM702 1577q-21 0 -34 10q-41 18 -147 101.5t-148 105.5
q2 30 24.5 50t55.5 20q12 0 27 -5t35 -17.5t35 -22t41 -31t37.5 -31t41 -34.5t35.5 -31q6 5 50 42.5t60.5 50t49.5 37t54.5 33.5t38.5 9q32 0 55 -20.5t25 -49.5q-42 -22 -148 -105t-147 -102q-20 -10 -41 -10z" />
    <glyph glyph-name="ecaron" unicode="&#x11b;" horiz-adv-x="1032" 
d="M915 477h-649q3 -170 84.5 -262t214.5 -92q99 0 188.5 29.5t131.5 62.5q35 -21 35 -68t-35 -71q-129 -96 -332 -96q-198 0 -318 139.5t-120 369.5q0 125 37 226t100 164t142.5 96t166.5 33q179 0 274 -118.5t95 -307.5q0 -64 -15 -105zM557 868q-104 0 -182.5 -71.5
t-100.5 -206.5h517q0 128 -58.5 203t-175.5 75zM557 1130q-20 0 -35 11q-41 18 -147 101.5t-148 105.5q2 30 24.5 49.5t55.5 19.5q12 0 27 -5t35 -17.5t35 -22t41 -31t37.5 -31t41 -34.5t35.5 -31q11 9 36.5 31t40.5 34.5t39 31.5t40.5 30t35.5 22.5t34.5 17t27.5 5.5
q32 0 55.5 -20t24.5 -49q-42 -22 -148 -105t-147 -102q-22 -11 -41 -11z" />
    <glyph glyph-name="Gcircumflex" unicode="&#x11c;" horiz-adv-x="1437" 
d="M1141 604h-385q-15 34 -15 68q0 31 19.5 48t75.5 17h327q65 0 88 -28t23 -101v-592q-27 -18 -74 -18q-29 0 -44 13.5t-15 51.5v134q-166 -217 -416 -217q-96 0 -181.5 26t-161.5 83.5t-131.5 142t-87.5 209t-32 276.5q0 183 48 326t133 231.5t197 134t245 45.5
q109 0 201.5 -22t148 -54.5t86.5 -66.5t31 -62q0 -30 -21 -49.5t-45 -21.5q-68 61 -160.5 96t-238.5 35q-98 0 -183 -37t-151 -109t-103.5 -187t-37.5 -261q0 -156 38 -274.5t104 -187.5t145 -102.5t169 -33.5q123 0 229.5 61.5t174.5 169.5v256zM1083 1634q-10 -47 -49 -53
q-16 -7 -39 0q-26 7 -64 32t-92 66.5t-81 59.5q-26 -17 -81.5 -59t-94 -67t-64.5 -32q-20 -7 -37 0q-39 6 -49 53q25 13 91 73t129.5 108.5t101.5 48.5q37 0 100.5 -47.5t131 -107.5t97.5 -75z" />
    <glyph glyph-name="gcircumflex" unicode="&#x11d;" horiz-adv-x="1034" 
d="M872 864h-98q57 -91 57 -237q0 -196 -97 -286.5t-265 -90.5q-93 0 -172 31q-27 -66 -27 -111q0 -56 34.5 -83.5t121.5 -27.5h313q112 0 170 -57.5t58 -155.5q0 -165 -128.5 -263.5t-351.5 -98.5q-171 0 -286 65t-115 138q0 22 13.5 45.5t35.5 38.5q123 -152 348 -152
q161 0 252.5 56t91.5 151q0 100 -122 100h-306q-142 0 -205 50t-63 147q0 103 78 217q-96 93 -96 287q0 189 99.5 285t264.5 96q132 0 215 -60q20 39 74 39h166q14 -18 14 -55q0 -31 -15.5 -49.5t-58.5 -18.5zM268 623q0 -132 52.5 -190t150.5 -58q203 0 203 248
q0 129 -51 191.5t-144 62.5q-98 0 -154.5 -64t-56.5 -190zM809 1186q-10 -47 -49 -53q-16 -7 -39 0q-26 7 -64 31.5t-93 66t-81 59.5q-26 -17 -81.5 -59t-93.5 -66.5t-64 -31.5q-20 -7 -37 0q-39 6 -49 53q25 13 90.5 72.5t129 108t101.5 48.5q37 0 100.5 -47.5t131.5 -107
t98 -74.5z" />
    <glyph glyph-name="Gbreve" unicode="&#x11e;" horiz-adv-x="1437" 
d="M1141 604h-385q-15 34 -15 68q0 31 19.5 48t75.5 17h327q65 0 88 -28t23 -101v-592q-27 -18 -74 -18q-29 0 -44 13.5t-15 51.5v134q-166 -217 -416 -217q-96 0 -181.5 26t-161.5 83.5t-131.5 142t-87.5 209t-32 276.5q0 183 48 326t133 231.5t197 134t245 45.5
q109 0 201.5 -22t148 -54.5t86.5 -66.5t31 -62q0 -30 -21 -49.5t-45 -21.5q-68 61 -160.5 96t-238.5 35q-98 0 -183 -37t-151 -109t-103.5 -187t-37.5 -261q0 -156 38 -274.5t104 -187.5t145 -102.5t169 -33.5q123 0 229.5 61.5t174.5 169.5v256zM567 1829q3 -65 45 -103
q43 -40 136 -40q88 0 129 38q40 35 49 103q18 15 59 12q28 0 40 -14.5t9 -34.5q-13 -89 -80 -150q-70 -61 -206 -61q-133 0 -207 59q-77 62 -84 156q-3 44 47 47q34 3 63 -12z" />
    <glyph glyph-name="gbreve" unicode="&#x11f;" horiz-adv-x="1034" 
d="M872 864h-98q57 -91 57 -237q0 -196 -97 -286.5t-265 -90.5q-93 0 -172 31q-27 -66 -27 -111q0 -56 34.5 -83.5t121.5 -27.5h313q112 0 170 -57.5t58 -155.5q0 -165 -128.5 -263.5t-351.5 -98.5q-171 0 -286 65t-115 138q0 22 13.5 45.5t35.5 38.5q123 -152 348 -152
q161 0 252.5 56t91.5 151q0 100 -122 100h-306q-142 0 -205 50t-63 147q0 103 78 217q-96 93 -96 287q0 189 99.5 285t264.5 96q132 0 215 -60q20 39 74 39h166q14 -18 14 -55q0 -31 -15.5 -49.5t-58.5 -18.5zM268 623q0 -132 52.5 -190t150.5 -58q203 0 203 248
q0 129 -51 191.5t-144 62.5q-98 0 -154.5 -64t-56.5 -190zM301 1380q3 -64 45 -102q44 -41 135 -41q87 0 129 39q40 36 49 102q19 16 60 13q27 0 39.5 -14.5t9.5 -35.5q-13 -88 -80 -149q-71 -62 -207 -62q-132 0 -207 60q-77 62 -84 156q-2 22 10 34t38 13q32 2 63 -13z
" />
    <glyph glyph-name="Gdotaccent" unicode="&#x120;" horiz-adv-x="1437" 
d="M1141 604h-385q-15 34 -15 68q0 31 19.5 48t75.5 17h327q65 0 88 -28t23 -101v-592q-27 -18 -74 -18q-29 0 -44 13.5t-15 51.5v134q-166 -217 -416 -217q-96 0 -181.5 26t-161.5 83.5t-131.5 142t-87.5 209t-32 276.5q0 183 48 326t133 231.5t197 134t245 45.5
q109 0 201.5 -22t148 -54.5t86.5 -66.5t31 -62q0 -30 -21 -49.5t-45 -21.5q-68 61 -160.5 96t-238.5 35q-98 0 -183 -37t-151 -109t-103.5 -187t-37.5 -261q0 -156 38 -274.5t104 -187.5t145 -102.5t169 -33.5q123 0 229.5 61.5t174.5 169.5v256zM645 1700q0 96 92 96
q94 0 94 -96q0 -92 -94 -92q-92 0 -92 92z" />
    <glyph glyph-name="gdotaccent" unicode="&#x121;" horiz-adv-x="1034" 
d="M872 864h-98q57 -91 57 -237q0 -196 -97 -286.5t-265 -90.5q-93 0 -172 31q-27 -66 -27 -111q0 -56 34.5 -83.5t121.5 -27.5h313q112 0 170 -57.5t58 -155.5q0 -165 -128.5 -263.5t-351.5 -98.5q-171 0 -286 65t-115 138q0 22 13.5 45.5t35.5 38.5q123 -152 348 -152
q161 0 252.5 56t91.5 151q0 100 -122 100h-306q-142 0 -205 50t-63 147q0 103 78 217q-96 93 -96 287q0 189 99.5 285t264.5 96q132 0 215 -60q20 39 74 39h166q14 -18 14 -55q0 -31 -15.5 -49.5t-58.5 -18.5zM268 623q0 -132 52.5 -190t150.5 -58q203 0 203 248
q0 129 -51 191.5t-144 62.5q-98 0 -154.5 -64t-56.5 -190zM387 1262q0 94 94 94t94 -94q0 -95 -94 -95t-94 95z" />
    <glyph glyph-name="Gcommaaccent" unicode="&#x122;" horiz-adv-x="1437" 
d="M745 -362q-42 0 -65 22t-23 64q0 44 23 67t65 23q47 0 71 -30t24 -103q0 -105 -28.5 -166.5t-70.5 -61.5q-43 0 -51 31q26 25 40.5 71.5t14.5 82.5zM1141 604h-385q-15 34 -15 68q0 31 19.5 48t75.5 17h327q65 0 88 -28t23 -101v-592q-27 -18 -74 -18q-29 0 -44 13.5
t-15 51.5v134q-166 -217 -416 -217q-96 0 -181.5 26t-161.5 83.5t-131.5 142t-87.5 209t-32 276.5q0 183 48 326t133 231.5t197 134t245 45.5q109 0 201.5 -22t148 -54.5t86.5 -66.5t31 -62q0 -30 -21 -49.5t-45 -21.5q-68 61 -160.5 96t-238.5 35q-98 0 -183 -37t-151 -109
t-103.5 -187t-37.5 -261q0 -156 38 -274.5t104 -187.5t145 -102.5t169 -33.5q123 0 229.5 61.5t174.5 169.5v256z" />
    <glyph glyph-name="gcommaaccent" unicode="&#x123;" horiz-adv-x="1034" 
d="M461 1323q88 0 88 -88t-88 -88q-47 0 -70.5 30t-23.5 103q0 105 28 166t70 61q43 0 51 -30q-26 -25 -40.5 -72t-14.5 -82zM872 864h-98q57 -91 57 -237q0 -196 -97 -286.5t-265 -90.5q-93 0 -172 31q-27 -66 -27 -111q0 -56 34.5 -83.5t121.5 -27.5h313q112 0 170 -57.5
t58 -155.5q0 -165 -128.5 -263.5t-351.5 -98.5q-171 0 -286 65t-115 138q0 22 13.5 45.5t35.5 38.5q123 -152 348 -152q161 0 252.5 56t91.5 151q0 100 -122 100h-306q-142 0 -205 50t-63 147q0 103 78 217q-96 93 -96 287q0 189 99.5 285t264.5 96q132 0 215 -60
q20 39 74 39h166q14 -18 14 -55q0 -31 -15.5 -49.5t-58.5 -18.5zM268 623q0 -132 52.5 -190t150.5 -58q203 0 203 248q0 129 -51 191.5t-144 62.5q-98 0 -154.5 -64t-56.5 -190z" />
    <glyph glyph-name="Hcircumflex" unicode="&#x124;" horiz-adv-x="1501" 
d="M1210 1434q78 0 78 -64v-1352q-25 -18 -78 -18q-39 0 -61.5 15.5t-22.5 60.5v583h-753v-639q-20 -20 -88 -20q-32 0 -52 15.5t-20 60.5v1341q31 17 84 17q76 0 76 -64v-563h753v610q34 17 84 17zM1075 1634q-10 -47 -49 -53q-16 -7 -39 0q-26 7 -64 32t-92 66.5t-81 59.5
q-26 -17 -81.5 -59t-94 -67t-64.5 -32q-20 -7 -37 0q-39 6 -49 53q25 13 90.5 73t129 108.5t101.5 48.5q37 0 100.5 -47.5t131.5 -107.5t98 -75z" />
    <glyph glyph-name="hcircumflex" unicode="&#x125;" horiz-adv-x="1093" 
d="M213 1434q33 0 52.5 -16t19.5 -48v-559q69 92 161.5 144.5t194.5 52.5q134 0 205.5 -82t71.5 -244v-516q0 -51 43 -51h61q10 -17 10 -45q0 -32 -37 -51t-106 -19q-127 0 -127 152v493q0 105 -41.5 155t-126.5 50t-169.5 -52.5t-139.5 -140.5v-641q-22 -16 -80 -16
q-33 0 -53.5 15.5t-20.5 60.5v1339q30 19 82 19zM535 1563q-10 -48 -50 -54q-16 -7 -39 0q-26 7 -64 32t-92 66.5t-81 59.5q-26 -17 -81.5 -59t-94 -67t-64.5 -32q-20 -7 -37 0q-39 6 -49 54q25 13 91 73t129.5 108t101.5 48q37 0 100.5 -47.5t131.5 -107t98 -74.5z" />
    <glyph glyph-name="Hbar" unicode="&#x126;" horiz-adv-x="1501" 
d="M1210 1434q78 0 78 -64v-207h187q16 -22 16 -67q0 -39 -19.5 -58.5t-66.5 -19.5h-117v-1000q-25 -18 -78 -18q-39 0 -61.5 15.5t-22.5 60.5v547h-753v-603q-20 -20 -88 -20q-32 0 -52 15.5t-20 60.5v942h-186q-19 38 -19 69q0 76 82 76h123v254q31 17 84 17q76 0 76 -64
v-207h753v254q34 17 84 17zM373 1018v-248h753v248h-753z" />
    <glyph glyph-name="hbar" unicode="&#x127;" horiz-adv-x="1093" 
d="M213 1434q33 0 52.5 -16t19.5 -48v-104h305q12 -14 12 -64q0 -57 -53 -57h-264v-340q66 94 159.5 148.5t196.5 54.5q134 0 205.5 -82t71.5 -244v-516q0 -51 43 -51h61q10 -17 10 -45q0 -32 -37 -51t-106 -19q-127 0 -127 152v493q0 105 -41.5 155t-126.5 50
q-88 0 -174 -58t-135 -153v-623q-22 -16 -80 -16q-33 0 -53.5 15.5t-20.5 60.5v1069h-131q-14 35 -14 63q0 58 53 58h92v149q30 19 82 19z" />
    <glyph glyph-name="Itilde" unicode="&#x128;" horiz-adv-x="585" 
d="M299 1434q74 0 74 -64v-1350q-33 -20 -86 -20q-74 0 -74 76v1341q31 17 86 17zM123 1792q59 0 169.5 -31.5t158.5 -31.5q86 0 129 49q13 -7 24.5 -27t11.5 -43q0 -39 -37.5 -66.5t-103.5 -27.5q-56 0 -182.5 29.5t-171.5 29.5q-38 0 -72 -17.5t-39 -35.5q-41 13 -41 63
q0 36 44 72.5t110 36.5z" />
    <glyph glyph-name="itilde" unicode="&#x129;" horiz-adv-x="598" 
d="M233 987q74 0 111 -34.5t37 -125.5v-647q0 -53 47 -53h61q11 -22 11 -51q0 -76 -138 -76q-137 0 -137 139v645q0 58 -51 58h-59q-13 23 -13 61q0 42 35.5 63t95.5 21zM96 1346q59 0 169.5 -32t158.5 -32q86 0 129 49q14 -7 25.5 -26.5t11.5 -42.5q0 -39 -37.5 -67
t-103.5 -28q-56 0 -183 30t-172 30q-38 0 -71.5 -17.5t-38.5 -35.5q-41 13 -41 63q0 36 43.5 72.5t109.5 36.5z" />
    <glyph glyph-name="Imacron" unicode="&#x12a;" horiz-adv-x="585" 
d="M299 1434q74 0 74 -64v-1350q-33 -20 -86 -20q-74 0 -74 76v1341q31 17 86 17zM520 1636h-545q-16 32 -16 54q0 36 17.5 52.5t74.5 16.5h561q17 -17 17 -49q0 -74 -109 -74z" />
    <glyph glyph-name="imacron" unicode="&#x12b;" horiz-adv-x="598" 
d="M233 987q74 0 111 -34.5t37 -125.5v-647q0 -53 47 -53h61q11 -22 11 -51q0 -76 -138 -76q-137 0 -137 139v645q0 58 -51 58h-59q-13 23 -13 61q0 42 35.5 63t95.5 21zM489 1190h-544q-1 2 -5.5 10.5t-6 12.5t-3.5 12t-2 18q0 37 17.5 53.5t74.5 16.5h562q16 -16 16 -49
q0 -74 -109 -74z" />
    <glyph glyph-name="Ibreve" unicode="&#x12c;" horiz-adv-x="585" 
d="M299 1434q74 0 74 -64v-1350q-33 -20 -86 -20q-74 0 -74 76v1341q31 17 86 17zM115 1829q3 -65 45 -103q43 -40 135 -40q88 0 129 38q40 35 49 103q18 15 59 12q28 0 40.5 -14.5t9.5 -34.5q-13 -89 -80 -150q-70 -61 -207 -61q-133 0 -207 59q-77 62 -84 156q-3 44 47 47
q35 3 64 -12z" />
    <glyph glyph-name="ibreve" unicode="&#x12d;" horiz-adv-x="598" 
d="M233 987q74 0 111 -34.5t37 -125.5v-647q0 -53 47 -53h61q11 -22 11 -51q0 -76 -138 -76q-137 0 -137 139v645q0 58 -51 58h-59q-13 23 -13 61q0 42 35.5 63t95.5 21zM76 1382q3 -64 45 -102q44 -41 135 -41q87 0 129 39q40 36 49 102q19 16 60 13q28 0 40 -14.5t9 -35.5
q-13 -88 -80 -149q-70 -61 -207 -61q-133 0 -207 59q-77 62 -84 156q-3 44 47 47q33 2 64 -13z" />
    <glyph glyph-name="Iogonek" unicode="&#x12e;" horiz-adv-x="585" 
d="M256 20h-2q-41 13 -41 74v1323q31 17 86 17q74 0 74 -64v-1350q-46 -44 -80.5 -107t-34.5 -103q0 -49 28.5 -67.5t84.5 -18.5q10 -18 10 -46q0 -49 -68 -49q-62 0 -109.5 38.5t-47.5 117.5q0 119 100 235z" />
    <glyph glyph-name="iogonek" unicode="&#x12f;" horiz-adv-x="595" 
d="M233 987q87 0 116.5 -62.5t29.5 -201.5v-543q0 -53 47 -53h59q13 -20 13 -51q0 -30 -41 -60q-40 -33 -67.5 -90.5t-27.5 -97.5q0 -49 29.5 -68.5t85.5 -19.5q10 -15 10 -43q0 -49 -67 -49q-63 0 -110.5 37.5t-47.5 117.5q0 97 70 199q-35 4 -57.5 23t-33 55t-13.5 71
t-3 87v546q0 58 -51 58h-59q-13 23 -13 61q0 42 35.5 63t95.5 21zM182 1268q0 102 101 102q100 0 100 -102q0 -99 -100 -99q-101 0 -101 99z" />
    <glyph glyph-name="Idotaccent" unicode="&#x130;" horiz-adv-x="585" 
d="M299 1434q74 0 74 -64v-1350q-33 -20 -86 -20q-74 0 -74 76v1341q31 17 86 17zM201 1700q0 96 92 96q94 0 94 -96q0 -92 -94 -92q-92 0 -92 92z" />
    <glyph glyph-name="dotlessi" unicode="&#x131;" horiz-adv-x="598" 
d="M233 987q74 0 111 -34.5t37 -125.5v-647q0 -53 47 -53h61q11 -22 11 -51q0 -76 -138 -76q-137 0 -137 139v645q0 58 -51 58h-59q-13 23 -13 61q0 42 35.5 63t95.5 21z" />
    <glyph glyph-name="IJ" unicode="&#x132;" horiz-adv-x="1376" 
d="M299 1434q74 0 74 -64v-1350q-33 -20 -86 -20q-74 0 -74 76v1341q31 17 86 17zM1092 1434q71 0 71 -66v-1089q0 -279 -276 -279q-130 0 -195 26.5t-65 69.5q0 36 12 60h209q84 0 124 36.5t40 122.5v1102q34 17 80 17z" />
    <glyph glyph-name="ij" unicode="&#x133;" horiz-adv-x="1179" 
d="M233 987q73 0 109.5 -34.5t36.5 -125.5v-647q0 -53 47 -53h59q13 -20 13 -51q0 -76 -138 -76q-66 0 -100.5 32.5t-34.5 106.5v645q0 58 -51 58h-59q-13 23 -13 61q0 42 35.5 63t95.5 21zM182 1268q0 102 101 102q100 0 100 -102q0 -99 -100 -99q-101 0 -101 99zM850 987
q78 0 111.5 -35.5t33.5 -122.5v-921q0 -135 -64.5 -196.5t-174.5 -61.5q-195 0 -195 86q0 32 10 61h150q60 0 93.5 35t33.5 107v845q0 58 -47 58h-80q-10 27 -10 63q0 82 139 82zM805 1268q0 102 100 102q101 0 101 -102q0 -99 -101 -99q-100 0 -100 99z" />
    <glyph glyph-name="Jcircumflex" unicode="&#x134;" horiz-adv-x="790" 
d="M506 1434q72 0 72 -66v-1089q0 -279 -277 -279q-130 0 -195 26.5t-65 69.5q0 36 12 60h209q84 0 124 36.5t40 122.5v1102q34 17 80 17zM819 1634q-10 -47 -49 -53q-16 -7 -39 0q-26 7 -64 32t-92 66.5t-81 59.5q-26 -17 -81.5 -59t-94 -67t-64.5 -32q-20 -7 -37 0
q-39 6 -49 53q25 13 90.5 73t129 108.5t101.5 48.5q37 0 100.5 -47.5t131.5 -107.5t98 -75z" />
    <glyph glyph-name="jcircumflex" unicode="&#x135;" horiz-adv-x="581" 
d="M252 987q78 0 111.5 -35.5t33.5 -122.5v-921q0 -135 -64.5 -196.5t-174.5 -61.5q-195 0 -195 86q0 32 10 61h150q60 0 93.5 35t33.5 107v845q0 58 -47 58h-80q-10 27 -10 63q0 82 139 82zM594 1192q-10 -47 -49 -53q-16 -7 -39 0q-26 7 -64 31.5t-93 66t-81 59.5
q-26 -17 -81.5 -59t-93.5 -66.5t-64 -31.5q-20 -7 -37 0q-39 6 -49 53q25 13 90.5 72.5t129 108t101.5 48.5q37 0 100.5 -47.5t131.5 -107t98 -74.5z" />
    <glyph glyph-name="Kcommaaccent" unicode="&#x136;" horiz-adv-x="1257" 
d="M623 -346q-88 0 -88 88t88 88q47 0 70.5 -30t23.5 -103q0 -105 -28.5 -166t-70.5 -61q-43 0 -51 30q26 25 41 72.5t15 81.5zM297 1434q74 0 74 -64v-631q172 130 318.5 321t215.5 361q26 13 68 13q23 0 40 -16.5t17 -39.5q0 -38 -31 -98q-155 -297 -389 -512
q42 -41 95.5 -123.5t101 -165t97 -161t101 -128t95.5 -49.5h57q14 -18 14 -53q0 -88 -122 -88q-60 0 -120 49t-114 131t-102.5 168t-105 182.5t-101.5 151.5q-64 -50 -135 -96v-568q-30 -18 -90 -18q-68 0 -68 74v1341q38 19 84 19z" />
    <glyph glyph-name="kcommaaccent" unicode="&#x137;" horiz-adv-x="929" 
d="M209 1434q34 0 59 -16t25 -48v-803q139 66 227 182t94 222q26 16 68 16q76 0 76 -65q0 -101 -104 -226t-226 -172q37 -21 77.5 -69t75.5 -98t72 -98t79.5 -78.5t86.5 -30.5h72q12 -20 12 -58q0 -40 -30.5 -66t-86.5 -26q-52 0 -101.5 27.5t-87.5 70t-78.5 96.5t-73 104.5
t-73.5 97.5t-79 71v-447q-27 -20 -86 -20q-32 0 -52 15.5t-20 60.5v1337q28 21 74 21z" />
    <glyph glyph-name="kgreenlandic" unicode="&#x138;" horiz-adv-x="929" 
d="M209 987q34 0 59 -15.5t25 -47.5v-357q139 66 227 182t94 222q26 16 68 16q76 0 76 -65q0 -101 -104 -226t-226 -172q37 -21 78.5 -69t78 -98t74.5 -98t82 -78.5t88 -30.5h74q10 -17 10 -58q0 -40 -30 -66t-86 -26q-52 0 -102 27.5t-88.5 70t-80.5 96.5t-76.5 104.5
t-76.5 97.5t-80 71v-447q-27 -20 -86 -20q-32 0 -52 15.5t-20 60.5v889q25 22 74 22z" />
    <glyph glyph-name="Lacute" unicode="&#x139;" horiz-adv-x="1105" 
d="M295 1434q32 0 55 -15.5t23 -48.5v-1218h678q18 -23 18 -66q0 -86 -92 -86h-692q-72 0 -72 74v1345q30 15 82 15zM242 1632q25 14 91.5 74t130.5 108t101 48q78 0 78 -70q-39 -21 -110.5 -78t-130.5 -98t-89 -41q-59 0 -71 57z" />
    <glyph glyph-name="lacute" unicode="&#x13a;" horiz-adv-x="612" 
d="M301 1366v-1077q0 -90 30 -123t107 -33h140q6 -18 6 -47q0 -36 -49 -61t-148 -25q-126 0 -183 60t-57 192v1161q30 23 76 23q78 -3 78 -70zM84 1593q25 14 92 74t131 108t101 48q77 0 77 -70q-39 -21 -110.5 -78t-130 -98t-88.5 -41q-60 0 -72 57z" />
    <glyph glyph-name="Lcommaaccent" unicode="&#x13b;" horiz-adv-x="1105" 
d="M639 -330q-41 0 -64.5 22.5t-23.5 65.5q0 88 90 88q46 0 70 -30t24 -103q0 -104 -29 -165.5t-69 -61.5q-24 0 -35.5 7t-15.5 26q25 24 39 70.5t14 80.5zM295 1434q32 0 55 -15.5t23 -48.5v-1218h678q18 -23 18 -66q0 -86 -92 -86h-692q-72 0 -72 74v1345q30 15 82 15z
" />
    <glyph glyph-name="lcommaaccent" unicode="&#x13c;" horiz-adv-x="612" 
d="M293 -293q-42 0 -65 23t-23 65q0 88 88 88q46 0 70 -30t24 -103q0 -104 -28.5 -165.5t-69.5 -61.5q-43 0 -51 33q26 25 40.5 71t14.5 80zM301 1366v-1077q0 -90 30 -123t107 -33h140q6 -18 6 -47q0 -36 -49 -61t-148 -25q-126 0 -183 60t-57 192v1161q30 23 76 23
q78 -3 78 -70z" />
    <glyph glyph-name="Lcaron" unicode="&#x13d;" horiz-adv-x="1105" 
d="M295 1434q32 0 55 -15.5t23 -48.5v-1218h678q18 -23 18 -66q0 -86 -92 -86h-692q-72 0 -72 74v1345q30 15 82 15zM614 1245q-45 0 -69.5 23.5t-24.5 68.5q0 97 94 97q50 0 75.5 -32t25.5 -110q0 -111 -31 -176t-74 -65q-45 0 -53 34q26 25 41.5 74.5t15.5 85.5z" />
    <glyph glyph-name="lcaron" unicode="&#x13e;" horiz-adv-x="612" 
d="M473 1278q-88 0 -88 88t88 88q47 0 70.5 -30t23.5 -103q0 -105 -28 -166t-70 -61q-43 0 -51 30q26 25 40.5 72t14.5 82zM301 1366v-1077q0 -90 30 -123t107 -33h140q6 -18 6 -47q0 -36 -49 -61t-148 -25q-126 0 -183 60t-57 192v1161q30 23 76 23q78 -3 78 -70z" />
    <glyph glyph-name="Ldot" unicode="&#x13f;" horiz-adv-x="1105" 
d="M295 1434q32 0 55 -15.5t23 -48.5v-1218h678q18 -23 18 -66q0 -86 -92 -86h-692q-72 0 -72 74v1345q30 15 82 15zM717 684q0 96 92 96q94 0 94 -96q0 -92 -94 -92q-92 0 -92 92z" />
    <glyph glyph-name="ldot" unicode="&#x140;" horiz-adv-x="645" 
d="M301 1366v-1077q0 -90 30 -123t107 -33h140q6 -18 6 -47q0 -36 -49 -61t-148 -25q-126 0 -183 60t-57 192v1161q30 23 76 23q78 -3 78 -70zM461 709q0 94 94 94t94 -94q0 -95 -94 -95t-94 95z" />
    <glyph glyph-name="Lslash" unicode="&#x141;" horiz-adv-x="1105" 
d="M295 1434q32 0 55 -15.5t23 -48.5v-604l272 176q19 -6 39.5 -29.5t20.5 -52.5q0 -38 -50 -69l-282 -183v-456h678q18 -23 18 -66q0 -86 -92 -86h-692q-72 0 -72 74v432l-137 -88q-64 31 -64 78q0 41 49 69l152 99v755q30 15 82 15z" />
    <glyph glyph-name="lslash" unicode="&#x142;" horiz-adv-x="612" 
d="M301 1366v-535l211 144q25 -8 43 -31t18 -49q0 -38 -30 -59l-242 -162v-385q0 -90 30 -123t107 -33h140q6 -18 6 -47q0 -36 -49 -61t-148 -25q-126 0 -183 60t-57 192v321l-116 -77q-56 31 -56 88q0 33 35 55l137 92v682q30 23 76 23q78 -3 78 -70z" />
    <glyph glyph-name="Nacute" unicode="&#x143;" horiz-adv-x="1503" 
d="M1137 41l-772 1087l8 -1110q-22 -18 -90 -18q-20 0 -33.5 4t-25 21.5t-11.5 48.5v1343q34 17 84 17q47 0 74 -39l768 -1108l-4 1126q28 21 75 21q35 0 59.5 -15.5t24.5 -48.5v-1356q-24 -14 -82 -14q-45 0 -75 41zM551 1632q25 14 91.5 74t130.5 108t101 48q78 0 78 -70
q-39 -21 -110.5 -78t-130 -98t-88.5 -41q-60 0 -72 57z" />
    <glyph glyph-name="nacute" unicode="&#x144;" horiz-adv-x="1212" 
d="M223 987q74 0 116 -41t42 -119v-30q159 211 360 211q132 0 207.5 -85.5t75.5 -252.5v-500q0 -55 39 -55h80q8 -20 8 -43q0 -33 -38 -52.5t-114 -19.5q-68 0 -100.5 33.5t-32.5 109.5v490q0 104 -46.5 160.5t-127.5 56.5q-171 0 -311 -203v-629q-27 -18 -88 -18
q-76 0 -76 80v704q0 58 -51 58h-74q-14 35 -14 67q0 78 145 78zM455 1184q22 12 68 52t88.5 78t90 68.5t76.5 30.5q78 0 78 -70q-39 -21 -110.5 -78t-130.5 -98t-89 -41q-58 0 -71 58z" />
    <glyph glyph-name="Ncommaaccent" unicode="&#x145;" horiz-adv-x="1503" 
d="M768 -342q-42 0 -65 22t-23 64q0 88 88 88q47 0 70.5 -29t23.5 -102q0 -105 -28 -166t-70 -61q-43 0 -51 30q26 25 40.5 71.5t14.5 82.5zM1137 41l-772 1087l8 -1110q-22 -18 -90 -18q-20 0 -33.5 4t-25 21.5t-11.5 48.5v1343q34 17 84 17q47 0 74 -39l768 -1108l-4 1126
q28 21 75 21q35 0 59.5 -15.5t24.5 -48.5v-1356q-24 -14 -82 -14q-45 0 -75 41z" />
    <glyph glyph-name="ncommaaccent" unicode="&#x146;" horiz-adv-x="1212" 
d="M641 -293q-42 0 -65 23t-23 65q0 88 88 88q47 0 70.5 -30t23.5 -103q0 -104 -28.5 -165.5t-69.5 -61.5q-43 0 -51 33q26 25 40.5 71t14.5 80zM223 987q74 0 116 -41t42 -119v-30q159 211 360 211q132 0 207.5 -85.5t75.5 -252.5v-500q0 -55 39 -55h80q8 -20 8 -43
q0 -33 -38 -52.5t-114 -19.5q-68 0 -100.5 33.5t-32.5 109.5v490q0 104 -46.5 160.5t-127.5 56.5q-171 0 -311 -203v-629q-27 -18 -88 -18q-76 0 -76 80v704q0 58 -51 58h-74q-14 35 -14 67q0 78 145 78z" />
    <glyph glyph-name="Ncaron" unicode="&#x147;" horiz-adv-x="1503" 
d="M1137 41l-772 1087l8 -1110q-22 -18 -90 -18q-20 0 -33.5 4t-25 21.5t-11.5 48.5v1343q34 17 84 17q47 0 74 -39l768 -1108l-4 1126q28 21 75 21q35 0 59.5 -15.5t24.5 -48.5v-1356q-24 -14 -82 -14q-45 0 -75 41zM750 1577q-22 0 -35 10q-41 18 -147 101.5t-148 105.5
q2 30 24.5 50t55.5 20q12 0 27 -5t35 -17.5t35 -22t41 -31t37.5 -31t41 -34.5t35.5 -31q11 9 36.5 31t40.5 34.5t39 31.5t40.5 30t35.5 22.5t34.5 17t27.5 5.5q32 0 54.5 -20.5t24.5 -49.5q-42 -23 -147.5 -105.5t-146.5 -101.5q-20 -10 -41 -10z" />
    <glyph glyph-name="ncaron" unicode="&#x148;" horiz-adv-x="1212" 
d="M223 987q74 0 116 -41t42 -119v-30q159 211 360 211q132 0 207.5 -85.5t75.5 -252.5v-500q0 -55 39 -55h80q8 -20 8 -43q0 -33 -38 -52.5t-114 -19.5q-68 0 -100.5 33.5t-32.5 109.5v490q0 104 -46.5 160.5t-127.5 56.5q-171 0 -311 -203v-629q-27 -18 -88 -18
q-76 0 -76 80v704q0 58 -51 58h-74q-14 35 -14 67q0 78 145 78zM592 1128q-20 0 -35 11q-41 18 -147 101.5t-148 105.5q2 30 24.5 49.5t55.5 19.5q12 0 27 -5t35 -17.5t35 -22t41 -31t37.5 -31t41 -34.5t35.5 -31q11 9 36.5 31t40.5 34.5t39 31.5t40.5 30t35.5 22.5t34.5 17
t27.5 5.5q32 0 55.5 -20t24.5 -49q-42 -22 -148 -105t-147 -102q-22 -11 -41 -11z" />
    <glyph glyph-name="napostrophe" unicode="&#x149;" horiz-adv-x="1329" 
d="M45 1212q-41 0 -64.5 22t-23.5 64q0 91 90 91q46 0 70 -30.5t24 -103.5q0 -104 -29 -165.5t-69 -61.5q-43 0 -51 31q25 25 39 71.5t14 81.5zM342 987q74 0 116 -41t42 -119v-30q159 211 360 211q132 0 207.5 -85.5t75.5 -252.5v-500q0 -55 39 -55h80q8 -20 8 -43
q0 -33 -38 -52.5t-114 -19.5q-68 0 -100.5 33.5t-32.5 109.5v490q0 104 -46.5 160.5t-127.5 56.5q-171 0 -311 -203v-629q-27 -18 -88 -18q-76 0 -76 80v704q0 58 -51 58h-74q-14 35 -14 67q0 78 145 78z" />
    <glyph glyph-name="Eng" unicode="&#x14a;" horiz-adv-x="1503" 
d="M1141 -70v107l-776 1091l8 -1110q-22 -18 -90 -18q-20 0 -33.5 4t-25 21.5t-11.5 48.5v1343q34 17 84 17q47 0 74 -39l770 -1106l-6 1124q28 21 75 21q35 0 59.5 -15.5t24.5 -48.5v-1462q0 -135 -64.5 -196.5t-176.5 -61.5q-193 0 -193 86q0 38 10 61h142q129 0 129 133z
" />
    <glyph glyph-name="eng" unicode="&#x14b;" horiz-adv-x="1189" 
d="M868 -61v690q0 107 -47 164t-131 57q-97 0 -170.5 -53.5t-140.5 -151.5v-627q-27 -18 -86 -18q-78 0 -78 80v704q0 58 -51 58h-72q-14 35 -14 67q0 78 141 78q75 0 117.5 -41t42.5 -119v-32q157 213 360 213q133 0 208 -85t75 -253v-762q0 -135 -64.5 -196.5
t-175.5 -61.5q-194 0 -194 86q0 38 10 61h143q60 0 93.5 35t33.5 107z" />
    <glyph glyph-name="Omacron" unicode="&#x14c;" horiz-adv-x="1458" 
d="M131 717q0 184 44 326t125 231.5t190.5 134.5t244.5 45q273 0 431.5 -186t158.5 -551q0 -194 -42.5 -337.5t-122 -230t-185.5 -128t-240 -41.5q-136 0 -244.5 42.5t-190 129.5t-125.5 230.5t-44 334.5zM287 715q0 -158 33 -274.5t94 -186t141.5 -102.5t181.5 -33
q432 0 432 596q0 294 -116.5 445t-317.5 151q-208 0 -328 -151.5t-120 -444.5zM954 1636h-544q-17 34 -17 54q0 36 17.5 52.5t74.5 16.5h562q16 -16 16 -49q0 -74 -109 -74z" />
    <glyph glyph-name="omacron" unicode="&#x14d;" 
d="M115 492q0 255 124.5 385.5t331.5 130.5q206 0 323.5 -129.5t117.5 -386.5q0 -137 -33 -237t-94 -159.5t-141.5 -87.5t-182.5 -28q-101 0 -181 29t-140 89t-92.5 160t-32.5 234zM276 489q0 -366 285 -366q139 0 214 85.5t75 280.5q0 186 -73.5 279.5t-205.5 93.5
q-135 0 -215 -95t-80 -278zM795 1188h-545q-1 2 -5.5 10.5t-6 12.5t-3.5 12t-2 18q0 36 18 53t75 17h561q16 -16 16 -49q0 -74 -108 -74z" />
    <glyph glyph-name="Obreve" unicode="&#x14e;" horiz-adv-x="1458" 
d="M131 717q0 184 44 326t125 231.5t190.5 134.5t244.5 45q273 0 431.5 -186t158.5 -551q0 -194 -42.5 -337.5t-122 -230t-185.5 -128t-240 -41.5q-136 0 -244.5 42.5t-190 129.5t-125.5 230.5t-44 334.5zM287 715q0 -158 33 -274.5t94 -186t141.5 -102.5t181.5 -33
q432 0 432 596q0 294 -116.5 445t-317.5 151q-208 0 -328 -151.5t-120 -444.5zM561 1829q3 -65 45 -103q43 -40 135 -40q88 0 129 38q41 36 50 103q18 15 59 12q28 0 40 -14.5t9 -34.5q-13 -89 -80 -150q-70 -61 -207 -61q-132 0 -206 59q-77 62 -84 156q-3 44 47 47
q34 3 63 -12z" />
    <glyph glyph-name="obreve" unicode="&#x14f;" 
d="M115 492q0 255 124.5 385.5t331.5 130.5q206 0 323.5 -129.5t117.5 -386.5q0 -137 -33 -237t-94 -159.5t-141.5 -87.5t-182.5 -28q-101 0 -181 29t-140 89t-92.5 160t-32.5 234zM276 489q0 -366 285 -366q139 0 214 85.5t75 280.5q0 186 -73.5 279.5t-205.5 93.5
q-135 0 -215 -95t-80 -278zM391 1380q3 -64 45 -102q44 -41 135 -41q87 0 129 39q42 37 50 102q19 16 59 13q27 0 39.5 -14.5t9.5 -35.5q-13 -88 -80 -149q-71 -62 -207 -62q-131 0 -206 60q-77 62 -84 156q-3 44 47 47q32 2 63 -13z" />
    <glyph glyph-name="Ohungarumlaut" unicode="&#x150;" horiz-adv-x="1458" 
d="M131 717q0 184 44 326t125 231.5t190.5 134.5t244.5 45q273 0 431.5 -186t158.5 -551q0 -194 -42.5 -337.5t-122 -230t-185.5 -128t-240 -41.5q-136 0 -244.5 42.5t-190 129.5t-125.5 230.5t-44 334.5zM287 715q0 -158 33 -274.5t94 -186t141.5 -102.5t181.5 -33
q432 0 432 596q0 294 -116.5 445t-317.5 151q-208 0 -328 -151.5t-120 -444.5zM365 1632q26 18 85 89t117 126.5t97 55.5q69 0 79 -58q-39 -27 -104.5 -95.5t-119.5 -116.5t-87 -48q-52 0 -67 47zM723 1642q25 14 92.5 74t131.5 108t100 48q75 0 79 -70q-40 -21 -111.5 -78
t-130.5 -98t-89 -41q-60 0 -72 57z" />
    <glyph glyph-name="ohungarumlaut" unicode="&#x151;" 
d="M115 492q0 255 124.5 385.5t331.5 130.5q206 0 323.5 -129.5t117.5 -386.5q0 -137 -33 -237t-94 -159.5t-141.5 -87.5t-182.5 -28q-101 0 -181 29t-140 89t-92.5 160t-32.5 234zM276 489q0 -366 285 -366q139 0 214 85.5t75 280.5q0 186 -73.5 279.5t-205.5 93.5
q-135 0 -215 -95t-80 -278zM281 1184q22 16 64 63.5t79 91.5t81 79.5t75 35.5q69 0 79 -57q-39 -27 -104.5 -95.5t-119.5 -116.5t-87 -48q-52 0 -67 47zM639 1194q25 14 92.5 74t131.5 107.5t100 47.5q75 0 79 -69q-40 -21 -111.5 -78t-130.5 -98t-89 -41q-60 0 -72 57z" />
    <glyph glyph-name="OE" unicode="&#x152;" horiz-adv-x="2109" 
d="M1937 0h-841q-33 0 -45 8q-129 -28 -297 -28q-143 0 -255.5 42.5t-195.5 129.5t-127.5 230t-44.5 335q0 359 163.5 548t459.5 189q143 0 280 -31q22 11 68 11h885q16 -20 16 -66q0 -40 -16.5 -63t-49.5 -23h-757v-471h684q18 -18 18 -72q0 -80 -63 -80h-639v-507h807
q16 -20 16 -66q0 -40 -16.5 -63t-49.5 -23zM287 715q0 -310 123 -453t344 -143q145 0 266 33v1116q-113 43 -266 43q-221 0 -344 -150.5t-123 -445.5z" />
    <glyph glyph-name="oe" unicode="&#x153;" horiz-adv-x="1769" 
d="M115 492q0 255 124.5 385.5t331.5 130.5q130 0 225 -57t146 -169q57 111 155 168.5t212 57.5q179 0 273.5 -118.5t94.5 -307.5q0 -67 -14 -105h-647q6 -170 84 -262t213 -92q99 0 188 29.5t131 62.5q35 -21 35 -68q0 -61 -97.5 -114t-269.5 -53q-120 0 -213.5 56.5
t-146.5 158.5q-101 -215 -379 -215q-101 0 -181 29t-140 89t-92.5 160t-32.5 234zM276 489q0 -366 285 -366q135 0 210 82t79 270q0 194 -71.5 290.5t-207.5 96.5q-135 0 -215 -95t-80 -278zM1309 866q-104 0 -184.5 -70.5t-104.5 -205.5h518q0 129 -56 202.5t-173 73.5z
" />
    <glyph glyph-name="Racute" unicode="&#x154;" horiz-adv-x="1372" 
d="M293 1434h448q88 0 160 -21.5t130 -67t90 -123.5t32 -184q0 -161 -95.5 -265t-238.5 -136q34 -45 75 -117.5t74 -133.5t69.5 -119.5t76.5 -92t80 -33.5h57q15 -19 15 -53q0 -88 -123 -88q-60 0 -113 43.5t-97 117t-83 152t-88 168t-94 144.5h-295v-607q-21 -18 -80 -18
q-38 0 -59 15.5t-21 58.5v1345q24 15 80 15zM711 1307h-338v-555h311q138 0 227.5 72t89.5 212q0 271 -290 271zM483 1632q25 14 92 74t131 108t101 48q78 0 78 -70q-39 -21 -110.5 -78t-130.5 -98t-89 -41q-60 0 -72 57z" />
    <glyph glyph-name="racute" unicode="&#x155;" horiz-adv-x="872" 
d="M203 987q78 0 117.5 -38.5t39.5 -131.5v-10q68 88 153 144.5t167 56.5q85 0 130.5 -43t45.5 -129q0 -113 -90 -113q-34 0 -59 25q0 90 -91 90q-65 0 -133 -48.5t-123 -130.5v-641q-21 -18 -86 -18q-34 0 -53.5 15.5t-19.5 58.5v704q0 64 -51 64h-76q-13 37 -13 67
q0 33 39 55.5t103 22.5zM326 1184q22 12 68 52t88.5 78t90 68.5t76.5 30.5q78 0 78 -70q-39 -21 -110.5 -78t-130.5 -98t-89 -41q-58 0 -71 58z" />
    <glyph glyph-name="Rcommaaccent" unicode="&#x156;" horiz-adv-x="1372" 
d="M692 -362q-40 0 -63 22t-23 64q0 90 88 90q46 0 70 -30t24 -103q0 -105 -28.5 -166.5t-69.5 -61.5q-43 0 -51 31q26 25 39.5 71t13.5 83zM293 1434h448q88 0 160 -21.5t130 -67t90 -123.5t32 -184q0 -161 -95.5 -265t-238.5 -136q34 -45 75 -117.5t74 -133.5t69.5 -119.5
t76.5 -92t80 -33.5h57q15 -19 15 -53q0 -88 -123 -88q-60 0 -113 43.5t-97 117t-83 152t-88 168t-94 144.5h-295v-607q-21 -18 -80 -18q-38 0 -59 15.5t-21 58.5v1345q24 15 80 15zM711 1307h-338v-555h311q138 0 227.5 72t89.5 212q0 271 -290 271z" />
    <glyph glyph-name="rcommaaccent" unicode="&#x157;" horiz-adv-x="872" 
d="M291 -293q-40 0 -64 23t-24 65q0 88 88 88q47 0 71.5 -30t24.5 -103q0 -103 -29 -165t-69 -62q-24 0 -35.5 7t-15.5 26q25 25 39 71t14 80zM203 987q78 0 117.5 -38.5t39.5 -131.5v-10q68 88 153 144.5t167 56.5q85 0 130.5 -43t45.5 -129q0 -113 -90 -113q-34 0 -59 25
q0 90 -91 90q-65 0 -133 -48.5t-123 -130.5v-641q-21 -18 -86 -18q-34 0 -53.5 15.5t-19.5 58.5v704q0 64 -51 64h-76q-13 37 -13 67q0 33 39 55.5t103 22.5z" />
    <glyph glyph-name="Rcaron" unicode="&#x158;" horiz-adv-x="1372" 
d="M293 1434h448q88 0 160 -21.5t130 -67t90 -123.5t32 -184q0 -161 -95.5 -265t-238.5 -136q34 -45 75 -117.5t74 -133.5t69.5 -119.5t76.5 -92t80 -33.5h57q15 -19 15 -53q0 -88 -123 -88q-60 0 -113 43.5t-97 117t-83 152t-88 168t-94 144.5h-295v-607q-21 -18 -80 -18
q-38 0 -59 15.5t-21 58.5v1345q24 15 80 15zM711 1307h-338v-555h311q138 0 227.5 72t89.5 212q0 271 -290 271zM623 1577q-22 0 -35 10q-41 18 -147 101.5t-148 105.5q2 30 24.5 50t55.5 20q12 0 27 -5t35 -17.5t35 -22t41 -31t37.5 -31t41 -34.5t35.5 -31q11 9 36.5 31
t40.5 34.5t39 31.5t40.5 30t35.5 22.5t34.5 17t27.5 5.5q32 0 54.5 -20.5t24.5 -49.5q-42 -23 -147.5 -105.5t-146.5 -101.5q-20 -10 -41 -10z" />
    <glyph glyph-name="rcaron" unicode="&#x159;" horiz-adv-x="872" 
d="M203 987q78 0 117.5 -38.5t39.5 -131.5v-10q68 88 153 144.5t167 56.5q85 0 130.5 -43t45.5 -129q0 -113 -90 -113q-34 0 -59 25q0 90 -91 90q-65 0 -133 -48.5t-123 -130.5v-641q-21 -18 -86 -18q-34 0 -53.5 15.5t-19.5 58.5v704q0 64 -51 64h-76q-13 37 -13 67
q0 33 39 55.5t103 22.5zM463 1128q-20 0 -35 11q-41 18 -147 101.5t-148 105.5q2 30 24.5 49.5t55.5 19.5q12 0 27 -5t35 -17.5t35 -22t41 -31t37.5 -31t41 -34.5t35.5 -31q11 9 36.5 31t40.5 34.5t39 31.5t40.5 30t35.5 22.5t34.5 17t27.5 5.5q32 0 55.5 -20t24.5 -49
q-42 -22 -148 -105t-147 -102q-22 -11 -41 -11z" />
    <glyph glyph-name="Sacute" unicode="&#x15a;" horiz-adv-x="1245" 
d="M612 1454q295 0 424 -125q33 -33 33 -80q0 -44 -45 -75q-56 47 -159 79.5t-253 32.5q-154 0 -228.5 -58.5t-74.5 -154.5t79.5 -156t285.5 -120q241 -64 346 -156t106 -266q2 -184 -124.5 -289.5t-376.5 -105.5q-258 0 -414 96q-92 59 -92 121q0 50 28 82q76 -66 204 -104
t267 -38q183 0 268 63.5t85 168.5q0 101 -75 162.5t-273 117.5q-263 72 -366 163t-103 263q0 170 115.5 274.5t342.5 104.5zM432 1632q25 14 92 74t131 108t101 48q78 0 78 -70q-39 -21 -110.5 -78t-130.5 -98t-89 -41q-60 0 -72 57z" />
    <glyph glyph-name="sacute" unicode="&#x15b;" horiz-adv-x="933" 
d="M465 1008q156 0 247 -49t91 -107q0 -63 -37 -82q-36 33 -120 56.5t-185 23.5t-149 -36t-48 -93q0 -63 54.5 -96.5t181.5 -57.5q180 -31 259 -101t79 -200q0 -137 -92.5 -211.5t-272.5 -74.5q-158 0 -265.5 49t-107.5 108q0 57 33 86q48 -37 146.5 -69.5t183.5 -32.5
q121 0 176 39.5t55 103.5q0 68 -52 104t-179 60q-188 33 -264 99.5t-76 201.5q0 124 89 201.5t253 77.5zM322 1184q22 12 68 52t88.5 78t90 68.5t76.5 30.5q78 0 78 -70q-39 -21 -110.5 -78t-130.5 -98t-89 -41q-58 0 -71 58z" />
    <glyph glyph-name="Scircumflex" unicode="&#x15c;" horiz-adv-x="1245" 
d="M612 1454q295 0 424 -125q33 -33 33 -80q0 -44 -45 -75q-56 47 -159 79.5t-253 32.5q-154 0 -228.5 -58.5t-74.5 -154.5t79.5 -156t285.5 -120q241 -64 346 -156t106 -266q2 -184 -124.5 -289.5t-376.5 -105.5q-258 0 -414 96q-92 59 -92 121q0 50 28 82q76 -66 204 -104
t267 -38q183 0 268 63.5t85 168.5q0 101 -75 162.5t-273 117.5q-263 72 -366 163t-103 263q0 170 115.5 274.5t342.5 104.5zM948 1634q-10 -47 -49 -53q-16 -7 -39 0q-26 7 -64 32t-92 66.5t-81 59.5q-26 -17 -81.5 -59t-94 -67t-64.5 -32q-20 -7 -37 0q-39 6 -49 53
q25 13 90.5 73t129 108.5t101.5 48.5q37 0 100.5 -47.5t131.5 -107.5t98 -75z" />
    <glyph glyph-name="scircumflex" unicode="&#x15d;" horiz-adv-x="933" 
d="M465 1008q156 0 247 -49t91 -107q0 -63 -37 -82q-36 33 -120 56.5t-185 23.5t-149 -36t-48 -93q0 -63 54.5 -96.5t181.5 -57.5q180 -31 259 -101t79 -200q0 -137 -92.5 -211.5t-272.5 -74.5q-158 0 -265.5 49t-107.5 108q0 57 33 86q48 -37 146.5 -69.5t183.5 -32.5
q121 0 176 39.5t55 103.5q0 68 -52 104t-179 60q-188 33 -264 99.5t-76 201.5q0 124 89 201.5t253 77.5zM791 1186q-10 -47 -50 -53q-16 -7 -39 0q-26 7 -64 32t-92 66t-81 59q-25 -17 -81 -59t-94.5 -66.5t-64.5 -31.5q-20 -7 -37 0q-39 6 -49 53q25 13 91 73t129.5 108
t101.5 48q37 0 100.5 -47.5t131.5 -107t98 -74.5z" />
    <glyph glyph-name="Scedilla" unicode="&#x15e;" horiz-adv-x="1245" 
d="M612 1454q295 0 424 -125q33 -33 33 -80q0 -44 -45 -75q-56 47 -159 79.5t-253 32.5q-154 0 -228.5 -58.5t-74.5 -154.5t79.5 -156t285.5 -120q241 -64 346 -156t106 -266q2 -184 -124.5 -289.5t-376.5 -105.5q-258 0 -414 96q-92 59 -92 121q0 50 28 82q76 -66 204 -104
t267 -38q183 0 268 63.5t85 168.5q0 101 -75 162.5t-273 117.5q-263 72 -366 163t-103 263q0 170 115.5 274.5t342.5 104.5zM705 -236q0 42 -39.5 62t-92.5 22q-12 12 -12 41l2 138l101 -2l-9 -105q144 -19 144 -164q0 -76 -48 -120t-130 -44q-76 0 -118 28t-42 63t39 55
q14 -22 46 -37.5t68 -15.5q41 0 66 20t25 59z" />
    <glyph glyph-name="scedilla" unicode="&#x15f;" horiz-adv-x="933" 
d="M465 1008q156 0 247 -49t91 -107q0 -63 -37 -82q-36 33 -120 56.5t-185 23.5t-149 -36t-48 -93q0 -63 54.5 -96.5t181.5 -57.5q180 -31 259 -101t79 -200q0 -137 -92.5 -211.5t-272.5 -74.5q-158 0 -265.5 49t-107.5 108q0 57 33 86q48 -37 146.5 -69.5t183.5 -32.5
q121 0 176 39.5t55 103.5q0 68 -52 104t-179 60q-188 33 -264 99.5t-76 201.5q0 124 89 201.5t253 77.5zM555 -229q0 42 -39 62t-92 22q-12 12 -12 41l2 137l100 -2l-8 -105q143 -19 143 -164q0 -76 -48 -119.5t-130 -43.5q-76 0 -118 27.5t-42 62.5t39 55q14 -22 46 -37.5
t69 -15.5q41 0 65.5 20.5t24.5 59.5z" />
    <glyph glyph-name="Scaron" unicode="&#x160;" horiz-adv-x="1245" 
d="M612 1454q295 0 424 -125q33 -33 33 -80q0 -44 -45 -75q-56 47 -159 79.5t-253 32.5q-154 0 -228.5 -58.5t-74.5 -154.5t79.5 -156t285.5 -120q241 -64 346 -156t106 -266q2 -184 -124.5 -289.5t-376.5 -105.5q-258 0 -414 96q-92 59 -92 121q0 50 28 82q76 -66 204 -104
t267 -38q183 0 268 63.5t85 168.5q0 101 -75 162.5t-273 117.5q-263 72 -366 163t-103 263q0 170 115.5 274.5t342.5 104.5zM621 1577q-22 0 -35 10q-41 18 -147 101.5t-148 105.5q2 30 24.5 50t55.5 20q12 0 27 -5t35 -17.5t35 -22t41 -31t37.5 -31t41 -34.5t35.5 -31
q11 9 36.5 31t40.5 34.5t39 31.5t40.5 30t35.5 22.5t34.5 17t27.5 5.5q32 0 54.5 -20.5t24.5 -49.5q-42 -23 -147.5 -105.5t-146.5 -101.5q-20 -10 -41 -10z" />
    <glyph glyph-name="scaron" unicode="&#x161;" horiz-adv-x="933" 
d="M465 1008q156 0 247 -49t91 -107q0 -63 -37 -82q-36 33 -120 56.5t-185 23.5t-149 -36t-48 -93q0 -63 54.5 -96.5t181.5 -57.5q180 -31 259 -101t79 -200q0 -137 -92.5 -211.5t-272.5 -74.5q-158 0 -265.5 49t-107.5 108q0 57 33 86q48 -37 146.5 -69.5t183.5 -32.5
q121 0 176 39.5t55 103.5q0 68 -52 104t-179 60q-188 33 -264 99.5t-76 201.5q0 124 89 201.5t253 77.5zM459 1128q-20 0 -35 11q-41 18 -147 101.5t-148 105.5q2 30 24.5 49.5t55.5 19.5q12 0 27 -5t35 -17.5t35 -22t41 -31t37.5 -31t41 -34.5t35.5 -31q11 9 36.5 31
t40.5 34.5t39 31.5t40.5 30t35.5 22.5t34.5 17t27.5 5.5q32 0 55.5 -20t24.5 -49q-42 -22 -148 -105t-147 -102q-22 -11 -41 -11z" />
    <glyph glyph-name="Tcommaaccent" unicode="&#x162;" horiz-adv-x="1224" 
d="M612 -362q-41 0 -64.5 22.5t-23.5 65.5q0 88 90 88q46 0 70.5 -30t24.5 -103q0 -103 -29.5 -165.5t-69.5 -62.5q-24 0 -35.5 7t-15.5 26q25 25 39 71.5t14 80.5zM1124 1282h-434v-1266q-21 -16 -88 -16t-67 74v1208h-484q-18 36 -18 78q0 31 20 52.5t64 21.5h1057
q18 -22 18 -66q0 -39 -17.5 -62.5t-50.5 -23.5z" />
    <glyph glyph-name="tcommaaccent" unicode="&#x163;" horiz-adv-x="751" 
d="M360 -295q-41 0 -64.5 22.5t-23.5 65.5q0 88 90 88q46 0 70.5 -30t24.5 -103q0 -104 -29.5 -165.5t-69.5 -61.5q-24 0 -35.5 7t-15.5 26q25 24 39 70.5t14 80.5zM614 854h-249v-563q0 -88 29.5 -121t94.5 -33h197q10 -23 10 -45q0 -29 -19 -48t-75.5 -31.5t-152.5 -12.5
q-111 0 -172.5 57t-61.5 197v600h-121q-16 22 -16 57q0 38 14.5 57t52.5 19h70v268q30 17 80 17q32 0 51 -17t19 -51v-217h313q14 -14 14 -53q0 -80 -78 -80z" />
    <glyph glyph-name="Tcaron" unicode="&#x164;" horiz-adv-x="1224" 
d="M1124 1282h-434v-1266q-21 -16 -88 -16t-67 74v1208h-484q-18 36 -18 78q0 31 20 52.5t64 21.5h1057q18 -22 18 -66q0 -39 -17.5 -62.5t-50.5 -23.5zM608 1577q-22 0 -35 10q-41 18 -146.5 101.5t-147.5 105.5q2 30 24 50t55 20q12 0 27 -5t35 -17.5t35 -22t41 -31
t37.5 -31t41 -34.5t35.5 -31q11 9 36.5 31t40.5 34.5t39 31.5t40.5 30t35.5 22.5t34.5 17t27.5 5.5q32 0 55 -20.5t25 -49.5q-42 -22 -148 -105t-147 -102q-20 -10 -41 -10z" />
    <glyph glyph-name="tcaron" unicode="&#x165;" horiz-adv-x="751" 
d="M606 1327q-88 0 -88 88t88 88q47 0 70.5 -30t23.5 -103q0 -105 -28 -166t-68 -61q-45 0 -53 31q27 25 41 71t14 82zM614 854h-249v-563q0 -88 29.5 -121t94.5 -33h197q10 -23 10 -45q0 -29 -19 -48t-75.5 -31.5t-152.5 -12.5q-111 0 -172.5 57t-61.5 197v600h-121
q-16 22 -16 57q0 38 14.5 57t52.5 19h70v268q30 17 80 17q32 0 51 -17t19 -51v-217h313q14 -14 14 -53q0 -80 -78 -80z" />
    <glyph glyph-name="Tbar" unicode="&#x166;" horiz-adv-x="1224" 
d="M1124 1282h-434v-518h307q15 -27 15 -74q0 -78 -74 -78h-248v-596q-21 -16 -88 -16t-67 74v538h-308q-16 40 -16 78q0 32 16 53t49 21h259v518h-484q-18 36 -18 78q0 31 20 52.5t64 21.5h1057q18 -22 18 -66q0 -39 -17.5 -62.5t-50.5 -23.5z" />
    <glyph glyph-name="tbar" unicode="&#x167;" horiz-adv-x="751" 
d="M614 854h-249v-242h303q16 -19 16 -65q0 -38 -18.5 -57t-61.5 -19h-239v-180q0 -88 29.5 -121t94.5 -33h197q10 -23 10 -45q0 -29 -19 -48t-75.5 -31.5t-152.5 -12.5q-111 0 -172.5 57t-61.5 197v217h-121q-16 32 -16 68q0 73 67 73h70v242h-121q-16 22 -16 57
q0 38 14.5 57t52.5 19h70v268q30 17 80 17q32 0 51 -17t19 -51v-217h313q14 -14 14 -53q0 -80 -78 -80z" />
    <glyph glyph-name="Utilde" unicode="&#x168;" horiz-adv-x="1435" 
d="M1085 541v876q27 17 80 17q80 0 80 -64v-850q0 -540 -528 -540q-265 0 -390.5 132t-125.5 408l-2 897q27 17 82 17q77 0 77 -64v-827q0 -212 84 -315t275 -103q199 0 283.5 101.5t84.5 314.5zM549 1792q59 0 169.5 -31.5t158.5 -31.5q86 0 129 49q13 -7 24.5 -27
t11.5 -43q0 -39 -37.5 -66.5t-103.5 -27.5q-56 0 -182.5 29.5t-171.5 29.5q-38 0 -72 -17.5t-39 -35.5q-41 13 -41 63q0 36 44 72.5t110 36.5z" />
    <glyph glyph-name="utilde" unicode="&#x169;" horiz-adv-x="1212" 
d="M985 0q-65 0 -102 35.5t-37 126.5v18q-153 -200 -365 -200q-274 0 -274 329v479q0 56 -47 56h-90q-9 40 -9 65q3 78 158 78q80 0 116 -33t36 -110v-500q0 -207 157 -207q191 0 318 217v615q34 18 88 18q76 0 76 -61v-736q0 -32 12 -44.5t35 -12.5h76q6 -36 6 -51
q0 -38 -40 -60t-114 -22zM424 1343q59 0 169.5 -31.5t158.5 -31.5q86 0 129 49q14 -7 25.5 -26.5t11.5 -42.5q0 -39 -38 -67t-104 -28q-56 0 -182.5 30t-171.5 30q-38 0 -72 -18t-39 -36q-41 13 -41 64q0 36 44 72t110 36z" />
    <glyph glyph-name="Umacron" unicode="&#x16a;" horiz-adv-x="1435" 
d="M1085 541v876q27 17 80 17q80 0 80 -64v-850q0 -540 -528 -540q-265 0 -390.5 132t-125.5 408l-2 897q27 17 82 17q77 0 77 -64v-827q0 -212 84 -315t275 -103q199 0 283.5 101.5t84.5 314.5zM944 1636h-545q-16 32 -16 54q0 36 17.5 52.5t74.5 16.5h561q17 -17 17 -49
q0 -74 -109 -74z" />
    <glyph glyph-name="umacron" unicode="&#x16b;" horiz-adv-x="1212" 
d="M985 0q-65 0 -102 35.5t-37 126.5v18q-153 -200 -365 -200q-274 0 -274 329v479q0 56 -47 56h-90q-9 40 -9 65q3 78 158 78q80 0 116 -33t36 -110v-500q0 -207 157 -207q191 0 318 217v615q34 18 88 18q76 0 76 -61v-736q0 -32 12 -44.5t35 -12.5h76q6 -36 6 -51
q0 -38 -40 -60t-114 -22zM815 1188h-545q-16 32 -16 53q0 37 17.5 53.5t74.5 16.5h561q17 -17 17 -49q0 -74 -109 -74z" />
    <glyph glyph-name="Ubreve" unicode="&#x16c;" horiz-adv-x="1435" 
d="M1085 541v876q27 17 80 17q80 0 80 -64v-850q0 -540 -528 -540q-265 0 -390.5 132t-125.5 408l-2 897q27 17 82 17q77 0 77 -64v-827q0 -212 84 -315t275 -103q199 0 283.5 101.5t84.5 314.5zM539 1829q3 -65 45 -103q43 -40 135 -40q88 0 129 38q40 35 49 103
q18 15 59 12q28 0 40.5 -14.5t9.5 -34.5q-13 -89 -80 -150q-70 -61 -207 -61q-133 0 -207 59q-77 62 -84 156q-3 44 47 47q35 3 64 -12z" />
    <glyph glyph-name="ubreve" unicode="&#x16d;" horiz-adv-x="1212" 
d="M985 0q-65 0 -102 35.5t-37 126.5v18q-153 -200 -365 -200q-274 0 -274 329v479q0 56 -47 56h-90q-9 40 -9 65q3 78 158 78q80 0 116 -33t36 -110v-500q0 -207 157 -207q191 0 318 217v615q34 18 88 18q76 0 76 -61v-736q0 -32 12 -44.5t35 -12.5h76q6 -36 6 -51
q0 -38 -40 -60t-114 -22zM403 1380q3 -63 46 -102q44 -41 135 -41q87 0 129 39q40 36 49 102q19 16 59 13q28 0 40 -14.5t9 -35.5q-13 -89 -79 -149q-71 -62 -207 -62q-132 0 -207 60q-77 62 -84 156q-3 44 47 47q32 2 63 -13z" />
    <glyph glyph-name="Uring" unicode="&#x16e;" horiz-adv-x="1435" 
d="M1085 541v876q27 17 80 17q80 0 80 -64v-850q0 -540 -528 -540q-265 0 -390.5 132t-125.5 408l-2 897q27 17 82 17q77 0 77 -64v-827q0 -212 84 -315t275 -103q199 0 283.5 101.5t84.5 314.5zM537 1743q0 180 180 180q89 0 134.5 -46.5t45.5 -133.5q0 -88 -45.5 -134
t-134.5 -46q-180 0 -180 180zM621 1743q0 -46 24.5 -71t71.5 -25q46 0 71 25t25 71q0 45 -25.5 70.5t-70.5 25.5q-96 0 -96 -96z" />
    <glyph glyph-name="uring" unicode="&#x16f;" horiz-adv-x="1212" 
d="M985 0q-65 0 -102 35.5t-37 126.5v18q-153 -200 -365 -200q-274 0 -274 329v479q0 56 -47 56h-90q-9 40 -9 65q3 78 158 78q80 0 116 -33t36 -110v-500q0 -207 157 -207q191 0 318 217v615q34 18 88 18q76 0 76 -61v-736q0 -32 12 -44.5t35 -12.5h76q6 -36 6 -51
q0 -38 -40 -60t-114 -22zM401 1294q0 181 181 181q88 0 134 -47t46 -134q0 -88 -45.5 -134t-134.5 -46q-181 0 -181 180zM485 1294q0 -46 25 -71t72 -25q46 0 71 25t25 71q0 45 -25.5 71t-70.5 26q-97 0 -97 -97z" />
    <glyph glyph-name="Uhungarumlaut" unicode="&#x170;" horiz-adv-x="1435" 
d="M1085 541v876q27 17 80 17q80 0 80 -64v-850q0 -540 -528 -540q-265 0 -390.5 132t-125.5 408l-2 897q27 17 82 17q77 0 77 -64v-827q0 -212 84 -315t275 -103q199 0 283.5 101.5t84.5 314.5zM377 1632q26 18 85 89t117 126.5t97 55.5q70 0 80 -58q-38 -27 -104.5 -95.5
t-120.5 -116.5t-87 -48q-52 0 -67 47zM735 1642q25 14 92.5 74t131.5 108t100 48q76 0 80 -70q-40 -21 -112 -78t-131 -98t-89 -41q-60 0 -72 57z" />
    <glyph glyph-name="uhungarumlaut" unicode="&#x171;" horiz-adv-x="1212" 
d="M985 0q-65 0 -102 35.5t-37 126.5v18q-153 -200 -365 -200q-274 0 -274 329v479q0 56 -47 56h-90q-9 40 -9 65q3 78 158 78q80 0 116 -33t36 -110v-500q0 -207 157 -207q191 0 318 217v615q34 18 88 18q76 0 76 -61v-736q0 -32 12 -44.5t35 -12.5h76q6 -36 6 -51
q0 -38 -40 -60t-114 -22zM293 1184q22 16 64 63.5t79 91.5t81 79.5t75 35.5q70 0 80 -57q-38 -27 -104.5 -95.5t-120.5 -116.5t-87 -48q-52 0 -67 47zM651 1194q25 14 92.5 74t131.5 107.5t100 47.5q76 0 80 -69q-40 -21 -112 -78t-131 -98t-89 -41q-60 0 -72 57z" />
    <glyph glyph-name="Uogonek" unicode="&#x172;" horiz-adv-x="1435" 
d="M838 -12q-44 -8 -121 -8q-265 0 -390.5 132t-125.5 408l-2 897q27 17 82 17q77 0 77 -64v-827q0 -212 84 -315t275 -103q199 0 283.5 101.5t84.5 314.5v876q27 17 80 17q80 0 80 -64v-850q0 -359 -227 -477q-72 -38 -118 -111t-46 -120q0 -49 29.5 -67.5t85.5 -18.5
q10 -23 10 -45q0 -48 -70 -48q-61 0 -109 38t-48 118q0 113 86 199z" />
    <glyph glyph-name="uogonek" unicode="&#x173;" horiz-adv-x="1212" 
d="M528 137q191 0 318 223v609q34 18 88 18q76 0 76 -61v-736q0 -32 12 -44.5t35 -12.5h76q6 -36 6 -51q0 -27 -31 -55q-39 -36 -69.5 -95t-30.5 -96q0 -48 28.5 -68t83.5 -20q10 -15 10 -43q0 -49 -67 -49q-62 0 -110 38.5t-48 117.5q0 92 66 188q-58 1 -81.5 47.5
t-35.5 149.5q-157 -217 -373 -217q-274 0 -274 329v479q0 56 -47 56h-90q-9 40 -9 65q3 78 158 78q90 0 121 -41.5t31 -146.5v-455q0 -207 157 -207z" />
    <glyph glyph-name="Wcircumflex" unicode="&#x174;" horiz-adv-x="2048" 
d="M928 1434q62 0 82 -56l458 -1161q125 207 249.5 589.5t152.5 608.5q40 19 84 19q24 0 40.5 -11.5t16.5 -29.5q0 -31 -12 -107q-39 -216 -178 -605t-303 -669q-34 -12 -70 -12q-57 0 -80 66l-291 737q-190 -466 -379 -789q-34 -12 -69 -12q-53 0 -80 64l-512 1351
q34 17 92 17q61 0 84 -56l438 -1159q75 127 174 349.5t174 430.5l-163 418q31 17 92 17zM1337 1634q-10 -47 -49 -53q-16 -7 -39 0q-26 7 -64 32t-92 66.5t-81 59.5q-26 -17 -81.5 -59t-94 -67t-64.5 -32q-20 -7 -37 0q-39 6 -49 53q25 13 91 73t129.5 108.5t101.5 48.5
q37 0 100.5 -47.5t131 -107.5t97.5 -75z" />
    <glyph glyph-name="wcircumflex" unicode="&#x175;" horiz-adv-x="1599" 
d="M1051 14l-224 643q-36 -142 -100 -293.5t-135 -269.5q-33 -53 -57.5 -73.5t-57.5 -20.5q-40 0 -59 16l-264 809q-9 37 -45 37h-74q-10 27 -10 56q0 69 137 69q55 0 84 -20.5t45 -63.5l217 -682q92 139 163.5 321t71.5 273q0 47 -36 47h-60q-10 23 -10 53q0 32 39.5 52
t103.5 20q40 0 67 -21t38 -55l233 -694q98 132 164 306t66 284q0 26 -14 40.5t-36 14.5h-69q-10 23 -10 56q0 31 38 50t99 19q75 0 109 -38t34 -115q0 -138 -84.5 -358.5t-189.5 -377.5q-24 -35 -37.5 -52t-35.5 -31.5t-46 -14.5q-35 0 -55 14zM1092 1188q-10 -47 -50 -53
q-16 -6 -38 0q-26 7 -64 31.5t-93 66t-81 59.5q-25 -17 -81 -59t-94.5 -66.5t-64.5 -31.5q-20 -7 -37 0q-39 6 -49 53q25 13 91 73t129.5 108t101.5 48q37 0 100.5 -47.5t131.5 -107t98 -74.5z" />
    <glyph glyph-name="Ycircumflex" unicode="&#x176;" horiz-adv-x="1210" 
d="M700 477v-459q-25 -18 -88 -18q-69 0 -69 59v412q-153 219 -276 462.5t-193 475.5q41 25 90 25q33 0 50.5 -12t27.5 -42q126 -413 385 -792q126 189 241 443t140 392q22 11 75 11q23 0 38.5 -16.5t15.5 -39.5q-3 -120 -152.5 -419t-284.5 -482zM930 1634q-10 -47 -49 -53
q-16 -7 -39 0q-26 7 -64.5 32t-92.5 66.5t-81 59.5q-26 -18 -81 -59.5t-93.5 -66.5t-64.5 -32q-20 -7 -37 0q-39 6 -49 53q25 13 90.5 73t129 108.5t101.5 48.5q37 0 100.5 -47.5t131.5 -107.5t98 -75z" />
    <glyph glyph-name="ycircumflex" unicode="&#x177;" horiz-adv-x="1105" 
d="M299 879l254 -672q14 -44 47 -51q103 203 177.5 388.5t74.5 262.5q0 55 -49 55h-74q-10 20 -10 56q0 31 36 50t89 19q164 0 164 -143q0 -138 -150 -473t-272 -529q-81 -129 -171 -178t-208 -49q-141 0 -141 80q0 33 12 57h151q66 0 121 32t113 124l65 115q-32 6 -57 31.5
t-39 64.5l-270 702q-14 41 -51 41h-76q-10 20 -10 56q0 32 34 50.5t97 18.5q60 0 91.5 -25.5t51.5 -82.5zM862 1188q-10 -47 -49 -53q-16 -7 -39 0q-26 7 -64 32t-92 66t-81 59q-25 -17 -81 -59t-94.5 -66.5t-64.5 -31.5q-20 -7 -37 0q-39 6 -49 53q25 13 90.5 72.5t129 108
t101.5 48.5q37 0 100.5 -47.5t131.5 -107t98 -74.5z" />
    <glyph glyph-name="Ydieresis" unicode="&#x178;" horiz-adv-x="1210" 
d="M700 477v-459q-25 -18 -88 -18q-69 0 -69 59v412q-153 219 -276 462.5t-193 475.5q41 25 90 25q33 0 50.5 -12t27.5 -42q126 -413 385 -792q126 189 241 443t140 392q22 11 75 11q23 0 38.5 -16.5t15.5 -39.5q-3 -120 -152.5 -419t-284.5 -482zM297 1706q0 94 94 94
t94 -94q0 -92 -94 -92t-94 92zM727 1706q0 94 92 94q94 0 94 -94q0 -92 -94 -92q-92 0 -92 92z" />
    <glyph glyph-name="Zacute" unicode="&#x179;" horiz-adv-x="1308" 
d="M1145 1294l-856 -1153h940q14 -33 14 -67q0 -74 -78 -74h-1087q-12 27 -12 57q0 46 28 82l856 1147h-813q-18 32 -18 70q0 34 17 56t54 22h973q13 -13 13 -56q0 -45 -31 -84zM453 1632q25 14 91.5 74t130.5 108t101 48q78 0 78 -70q-39 -21 -110.5 -78t-130.5 -98
t-89 -41q-59 0 -71 57z" />
    <glyph glyph-name="zacute" unicode="&#x17a;" horiz-adv-x="1021" 
d="M86 59q0 39 23 68l585 727h-561q-16 22 -16 57q0 24 3.5 38.5t19 26t44.5 11.5h703q10 -30 10 -53q0 -37 -27 -72l-579 -725h633q12 -20 12 -65q0 -72 -80 -72h-754q-16 28 -16 59zM309 1186q25 14 92 74t131 107.5t101 47.5q78 0 78 -69q-39 -21 -110.5 -78
t-130.5 -98.5t-89 -41.5q-59 0 -72 58z" />
    <glyph glyph-name="Zdotaccent" unicode="&#x17b;" horiz-adv-x="1308" 
d="M1145 1294l-856 -1153h940q14 -33 14 -67q0 -74 -78 -74h-1087q-12 27 -12 57q0 46 28 82l856 1147h-813q-18 32 -18 70q0 34 17 56t54 22h973q13 -13 13 -56q0 -45 -31 -84zM551 1700q0 96 92 96q94 0 94 -96q0 -92 -94 -92q-92 0 -92 92z" />
    <glyph glyph-name="zdotaccent" unicode="&#x17c;" horiz-adv-x="1021" 
d="M86 59q0 39 23 68l585 727h-561q-16 22 -16 57q0 24 3.5 38.5t19 26t44.5 11.5h703q10 -30 10 -53q0 -37 -27 -72l-579 -725h633q12 -20 12 -65q0 -72 -80 -72h-754q-16 28 -16 59zM416 1264q0 94 94 94t94 -94q0 -95 -94 -95t-94 95z" />
    <glyph glyph-name="Zcaron" unicode="&#x17d;" horiz-adv-x="1308" 
d="M1145 1294l-856 -1153h940q14 -33 14 -67q0 -74 -78 -74h-1087q-12 27 -12 57q0 46 28 82l856 1147h-813q-18 32 -18 70q0 34 17 56t54 22h973q13 -13 13 -56q0 -45 -31 -84zM651 1577q-22 0 -35 10q-41 18 -146.5 101.5t-147.5 105.5q2 30 24 50t55 20q12 0 27 -5
t35 -17.5t35 -22t41 -31t37.5 -31t41 -34.5t35.5 -31q11 9 36.5 31t40.5 34.5t39 31.5t40.5 30t35.5 22.5t34.5 17t27.5 5.5q32 0 55 -20.5t25 -49.5q-42 -22 -148 -105t-147 -102q-20 -10 -41 -10z" />
    <glyph glyph-name="zcaron" unicode="&#x17e;" horiz-adv-x="1021" 
d="M86 59q0 39 23 68l585 727h-561q-16 22 -16 57q0 24 3.5 38.5t19 26t44.5 11.5h703q10 -30 10 -53q0 -37 -27 -72l-579 -725h633q12 -20 12 -65q0 -72 -80 -72h-754q-16 28 -16 59zM508 1130q-20 0 -35 11q-41 18 -147 101.5t-148 105.5q2 30 24.5 49.5t55.5 19.5
q12 0 27 -5t35 -17.5t35 -22t41 -31t37.5 -31t41 -34.5t35.5 -31q11 9 36.5 31t40.5 34.5t39 31.5t40.5 30t35.5 22.5t34.5 17t27.5 5.5q32 0 55.5 -20t24.5 -49q-42 -22 -148 -105t-147 -102q-22 -11 -41 -11z" />
    <glyph glyph-name="florin" unicode="&#x192;" horiz-adv-x="1028" 
d="M793 680h-242l-111 -789q-21 -151 -98.5 -213.5t-222.5 -62.5q-92 0 -129 20.5t-37 59.5q0 33 14 65h166q66 0 103.5 34t50.5 124l106 762h-233q-1 3 -5.5 13t-6 15t-3.5 17.5t-2 28.5q0 35 18.5 54t67.5 19h185l47 338q20 145 98.5 207t226.5 62q96 0 137.5 -22
t41.5 -54q0 -35 -11 -72h-174q-74 0 -114 -33t-52 -116l-43 -310h303q17 -21 17 -67q0 -39 -22 -59.5t-76 -20.5z" />
    <glyph glyph-name="aringacute" unicode="&#x1fb;" horiz-adv-x="1081" 
d="M174 793q-29 25 -29 65q0 46 55.5 81.5t131 52t151.5 16.5q72 0 132 -16t108.5 -49.5t76 -92.5t27.5 -139v-527q0 -71 52 -71h57q12 -16 12 -54q0 -59 -131 -59q-58 0 -92.5 39t-34.5 102v9q-173 -170 -354 -170q-132 0 -201 83t-69 222q0 123 70.5 196t207.5 80l346 21
v88q0 194 -213 194q-88 0 -174.5 -21.5t-128.5 -49.5zM358 115q160 0 332 159v193l-338 -33q-145 -14 -145 -151q0 -72 39 -120t112 -48zM360 1280q0 180 181 180q89 0 134.5 -46.5t45.5 -133.5q0 -88 -45.5 -134t-134.5 -46q-181 0 -181 180zM444 1280q0 -46 25 -71t72 -25
q46 0 71 25t25 71q0 45 -25.5 70.5t-70.5 25.5q-97 0 -97 -96zM358 1573q25 14 92 74t131 107.5t101 47.5q78 0 78 -69q-39 -21 -110.5 -78t-130.5 -98t-89 -41q-60 0 -72 57z" />
    <glyph glyph-name="AEacute" unicode="&#x1fc;" horiz-adv-x="2002" 
d="M1831 0h-846q-33 0 -52.5 15.5t-19.5 60.5v272h-583l-119 -297q-10 -28 -31 -39.5t-59 -11.5q-61 0 -84 23l557 1384q40 27 166 27h1118q18 -18 18 -66q0 -39 -17 -62.5t-48 -23.5h-758v-471h684q19 -24 19 -72q0 -38 -16.5 -59t-47.5 -21h-639v-507h805q18 -18 18 -66
q0 -39 -17 -62.5t-48 -23.5zM702 1282l-319 -797h530v797h-211zM936 1632q25 14 92 74t131 108t101 48q77 0 77 -70q-39 -21 -110.5 -78t-130 -98t-88.5 -41q-60 0 -72 57z" />
    <glyph glyph-name="aeacute" unicode="&#x1fd;" horiz-adv-x="1607" 
d="M174 793q-29 25 -29 65q0 46 55.5 81.5t131 52t151.5 16.5q53 0 100.5 -9t91.5 -29t75.5 -56.5t44.5 -86.5q59 89 148.5 135t191.5 46q180 0 275 -118.5t95 -307.5q0 -67 -14 -105h-647q12 -301 237 -348q47 -6 97 -6q91 3 167 31.5t115 60.5q35 -23 35 -68
q0 -61 -97.5 -114t-269.5 -53q-123 0 -218.5 56.5t-149.5 160.5q-90 -95 -204.5 -156t-219.5 -61q-132 0 -201 83t-69 222q0 111 57.5 180.5t171.5 87.5q91 12 393 31q-2 117 -23.5 177t-64 81.5t-123.5 21.5q-88 0 -174.5 -21.5t-128.5 -49.5zM358 115q87 0 179 49.5
t176 136.5q-18 65 -21 139v27l-340 -33q-145 -14 -145 -151q0 -71 39 -119.5t112 -48.5zM1133 868q-104 0 -182.5 -71.5t-102.5 -206.5h516q0 128 -57.5 203t-173.5 75zM676 1190q22 12 68 52t88.5 78t90 68.5t76.5 30.5q78 0 78 -69q-39 -21 -110.5 -78t-130 -98t-88.5 -41
q-60 0 -72 57z" />
    <glyph glyph-name="Oslashacute" unicode="&#x1fe;" horiz-adv-x="1458" 
d="M131 717q0 184 44 326t125 231.5t190.5 134.5t244.5 45q116 0 217 -37l92 236q20 10 58 10q24 0 39.5 -12.5t17.5 -30.5q0 -14 -6 -29l-92 -233q128 -81 196 -243t68 -398q0 -194 -42.5 -337.5t-122 -230t-185.5 -128t-240 -41.5q-112 0 -203 26l-108 -280q-16 -7 -49 -7
q-24 0 -44 12t-20 31q0 17 8 33l103 266q-291 158 -291 656zM287 715q0 -379 200 -502l406 1069q-79 29 -158 29q-208 0 -328 -151.5t-120 -444.5zM1169 715q0 344 -178 483l-399 -1061q64 -18 145 -18q432 0 432 596zM526 1632q25 14 92 74t131 108t101 48q78 0 78 -70
q-39 -21 -110.5 -78t-130.5 -98t-89 -41q-60 0 -72 57z" />
    <glyph glyph-name="oslashacute" unicode="&#x1ff;" 
d="M115 492q0 255 124.5 385.5t331.5 130.5q47 0 107 -11l82 260q31 9 49 9q38 0 41 -29q0 -18 -6 -33l-74 -235q242 -104 242 -477q0 -137 -33 -237t-94 -159.5t-141.5 -87.5t-182.5 -28q-49 0 -104 10l-62 -203q-24 -12 -55 -12t-37 22q-2 11 6 43l56 174
q-250 99 -250 478zM276 489q0 -251 140 -323l215 690q-30 6 -60 6q-135 0 -215 -95t-80 -278zM850 489q0 239 -133 320l-213 -684q18 -2 57 -2q139 0 214 85.5t75 280.5zM362 1186q25 14 92 74t131 107.5t101 47.5q78 0 78 -69q-39 -21 -110.5 -78t-130.5 -98.5t-89 -41.5
q-59 0 -72 58z" />
    <glyph glyph-name="Scommaaccent" unicode="&#x218;" horiz-adv-x="1245" 
d="M618 -338q-88 0 -88 88t88 88q46 0 70.5 -30t24.5 -103q0 -104 -29 -165.5t-70 -61.5q-43 0 -51 33q26 25 40.5 71t14.5 80zM612 1454q295 0 424 -125q33 -33 33 -80q0 -44 -45 -75q-56 47 -159 79.5t-253 32.5q-154 0 -228.5 -58.5t-74.5 -154.5t79.5 -156t285.5 -120
q241 -64 346 -156t106 -266q2 -184 -124.5 -289.5t-376.5 -105.5q-258 0 -414 96q-92 59 -92 121q0 50 28 82q76 -66 204 -104t267 -38q183 0 268 63.5t85 168.5q0 101 -75 162.5t-273 117.5q-263 72 -366 163t-103 263q0 170 115.5 274.5t342.5 104.5z" />
    <glyph glyph-name="scommaaccent" unicode="&#x219;" horiz-adv-x="933" 
d="M455 -295q-88 0 -88 88t88 88q47 0 70.5 -30t23.5 -103q0 -105 -28 -166t-70 -61q-44 0 -52 33q26 24 41 70.5t15 80.5zM465 1008q156 0 247 -49t91 -107q0 -63 -37 -82q-36 33 -120 56.5t-185 23.5t-149 -36t-48 -93q0 -63 54.5 -96.5t181.5 -57.5q180 -31 259 -101
t79 -200q0 -137 -92.5 -211.5t-272.5 -74.5q-158 0 -265.5 49t-107.5 108q0 57 33 86q48 -37 146.5 -69.5t183.5 -32.5q121 0 176 39.5t55 103.5q0 68 -52 104t-179 60q-188 33 -264 99.5t-76 201.5q0 124 89 201.5t253 77.5z" />
    <glyph glyph-name="uni021A" unicode="&#x21a;" horiz-adv-x="1224" 
d="M608 -342q-41 0 -64.5 22t-23.5 64q0 90 90 90q46 0 70.5 -30t24.5 -103q0 -104 -29.5 -165.5t-69.5 -61.5q-24 0 -35.5 6.5t-15.5 23.5q26 25 39.5 71t13.5 83zM1124 1282h-434v-1266q-21 -16 -88 -16t-67 74v1208h-484q-18 36 -18 78q0 31 20 52.5t64 21.5h1057
q18 -22 18 -66q0 -39 -17.5 -62.5t-50.5 -23.5z" />
    <glyph glyph-name="uni021B" unicode="&#x21b;" horiz-adv-x="751" 
d="M360 -295q-41 0 -64.5 22.5t-23.5 65.5q0 88 90 88q46 0 70.5 -30t24.5 -103q0 -104 -29.5 -165.5t-69.5 -61.5q-24 0 -35.5 7t-15.5 26q25 24 39 70.5t14 80.5zM614 854h-249v-563q0 -88 29.5 -121t94.5 -33h197q10 -23 10 -45q0 -29 -19 -48t-75.5 -31.5t-152.5 -12.5
q-111 0 -172.5 57t-61.5 197v600h-121q-16 22 -16 57q0 38 14.5 57t52.5 19h70v268q30 17 80 17q32 0 51 -17t19 -51v-217h313q14 -14 14 -53q0 -80 -78 -80z" />
    <glyph glyph-name="dotlessj" unicode="&#x237;" horiz-adv-x="581" 
d="M252 987q78 0 111.5 -35.5t33.5 -122.5v-921q0 -135 -64.5 -196.5t-174.5 -61.5q-195 0 -195 86q0 32 10 61h150q60 0 93.5 35t33.5 107v845q0 58 -47 58h-80q-10 27 -10 63q0 82 139 82z" />
    <glyph glyph-name="hsuperior" unicode="&#x2b0;" horiz-adv-x="604" 
d="M125 1434q49 0 49 -39v-260q82 92 182 92q72 0 112 -42t40 -126v-246q0 -27 20 -27h33q6 -9 6 -26q0 -19 -23.5 -31t-66.5 -12q-74 0 -74 84v233q0 92 -84 92q-38 0 -77 -20t-68 -55v-324q-17 -10 -53 -10q-49 0 -49 47v659q33 11 53 11z" />
    <glyph glyph-name="circumflex" unicode="&#x2c6;" horiz-adv-x="989" 
d="M801 1188q-10 -47 -49 -53q-16 -7 -39 0q-26 7 -64 31.5t-93 66t-81 59.5q-26 -17 -81.5 -59t-93.5 -66.5t-64 -31.5q-20 -7 -37 0q-39 6 -49 53q25 13 90.5 72.5t129 108t101.5 48.5q37 0 100.5 -47.5t131.5 -107t98 -74.5z" />
    <glyph glyph-name="caron" unicode="&#x2c7;" horiz-adv-x="1077" 
d="M524 1130q-20 0 -35 11q-41 18 -146.5 101.5t-147.5 105.5q2 30 24 49.5t55 19.5q12 0 27 -5t35 -17.5t35 -22t41 -31t37.5 -31t41 -34.5t35.5 -31q11 9 36.5 31t40.5 34.5t39 31.5t40.5 30t35.5 22.5t34.5 17t27.5 5.5q32 0 55.5 -20t24.5 -49q-42 -22 -148 -105
t-147 -102q-22 -11 -41 -11z" />
    <glyph glyph-name="breve" unicode="&#x2d8;" horiz-adv-x="913" 
d="M260 1382q3 -64 45 -102q44 -41 135 -41q87 0 129 39q40 36 49 102q19 16 60 13q28 0 40 -14.5t9 -35.5q-13 -88 -80 -149q-70 -61 -207 -61q-133 0 -207 59q-76 61 -83 156q-3 44 47 47q32 2 63 -13z" />
    <glyph glyph-name="dotaccent" unicode="&#x2d9;" horiz-adv-x="946" 
d="M381 1264q0 94 94 94t94 -94q0 -95 -94 -95t-94 95z" />
    <glyph glyph-name="ring" unicode="&#x2da;" horiz-adv-x="950" 
d="M295 1296q0 181 180 181q88 0 134 -47t46 -134q0 -88 -45.5 -134t-134.5 -46q-180 0 -180 180zM379 1296q0 -46 24.5 -71t71.5 -25q46 0 71 25t25 71q0 45 -25.5 71t-70.5 26q-96 0 -96 -97z" />
    <glyph glyph-name="ogonek" unicode="&#x2db;" horiz-adv-x="1075" 
d="M809 59l82 -45q-42 -49 -75.5 -107t-33.5 -95q0 -49 29.5 -67.5t85.5 -18.5q10 -23 10 -45q0 -48 -69 -48q-61 0 -109.5 38t-48.5 118q0 122 129 270z" />
    <glyph glyph-name="tilde" unicode="&#x2dc;" horiz-adv-x="1054" 
d="M272 1346q59 0 169.5 -32t158.5 -32q86 0 129 49q14 -7 25.5 -26.5t11.5 -42.5q0 -39 -37.5 -67t-103.5 -28q-56 0 -183 30t-172 30q-38 0 -71.5 -17.5t-38.5 -35.5q-41 13 -41 63q0 36 43.5 72.5t109.5 36.5z" />
    <glyph glyph-name="hungarumlaut" unicode="&#x2dd;" horiz-adv-x="1019" 
d="M135 1186q22 16 64 63.5t79 91.5t81 79.5t75 35.5q70 0 80 -57q-39 -27 -104.5 -95.5t-119.5 -116.5t-87 -48q-53 0 -68 47zM494 1196q22 12 68.5 52t89 78t90 68.5t75.5 30.5q76 0 80 -69q-40 -21 -112 -78t-131 -98t-89 -41q-59 0 -71 57z" />
    <glyph glyph-name="uni0394" unicode="&#x394;" horiz-adv-x="1314" 
d="M139 0q-61 0 -84 23l518 1325q31 86 111 86q75 0 139 -170l469 -1227q-17 -37 -73 -37h-1080zM684 1214l-424 -1075h840z" />
    <glyph glyph-name="uni03A9" unicode="&#x3a9;" horiz-adv-x="1458" 
d="M465 127l2 6q-51 19 -97.5 51t-90.5 83t-76.5 116t-52 154.5t-19.5 193.5q0 179 44 318t124.5 227t190.5 133t245 45q273 0 431.5 -183.5t158.5 -539.5q0 -234 -90.5 -387.5t-230.5 -210.5v-6l339 6q17 -21 17 -55q0 -35 -16.5 -56.5t-49.5 -21.5h-493q-21 38 -21 94
q0 79 39 82q159 6 254.5 145.5t95.5 407.5q0 285 -116.5 433.5t-317.5 148.5q-208 0 -328 -149t-120 -431q0 -139 33.5 -248t89 -173t120.5 -98t136 -38q18 -36 18 -86q0 -37 -17.5 -62.5t-48.5 -25.5h-501q-2 3 -6 10l-6 10.5t-4.5 10.5t-3.5 14t-1 16q0 37 21.5 54.5
t75.5 17.5z" />
    <glyph glyph-name="uni03BC" unicode="&#x3bc;" horiz-adv-x="1234" 
d="M965 63q-63 63 -78 134q-156 -206 -367 -215q-113 -3 -166 47v-398q-22 -16 -80 -16q-71 0 -71 131v1042q0 56 -51 56h-95q-8 36 -8 65q3 78 160 78q44 0 74 -14t46 -33.5t24.5 -56.5t10 -66.5t1.5 -79.5v-334q0 -132 38.5 -199t131.5 -67q106 0 197.5 57t146.5 158v617
q35 18 88 18q39 0 56 -15t17 -46q0 -123 1 -368t1 -368q0 -32 11.5 -44.5t36.5 -12.5h79q7 -21 7 -51q0 -50 -84 -66q-43 -8 -73 2.5t-54 44.5z" />
    <glyph glyph-name="pi" unicode="&#x3c0;" horiz-adv-x="1230" 
d="M231 209v627h-186q-2 4 -6 13.5t-6 15t-4 16t-2 22.5q0 42 19 63t77 21h1063q18 -23 18 -67q0 -38 -17 -61t-50 -23h-138v-818q-25 -18 -77 -18q-39 0 -61.5 15.5t-22.5 60.5v760h-447v-635q0 -60 -15.5 -102.5t-44.5 -65t-64 -32t-79 -9.5q-37 0 -59.5 21t-22.5 65
q125 14 125 131z" />
    <glyph glyph-name="Wgrave" unicode="&#x1e80;" horiz-adv-x="2048" 
d="M928 1434q62 0 82 -56l458 -1161q125 207 249.5 589.5t152.5 608.5q40 19 84 19q24 0 40.5 -11.5t16.5 -29.5q0 -31 -12 -107q-39 -216 -178 -605t-303 -669q-34 -12 -70 -12q-57 0 -80 66l-291 737q-190 -466 -379 -789q-34 -12 -69 -12q-53 0 -80 64l-512 1351
q34 17 92 17q61 0 84 -56l438 -1159q75 127 174 349.5t174 430.5l-163 418q31 17 92 17zM1225 1630q-12 -57 -70 -57q-30 0 -89.5 41t-131.5 98t-111 78q4 70 80 70q36 0 99.5 -48t130.5 -108t92 -74z" />
    <glyph glyph-name="wgrave" unicode="&#x1e81;" horiz-adv-x="1599" 
d="M1051 14l-224 643q-36 -142 -100 -293.5t-135 -269.5q-33 -53 -57.5 -73.5t-57.5 -20.5q-40 0 -59 16l-264 809q-9 37 -45 37h-74q-10 27 -10 56q0 69 137 69q55 0 84 -20.5t45 -63.5l217 -682q92 139 163.5 321t71.5 273q0 47 -36 47h-60q-10 23 -10 53q0 32 39.5 52
t103.5 20q40 0 67 -21t38 -55l233 -694q98 132 164 306t66 284q0 26 -14 40.5t-36 14.5h-69q-10 23 -10 56q0 31 38 50t99 19q75 0 109 -38t34 -115q0 -138 -84.5 -358.5t-189.5 -377.5q-24 -35 -37.5 -52t-35.5 -31.5t-46 -14.5q-35 0 -55 14zM918 1184q-13 -58 -70 -58
q-30 0 -89.5 41t-131.5 98t-111 78q4 70 80 70q36 0 99.5 -47.5t130.5 -107.5t92 -74z" />
    <glyph glyph-name="Wacute" unicode="&#x1e82;" horiz-adv-x="2048" 
d="M928 1434q62 0 82 -56l458 -1161q125 207 249.5 589.5t152.5 608.5q40 19 84 19q24 0 40.5 -11.5t16.5 -29.5q0 -31 -12 -107q-39 -216 -178 -605t-303 -669q-34 -12 -70 -12q-57 0 -80 66l-291 737q-190 -466 -379 -789q-34 -12 -69 -12q-53 0 -80 64l-512 1351
q34 17 92 17q61 0 84 -56l438 -1159q75 127 174 349.5t174 430.5l-163 418q31 17 92 17zM823 1632q25 14 92 74t131 108t101 48q78 0 78 -70q-39 -21 -110.5 -78t-130.5 -98t-89 -41q-60 0 -72 57z" />
    <glyph glyph-name="wacute" unicode="&#x1e83;" horiz-adv-x="1599" 
d="M1051 14l-224 643q-36 -142 -100 -293.5t-135 -269.5q-33 -53 -57.5 -73.5t-57.5 -20.5q-40 0 -59 16l-264 809q-9 37 -45 37h-74q-10 27 -10 56q0 69 137 69q55 0 84 -20.5t45 -63.5l217 -682q92 139 163.5 321t71.5 273q0 47 -36 47h-60q-10 23 -10 53q0 32 39.5 52
t103.5 20q40 0 67 -21t38 -55l233 -694q98 132 164 306t66 284q0 26 -14 40.5t-36 14.5h-69q-10 23 -10 56q0 31 38 50t99 19q75 0 109 -38t34 -115q0 -138 -84.5 -358.5t-189.5 -377.5q-24 -35 -37.5 -52t-35.5 -31.5t-46 -14.5q-35 0 -55 14zM625 1186q22 12 68 52
t88.5 78t90 68.5t76.5 30.5q78 0 78 -69q-39 -21 -110.5 -78t-130.5 -98.5t-89 -41.5q-58 0 -71 58z" />
    <glyph glyph-name="Wdieresis" unicode="&#x1e84;" horiz-adv-x="2048" 
d="M928 1434q62 0 82 -56l458 -1161q125 207 249.5 589.5t152.5 608.5q40 19 84 19q24 0 40.5 -11.5t16.5 -29.5q0 -31 -12 -107q-39 -216 -178 -605t-303 -669q-34 -12 -70 -12q-57 0 -80 66l-291 737q-190 -466 -379 -789q-34 -12 -69 -12q-53 0 -80 64l-512 1351
q34 17 92 17q61 0 84 -56l438 -1159q75 127 174 349.5t174 430.5l-163 418q31 17 92 17zM715 1706q0 94 94 94t94 -94q0 -92 -94 -92t-94 92zM1145 1706q0 94 92 94q94 0 94 -94q0 -92 -94 -92q-92 0 -92 92z" />
    <glyph glyph-name="wdieresis" unicode="&#x1e85;" horiz-adv-x="1599" 
d="M1051 14l-224 643q-36 -142 -100 -293.5t-135 -269.5q-33 -53 -57.5 -73.5t-57.5 -20.5q-40 0 -59 16l-264 809q-9 37 -45 37h-74q-10 27 -10 56q0 69 137 69q55 0 84 -20.5t45 -63.5l217 -682q92 139 163.5 321t71.5 273q0 47 -36 47h-60q-10 23 -10 53q0 32 39.5 52
t103.5 20q40 0 67 -21t38 -55l233 -694q98 132 164 306t66 284q0 26 -14 40.5t-36 14.5h-69q-10 23 -10 56q0 31 38 50t99 19q75 0 109 -38t34 -115q0 -138 -84.5 -358.5t-189.5 -377.5q-24 -35 -37.5 -52t-35.5 -31.5t-46 -14.5q-35 0 -55 14zM461 1260q0 94 94 94t94 -94
q0 -93 -94 -93t-94 93zM891 1260q0 94 92 94q94 0 94 -94q0 -93 -94 -93q-92 0 -92 93z" />
    <glyph glyph-name="uni1E8A" unicode="&#x1e8a;" horiz-adv-x="1370" 
d="M215 1434q43 0 73.5 -19.5t59.5 -60.5l342 -484l348 504q40 60 113 60q64 0 86 -33l-457 -658l504 -710q-41 -33 -106 -33q-34 0 -69.5 17.5t-57.5 48.5l-383 544l-392 -557q-33 -53 -110 -53q-54 0 -80 37l489 702l-456 654q23 41 96 41zM590 1700q0 96 92 96
q94 0 94 -96q0 -92 -94 -92q-92 0 -92 92z" />
    <glyph glyph-name="uni1E8B" unicode="&#x1e8b;" horiz-adv-x="1118" 
d="M225 987q55 0 90 -21.5t64 -68.5l172 -272l215 299q39 63 96 63q51 0 76 -25.5t23 -60.5l-336 -391l204 -320q40 -65 93 -65h75q9 -16 9 -51q0 -33 -36 -53.5t-102 -20.5q-103 0 -155 82l-193 299l-241 -324q-45 -57 -103 -57q-37 0 -62 26.5t-28 61.5l360 410l-213 333
q-22 31 -57 31h-86q-8 28 -8 45q0 37 41 58.5t102 21.5zM465 1253q0 97 92 97q94 0 94 -97q0 -92 -94 -92q-92 0 -92 92z" />
    <glyph glyph-name="Ygrave" unicode="&#x1ef2;" horiz-adv-x="1210" 
d="M700 477v-459q-25 -18 -88 -18q-69 0 -69 59v412q-153 219 -276 462.5t-193 475.5q41 25 90 25q33 0 50.5 -12t27.5 -42q126 -413 385 -792q126 189 241 443t140 392q22 11 75 11q23 0 38.5 -16.5t15.5 -39.5q-3 -120 -152.5 -419t-284.5 -482zM805 1630q-12 -57 -70 -57
q-30 0 -89.5 41t-131.5 98t-111 78q4 70 80 70q36 0 99.5 -48t130.5 -108t92 -74z" />
    <glyph glyph-name="ygrave" unicode="&#x1ef3;" horiz-adv-x="1105" 
d="M299 879l254 -672q14 -44 47 -51q103 203 177.5 388.5t74.5 262.5q0 55 -49 55h-74q-10 20 -10 56q0 31 36 50t89 19q164 0 164 -143q0 -138 -150 -473t-272 -529q-81 -129 -171 -178t-208 -49q-141 0 -141 80q0 33 12 57h151q66 0 121 32t113 124l65 115q-32 6 -57 31.5
t-39 64.5l-270 702q-14 41 -51 41h-76q-10 20 -10 56q0 32 34 50.5t97 18.5q60 0 91.5 -25.5t51.5 -82.5zM688 1184q-13 -58 -70 -58q-30 0 -89 41t-131 98t-111 78q4 70 80 70q28 0 75 -30.5t89.5 -68.5t88.5 -78t68 -52z" />
    <glyph glyph-name="endash" unicode="&#x2013;" horiz-adv-x="1073" 
d="M889 469h-762q-16 40 -16 80q0 32 16 52t49 20h770q17 -27 17 -74q0 -78 -74 -78z" />
    <glyph glyph-name="emdash" unicode="&#x2014;" horiz-adv-x="1384" 
d="M1212 469h-1085q-16 40 -16 76q0 33 17.5 54.5t55.5 21.5h1076q14 -18 14 -70q0 -34 -15 -58t-47 -24z" />
    <glyph glyph-name="quoteleft" unicode="&#x2018;" horiz-adv-x="358" 
d="M182 1239q45 0 69.5 -23.5t24.5 -68.5q0 -96 -94 -96q-50 0 -75 31.5t-25 109.5q0 111 30.5 176.5t73.5 65.5q46 0 54 -35q-27 -25 -42.5 -75t-15.5 -85z" />
    <glyph glyph-name="quoteright" unicode="&#x2019;" horiz-adv-x="358" 
d="M176 1245q-45 0 -69.5 23.5t-24.5 68.5q0 97 94 97q50 0 75 -32t25 -110q0 -111 -30.5 -176t-73.5 -65q-45 0 -53 34q26 25 41.5 74.5t15.5 85.5z" />
    <glyph glyph-name="quotesinglbase" unicode="&#x201a;" horiz-adv-x="358" 
d="M176 0q-45 0 -69.5 23.5t-24.5 68.5q0 96 94 96q50 0 75 -31.5t25 -109.5q0 -111 -30.5 -176.5t-73.5 -65.5q-45 0 -53 35q26 25 41.5 74.5t15.5 85.5z" />
    <glyph glyph-name="quotedblleft" unicode="&#x201c;" horiz-adv-x="610" 
d="M182 1241q45 0 69.5 -23.5t24.5 -68.5q0 -96 -94 -96q-50 0 -75 31.5t-25 109.5q0 111 30.5 176.5t73.5 65.5q46 0 54 -35q-27 -25 -42.5 -75t-15.5 -85zM434 1241q45 0 69.5 -23.5t24.5 -68.5q0 -96 -94 -96q-50 0 -75 31.5t-25 109.5q0 111 30.5 176.5t73.5 65.5
q46 0 54 -35q-27 -25 -42.5 -75t-15.5 -85z" />
    <glyph glyph-name="quotedblright" unicode="&#x201d;" horiz-adv-x="610" 
d="M176 1247q-45 0 -69.5 23.5t-24.5 68.5q0 97 94 97q50 0 75 -32t25 -110q0 -111 -30.5 -176t-73.5 -65q-45 0 -53 34q26 25 41.5 74.5t15.5 85.5zM428 1247q-45 0 -69.5 23.5t-24.5 68.5q0 97 94 97q50 0 75 -32t25 -110q0 -111 -30.5 -176t-73.5 -65q-45 0 -53 34
q26 25 41.5 74.5t15.5 85.5z" />
    <glyph glyph-name="quotedblbase" unicode="&#x201e;" horiz-adv-x="610" 
d="M176 0q-45 0 -69.5 23.5t-24.5 68.5q0 96 94 96q50 0 75 -31.5t25 -109.5q0 -111 -30.5 -176.5t-73.5 -65.5q-45 0 -53 35q26 25 41.5 74.5t15.5 85.5zM428 0q-45 0 -69.5 23.5t-24.5 68.5q0 96 94 96q50 0 75 -31.5t25 -109.5q0 -111 -30.5 -176.5t-73.5 -65.5
q-45 0 -53 35q26 25 41.5 74.5t15.5 85.5z" />
    <glyph glyph-name="dagger" unicode="&#x2020;" horiz-adv-x="983" 
d="M498 1458q73 0 73 -55v-1616q-32 -16 -92 -16q-67 0 -67 69v1602q26 16 86 16zM844 891h-762q-16 40 -16 80q0 71 65 71h770q17 -27 17 -73q0 -78 -74 -78z" />
    <glyph glyph-name="daggerdbl" unicode="&#x2021;" horiz-adv-x="983" 
d="M498 1458q73 0 73 -55v-1616q-32 -16 -92 -16q-67 0 -67 69v1602q26 16 86 16zM844 891h-762q-16 40 -16 80q0 71 65 71h770q17 -27 17 -73q0 -78 -74 -78zM844 168h-762q-16 40 -16 80q0 71 65 71h770q17 -27 17 -73q0 -78 -74 -78z" />
    <glyph glyph-name="bullet" unicode="&#x2022;" horiz-adv-x="534" 
d="M115 545q0 170 164 170q165 0 165 -170q0 -162 -165 -162q-164 0 -164 162z" />
    <glyph glyph-name="ellipsis" unicode="&#x2026;" horiz-adv-x="1052" 
d="M82 92q0 96 92 96q94 0 94 -96q0 -92 -94 -92q-92 0 -92 92zM432 92q0 96 94 96q95 0 95 -96q0 -92 -95 -92q-94 0 -94 92zM784 92q0 96 93 96q94 0 94 -96q0 -92 -94 -92q-93 0 -93 92z" />
    <glyph glyph-name="perthousand" unicode="&#x2030;" horiz-adv-x="2469" 
d="M1133 1434q36 0 51.5 -17t5.5 -47l-514 -1362q-28 -12 -64 -12q-78 0 -45 84l502 1343q25 11 64 11zM1030 420q0 213 90 321.5t234 108.5q147 0 233 -107.5t86 -322.5q0 -220 -86.5 -323t-234.5 -103q-147 0 -234.5 104t-87.5 322zM1149 416q0 -168 55.5 -245t147.5 -77
q200 0 200 322q0 166 -53 247.5t-145 81.5q-90 0 -147.5 -83.5t-57.5 -245.5zM1767 420q0 213 90 321.5t234 108.5q147 0 233 -107.5t86 -322.5q0 -220 -86.5 -323t-234.5 -103q-147 0 -234.5 104t-87.5 322zM1886 416q0 -168 55.5 -245t147.5 -77q201 0 201 322
q0 165 -53.5 247t-145.5 82q-90 0 -147.5 -83.5t-57.5 -245.5zM72 1006q0 213 89.5 321.5t233.5 108.5q147 0 233.5 -107.5t86.5 -322.5q0 -220 -87 -323t-235 -103q-147 0 -234 104t-87 322zM190 1001q0 -168 55.5 -244.5t147.5 -76.5q201 0 201 321q0 166 -53.5 248
t-145.5 82q-90 0 -147.5 -84t-57.5 -246z" />
    <glyph glyph-name="guilsinglleft" unicode="&#x2039;" horiz-adv-x="602" 
d="M106 573l312 349q16 8 37 8q27 0 46 -21.5t19 -46.5q0 -30 -22 -55l-273 -309l287 -332q6 -24 6 -35q0 -25 -21.5 -42t-45.5 -17q-37 0 -60 30l-293 330q-16 29 -16 70t24 71z" />
    <glyph glyph-name="guilsinglright" unicode="&#x203a;" horiz-adv-x="602" 
d="M496 428l-312 -348q-16 -8 -37 -8q-27 0 -46 21.5t-19 45.5q0 31 22 56l273 309l-287 332q-6 24 -6 34q0 25 22 42.5t46 17.5q35 0 59 -31l293 -330q16 -29 16 -69q0 -42 -24 -72z" />
    <glyph glyph-name="fraction" unicode="&#x2044;" horiz-adv-x="335" 
d="M416 1434q36 0 51.5 -17t5.5 -47l-514 -1362q-28 -12 -63 -12q-79 0 -46 84l502 1343q25 11 64 11z" />
    <glyph glyph-name="uni2070" unicode="&#x2070;" horiz-adv-x="786" 
d="M72 1004q0 213 89.5 321.5t233.5 108.5q147 0 233.5 -107.5t86.5 -322.5q0 -220 -87 -323t-235 -103q-147 0 -234 104t-87 322zM190 999q0 -168 55.5 -244.5t147.5 -76.5q201 0 201 321q0 166 -53.5 248t-145.5 82q-90 0 -147.5 -84t-57.5 -246z" />
    <glyph glyph-name="uni2074" unicode="&#x2074;" horiz-adv-x="761" 
d="M528 1182q54 0 54 -43v-287h123q12 -12 12 -49q0 -47 -39 -47h-96l2 -162q-20 -10 -64 -10q-49 0 -49 43l-2 129h-414q-10 12 -10 39q0 24 10 51l189 575q26 11 65 11q24 0 34.5 -13.5t4.5 -34.5l-172 -532h293v313q30 17 59 17z" />
    <glyph glyph-name="uni2075" unicode="&#x2075;" horiz-adv-x="706" 
d="M584 1319h-375l-12 -248q83 27 161 27q134 0 215.5 -62.5t81.5 -195.5q0 -117 -81.5 -193t-235.5 -76q-77 0 -136 17.5t-89.5 45t-45 55.5t-14.5 54q0 49 51 64q19 -54 75.5 -95.5t154.5 -41.5q103 0 155 46.5t52 127.5q0 82 -58 121t-161 39q-47 0 -110 -11.5t-87 -11.5
q-39 0 -39 51l16 381q19 12 72 12h440q15 -11 15 -45q0 -28 -12 -44.5t-33 -16.5z" />
    <glyph glyph-name="uni2076" unicode="&#x2076;" horiz-adv-x="737" 
d="M72 999q0 206 87 321.5t253 115.5q101 0 167 -31t66 -74q0 -20 -9.5 -37.5t-23.5 -23.5q-30 17 -44.5 25t-60.5 21t-93 13q-113 0 -166.5 -74t-59.5 -215q96 47 209 47q287 0 287 -247q0 -54 -16 -101t-49 -85.5t-90.5 -60.5t-133.5 -22q-323 0 -323 428zM385 997
q-112 0 -197 -47q6 -147 54.5 -212.5t148.5 -65.5q91 0 135.5 45.5t44.5 120.5q0 159 -186 159z" />
    <glyph glyph-name="uni2077" unicode="&#x2077;" horiz-adv-x="641" 
d="M264 584q-29 0 -40 13t-5 34l254 690h-450q-15 20 -15 55q0 22 12 39t33 17h549q8 -20 8 -39q0 -24 -14 -64l-272 -735q-17 -10 -60 -10z" />
    <glyph glyph-name="uni2078" unicode="&#x2078;" horiz-adv-x="722" 
d="M59 821q0 75 38.5 128t101.5 81q-105 64 -105 189q0 102 68 158.5t194 56.5q133 0 203 -55.5t70 -161.5q0 -62 -31.5 -111t-85.5 -80q152 -57 152 -209q0 -107 -75 -176.5t-227 -69.5q-151 0 -227 68t-76 182zM344 979l-29 6q-64 -14 -102.5 -55.5t-38.5 -108.5
q0 -66 48 -108.5t138 -42.5q97 0 144 39t47 106t-54 103.5t-153 60.5zM199 1219q0 -34 12.5 -60t29.5 -41.5t47.5 -28.5t53 -18.5t59.5 -13.5q56 18 90.5 58t34.5 99q0 61 -43.5 95t-117.5 34q-75 0 -120.5 -33t-45.5 -91z" />
    <glyph glyph-name="uni2079" unicode="&#x2079;" horiz-adv-x="731" 
d="M657 993q0 -422 -323 -422q-117 0 -192.5 37t-75.5 80q0 32 28 57q115 -67 219 -67q119 0 172 66t58 217q-92 -56 -221 -56q-54 0 -101 13.5t-86.5 41t-62.5 75t-23 110.5q0 131 73 211t222 80q78 0 134 -21.5t97.5 -72t61.5 -137t20 -212.5zM332 997q131 0 209 56
q-6 151 -50 215.5t-139 64.5t-142.5 -48.5t-47.5 -131.5q0 -75 48 -115.5t122 -40.5z" />
    <glyph glyph-name="nsuperior" unicode="&#x207f;" horiz-adv-x="663" 
d="M133 1217q40 0 66.5 -22.5t29.5 -61.5q81 94 183 94q67 0 107 -42t40 -124v-248q0 -12 6 -19.5t15 -7.5h41q6 -9 6 -24q0 -45 -95 -45q-39 0 -58 18.5t-19 61.5v237q0 43 -21 66.5t-59 23.5q-79 0 -146 -77v-318q-14 -12 -59 -12q-23 0 -36 10.5t-13 40.5v328
q0 30 -29 30h-37q-8 16 -8 41q0 50 86 50z" />
    <glyph glyph-name="uni2080" unicode="&#x2080;" horiz-adv-x="786" 
d="M72 154q0 213 89.5 321.5t233.5 108.5q147 0 233.5 -107.5t86.5 -322.5q0 -220 -87 -323t-235 -103q-147 0 -234 104t-87 322zM190 150q0 -168 55.5 -245t147.5 -77q201 0 201 322q0 165 -53.5 247t-145.5 82q-90 0 -147.5 -83.5t-57.5 -245.5z" />
    <glyph glyph-name="uni2081" unicode="&#x2081;" horiz-adv-x="651" 
d="M569 -266h-467q-14 24 -14 49q0 29 13.5 43t54.5 14h147v586q-41 -33 -92 -51.5t-92 -18.5q-49 0 -49 56q0 28 12 45q76 6 138 38t83 80q22 11 59 11q58 0 58 -45v-701h182q14 -14 14 -45q0 -61 -47 -61z" />
    <glyph glyph-name="uni2082" unicode="&#x2082;" horiz-adv-x="702" 
d="M51 440q0 48 75.5 95t195.5 47q145 0 222 -65.5t77 -178.5q0 -77 -42.5 -155.5t-111 -143.5t-132.5 -112t-130 -85v-8l444 6q10 -20 10 -55q0 -51 -43 -51h-561q-10 23 -10 61q0 48 35 76q169 118 236 176q183 158 184 275q0 72 -49 109.5t-134 37.5q-70 0 -134 -28.5
t-89 -67.5q-43 21 -43 67z" />
    <glyph glyph-name="uni2083" unicode="&#x2083;" horiz-adv-x="692" 
d="M483 336q0 59 -45 94t-129 35q-70 0 -127 -24t-82 -62q-21 10 -31 23.5t-10 39.5q0 49 68 94.5t190 45.5q139 0 212 -64t73 -164q0 -67 -39 -121t-100 -69v-2q68 -10 115 -61.5t47 -135.5q0 -102 -76.5 -170.5t-229.5 -68.5q-75 0 -132 16t-86.5 42t-43.5 52t-14 51
q0 53 47 68q54 -123 223 -123q97 0 146 39.5t49 103.5q0 63 -43.5 97t-120.5 34h-43q-15 0 -23 13.5t-8 34.5q0 20 9 47q97 0 150.5 36.5t53.5 98.5z" />
    <glyph glyph-name="uni2084" unicode="&#x2084;" horiz-adv-x="761" 
d="M528 332q54 0 54 -43v-287h123q12 -12 12 -49q0 -47 -39 -47h-96l2 -162q-20 -10 -64 -10q-49 0 -49 43l-2 129h-414q-10 12 -10 39q0 24 10 51l189 575q26 11 65 11q24 0 34.5 -13t4.5 -34l-172 -533h293v313q30 17 59 17z" />
    <glyph glyph-name="uni2085" unicode="&#x2085;" horiz-adv-x="706" 
d="M584 469h-375l-12 -248q83 27 161 27q134 0 215.5 -62.5t81.5 -195.5q0 -117 -81.5 -193t-235.5 -76q-77 0 -136 17.5t-89.5 45.5t-45 56t-14.5 54q0 48 51 63q19 -54 75.5 -95.5t154.5 -41.5q103 0 155 46.5t52 127.5q0 82 -58 121t-161 39q-47 0 -110 -11.5t-87 -11.5
q-39 0 -39 51l16 381q19 12 72 12h440q15 -11 15 -45q0 -28 -12 -44.5t-33 -16.5z" />
    <glyph glyph-name="uni2086" unicode="&#x2086;" horiz-adv-x="737" 
d="M72 150q0 206 87 321t253 115q101 0 167 -31t66 -74q0 -20 -9.5 -37.5t-23.5 -23.5q-30 17 -44.5 25t-60.5 21t-93 13q-113 0 -166.5 -74t-59.5 -215q98 48 209 48q287 0 287 -248q0 -54 -16 -101t-49 -85.5t-90.5 -60.5t-133.5 -22q-323 0 -323 429zM385 147
q-112 0 -197 -47q6 -147 54.5 -212.5t148.5 -65.5q91 0 135.5 45.5t44.5 120.5q0 159 -186 159z" />
    <glyph glyph-name="uni2087" unicode="&#x2087;" horiz-adv-x="641" 
d="M264 -266q-29 0 -40 13t-5 34l254 690h-450q-15 20 -15 55q0 22 12 39t33 17h549q8 -20 8 -39q0 -24 -14 -64l-272 -735q-17 -10 -60 -10z" />
    <glyph glyph-name="uni2088" unicode="&#x2088;" horiz-adv-x="722" 
d="M59 -29q0 75 38.5 128t101.5 81q-105 64 -105 189q0 102 68 158.5t194 56.5q133 0 203 -55.5t70 -161.5q0 -62 -31.5 -111t-85.5 -80q152 -57 152 -209q0 -107 -75 -176.5t-227 -69.5q-151 0 -227 68t-76 182zM344 129l-29 6q-64 -14 -102.5 -55.5t-38.5 -108.5
q0 -66 48 -108.5t138 -42.5q97 0 144 39t47 106t-54 103.5t-153 60.5zM199 369q0 -34 12.5 -60t29.5 -41.5t47.5 -28.5t53 -18.5t59.5 -13.5q56 18 90.5 58.5t34.5 99.5q0 61 -43.5 95t-117.5 34q-75 0 -120.5 -33.5t-45.5 -91.5z" />
    <glyph glyph-name="uni2089" unicode="&#x2089;" horiz-adv-x="731" 
d="M657 143q0 -422 -323 -422q-117 0 -192.5 37t-75.5 80q0 34 28 58q117 -68 219 -68q119 0 172 66t58 217q-92 -56 -221 -56q-54 0 -101 13.5t-86.5 41t-62.5 75t-23 110.5q0 131 73 211t222 80q78 0 134 -21.5t97.5 -72t61.5 -137t20 -212.5zM332 147q131 0 209 56
q-6 151 -50 215.5t-139 64.5t-142.5 -48.5t-47.5 -131.5q0 -75 48 -115.5t122 -40.5z" />
    <glyph glyph-name="Euro" unicode="&#x20ac;" horiz-adv-x="1396" 
d="M821 510h-418q66 -369 426 -369q128 0 235.5 50t145.5 120q27 8 60 -4q23 -7 33 -20q30 -34 -3 -90q-21 -35 -58.5 -68t-94 -65.5t-139.5 -52t-179 -19.5q-117 0 -213 29t-173 90t-128.5 162t-72.5 237h-179q-12 24 -12 45q-3 18 0 39q5 23 24 34t64 11h86v76q0 53 2 80
h-164q-14 28 -14 55q0 39 16.5 56.5t73.5 17.5h103q43 261 196 392.5t391 131.5q156 0 270.5 -35.5t155.5 -95.5q16 -22 18.5 -46t-7.5 -36q-24 -42 -66 -49q-124 110 -371 110q-168 0 -277.5 -93.5t-145.5 -278.5h575q14 -14 14 -54q0 -75 -104 -75h-508q-2 -29 -2 -84
q0 -49 2 -72h530q15 -12 15 -51q0 -78 -107 -78z" />
    <glyph glyph-name="trademark" unicode="&#x2122;" horiz-adv-x="1488" 
d="M1069 739q-54 0 -74 62l-178 430l-33 -486q-3 -40 -57 -40q-41 0 -57 8l47 596q2 28 5.5 47t11.5 39.5t25 31.5t42 11q33 0 55 -11l215 -532l152 432q35 111 96 111q35 0 70 -15l90 -704q-20 -14 -62 -14q-27 0 -41.5 8t-17.5 32l-49 488l-162 -432q-11 -39 -29 -50.5
t-49 -11.5zM582 1331h-211v-618q-16 -8 -66 -8q-27 0 -37 22t-10 64v540h-242q-10 20 -10 43q-3 15 0 29q3 22 22.5 28.5t61.5 6.5h520q13 -26 13 -47q0 -26 -11 -43t-30 -17z" />
    <glyph glyph-name="Omega" unicode="&#x2126;" horiz-adv-x="1458" 
d="M465 127l2 6q-51 19 -97.5 51t-90.5 83t-76.5 116t-52 154.5t-19.5 193.5q0 179 44 318t124.5 227t190.5 133t245 45q273 0 431.5 -183.5t158.5 -539.5q0 -234 -90.5 -387.5t-230.5 -210.5v-6l339 6q17 -21 17 -55q0 -35 -16.5 -56.5t-49.5 -21.5h-493q-21 38 -21 94
q0 79 39 82q159 6 254.5 145.5t95.5 407.5q0 285 -116.5 433.5t-317.5 148.5q-208 0 -328 -149t-120 -431q0 -139 33.5 -248t89 -173t120.5 -98t136 -38q18 -36 18 -86q0 -37 -17.5 -62.5t-48.5 -25.5h-501q-2 3 -6 10l-6 10.5t-4.5 10.5t-3.5 14t-1 16q0 37 21.5 54.5
t75.5 17.5z" />
    <glyph glyph-name="onethird" unicode="&#x2153;" horiz-adv-x="1796" 
d="M1137 1434q36 0 51.5 -17t5.5 -47l-514 -1362q-28 -12 -64 -12q-78 0 -45 84l502 1343q25 11 64 11zM569 584h-467q-14 24 -14 49q0 29 13.5 43t54.5 14h147v586q-41 -33 -92 -51.5t-92 -18.5q-49 0 -49 56q0 28 12 45q76 6 138 38t83 80q22 11 59 11q58 0 58 -45v-701
h182q14 -14 14 -45q0 -61 -47 -61zM1587 602q0 59 -45 94t-129 35q-70 0 -127 -24t-82 -62q-41 20 -41 64q0 49 68 94t190 45q139 0 212 -63.5t73 -163.5q0 -67 -39 -121.5t-100 -69.5v-2q68 -10 115 -61.5t47 -135.5q0 -102 -76.5 -170.5t-229.5 -68.5q-75 0 -132 16.5
t-86.5 42t-43.5 52t-14 51.5q0 52 47 67q54 -123 223 -123q97 0 146 40t49 104q0 63 -43.5 97t-120.5 34h-43q-31 0 -31 47q0 23 8 47q97 0 151 36.5t54 98.5z" />
    <glyph glyph-name="twothirds" unicode="&#x2154;" horiz-adv-x="1851" 
d="M1192 1434q36 0 51.5 -17t5.5 -47l-514 -1362q-28 -12 -63 -12q-78 0 -45 84l501 1343q25 11 64 11zM51 1290q0 48 75.5 95t195.5 47q145 0 222 -65.5t77 -178.5q0 -77 -42.5 -155.5t-111 -143.5t-132.5 -112t-130 -85v-8l444 6q10 -20 10 -55q0 -51 -43 -51h-561
q-10 23 -10 61q0 48 35 76q166 116 230 170q190 161 190 280q0 72 -49 110t-134 38q-70 0 -134 -28.5t-89 -67.5q-43 21 -43 67zM1642 602q0 59 -45 94t-129 35q-70 0 -126.5 -24t-81.5 -62q-41 20 -41 64q0 49 68 94t190 45q139 0 211.5 -63.5t72.5 -163.5
q0 -67 -39 -121.5t-100 -69.5v-2q68 -10 115 -61.5t47 -135.5q0 -102 -76 -170.5t-229 -68.5q-75 0 -132 16.5t-87 42t-44 52t-14 51.5q0 52 47 67q23 -52 77 -87.5t147 -35.5q97 0 145.5 40t48.5 104q0 63 -43.5 97t-120.5 34h-43q-30 0 -30 47q0 23 8 47q97 0 150.5 36.5
t53.5 98.5z" />
    <glyph glyph-name="oneeighth" unicode="&#x215b;" horiz-adv-x="1810" 
d="M1137 1434q36 0 51.5 -17t5.5 -47l-514 -1362q-28 -12 -64 -12q-78 0 -45 84l502 1343q25 11 64 11zM569 584h-467q-14 24 -14 49q0 29 13.5 43t54.5 14h147v586q-41 -33 -92 -51.5t-92 -18.5q-49 0 -49 56q0 28 12 45q76 6 138 38t83 80q22 11 59 11q58 0 58 -45v-701
h182q14 -14 14 -45q0 -61 -47 -61zM1147 238q0 75 38 127.5t101 80.5q-104 63 -104 189q0 102 68 158.5t194 56.5q133 0 202.5 -55.5t69.5 -161.5q0 -62 -31.5 -111t-85.5 -80q152 -57 152 -209q0 -107 -74.5 -176t-226.5 -69q-151 0 -227 68t-76 182zM1432 395l-29 6
q-64 -14 -102.5 -55t-38.5 -108q0 -66 48 -109t138 -43q97 0 143.5 39t46.5 106t-54 103.5t-152 60.5zM1286 635q0 -34 12.5 -60t29.5 -41.5t48 -28.5t53.5 -18.5t59.5 -13.5q56 18 90.5 58.5t34.5 99.5q0 61 -44 95t-118 34q-75 0 -120.5 -33.5t-45.5 -91.5z" />
    <glyph glyph-name="threeeighths" unicode="&#x215c;" horiz-adv-x="1865" 
d="M1184 1434q36 0 51.5 -17t5.5 -47l-514 -1362q-28 -12 -63 -12q-79 0 -46 84l502 1343q25 11 64 11zM483 1186q0 59 -45 94t-129 35q-70 0 -127 -24t-82 -62q-21 10 -31 23.5t-10 39.5q0 49 68 94.5t190 45.5q139 0 212 -64t73 -164q0 -67 -39 -121t-100 -69v-2
q68 -10 115 -61.5t47 -135.5q0 -103 -76.5 -171.5t-229.5 -68.5q-75 0 -132 16.5t-86.5 42t-43.5 52t-14 51.5q0 53 47 68q54 -123 223 -123q97 0 146 39.5t49 103.5q0 63 -43.5 97t-120.5 34h-43q-15 0 -23 13.5t-8 34.5q0 20 9 47q97 0 150.5 36.5t53.5 98.5zM1194 238
q0 75 38 127.5t101 80.5q-104 63 -104 189q0 102 68 158.5t194 56.5q133 0 202.5 -55.5t69.5 -161.5q0 -124 -116 -191q151 -57 151 -209q0 -107 -74.5 -176t-226.5 -69q-151 0 -227 68t-76 182zM1479 395l-29 6q-64 -14 -102.5 -55t-38.5 -108q0 -66 48 -109t138 -43
q97 0 144 39t47 106t-54 103.5t-153 60.5zM1333 635q0 -34 12.5 -60t29.5 -41.5t48 -28.5t53.5 -18.5t59.5 -13.5q56 18 90.5 58.5t34.5 99.5q0 61 -44 95t-118 34q-75 0 -120.5 -33.5t-45.5 -91.5z" />
    <glyph glyph-name="fiveeighths" unicode="&#x215d;" horiz-adv-x="1859" 
d="M1186 1434q36 0 51.5 -17t5.5 -47l-514 -1362q-28 -12 -63 -12q-78 0 -45 84l501 1343q25 11 64 11zM584 1319h-375l-12 -248q83 27 161 27q134 0 215.5 -62.5t81.5 -195.5q0 -117 -81.5 -193t-235.5 -76q-77 0 -136 17.5t-89.5 45t-45 55.5t-14.5 54q0 49 51 64
q19 -54 75.5 -95.5t154.5 -41.5q103 0 155 46.5t52 127.5q0 82 -58 121t-161 39q-47 0 -110 -11.5t-87 -11.5q-39 0 -39 51l16 381q19 12 72 12h440q15 -11 15 -45q0 -28 -12 -44.5t-33 -16.5zM1196 238q0 75 38 127.5t101 80.5q-104 63 -104 189q0 102 67.5 158.5
t194.5 56.5q133 0 202.5 -55.5t69.5 -161.5q0 -124 -116 -191q151 -57 151 -209q0 -107 -74.5 -176t-226.5 -69q-151 0 -227 68t-76 182zM1481 395l-29 6q-64 -14 -102.5 -55t-38.5 -108q0 -66 48 -109t138 -43q97 0 144 39t47 106t-54 103.5t-153 60.5zM1335 635
q0 -34 12.5 -60t29.5 -41.5t48 -28.5t53.5 -18.5t59.5 -13.5q56 18 90.5 58.5t34.5 99.5q0 61 -44 95t-118 34q-75 0 -120.5 -33.5t-45.5 -91.5z" />
    <glyph glyph-name="seveneighths" unicode="&#x215e;" horiz-adv-x="1720" 
d="M1047 1434q36 0 51.5 -17t5.5 -47l-514 -1362q-28 -12 -64 -12q-78 0 -45 84l502 1343q25 11 64 11zM264 584q-29 0 -40 13t-5 34l254 690h-450q-15 20 -15 55q0 22 12 39t33 17h549q8 -20 8 -39q0 -24 -14 -64l-272 -735q-17 -10 -60 -10zM1057 238q0 75 38 127.5
t101 80.5q-104 63 -104 189q0 102 68 158.5t194 56.5q133 0 202.5 -55.5t69.5 -161.5q0 -62 -31.5 -111t-85.5 -80q152 -57 152 -209q0 -107 -74.5 -176t-226.5 -69q-151 0 -227 68t-76 182zM1341 395l-28 6q-64 -14 -103 -55t-39 -108q0 -66 48.5 -109t138.5 -43
q97 0 143.5 39t46.5 106t-54 103.5t-153 60.5zM1196 635q0 -34 12.5 -60t29.5 -41.5t48 -28.5t53.5 -18.5t59.5 -13.5q56 18 90.5 58.5t34.5 99.5q0 61 -44 95t-118 34q-75 0 -120.5 -33.5t-45.5 -91.5z" />
    <glyph glyph-name="partialdiff" unicode="&#x2202;" horiz-adv-x="1173" 
d="M1053 862q0 -403 -150.5 -642.5t-382.5 -239.5q-185 0 -293 111t-108 343q0 282 136.5 428t360.5 146q172 0 279 -93q-15 586 -334 586q-77 0 -166 -17t-145 -48q-27 31 -27 59q0 49 31 66q125 69 321 69q106 0 189.5 -43.5t137 -115.5t88 -173t49 -208t14.5 -228z
M606 862q-148 0 -236.5 -106.5t-88.5 -313.5q0 -167 66 -243t179 -76q143 0 246.5 174.5t120.5 456.5q-96 108 -287 108z" />
    <glyph glyph-name="Delta" unicode="&#x2206;" horiz-adv-x="1314" 
d="M150 0q-61 0 -84 23l518 1325q31 86 110 86q76 0 140 -170l469 -1227q-17 -37 -74 -37h-1079zM694 1214l-424 -1075h840z" />
    <glyph glyph-name="product" unicode="&#x220f;" horiz-adv-x="1568" 
d="M1450 1282h-184v-1698q-25 -18 -78 -18q-84 0 -84 78v1638h-639v-1696q-20 -20 -90 -20t-70 78v1638h-233q-19 38 -19 68q0 42 18.5 63t75.5 21h1350q19 -19 19 -66q0 -39 -17 -62.5t-49 -23.5z" />
    <glyph glyph-name="summation" unicode="&#x2211;" horiz-adv-x="1423" 
d="M1249 -403h-1153q-20 33 -20 73q0 33 14 47l615 809l-584 760q-12 36 -12 66q0 41 18.5 61.5t73.5 20.5h1075q12 -12 12 -56q0 -92 -102 -92h-860l565 -727q0 -27 -25 -63l-557 -758h1030q17 -17 17 -62q0 -38 -23 -58.5t-84 -20.5z" />
    <glyph glyph-name="minus" unicode="&#x2212;" horiz-adv-x="1073" 
d="M889 469h-762q-16 40 -16 80q0 32 16 52t49 20h770q17 -27 17 -74q0 -78 -74 -78z" />
    <glyph glyph-name="radical" unicode="&#x221a;" horiz-adv-x="1232" 
d="M70 733h364l207 -588l377 1239q15 50 82 50q46 0 88 -25l-440 -1391q-45 -18 -121 -18q-87 0 -111 78l-199 520h-215q-22 0 -35.5 18.5t-13.5 49.5q0 18 17 67z" />
    <glyph glyph-name="infinity" unicode="&#x221e;" horiz-adv-x="1411" 
d="M1028 178q-205 0 -317 248q-57 -108 -139 -178t-181 -70q-135 0 -220 101.5t-85 269.5q0 176 83 280.5t220 104.5q102 0 183.5 -66.5t134.5 -175.5q52 113 127.5 177.5t193.5 64.5q130 0 213.5 -98.5t83.5 -282.5q0 -178 -81.5 -276.5t-215.5 -98.5zM397 324
q85 0 150.5 68t103.5 169q-41 105 -107 166t-147 61t-129.5 -63.5t-48.5 -167.5q0 -101 49.5 -167t128.5 -66zM1018 788q-159 0 -250 -231q41 -100 104 -166.5t148 -66.5q80 0 127 63.5t47 165.5q0 113 -46.5 174t-129.5 61z" />
    <glyph glyph-name="integral" unicode="&#x222b;" horiz-adv-x="759" 
d="M389 1477q0 -166 18.5 -377.5t41 -381.5t41 -376t18.5 -362q0 -108 -23 -182t-66.5 -112.5t-95 -54.5t-120.5 -16q-183 0 -183 78q0 27 15 61h166q34 0 58 8t47 28.5t35 63.5t13 107q2 166 -16 379.5t-41 387t-42 387t-19 376.5q0 90 23 154t66 99t96 50.5t122 15.5
q196 0 196 -75q0 -33 -12 -68h-174q-79 0 -121.5 -39.5t-42.5 -150.5z" />
    <glyph glyph-name="approxequal" unicode="&#x2248;" horiz-adv-x="1054" 
d="M326 453q76 0 216.5 -37t202.5 -37q109 0 166 57q17 -7 32 -30.5t15 -49.5q0 -45 -48 -77.5t-132 -32.5q-72 0 -234 34.5t-220 34.5q-50 0 -93.5 -20.5t-50.5 -40.5q-53 16 -53 74q0 41 56.5 83t142.5 42zM324 838q76 0 216.5 -37t202.5 -37q109 0 166 57q17 -7 32 -30.5
t15 -49.5q0 -45 -48 -77.5t-132 -32.5q-72 0 -234 34.5t-220 34.5q-50 0 -93.5 -20.5t-50.5 -40.5q-53 16 -53 74q0 41 56.5 83t142.5 42z" />
    <glyph glyph-name="notequal" unicode="&#x2260;" horiz-adv-x="1073" 
d="M741 1116q33 0 51 -14.5t9 -40.5l-424 -1118q-22 -11 -72 -11q-65 0 -39 72l414 1104q19 8 61 8zM889 252h-762q-16 40 -16 80q0 71 65 71h770q17 -27 17 -73q0 -78 -74 -78zM889 641h-762q-16 40 -16 80q0 32 16 52t49 20h770q17 -27 17 -74q0 -78 -74 -78z" />
    <glyph glyph-name="lessequal" unicode="&#x2264;" horiz-adv-x="692" 
d="M113 670l403 350q18 6 37 6q20 0 35.5 -16.5t15.5 -36.5q0 -21 -24 -49l-375 -326l381 -330q12 -16 12 -37q0 -22 -19 -38.5t-38 -16.5q-29 0 -56 27l-391 336q-2 3 -5 8t-5 7.5t-4.5 8t-4 10t-2.5 11.5t-1 14q0 24 8.5 38.5t32.5 33.5zM557 -6h-479q-17 38 -17 63
q0 68 72 68h485q15 -22 15 -62q0 -69 -76 -69z" />
    <glyph glyph-name="greaterequal" unicode="&#x2265;" horiz-adv-x="692" 
d="M565 532l-403 -350q-15 -6 -35 -6t-36.5 17t-16.5 36q0 24 26 50l373 325l-381 330q-10 13 -10 37q0 22 18 38.5t37 16.5q27 0 58 -25l389 -337q1 -1 6 -9t6.5 -10.5t4.5 -10t4 -14.5t1 -16q0 -24 -8 -37t-33 -35zM557 -6h-479q-17 38 -17 63q0 68 72 68h485
q15 -22 15 -62q0 -69 -76 -69z" />
    <glyph glyph-name="lozenge" unicode="&#x25ca;" horiz-adv-x="825" 
d="M772 711l-278 -635q-19 -43 -44.5 -59.5t-64.5 -16.5q-36 0 -57 12l-275 721l281 625q20 43 45 59.5t63 16.5q35 0 58 -13zM205 735l207 -532l211 495l-207 533z" />
    <glyph glyph-name="asuperior" unicode="&#xf6e9;" horiz-adv-x="577" 
d="M102 1104q-14 18 -14 41q0 40 58.5 61t129.5 21q89 0 144 -39.5t55 -120.5v-248q0 -33 27 -33h30q9 -9 9 -32q0 -37 -80 -37q-35 0 -55.5 19.5t-20.5 49.5q-92 -79 -199 -79q-69 0 -107 42t-38 113q0 66 42 104.5t120 41.5l182 8v22q0 97 -115 97q-104 0 -168 -31z
M205 793q93 0 180 65v88l-178 -16q-74 -6 -74 -66q0 -31 19 -51t53 -20z" />
    <glyph glyph-name="bsuperior" unicode="&#xf6ea;" horiz-adv-x="591" 
d="M172 1395v-230q69 62 150 62q95 0 150.5 -62.5t55.5 -181.5q0 -138 -67.5 -207t-177.5 -69q-107 0 -181 49q-26 19 -26 43v622q26 13 49 13q47 0 47 -39zM297 1126q-70 0 -125 -49v-246q46 -32 115 -32q67 0 105 44.5t38 127.5q0 75 -36 115t-97 40z" />
    <glyph glyph-name="dsuperior" unicode="&#xf6eb;" horiz-adv-x="632" 
d="M516 717q-62 0 -86 47q-66 -57 -156 -57t-150.5 63.5t-60.5 192.5t65.5 196.5t156.5 67.5q82 0 133 -45v215q0 37 41 37q33 0 55 -13v-596q0 -34 33 -34h35q8 -16 8 -31q0 -43 -74 -43zM293 799q72 0 125 37v247q-44 41 -119 41q-54 0 -94.5 -39.5t-40.5 -117.5
q0 -83 35.5 -125.5t93.5 -42.5z" />
    <glyph glyph-name="esuperior" unicode="&#xf6ec;" horiz-adv-x="567" 
d="M506 946h-344q4 -73 45 -111t108 -38q51 0 99.5 13.5t72.5 29.5q23 -18 23 -41q0 -30 -27 -45q-63 -47 -178 -47q-110 0 -176 72t-66 188q0 123 72 191.5t174 68.5q100 0 152.5 -60t52.5 -159q0 -38 -8 -62zM309 1137q-49 0 -89.5 -31.5t-53.5 -89.5h258q0 121 -115 121z
" />
    <glyph glyph-name="isuperior" unicode="&#xf6ed;" horiz-adv-x="335" 
d="M135 1217q41 0 63.5 -20t22.5 -73v-303q0 -26 25 -26h33q6 -12 6 -31q0 -47 -82 -47q-42 0 -63 19.5t-21 64.5v295q0 30 -27 30h-31q-6 12 -6 37q0 54 80 54zM98 1354q0 61 62 61q61 0 61 -61q0 -60 -61 -60q-62 0 -62 60z" />
    <glyph glyph-name="lsuperior" unicode="&#xf6ee;" horiz-adv-x="350" 
d="M180 1391v-521q0 -40 15.5 -54.5t52.5 -14.5h74q4 -20 4 -29q0 -55 -121 -55q-125 0 -125 129v573q21 17 49 15q51 0 51 -43z" />
    <glyph glyph-name="msuperior" unicode="&#xf6ef;" horiz-adv-x="974" 
d="M137 1217q38 0 64.5 -24t27.5 -67q78 101 177 101q49 0 83 -26t46 -77q89 103 188 103q67 0 107 -42t40 -124v-248q0 -27 23 -27h39q6 -9 6 -24q0 -45 -92 -45q-40 0 -60 18.5t-20 61.5v237q0 88 -76 88q-82 0 -147 -75v-234q0 -27 20 -27h37q4 -12 4 -26q0 -43 -92 -43
q-39 0 -57.5 18.5t-18.5 61.5v239q0 86 -74 86q-72 0 -133 -71v-322q-14 -12 -59 -12q-23 0 -36 10.5t-13 40.5v328q0 30 -29 30h-37q-8 16 -8 41q0 50 90 50z" />
    <glyph glyph-name="osuperior" unicode="&#xf6f0;" horiz-adv-x="616" 
d="M63 965q0 130 68.5 196t179.5 66q112 0 177 -65.5t65 -196.5q0 -133 -66.5 -195.5t-179.5 -62.5q-112 0 -178 63.5t-66 194.5zM170 965q0 -168 137 -168t137 168q0 86 -35 128t-98 42t-102 -43t-39 -127z" />
    <glyph glyph-name="rsuperior" unicode="&#xf6f1;" horiz-adv-x="487" 
d="M123 1217q84 0 92 -78q81 88 160 88q94 0 94 -94q0 -76 -61 -76q-25 0 -39 14q0 45 -41 45q-63 0 -111 -63v-324q-12 -12 -57 -12q-49 0 -49 47v330q0 32 -25 32h-41q-8 28 -8 41q0 21 23.5 35.5t62.5 14.5z" />
    <glyph glyph-name="ssuperior" unicode="&#xf6f2;" horiz-adv-x="524" 
d="M260 1227q89 0 139 -26t50 -58q0 -38 -21 -53q-19 15 -67 25.5t-103 10.5q-100 0 -100 -53q0 -24 28.5 -38t92.5 -23q100 -15 144 -51.5t44 -104.5q0 -72 -51 -110.5t-152 -38.5q-92 0 -150.5 25t-58.5 59q0 35 21 53q28 -18 81 -32.5t101 -14.5q115 0 115 59
q0 28 -27 43.5t-92 22.5q-103 17 -144.5 51.5t-41.5 103.5q0 67 50 108.5t142 41.5z" />
    <glyph glyph-name="tsuperior" unicode="&#xf6f3;" horiz-adv-x="421" 
d="M334 1133h-117v-261q0 -39 14 -54t45 -15h101q8 -20 8 -29q0 -28 -30 -42.5t-109 -14.5q-60 0 -93.5 30t-33.5 103v283h-64q-8 13 -8 36q0 48 39 48h33v124q22 13 53 13q45 0 45 -43v-94h154q10 -7 10 -33q0 -51 -47 -51z" />
    <glyph glyph-name="exclam.sc" unicode="&#xf721;" horiz-adv-x="352" 
d="M172 1143q34 0 57 -14t23 -44v-811q-18 -18 -76 -18q-76 0 -76 80v790q24 17 72 17zM92 84q0 84 86 84t86 -84t-86 -84t-86 84z" />
    <glyph glyph-name="dollar.osf" unicode="&#xf724;" horiz-adv-x="1226" 
d="M639 1669q58 0 55 -55v-164q118 -7 202 -41.5t132 -79.5q33 -33 33 -80q0 -44 -45 -75q-114 97 -324 110l-2 -491q226 -67 325.5 -159t102.5 -259q0 -172 -109 -275t-325 -118l-2 -205q-18 -15 -59 -15q-30 0 -45.5 15t-14.5 55v150q-218 6 -362 94q-90 59 -90 121
q0 50 28 82q68 -62 182.5 -99.5t243.5 -42.5l2 525q-236 70 -329 159t-93 254q0 77 25 141.5t75.5 116t134 82.5t193.5 37l2 199q25 18 64 18zM963 369q0 91 -61 149.5t-214 110.5l-2 -488q142 11 209.5 72.5t67.5 155.5zM301 1073q0 -85 59.5 -139t208.5 -107l2 455
q-143 -7 -206.5 -64t-63.5 -145z" />
    <glyph glyph-name="ampersand.sc" unicode="&#xf726;" horiz-adv-x="1441" 
d="M1227 592h-137q-33 -235 -164 -402q100 -38 211 -38h163q17 -27 17 -68q0 -44 -36 -64t-130 -20q-173 0 -332 86q-136 -102 -309 -102q-190 0 -295.5 99.5t-105.5 264.5q0 140 74 225t194 123q-6 47 -6 95q0 178 91.5 262t276.5 84q232 0 232 -88q0 -45 -15 -68h-198
q-128 0 -181 -46.5t-53 -158.5q0 -161 78 -300t209 -226q65 68 108.5 159t57.5 183h-221q-17 39 -17 63q0 74 80 74h451q16 -20 16 -63q0 -74 -59 -74zM698 164q-106 81 -183.5 190.5t-113.5 233.5q-155 -68 -155 -236q0 -106 73 -170.5t201 -64.5q98 0 178 47z" />
    <glyph glyph-name="question.sc" unicode="&#xf73f;" horiz-adv-x="888" 
d="M653 766q0 106 -65 157.5t-178 51.5q-96 0 -172 -35.5t-107 -87.5q-57 24 -57 86q0 67 91.5 126.5t254.5 59.5q179 0 281 -88t102 -237q0 -146 -94 -233.5t-252 -102.5l10 -203q-20 -20 -72 -20q-58 0 -61 57l-8 201q0 40 16 59q56 1 108.5 13t99 35.5t75 65t28.5 95.5z
M324 84q0 84 86 84t86 -84t-86 -84t-86 84z" />
    <glyph glyph-name="a.sc" unicode="&#xf761;" horiz-adv-x="1148" 
d="M123 0q-56 0 -76 20l442 1096q36 25 91 25q60 0 84 -54l438 -1052q-17 -35 -76 -35q-70 0 -88 59l-88 205h-555l-88 -215q-9 -27 -28.5 -38t-55.5 -11zM567 934l-221 -543h451z" />
    <glyph glyph-name="b.sc" unicode="&#xf762;" horiz-adv-x="1185" 
d="M268 1141h377q74 0 134 -15.5t109 -50t76 -96t27 -145.5q0 -149 -112 -230q184 -82 184 -285q0 -83 -33 -146.5t-89.5 -100t-123.5 -54.5t-143 -18h-406q-35 0 -55 14.5t-20 53.5v1060q23 13 75 13zM618 524h-276v-399h287q62 0 110 9.5t88.5 31t62 62t21.5 98.5
q0 198 -293 198zM616 1018h-274v-373h272q110 3 172 47t62 146q0 98 -59.5 139t-172.5 41z" />
    <glyph glyph-name="c.sc" unicode="&#xf763;" horiz-adv-x="1136" 
d="M993 252q24 0 45 -15.5t21 -46.5q0 -52 -51 -88q-132 -118 -371 -118q-115 0 -207.5 34t-162 103t-107 183.5t-37.5 266.5q0 292 136 439t370 147q142 0 225.5 -32t142.5 -91q41 -35 41 -82q0 -25 -15 -44t-38 -27q-120 133 -350 133q-167 0 -265 -111t-98 -336
q0 -446 373 -446q220 0 348 131z" />
    <glyph glyph-name="d.sc" unicode="&#xf764;" horiz-adv-x="1234" 
d="M268 1141h238q306 0 456 -141.5t150 -444.5q0 -151 -38.5 -259t-114 -172.5t-177 -94t-235.5 -29.5h-279q-35 0 -55 14.5t-20 53.5v1058q26 15 75 15zM512 1001h-168v-868h199q210 0 314 98t104 322q0 230 -111 339t-338 109z" />
    <glyph glyph-name="e.sc" unicode="&#xf765;" 
d="M868 514h-524v-371h664q16 -20 16 -63q0 -35 -15.5 -57.5t-43.5 -22.5h-707q-65 0 -65 70v1056q21 15 69 15h746q16 -20 16 -62q0 -36 -15.5 -58t-43.5 -22h-621v-344h563q17 -21 17 -69q0 -72 -56 -72z" />
    <glyph glyph-name="f.sc" unicode="&#xf766;" horiz-adv-x="1105" 
d="M868 494h-524v-480q-21 -14 -86 -14t-65 70v1056q21 15 69 15h735q17 -21 17 -62q0 -37 -15 -58.5t-45 -21.5h-610v-364h565q19 -24 19 -62q0 -36 -15.5 -57.5t-44.5 -21.5z" />
    <glyph glyph-name="g.sc" unicode="&#xf767;" horiz-adv-x="1241" 
d="M967 475h-318q-16 26 -16 62q0 28 18 43.5t70 15.5h270q60 0 80.5 -25.5t20.5 -91.5v-465q-26 -16 -68 -16q-29 0 -43 12.5t-14 48.5v93q-136 -168 -344 -168q-80 0 -152.5 20.5t-136.5 66.5t-110.5 113.5t-73.5 166.5t-27 220q0 147 40 261t112.5 184t167.5 105.5
t210 35.5q176 0 283.5 -58t107.5 -112q0 -28 -19 -46t-42 -21q-58 49 -133.5 75.5t-194.5 26.5q-81 0 -150.5 -28t-124 -82.5t-85.5 -143t-31 -201.5q0 -119 31.5 -209.5t85.5 -143t119 -78t139 -25.5q100 0 185 47t143 133v184z" />
    <glyph glyph-name="h.sc" unicode="&#xf768;" horiz-adv-x="1298" 
d="M1034 1141q72 0 72 -58v-1069q-21 -14 -72 -14q-38 0 -59 14.5t-21 55.5v446h-610v-498q-22 -18 -86 -18q-65 0 -65 70v1056q30 15 79 15q72 0 72 -58v-430h610v473q26 15 80 15z" />
    <glyph glyph-name="i.sc" unicode="&#xf769;" horiz-adv-x="536" 
d="M274 1141q70 0 70 -58v-1065q-30 -18 -82 -18q-33 0 -51 15.5t-18 54.5v1056q30 15 81 15z" />
    <glyph glyph-name="j.sc" unicode="&#xf76a;" horiz-adv-x="710" 
d="M451 1141q33 0 50 -13.5t17 -46.5v-852q0 -229 -239 -229q-114 0 -171 24t-57 64q0 33 12 55h179q68 0 100.5 28t32.5 91v864q27 15 76 15z" />
    <glyph glyph-name="k.sc" unicode="&#xf76b;" horiz-adv-x="1099" 
d="M270 1141q70 0 70 -56v-483q142 99 263.5 248.5t174.5 279.5q29 11 66 11q22 0 38.5 -15.5t16.5 -38.5q0 -27 -25 -79q-129 -233 -323 -396q35 -32 79 -95.5t82.5 -126.5t78.5 -122.5t82 -97t79 -37.5h49q13 -16 13 -51q0 -82 -111 -82q-53 0 -103.5 37.5t-95.5 101.5
t-84 130.5t-86 143.5t-85 122q-46 -33 -109 -70v-449q-26 -16 -84 -16q-31 0 -47 15t-16 53v1056q27 17 77 17z" />
    <glyph glyph-name="l.sc" unicode="&#xf76c;" horiz-adv-x="968" 
d="M268 1141q76 0 76 -56v-942h561q17 -28 17 -63q0 -80 -86 -80h-578q-65 0 -65 68v1058q21 15 75 15z" />
    <glyph glyph-name="m.sc" unicode="&#xf76d;" horiz-adv-x="1583" 
d="M786 59q-37 0 -60 18t-40 62l-317 733l-56 -817q-5 -55 -77 -55q-53 0 -74 12l78 1026q7 103 104 103q44 0 76 -13l364 -866l310 799q22 80 100 80q52 0 92 -19l137 -1102q-26 -20 -82 -20q-72 0 -79 55l-78 817l-295 -733q-14 -50 -38 -65t-65 -15z" />
    <glyph glyph-name="n.sc" unicode="&#xf76e;" horiz-adv-x="1302" 
d="M963 39l-627 825l8 -848q-19 -16 -86 -16q-30 0 -47.5 14t-17.5 54v1058q34 15 79 15q44 0 70 -37l623 -840l-4 858q28 21 73 21q33 0 56.5 -14t23.5 -44v-1071q-21 -14 -78 -14q-45 0 -73 39z" />
    <glyph glyph-name="o.sc" unicode="&#xf76f;" horiz-adv-x="1259" 
d="M123 571q0 148 37.5 261t106.5 183.5t161.5 106t206.5 35.5q233 0 367.5 -146.5t134.5 -439.5q0 -155 -36.5 -269.5t-104.5 -183t-157.5 -101.5t-203.5 -33q-115 0 -206.5 34t-161 103t-107 183.5t-37.5 266.5zM270 567q0 -235 99 -344.5t268 -109.5q350 0 350 454
q0 227 -94.5 342t-257.5 115q-168 0 -266.5 -115.5t-98.5 -341.5z" />
    <glyph glyph-name="p.sc" unicode="&#xf770;" horiz-adv-x="1112" 
d="M268 1141h377q152 0 249 -84.5t97 -253.5q0 -83 -22.5 -147t-59 -103.5t-88.5 -64.5t-104.5 -34.5t-112.5 -9.5h-260v-430q-28 -14 -84 -14q-67 0 -67 68v1060q29 13 75 13zM623 1018h-279v-449h231q131 0 202 51.5t71 172.5q0 112 -60 168.5t-165 56.5z" />
    <glyph glyph-name="r.sc" unicode="&#xf772;" horiz-adv-x="1196" 
d="M268 1141h377q73 0 134.5 -17.5t111.5 -53.5t78 -99.5t28 -147.5q0 -126 -78 -209.5t-194 -111.5q32 -40 75 -112t73 -124t72 -92.5t83 -40.5h51q13 -22 13 -51q0 -82 -113 -82q-52 0 -97.5 33t-82.5 90.5t-69 118t-73 131.5t-79 116h-234v-473q-22 -16 -76 -16
q-35 0 -55 14.5t-20 53.5v1060q26 13 75 13zM616 1022h-272v-414h250q113 0 185.5 54t72.5 157q0 105 -62.5 154t-173.5 49z" />
    <glyph glyph-name="s.sc" unicode="&#xf773;" horiz-adv-x="1083" 
d="M535 1157q250 0 352 -98q31 -27 31 -72q0 -35 -37 -72q-123 84 -346 84q-123 0 -184.5 -42.5t-61.5 -112.5q0 -68 65 -113.5t230 -87.5q204 -49 293 -122.5t92 -215.5q2 -148 -106 -234.5t-320 -86.5q-228 0 -355 77q-75 46 -75 101q0 50 26 76q66 -49 173.5 -78
t224.5 -29q147 0 213.5 46.5t66.5 121.5q0 74 -60 119t-222 84q-220 54 -308 128.5t-88 217.5q0 139 101 224t295 85z" />
    <glyph glyph-name="t.sc" unicode="&#xf774;" horiz-adv-x="1062" 
d="M961 999h-355v-985q-22 -14 -84 -14q-65 0 -65 68v931h-396q-18 32 -18 72q0 30 18.5 50t59.5 20h883q16 -24 16 -62q0 -80 -59 -80z" />
    <glyph glyph-name="u.sc" unicode="&#xf775;" horiz-adv-x="1241" 
d="M918 434v692q30 15 77 15q76 0 76 -58v-667q0 -432 -450 -432q-225 0 -333 105.5t-108 326.5l-2 710q21 15 78 15q76 0 76 -56v-651q0 -160 67.5 -236.5t221.5 -76.5q161 0 229 75.5t68 237.5z" />
    <glyph glyph-name="v.sc" unicode="&#xf776;" horiz-adv-x="1155" 
d="M145 1141q59 0 78 -51l375 -885q112 177 227.5 469t137.5 450q33 17 79 17q23 0 39.5 -10.5t16.5 -28.5q0 -32 -13 -96q-29 -141 -161.5 -448t-280.5 -548q-38 -10 -68 -10q-53 0 -73 59l-445 1065q31 17 88 17z" />
    <glyph glyph-name="w.sc" unicode="&#xf777;" horiz-adv-x="1761" 
d="M807 1141q61 0 80 -51l368 -885q105 166 201.5 454.5t120.5 464.5q33 17 80 17q23 0 39 -10.5t16 -28.5q0 -25 -12 -96q-31 -162 -144.5 -463.5t-255.5 -532.5q-33 -10 -65 -10q-53 0 -76 59l-235 564q-162 -374 -310 -611q-33 -10 -63 -10q-53 0 -76 59l-428 1063
q34 17 90 17q59 0 78 -51l356 -883q62 100 140 267.5t139 328.5l-133 321q34 17 90 17z" />
    <glyph glyph-name="x.sc" unicode="&#xf778;" horiz-adv-x="1193" 
d="M201 1141q42 0 70.5 -17.5t56.5 -56.5l270 -360l283 378q36 56 108 56q64 0 82 -29l-383 -524l422 -559q-37 -29 -100 -29q-34 0 -68 16.5t-55 46.5l-305 406l-316 -422q-30 -47 -104 -47q-55 0 -78 33l408 557l-386 514q30 37 95 37z" />
    <glyph glyph-name="y.sc" unicode="&#xf779;" horiz-adv-x="1058" 
d="M618 383v-365q-22 -18 -81 -18q-70 0 -70 53v326q-280 387 -391 741q32 21 84 21q32 0 48 -10t25 -37q97 -305 314 -609q104 148 197 343.5t116 304.5q21 8 72 8q23 0 38 -14.5t15 -36.5q-3 -93 -127.5 -324.5t-239.5 -382.5z" />
    <glyph glyph-name="z.sc" unicode="&#xf77a;" horiz-adv-x="1134" 
d="M983 1010l-696 -879h766q12 -24 12 -63q0 -30 -16.5 -49t-53.5 -19h-913q-12 24 -12 53q0 42 24 76l697 872h-660q-16 36 -16 68q0 31 15.5 51.5t47.5 20.5h823q13 -16 13 -49q0 -37 -31 -82z" />
    <glyph glyph-name="exclamdown.sc" unicode="&#xf7a1;" horiz-adv-x="352" 
d="M182 0q-80 0 -80 57v811q19 19 76 19q76 0 76 -80v-791q-22 -16 -72 -16zM262 1059q0 -84 -86 -84t-86 84t86 84t86 -84z" />
    <glyph glyph-name="cent.osf" unicode="&#xf7a2;" horiz-adv-x="1030" 
d="M920 868q2 -15 -9.5 -38.5t-29.5 -41.5q-65 31 -110 44t-116 16l-4 -723q81 6 151.5 29t102.5 49q29 -25 29 -68q0 -58 -64 -94q-93 -50 -221 -57l-2 -156q-19 -16 -63 -16q-26 0 -40 12t-14 43l2 117q-190 22 -299.5 156.5t-109.5 351.5q0 103 23.5 187.5t63.5 141.5
t94.5 98t113.5 61t125 26l2 161q26 15 55 15q62 -3 62 -56l-3 -125q55 -3 98.5 -13.5t65 -20.5t54.5 -29q40 -23 43 -70zM262 489q0 -152 73.5 -245.5t199.5 -112.5l4 717q-124 -11 -200.5 -99t-76.5 -260z" />
    <glyph glyph-name="questiondown.sc" unicode="&#xf7bf;" horiz-adv-x="888" 
d="M236 358q0 -106 65 -157t178 -51q96 0 172 35t107 87q57 -24 57 -86q0 -67 -91.5 -126.5t-254.5 -59.5q-178 0 -280.5 88.5t-102.5 237.5q0 146 94 233.5t252 102.5l-10 202q21 21 72 21q58 0 61 -58l8 -200q0 -41 -16 -60q-56 -1 -108.5 -13t-99 -35.5t-75 -65
t-28.5 -95.5zM565 1040q0 -84 -86 -84t-86 84t86 84t86 -84z" />
    <glyph glyph-name="Euro.lf" horiz-adv-x="1396" 
d="M821 510h-418q66 -369 426 -369q128 0 235.5 50t145.5 120q27 8 60 -4q23 -7 33 -20q30 -34 -3 -90q-21 -35 -58.5 -68t-94 -65.5t-139.5 -52t-179 -19.5q-117 0 -213 29t-173 90t-128.5 162t-72.5 237h-179q-12 24 -12 45q-3 18 0 39q5 23 24 34t64 11h86v76q0 53 2 80
h-164q-14 28 -14 55q0 39 16.5 56.5t73.5 17.5h103q43 261 196 392.5t391 131.5q156 0 270.5 -35.5t155.5 -95.5q16 -22 18.5 -46t-7.5 -36q-24 -42 -66 -49q-124 110 -371 110q-168 0 -277.5 -93.5t-145.5 -278.5h575q14 -14 14 -54q0 -75 -104 -75h-508q-2 -29 -2 -84
q0 -49 2 -72h530q15 -12 15 -51q0 -78 -107 -78z" />
    <glyph glyph-name="Euro.sc" horiz-adv-x="1234" 
d="M709 395h-330q55 -260 342 -260q105 0 193.5 39t121.5 96q35 5 60 -6q22 -8 30 -20q27 -31 -2 -82q-41 -67 -145.5 -117.5t-257.5 -50.5q-202 0 -332 97t-168 304h-149q-13 18 -13 43q-3 20 0 37q5 20 22 28.5t58 8.5h68q-2 20 -2 53q0 10 1 30t1 30h-135q-17 27 -17 51
q0 36 16 51.5t68 15.5h82q37 204 168 307t330 103q137 0 235.5 -29.5t132.5 -85.5q27 -40 7 -71q-22 -40 -62 -47q-112 90 -313 90q-133 0 -220.5 -66.5t-119.5 -200.5h473q14 -11 14 -47q0 -71 -96 -71h-412q-2 -20 -2 -62q0 -33 2 -51h433q14 -14 14 -45q0 -72 -96 -72z
" />
    <glyph glyph-name="Euro.tf" horiz-adv-x="1294" 
d="M760 510h-418q66 -369 426 -369q128 0 235.5 50t145.5 120q26 7 59 -4q23 -7 33 -20q31 -34 -2 -90q-21 -35 -58.5 -68t-94 -65.5t-139.5 -52t-179 -19.5q-240 0 -393.5 125.5t-194.5 392.5h-178q-12 24 -12 45q-3 18 0 39q5 23 24 34t64 11h86v76q0 53 2 80h-164
q-14 28 -14 55q0 39 16.5 56.5t73.5 17.5h102q43 261 196.5 392.5t391.5 131.5q156 0 270.5 -35.5t155.5 -95.5q16 -22 18 -46t-8 -36q-24 -42 -65 -49q-124 110 -371 110q-169 0 -278.5 -93.5t-145.5 -278.5h576q14 -14 14 -54q0 -75 -105 -75h-507q-3 -43 -3 -84
q0 -37 3 -72h530q14 -11 14 -51q0 -78 -106 -78z" />
    <glyph glyph-name="Euro.tosf" horiz-adv-x="1294" 
d="M760 510h-418q66 -369 426 -369q128 0 235.5 50t145.5 120q26 7 59 -4q23 -7 33 -20q31 -34 -2 -90q-21 -35 -58.5 -68t-94 -65.5t-139.5 -52t-179 -19.5q-240 0 -393.5 125.5t-194.5 392.5h-178q-12 24 -12 45q-3 18 0 39q5 23 24 34t64 11h86v76q0 53 2 80h-164
q-14 28 -14 55q0 39 16.5 56.5t73.5 17.5h102q43 261 196.5 392.5t391.5 131.5q156 0 270.5 -35.5t155.5 -95.5q16 -22 18 -46t-8 -36q-24 -42 -65 -49q-124 110 -371 110q-169 0 -278.5 -93.5t-145.5 -278.5h576q14 -14 14 -54q0 -75 -105 -75h-507q-3 -43 -3 -84
q0 -37 3 -72h530q14 -11 14 -51q0 -78 -106 -78z" />
    <glyph glyph-name="Idotaccent.sc" horiz-adv-x="536" 
d="M274 1141q70 0 70 -58v-1065q-30 -18 -82 -18q-33 0 -51 15.5t-18 54.5v1056q30 15 81 15zM174 1386q0 95 94 95t94 -95q0 -94 -94 -94t-94 94z" />
    <glyph glyph-name="Ldot.latn_CAT" horiz-adv-x="1105" 
d="M295 1434q32 0 55 -15.5t23 -48.5v-1218h678q18 -23 18 -66q0 -86 -92 -86h-692q-72 0 -72 74v1345q30 15 82 15zM717 684q0 96 92 96q94 0 94 -96q0 -92 -94 -92q-92 0 -92 92z" />
    <glyph glyph-name="S_S" horiz-adv-x="2492" 
d="M612 1454q295 0 424 -125q33 -33 33 -80q0 -44 -45 -75q-56 47 -159 79.5t-253 32.5q-154 0 -228.5 -58.5t-74.5 -154.5t79.5 -156t285.5 -120q241 -64 346 -156t106 -266q2 -184 -124.5 -289.5t-376.5 -105.5q-258 0 -414 96q-92 59 -92 121q0 50 28 82q76 -66 204 -104
t267 -38q183 0 268 63.5t85 168.5q0 101 -75 162.5t-273 117.5q-263 72 -366 163t-103 263q0 170 115.5 274.5t342.5 104.5zM1858 1454q294 0 423 -125q33 -33 33 -80q0 -44 -45 -75q-56 47 -158.5 79.5t-252.5 32.5q-155 0 -229.5 -58.5t-74.5 -154.5t79.5 -156t285.5 -120
q241 -64 346.5 -156.5t106.5 -265.5q2 -184 -125 -289.5t-377 -105.5q-258 0 -414 96q-92 59 -92 121q0 49 29 82q76 -66 204 -104t267 -38q183 0 267.5 63.5t84.5 168.5q0 101 -75 162.5t-273 117.5q-263 72 -366 163t-103 263q0 170 116 274.5t343 104.5z" />
    <glyph glyph-name="T_h" horiz-adv-x="2172" 
d="M1180 76v1206h-490v-1266q-21 -16 -88 -16t-67 74v1208h-484q-18 36 -18 78q0 31 20 52.5t64 21.5h1196q20 -20 20 -72v-567q67 95 166.5 154t206.5 59q139 0 213 -82t74 -244v-516q0 -51 45 -51h63q10 -13 10 -45t-37 -51t-106 -19q-64 0 -97.5 36t-33.5 116v493
q0 105 -43 155t-133 50q-95 0 -183.5 -57t-144.5 -158v-619q-22 -16 -80 -16q-33 0 -53 15.5t-20 60.5z" />
    <glyph glyph-name="Tbar_h" horiz-adv-x="2172" 
d="M932 612h-242v-596q-21 -16 -88 -16t-67 74v538h-304q-18 36 -18 72q0 80 78 80h244v518h-484q-18 36 -18 78q0 31 20 52.5t64 21.5h1196q20 -20 20 -72v-567q67 95 166.5 154t206.5 59q139 0 213 -82t74 -244v-516q0 -51 45 -51h63q10 -13 10 -45t-37 -51t-106 -19
q-64 0 -97.5 36t-33.5 116v493q0 105 -43 155t-133 50q-95 0 -183.5 -57t-144.5 -158v-619q-22 -16 -80 -16q-33 0 -53 15.5t-20 60.5v1206h-490v-518h303q17 -24 17 -72q0 -39 -17 -59.5t-61 -20.5z" />
    <glyph glyph-name="Tcaron_h" horiz-adv-x="2172" 
d="M1180 76v1206h-490v-1266q-21 -16 -88 -16t-67 74v1208h-484q-18 36 -18 78q0 31 20 52.5t64 21.5h1196q20 -20 20 -72v-567q67 95 166.5 154t206.5 59q139 0 213 -82t74 -244v-516q0 -51 45 -51h63q10 -13 10 -45t-37 -51t-106 -19q-64 0 -97.5 36t-33.5 116v493
q0 105 -43 155t-133 50q-95 0 -183.5 -57t-144.5 -158v-619q-22 -16 -80 -16q-33 0 -53 15.5t-20 60.5zM608 1577q-22 0 -35 10q-41 18 -146.5 101.5t-147.5 105.5q2 30 24 50t55 20q12 0 27 -5t35 -17.5t35 -22t41 -31t37.5 -31t41 -34.5t35.5 -31q11 9 36.5 31t40.5 34.5
t39 31.5t40.5 30t35.5 22.5t34.5 17t27.5 5.5q32 0 55 -20.5t25 -49.5q-42 -22 -148 -105t-147 -102q-20 -10 -41 -10z" />
    <glyph glyph-name="Tcommaaccent_h" horiz-adv-x="2172" 
d="M1180 76v1206h-490v-1266q-21 -16 -88 -16t-67 74v1208h-484q-18 36 -18 78q0 31 20 52.5t64 21.5h1196q20 -20 20 -72v-567q67 95 166.5 154t206.5 59q139 0 213 -82t74 -244v-516q0 -51 45 -51h63q10 -13 10 -45t-37 -51t-106 -19q-64 0 -97.5 36t-33.5 116v493
q0 105 -43 155t-133 50q-95 0 -183.5 -57t-144.5 -158v-619q-22 -16 -80 -16q-33 0 -53 15.5t-20 60.5zM618 -319q-45 0 -69.5 23.5t-24.5 68.5q0 96 94 96q50 0 75.5 -31.5t25.5 -109.5q0 -111 -31 -176.5t-74 -65.5q-45 0 -53 35q26 25 41.5 74.5t15.5 85.5z" />
    <glyph glyph-name="aacute.sc" horiz-adv-x="1148" 
d="M123 0q-56 0 -76 20l442 1096q36 25 91 25q60 0 84 -54l438 -1052q-17 -35 -76 -35q-70 0 -88 59l-88 205h-555l-88 -215q-9 -27 -28.5 -38t-55.5 -11zM567 934l-221 -543h451zM373 1341q25 14 91.5 74t130.5 108t101 48q78 0 78 -70q-39 -21 -110.5 -78t-130.5 -98
t-89 -41q-59 0 -71 57z" />
    <glyph glyph-name="abreve.sc" horiz-adv-x="1148" 
d="M123 0q-56 0 -76 20l442 1096q36 25 91 25q60 0 84 -54l438 -1052q-17 -35 -76 -35q-70 0 -88 59l-88 205h-555l-88 -215q-9 -27 -28.5 -38t-55.5 -11zM567 934l-221 -543h451zM395 1538q3 -64 45 -102q44 -41 135 -41q88 0 130 39q40 36 49 102q18 15 59 12
q28 0 40 -14.5t9 -34.5q-13 -88 -80 -149q-71 -62 -207 -62q-131 0 -206 60q-77 62 -84 155q-3 44 47 47q34 3 63 -12z" />
    <glyph glyph-name="acircumflex.sc" horiz-adv-x="1148" 
d="M123 0q-56 0 -76 20l442 1096q36 25 91 25q60 0 84 -54l438 -1052q-17 -35 -76 -35q-70 0 -88 59l-88 205h-555l-88 -215q-9 -27 -28.5 -38t-55.5 -11zM567 934l-221 -543h451zM899 1343q-10 -47 -49 -53q-16 -6 -39 0q-26 7 -64.5 32t-92.5 66.5t-81 59.5
q-26 -18 -81 -59.5t-93.5 -66.5t-64.5 -32q-20 -7 -37 0q-39 6 -49 53q25 13 90.5 73t129 108.5t101.5 48.5q37 0 100.5 -47.5t131.5 -107.5t98 -75z" />
    <glyph glyph-name="adieresis.sc" horiz-adv-x="1148" 
d="M123 0q-56 0 -76 20l442 1096q36 25 91 25q60 0 84 -54l438 -1052q-17 -35 -76 -35q-70 0 -88 59l-88 205h-555l-88 -215q-9 -27 -28.5 -38t-55.5 -11zM567 934l-221 -543h451zM262 1415q0 94 94 94q45 0 70 -24t25 -70q0 -92 -95 -92q-94 0 -94 92zM692 1415q0 94 92 94
q95 0 95 -94q0 -92 -95 -92q-92 0 -92 92z" />
    <glyph glyph-name="ae.sc" horiz-adv-x="1720" 
d="M1556 0h-704q-68 0 -68 70v194h-479l-92 -215q-9 -27 -28.5 -38t-55.5 -11q-62 0 -82 20l467 1096q35 25 102 25h983q17 -21 17 -62q0 -37 -15 -58.5t-45 -21.5h-620v-344h563q17 -17 17 -69q0 -72 -56 -72h-524v-371h663q17 -21 17 -63q0 -36 -15.5 -58t-44.5 -22z
M618 999l-260 -604h426v604h-166z" />
    <glyph glyph-name="aeacute.sc" horiz-adv-x="1720" 
d="M1556 0h-704q-68 0 -68 70v194h-479l-92 -215q-9 -27 -28.5 -38t-55.5 -11q-62 0 -82 20l467 1096q35 25 102 25h983q17 -21 17 -62q0 -37 -15 -58.5t-45 -21.5h-620v-344h563q17 -17 17 -69q0 -72 -56 -72h-524v-371h663q17 -21 17 -63q0 -36 -15.5 -58t-44.5 -22z
M618 999l-260 -604h426v604h-166zM817 1341q25 14 92 74t131 108t101 48q78 0 78 -70q-39 -21 -110.5 -78t-130.5 -98t-89 -41q-60 0 -72 57z" />
    <glyph glyph-name="agrave.sc" horiz-adv-x="1148" 
d="M123 0q-56 0 -76 20l442 1096q36 25 91 25q60 0 84 -54l438 -1052q-17 -35 -76 -35q-70 0 -88 59l-88 205h-555l-88 -215q-9 -27 -28.5 -38t-55.5 -11zM567 934l-221 -543h451zM772 1339q-12 -57 -70 -57q-30 0 -89 41t-131 98t-111 78q4 70 80 70q36 0 99.5 -48
t130 -108t91.5 -74z" />
    <glyph glyph-name="amacron.sc" horiz-adv-x="1148" 
d="M123 0q-56 0 -76 20l442 1096q36 25 91 25q60 0 84 -54l438 -1052q-17 -35 -76 -35q-70 0 -88 59l-88 205h-555l-88 -215q-9 -27 -28.5 -38t-55.5 -11zM567 934l-221 -543h451zM801 1346h-545q-16 32 -16 53q0 36 17.5 52.5t74.5 16.5h561q16 -16 16 -49q0 -73 -108 -73z
" />
    <glyph glyph-name="aogonek.sc" horiz-adv-x="1148" 
d="M975 23q-15 5 -25 16t-20 37l-80 188h-555l-88 -215q-9 -27 -28.5 -38t-55.5 -11q-56 0 -76 20l442 1096q36 25 91 25q60 0 84 -54l440 -1064q-53 -38 -92 -99t-39 -112q0 -49 29 -67.5t85 -18.5q11 -26 11 -45q0 -48 -70 -48q-61 0 -109.5 38t-48.5 118q0 107 105 234z
M567 934l-221 -543h451z" />
    <glyph glyph-name="aring.sc" horiz-adv-x="1148" 
d="M123 0q-56 0 -76 20l442 1096q36 25 91 25q60 0 84 -54l438 -1052q-17 -35 -76 -35q-70 0 -88 59l-88 205h-555l-88 -215q-9 -27 -28.5 -38t-55.5 -11zM567 934l-221 -543h451zM389 1452q0 180 180 180q89 0 135 -46.5t46 -133.5q0 -88 -46 -134t-135 -46
q-180 0 -180 180zM473 1452q0 -46 24.5 -71t71.5 -25q46 0 71.5 25t25.5 71q0 44 -26 70t-71 26q-96 0 -96 -96z" />
    <glyph glyph-name="at.case" horiz-adv-x="1771" 
d="M1333 -43q39 -20 39 -55q0 -47 -49 -72q-176 -86 -436 -86q-235 0 -419.5 97t-291 282t-106.5 430q0 179 59.5 330t166 257t259 165t332.5 59q181 0 333 -58t257.5 -160t164 -245t58.5 -311q0 -231 -113.5 -367.5t-283.5 -136.5q-99 0 -145 41.5t-46 108.5v22
q-193 -170 -362 -170q-119 0 -183.5 75.5t-64.5 201.5q0 103 68.5 165.5t199.5 69.5l342 23v73q0 49 -17.5 84t-49 53t-65.5 25.5t-75 7.5q-89 0 -174 -17t-121 -36q-26 16 -26 66q0 41 56 71.5t128.5 43t144.5 12.5q45 -1 84 -6.5t84.5 -23t78 -45.5t54 -78t21.5 -116v-467
q0 -45 19 -60t65 -15q104 0 177 107t73 294q0 136 -49.5 252.5t-137.5 200t-216 131t-279 47.5q-304 0 -493 -187.5t-189 -488.5q0 -207 90 -361.5t244 -233.5t350 -79q153 0 247.5 19.5t196.5 60.5zM782 213q77 0 156 37t174 110v160l-336 -28q-72 -7 -107.5 -42t-35.5 -90
q0 -65 38.5 -106t110.5 -41z" />
    <glyph glyph-name="atilde.sc" horiz-adv-x="1148" 
d="M123 0q-56 0 -76 20l442 1096q36 25 91 25q60 0 84 -54l438 -1052q-17 -35 -76 -35q-70 0 -88 59l-88 205h-555l-88 -215q-9 -27 -28.5 -38t-55.5 -11zM567 934l-221 -543h451zM403 1501q59 0 169.5 -31.5t158.5 -31.5q86 0 129 49q13 -7 25 -27t12 -43
q0 -39 -37.5 -66.5t-103.5 -27.5q-56 0 -183 29.5t-172 29.5q-38 0 -71.5 -17.5t-38.5 -35.5q-41 13 -41 64q0 36 43.5 72t109.5 36z" />
    <glyph glyph-name="braceleft.case" horiz-adv-x="655" 
d="M418 1567q174 0 174 -90q0 -34 -14 -56h-142q-48 0 -75 -30t-27 -88v-416q0 -84 -29.5 -122t-62.5 -42v-8q31 -2 61.5 -44.5t30.5 -127.5v-412q0 -111 100 -111h146q12 -18 12 -51q0 -45 -52 -67.5t-145 -22.5q-84 0 -143 52t-59 159v447q0 94 -80 106q-45 9 -45 78
q0 45 14 63q45 -2 78 30t33 81v438q0 125 64.5 179.5t160.5 54.5z" />
    </font>
</defs>
</svg>
